G04 #@! TF.GenerationSoftware,KiCad,Pcbnew,8.0.1*
G04 #@! TF.CreationDate,2024-04-29T19:52:15-05:00*
G04 #@! TF.ProjectId,LED_Hexpansion_v2,4c45445f-4865-4787-9061-6e73696f6e5f,rev?*
G04 #@! TF.SameCoordinates,Original*
G04 #@! TF.FileFunction,Legend,Top*
G04 #@! TF.FilePolarity,Positive*
%FSLAX46Y46*%
G04 Gerber Fmt 4.6, Leading zero omitted, Abs format (unit mm)*
G04 Created by KiCad (PCBNEW 8.0.1) date 2024-04-29 19:52:15*
%MOMM*%
%LPD*%
G01*
G04 APERTURE LIST*
G04 Aperture macros list*
%AMRoundRect*
0 Rectangle with rounded corners*
0 $1 Rounding radius*
0 $2 $3 $4 $5 $6 $7 $8 $9 X,Y pos of 4 corners*
0 Add a 4 corners polygon primitive as box body*
4,1,4,$2,$3,$4,$5,$6,$7,$8,$9,$2,$3,0*
0 Add four circle primitives for the rounded corners*
1,1,$1+$1,$2,$3*
1,1,$1+$1,$4,$5*
1,1,$1+$1,$6,$7*
1,1,$1+$1,$8,$9*
0 Add four rect primitives between the rounded corners*
20,1,$1+$1,$2,$3,$4,$5,0*
20,1,$1+$1,$4,$5,$6,$7,0*
20,1,$1+$1,$6,$7,$8,$9,0*
20,1,$1+$1,$8,$9,$2,$3,0*%
%AMFreePoly0*
4,1,87,6.047416,3.588044,6.090111,3.543358,6.100000,3.500000,6.100000,-3.000000,6.080902,-3.058779,6.030901,-3.095106,6.000000,-3.100000,-6.000000,-3.100000,-6.058779,-3.080902,-6.095106,-3.030902,-6.100000,-3.000000,-6.100000,3.500000,-6.080902,3.558779,-6.030902,3.595106,-5.969098,3.595106,-5.919098,3.558779,-5.901613,3.517889,-5.000000,-1.440982,-4.098387,3.517889,-4.069082,3.572303,
-4.013390,3.599099,-3.952584,3.588044,-3.909889,3.543358,-3.901613,3.517889,-3.000000,-1.440982,-2.884704,-0.806854,-2.919135,-0.691848,-2.979715,-0.348279,-3.000000,0.000000,-2.979715,0.348279,-2.919135,0.691848,-2.819078,1.026060,-2.680898,1.346398,-2.506463,1.648527,-2.416235,1.769724,-2.098387,3.517889,-2.069082,3.572303,-2.013390,3.599099,-1.952584,3.588044,-1.909889,3.543359,
-1.901613,3.517889,-1.709340,2.460391,-1.500000,2.598076,-1.188239,2.754648,-0.860410,2.873969,-0.520945,2.954423,-0.193883,2.992649,-0.098387,3.517889,-0.069082,3.572303,-0.013390,3.599099,0.047416,3.588044,0.090110,3.543358,0.098387,3.517889,0.193884,2.992650,0.520945,2.954423,0.860410,2.873969,1.188239,2.754648,1.500000,2.598076,1.709340,2.460391,1.901613,3.517889,
1.930918,3.572303,1.986610,3.599099,2.047416,3.588044,2.090111,3.543358,2.098387,3.517889,2.416235,1.769724,2.506463,1.648527,2.680898,1.346398,2.819078,1.026060,2.919135,0.691848,2.979715,0.348279,3.000000,0.000000,2.979715,-0.348279,2.919135,-0.691848,2.884704,-0.806854,3.000000,-1.440982,3.901612,3.517889,3.930918,3.572303,3.986610,3.599099,4.047416,3.588044,
4.090111,3.543358,4.098387,3.517889,5.000000,-1.440982,5.901613,3.517889,5.930918,3.572303,5.986610,3.599099,6.047416,3.588044,6.047416,3.588044,$1*%
G04 Aperture macros list end*
%ADD10C,0.000000*%
%ADD11C,0.150000*%
%ADD12C,0.200000*%
%ADD13C,0.250000*%
%ADD14C,0.120000*%
%ADD15C,0.100000*%
%ADD16RoundRect,0.150000X1.600000X0.150000X-1.600000X0.150000X-1.600000X-0.150000X1.600000X-0.150000X0*%
%ADD17RoundRect,0.150000X1.200000X0.150000X-1.200000X0.150000X-1.200000X-0.150000X1.200000X-0.150000X0*%
%ADD18FreePoly0,150.000000*%
%ADD19C,1.600000*%
%ADD20O,1.600000X1.600000*%
%ADD21FreePoly0,30.000000*%
%ADD22C,1.900000*%
%ADD23C,0.700000*%
%ADD24C,4.400000*%
G04 APERTURE END LIST*
D10*
G36*
X126162142Y-96829231D02*
G01*
X126266157Y-96835528D01*
X126370123Y-96845325D01*
X126473952Y-96858640D01*
X126577564Y-96875502D01*
X126680866Y-96895927D01*
X126783772Y-96919948D01*
X126886203Y-96947580D01*
X126988067Y-96978850D01*
X127089285Y-97013781D01*
X127189761Y-97052401D01*
X127289419Y-97094726D01*
X127388167Y-97140782D01*
X127485922Y-97190594D01*
X127582597Y-97244185D01*
X127720648Y-97328665D01*
X127852798Y-97419142D01*
X127978978Y-97515346D01*
X128099109Y-97616996D01*
X128213132Y-97723825D01*
X128320963Y-97835560D01*
X128422539Y-97951925D01*
X128517783Y-98072651D01*
X128606627Y-98197466D01*
X128688996Y-98326095D01*
X128764819Y-98458262D01*
X128834028Y-98593704D01*
X128896550Y-98732139D01*
X128952310Y-98873299D01*
X129001239Y-99016911D01*
X129043262Y-99162704D01*
X129078317Y-99310402D01*
X129106320Y-99459731D01*
X129127208Y-99610421D01*
X129140909Y-99762200D01*
X129147342Y-99914796D01*
X129146451Y-100067933D01*
X129138151Y-100221341D01*
X129122376Y-100374748D01*
X129099051Y-100527878D01*
X129068109Y-100680462D01*
X129029476Y-100832223D01*
X128983083Y-100982895D01*
X128928849Y-101132199D01*
X128866717Y-101279865D01*
X128796607Y-101425621D01*
X128718448Y-101569193D01*
X128604790Y-101751848D01*
X128480999Y-101924242D01*
X128347702Y-102086207D01*
X128205521Y-102237572D01*
X128055081Y-102378165D01*
X127896998Y-102507814D01*
X127731899Y-102626358D01*
X127560411Y-102733615D01*
X127383153Y-102829423D01*
X127200748Y-102913605D01*
X127013818Y-102985995D01*
X126822995Y-103046425D01*
X126628889Y-103094719D01*
X126432131Y-103130703D01*
X126233344Y-103154218D01*
X126033150Y-103165083D01*
X125954308Y-96827031D01*
X126058164Y-96826408D01*
X126162142Y-96829231D01*
G37*
G36*
X125954272Y-96826976D02*
G01*
X125953969Y-96827012D01*
X125791820Y-96834596D01*
X125631896Y-96850254D01*
X125474386Y-96873783D01*
X125319488Y-96904982D01*
X125167397Y-96943644D01*
X125018314Y-96989563D01*
X124872436Y-97042543D01*
X124729949Y-97102371D01*
X124591059Y-97168852D01*
X124455962Y-97241771D01*
X124324843Y-97320933D01*
X124197913Y-97406125D01*
X124075363Y-97497154D01*
X123957386Y-97593812D01*
X123844182Y-97695890D01*
X123735944Y-97803189D01*
X123632871Y-97915503D01*
X123535160Y-98032627D01*
X123443004Y-98154360D01*
X123356600Y-98280498D01*
X123276144Y-98410834D01*
X123201837Y-98545163D01*
X123133869Y-98683287D01*
X123072441Y-98824998D01*
X123017744Y-98970093D01*
X122969980Y-99118366D01*
X122929342Y-99269614D01*
X122896029Y-99423634D01*
X122870232Y-99580224D01*
X122852151Y-99739174D01*
X122841983Y-99900285D01*
X122839924Y-100063350D01*
X122846068Y-100226224D01*
X122860277Y-100386798D01*
X122882331Y-100544879D01*
X122912035Y-100700266D01*
X122949190Y-100852771D01*
X122993595Y-101002191D01*
X123045047Y-101148337D01*
X123103348Y-101291010D01*
X123168294Y-101430013D01*
X123239681Y-101565152D01*
X123317312Y-101696234D01*
X123400982Y-101823058D01*
X123490497Y-101945437D01*
X123585646Y-102063171D01*
X123686236Y-102176062D01*
X123792059Y-102283918D01*
X123902924Y-102386541D01*
X124018616Y-102483738D01*
X124138944Y-102575309D01*
X124263702Y-102661067D01*
X124392694Y-102740814D01*
X124525714Y-102814346D01*
X124662557Y-102881476D01*
X124803031Y-102942005D01*
X124946927Y-102995741D01*
X125094051Y-103042486D01*
X125244198Y-103082043D01*
X125397164Y-103114220D01*
X125552748Y-103138819D01*
X125710758Y-103155643D01*
X125870982Y-103164502D01*
X126033224Y-103165198D01*
X126046343Y-104221583D01*
X125991380Y-104222383D01*
X125936417Y-104222460D01*
X125881456Y-104221814D01*
X125826508Y-104220450D01*
X125771580Y-104218362D01*
X125716674Y-104215558D01*
X125661812Y-104212031D01*
X125606988Y-104207789D01*
X125479094Y-103555401D01*
X125386630Y-103541442D01*
X125294625Y-103525059D01*
X125203126Y-103506258D01*
X125112181Y-103485060D01*
X125021837Y-103461471D01*
X124932151Y-103435505D01*
X124843156Y-103407178D01*
X124754914Y-103376495D01*
X124331790Y-103892688D01*
X124231195Y-103848484D01*
X124131855Y-103801659D01*
X124033814Y-103752237D01*
X123937130Y-103700256D01*
X123841845Y-103645736D01*
X123748021Y-103588714D01*
X123655699Y-103529206D01*
X123564942Y-103467252D01*
X123779330Y-102835299D01*
X123706596Y-102776664D01*
X123635466Y-102716154D01*
X123565977Y-102653798D01*
X123498159Y-102589638D01*
X123432051Y-102523701D01*
X123367689Y-102456034D01*
X123305108Y-102386665D01*
X123244343Y-102315630D01*
X122622958Y-102552298D01*
X122558230Y-102463257D01*
X122495891Y-102372572D01*
X122435974Y-102280288D01*
X122378508Y-102186460D01*
X122323519Y-102091128D01*
X122271035Y-101994349D01*
X122221088Y-101896163D01*
X122173704Y-101796623D01*
X122672974Y-101354341D01*
X122639463Y-101266782D01*
X122608268Y-101178395D01*
X122579398Y-101089226D01*
X122552872Y-100999316D01*
X122528703Y-100908719D01*
X122506897Y-100817477D01*
X122487472Y-100725639D01*
X122470441Y-100633243D01*
X121817183Y-100526928D01*
X121805725Y-100416925D01*
X121797149Y-100306688D01*
X121791446Y-100196278D01*
X121788621Y-100085748D01*
X121788680Y-99975161D01*
X121791612Y-99864565D01*
X121797434Y-99754030D01*
X121806132Y-99643601D01*
X122456388Y-99509511D01*
X122471057Y-99416456D01*
X122488136Y-99323844D01*
X122507617Y-99231713D01*
X122529484Y-99140122D01*
X122553724Y-99049118D01*
X122580328Y-98958743D01*
X122609285Y-98869051D01*
X122640574Y-98780095D01*
X122130593Y-98359327D01*
X122175439Y-98257838D01*
X122222885Y-98157589D01*
X122272904Y-98058628D01*
X122325461Y-97961012D01*
X122380535Y-97864790D01*
X122438094Y-97770006D01*
X122498103Y-97676716D01*
X122560545Y-97584969D01*
X123187547Y-97794982D01*
X123246521Y-97721382D01*
X123307346Y-97649374D01*
X123369986Y-97578997D01*
X123434403Y-97510286D01*
X123500573Y-97443277D01*
X123568461Y-97378005D01*
X123638032Y-97314507D01*
X123709249Y-97252823D01*
X123479114Y-96630312D01*
X123568268Y-96564513D01*
X123659045Y-96501103D01*
X123751385Y-96440103D01*
X123845247Y-96381554D01*
X123940582Y-96325484D01*
X124037333Y-96271915D01*
X124135463Y-96220885D01*
X124234915Y-96172421D01*
X124670683Y-96670333D01*
X124758123Y-96635888D01*
X124846363Y-96603768D01*
X124935356Y-96573985D01*
X125025058Y-96546545D01*
X125115419Y-96521472D01*
X125206398Y-96498772D01*
X125297949Y-96478454D01*
X125390017Y-96460541D01*
X125501410Y-95803131D01*
X125556214Y-95796518D01*
X125611078Y-95790636D01*
X125665996Y-95785485D01*
X125720961Y-95781057D01*
X125775966Y-95777354D01*
X125831006Y-95774373D01*
X125886077Y-95772113D01*
X125941171Y-95770569D01*
X125954272Y-96826976D01*
G37*
G36*
X130161826Y-96240846D02*
G01*
X130213505Y-96243663D01*
X130265382Y-96249260D01*
X130317328Y-96257604D01*
X130369194Y-96268672D01*
X130420847Y-96282425D01*
X130472145Y-96298832D01*
X130522943Y-96317866D01*
X130573110Y-96339488D01*
X130574147Y-96339992D01*
X130575162Y-96340537D01*
X130576141Y-96341121D01*
X130577087Y-96341744D01*
X130578001Y-96342405D01*
X130578885Y-96343099D01*
X130580545Y-96344591D01*
X130582066Y-96346210D01*
X130583441Y-96347940D01*
X130584667Y-96349780D01*
X130585736Y-96351709D01*
X130586641Y-96353722D01*
X130587377Y-96355810D01*
X130587943Y-96357957D01*
X130588332Y-96360159D01*
X130588532Y-96362397D01*
X130588568Y-96363530D01*
X130588547Y-96364669D01*
X130588486Y-96365813D01*
X130588369Y-96366959D01*
X130588202Y-96368108D01*
X130587990Y-96369255D01*
X130587408Y-96371506D01*
X130586646Y-96373671D01*
X130585718Y-96375740D01*
X130584623Y-96377712D01*
X130583379Y-96379574D01*
X130581992Y-96381325D01*
X130580472Y-96382948D01*
X130578827Y-96384440D01*
X130577064Y-96385794D01*
X130575200Y-96386999D01*
X130573234Y-96388053D01*
X130571187Y-96388940D01*
X130569053Y-96389657D01*
X130566855Y-96390197D01*
X130564595Y-96390551D01*
X130563444Y-96390654D01*
X130562281Y-96390711D01*
X130518131Y-96393199D01*
X130469554Y-96398392D01*
X130417644Y-96406969D01*
X130363511Y-96419634D01*
X130335948Y-96427710D01*
X130308239Y-96437069D01*
X130280523Y-96447793D01*
X130252935Y-96459965D01*
X130225617Y-96473678D01*
X130198699Y-96489016D01*
X130172322Y-96506070D01*
X130146626Y-96524916D01*
X130121740Y-96545647D01*
X130097808Y-96568351D01*
X130074971Y-96593106D01*
X130053354Y-96620008D01*
X130033108Y-96649138D01*
X130014358Y-96680588D01*
X129997251Y-96714434D01*
X129981921Y-96750773D01*
X129968501Y-96789685D01*
X129957135Y-96831256D01*
X129947957Y-96875578D01*
X129941104Y-96922733D01*
X129936719Y-96972807D01*
X129934930Y-97025890D01*
X129935878Y-97082065D01*
X129939700Y-97141420D01*
X129948167Y-97242309D01*
X129955036Y-97338970D01*
X129959434Y-97431419D01*
X129960445Y-97476067D01*
X129960504Y-97519670D01*
X129959519Y-97562235D01*
X129957375Y-97603756D01*
X129953963Y-97644235D01*
X129949175Y-97683681D01*
X129942904Y-97722088D01*
X129935039Y-97759467D01*
X129925479Y-97795817D01*
X129914107Y-97831134D01*
X129879378Y-97919013D01*
X129840195Y-98000320D01*
X129797362Y-98075212D01*
X129751674Y-98143843D01*
X129703938Y-98206372D01*
X129654953Y-98262952D01*
X129605520Y-98313737D01*
X129556445Y-98358889D01*
X129508521Y-98398558D01*
X129462556Y-98432902D01*
X129419350Y-98462078D01*
X129379706Y-98486243D01*
X129344419Y-98505547D01*
X129314296Y-98520150D01*
X129272747Y-98535871D01*
X129242451Y-98468139D01*
X129210797Y-98401177D01*
X129177811Y-98334998D01*
X129143504Y-98269626D01*
X129107902Y-98205076D01*
X129071015Y-98141365D01*
X129032861Y-98078509D01*
X128993463Y-98016525D01*
X128952837Y-97955432D01*
X128910995Y-97895246D01*
X128867962Y-97835984D01*
X128823755Y-97777662D01*
X128778386Y-97720304D01*
X128731881Y-97663918D01*
X128684249Y-97608528D01*
X128635513Y-97554143D01*
X128702472Y-97563521D01*
X128747481Y-97567314D01*
X128798298Y-97569214D01*
X128853507Y-97568247D01*
X128911691Y-97563445D01*
X128971443Y-97553835D01*
X129001461Y-97546918D01*
X129031343Y-97538442D01*
X129060908Y-97528273D01*
X129089979Y-97516295D01*
X129118383Y-97502384D01*
X129145937Y-97486426D01*
X129172475Y-97468288D01*
X129197809Y-97447856D01*
X129221771Y-97425007D01*
X129244178Y-97399620D01*
X129264853Y-97371574D01*
X129283625Y-97340741D01*
X129300313Y-97307011D01*
X129314745Y-97270254D01*
X129326739Y-97230349D01*
X129336117Y-97187177D01*
X129342710Y-97140617D01*
X129346330Y-97090547D01*
X129351161Y-97017061D01*
X129359549Y-96947117D01*
X129371360Y-96880682D01*
X129386449Y-96817734D01*
X129404683Y-96758236D01*
X129425913Y-96702149D01*
X129450009Y-96649452D01*
X129476823Y-96600111D01*
X129506219Y-96554090D01*
X129538059Y-96511362D01*
X129572198Y-96471888D01*
X129608500Y-96435643D01*
X129646824Y-96402593D01*
X129687028Y-96372708D01*
X129728976Y-96345956D01*
X129772527Y-96322299D01*
X129817537Y-96301711D01*
X129863875Y-96284165D01*
X129911391Y-96269619D01*
X129959951Y-96258042D01*
X130009417Y-96249414D01*
X130059644Y-96243690D01*
X130110492Y-96240844D01*
X130161826Y-96240846D01*
G37*
G36*
X131081933Y-98941278D02*
G01*
X131131092Y-98944932D01*
X131179824Y-98951974D01*
X131228033Y-98962306D01*
X131275610Y-98975821D01*
X131322464Y-98992414D01*
X131368487Y-99011989D01*
X131413584Y-99034433D01*
X131457657Y-99059652D01*
X131500600Y-99087542D01*
X131542319Y-99117995D01*
X131582712Y-99150916D01*
X131621675Y-99186195D01*
X131659114Y-99223732D01*
X131694928Y-99263422D01*
X131729014Y-99305163D01*
X131761277Y-99348856D01*
X131791605Y-99394393D01*
X131792206Y-99395386D01*
X131792755Y-99396397D01*
X131793258Y-99397424D01*
X131793716Y-99398465D01*
X131794123Y-99399521D01*
X131794487Y-99400588D01*
X131794804Y-99401664D01*
X131795072Y-99402755D01*
X131795295Y-99403848D01*
X131795474Y-99404947D01*
X131795606Y-99406052D01*
X131795688Y-99407161D01*
X131795730Y-99408272D01*
X131795722Y-99409380D01*
X131795674Y-99410488D01*
X131795578Y-99411594D01*
X131795436Y-99412698D01*
X131795251Y-99413792D01*
X131795020Y-99414878D01*
X131794746Y-99415959D01*
X131794425Y-99417028D01*
X131794065Y-99418085D01*
X131793655Y-99419129D01*
X131793203Y-99420154D01*
X131792706Y-99421169D01*
X131792171Y-99422164D01*
X131791591Y-99423137D01*
X131790966Y-99424093D01*
X131790297Y-99425026D01*
X131789586Y-99425935D01*
X131788831Y-99426818D01*
X131788038Y-99427674D01*
X131787204Y-99428494D01*
X131786340Y-99429266D01*
X131785453Y-99429999D01*
X131784539Y-99430688D01*
X131783603Y-99431334D01*
X131782644Y-99431938D01*
X131781668Y-99432496D01*
X131780670Y-99433013D01*
X131779656Y-99433486D01*
X131778629Y-99433916D01*
X131777587Y-99434301D01*
X131776530Y-99434642D01*
X131775464Y-99434940D01*
X131774386Y-99435191D01*
X131773300Y-99435399D01*
X131772210Y-99435563D01*
X131771110Y-99435679D01*
X131770009Y-99435753D01*
X131768906Y-99435777D01*
X131767802Y-99435760D01*
X131766697Y-99435694D01*
X131765596Y-99435584D01*
X131764493Y-99435425D01*
X131763403Y-99435222D01*
X131762314Y-99434973D01*
X131761237Y-99434676D01*
X131760166Y-99434333D01*
X131759109Y-99433939D01*
X131758061Y-99433503D01*
X131757028Y-99433016D01*
X131756013Y-99432484D01*
X131755011Y-99431899D01*
X131716721Y-99410017D01*
X131673281Y-99388005D01*
X131625230Y-99367059D01*
X131573119Y-99348350D01*
X131517494Y-99333067D01*
X131488538Y-99327076D01*
X131458905Y-99322384D01*
X131428670Y-99319137D01*
X131397899Y-99317483D01*
X131366658Y-99317577D01*
X131335015Y-99319552D01*
X131303044Y-99323569D01*
X131270811Y-99329768D01*
X131238386Y-99338300D01*
X131205831Y-99349309D01*
X131173218Y-99362950D01*
X131140615Y-99379362D01*
X131108093Y-99398698D01*
X131075722Y-99421101D01*
X131043562Y-99446724D01*
X131011684Y-99475716D01*
X130980165Y-99508217D01*
X130949066Y-99544380D01*
X130918455Y-99584354D01*
X130888401Y-99628280D01*
X130858975Y-99676314D01*
X130830239Y-99728594D01*
X130783040Y-99818530D01*
X130736781Y-99904032D01*
X130690725Y-99984627D01*
X130644140Y-100059875D01*
X130620419Y-100095350D01*
X130596288Y-100129309D01*
X130571660Y-100161709D01*
X130546440Y-100192483D01*
X130520536Y-100221575D01*
X130493857Y-100248930D01*
X130466310Y-100274494D01*
X130437807Y-100298206D01*
X130399672Y-100326990D01*
X130361416Y-100353707D01*
X130323116Y-100378425D01*
X130284839Y-100401216D01*
X130246663Y-100422151D01*
X130208659Y-100441304D01*
X130170904Y-100458744D01*
X130133468Y-100474536D01*
X130059845Y-100501489D01*
X129988390Y-100522721D01*
X129919679Y-100538804D01*
X129854308Y-100550310D01*
X129792858Y-100557805D01*
X129735923Y-100561859D01*
X129684088Y-100563040D01*
X129637936Y-100561916D01*
X129598061Y-100559058D01*
X129565049Y-100555028D01*
X129539486Y-100550404D01*
X129521959Y-100545751D01*
X129533510Y-100469125D01*
X129543444Y-100391999D01*
X129551746Y-100314395D01*
X129558395Y-100236332D01*
X129563384Y-100157825D01*
X129566682Y-100078895D01*
X129568281Y-99999559D01*
X129568160Y-99919838D01*
X129566614Y-99849985D01*
X129563749Y-99780482D01*
X129559581Y-99711337D01*
X129554122Y-99642561D01*
X129547377Y-99574170D01*
X129539362Y-99506173D01*
X129530094Y-99438586D01*
X129519574Y-99371416D01*
X129571882Y-99416515D01*
X129607890Y-99444205D01*
X129649607Y-99473249D01*
X129696388Y-99502106D01*
X129747594Y-99529219D01*
X129802579Y-99553035D01*
X129831285Y-99563223D01*
X129860693Y-99572006D01*
X129890726Y-99579191D01*
X129921304Y-99584581D01*
X129952340Y-99587984D01*
X129983759Y-99589206D01*
X130015474Y-99588054D01*
X130047414Y-99584331D01*
X130079488Y-99577847D01*
X130111625Y-99568405D01*
X130143741Y-99555816D01*
X130175754Y-99539880D01*
X130207584Y-99520403D01*
X130239151Y-99497197D01*
X130270378Y-99470061D01*
X130301178Y-99438811D01*
X130331470Y-99403245D01*
X130361186Y-99363171D01*
X130404765Y-99303635D01*
X130449417Y-99249032D01*
X130495042Y-99199259D01*
X130541535Y-99154213D01*
X130588802Y-99113791D01*
X130636740Y-99077893D01*
X130685253Y-99046414D01*
X130734233Y-99019248D01*
X130783588Y-98996296D01*
X130833213Y-98977448D01*
X130883013Y-98962612D01*
X130932884Y-98951681D01*
X130982726Y-98944550D01*
X131032445Y-98941115D01*
X131081933Y-98941278D01*
G37*
G36*
X129284832Y-101420187D02*
G01*
X129296454Y-101457490D01*
X129311816Y-101500578D01*
X129331206Y-101547803D01*
X129354920Y-101597529D01*
X129368488Y-101622812D01*
X129383246Y-101648108D01*
X129399231Y-101673202D01*
X129416481Y-101697894D01*
X129435031Y-101721976D01*
X129454918Y-101745245D01*
X129476178Y-101767495D01*
X129498848Y-101788519D01*
X129522963Y-101808113D01*
X129548561Y-101826071D01*
X129575683Y-101842189D01*
X129604353Y-101856259D01*
X129634621Y-101868079D01*
X129666520Y-101877436D01*
X129700079Y-101884132D01*
X129735344Y-101887961D01*
X129772348Y-101888718D01*
X129811126Y-101886193D01*
X129851717Y-101880179D01*
X129894156Y-101870480D01*
X129938482Y-101856883D01*
X129984728Y-101839184D01*
X130053222Y-101812504D01*
X130119962Y-101790579D01*
X130184909Y-101773267D01*
X130248049Y-101760427D01*
X130309341Y-101751921D01*
X130368766Y-101747597D01*
X130426288Y-101747329D01*
X130481888Y-101750963D01*
X130535526Y-101758365D01*
X130587189Y-101769388D01*
X130636835Y-101783898D01*
X130684438Y-101801745D01*
X130729979Y-101822797D01*
X130773417Y-101846900D01*
X130814734Y-101873929D01*
X130853895Y-101903733D01*
X130890877Y-101936169D01*
X130925651Y-101971098D01*
X130958186Y-102008383D01*
X130988451Y-102047876D01*
X131016428Y-102089438D01*
X131042079Y-102132933D01*
X131065377Y-102178211D01*
X131086297Y-102225135D01*
X131104817Y-102273563D01*
X131120893Y-102323357D01*
X131134509Y-102374370D01*
X131145628Y-102426465D01*
X131154232Y-102479498D01*
X131160284Y-102533328D01*
X131163760Y-102587818D01*
X131164631Y-102642819D01*
X131164597Y-102643987D01*
X131164516Y-102645142D01*
X131164205Y-102647416D01*
X131163712Y-102649636D01*
X131163041Y-102651788D01*
X131162198Y-102653862D01*
X131161195Y-102655857D01*
X131160033Y-102657751D01*
X131158723Y-102659544D01*
X131157269Y-102661223D01*
X131155682Y-102662776D01*
X131153968Y-102664198D01*
X131152133Y-102665483D01*
X131150189Y-102666610D01*
X131148134Y-102667578D01*
X131147071Y-102667998D01*
X131145984Y-102668377D01*
X131144874Y-102668708D01*
X131143744Y-102668994D01*
X131142604Y-102669229D01*
X131141467Y-102669416D01*
X131140334Y-102669557D01*
X131139200Y-102669642D01*
X131138070Y-102669682D01*
X131136945Y-102669674D01*
X131135826Y-102669616D01*
X131134718Y-102669514D01*
X131133618Y-102669363D01*
X131132527Y-102669170D01*
X131131448Y-102668931D01*
X131130385Y-102668645D01*
X131129331Y-102668316D01*
X131128296Y-102667944D01*
X131127276Y-102667530D01*
X131126279Y-102667078D01*
X131125296Y-102666581D01*
X131124337Y-102666044D01*
X131123401Y-102665466D01*
X131122488Y-102664848D01*
X131121601Y-102664193D01*
X131120737Y-102663498D01*
X131119903Y-102662769D01*
X131119097Y-102662002D01*
X131118319Y-102661196D01*
X131117579Y-102660356D01*
X131116867Y-102659478D01*
X131116194Y-102658567D01*
X131115552Y-102657625D01*
X131114947Y-102656647D01*
X131114384Y-102655639D01*
X131113857Y-102654594D01*
X131093598Y-102615287D01*
X131069092Y-102573074D01*
X131040165Y-102529255D01*
X131006631Y-102485121D01*
X130968325Y-102441974D01*
X130947318Y-102421178D01*
X130925058Y-102401109D01*
X130901507Y-102381940D01*
X130876655Y-102363822D01*
X130850473Y-102346926D01*
X130822936Y-102331409D01*
X130794031Y-102317434D01*
X130763730Y-102305169D01*
X130732012Y-102294765D01*
X130698854Y-102286393D01*
X130664235Y-102280213D01*
X130628129Y-102276382D01*
X130590518Y-102275069D01*
X130551379Y-102276433D01*
X130510690Y-102280636D01*
X130468427Y-102287840D01*
X130424568Y-102298210D01*
X130379094Y-102311901D01*
X130331979Y-102329082D01*
X130283203Y-102349911D01*
X130232742Y-102374554D01*
X130180573Y-102403170D01*
X130092689Y-102453593D01*
X130007994Y-102500774D01*
X129926109Y-102543929D01*
X129886106Y-102563751D01*
X129846666Y-102582270D01*
X129807741Y-102599389D01*
X129769289Y-102615008D01*
X129731260Y-102629032D01*
X129693606Y-102641359D01*
X129656285Y-102651891D01*
X129619250Y-102660534D01*
X129582450Y-102667183D01*
X129545844Y-102671742D01*
X129497924Y-102675405D01*
X129451046Y-102677213D01*
X129360485Y-102675674D01*
X129274354Y-102667951D01*
X129192842Y-102654873D01*
X129116142Y-102637268D01*
X129044446Y-102615967D01*
X128977947Y-102591797D01*
X128916835Y-102565584D01*
X128861305Y-102538152D01*
X128811546Y-102510337D01*
X128767753Y-102482959D01*
X128730113Y-102456848D01*
X128698824Y-102432836D01*
X128674072Y-102411750D01*
X128656054Y-102394413D01*
X128644960Y-102381657D01*
X128740591Y-102270163D01*
X128831730Y-102154828D01*
X128918245Y-102035806D01*
X128999991Y-101913233D01*
X129076842Y-101787255D01*
X129148663Y-101658014D01*
X129215310Y-101525648D01*
X129276655Y-101390310D01*
X129284832Y-101420187D01*
G37*
G36*
X127963359Y-103031448D02*
G01*
X127953087Y-103076369D01*
X127944004Y-103126891D01*
X127937225Y-103181801D01*
X127933861Y-103239881D01*
X127935041Y-103299904D01*
X127937679Y-103330266D01*
X127941871Y-103360655D01*
X127947757Y-103390923D01*
X127955482Y-103420914D01*
X127965174Y-103450478D01*
X127976983Y-103479463D01*
X127991040Y-103507711D01*
X128007495Y-103535075D01*
X128026481Y-103561402D01*
X128048140Y-103586539D01*
X128072611Y-103610332D01*
X128100031Y-103632631D01*
X128130543Y-103653282D01*
X128164287Y-103672133D01*
X128201405Y-103689030D01*
X128242031Y-103703824D01*
X128286309Y-103716360D01*
X128334377Y-103726484D01*
X128406031Y-103741121D01*
X128473652Y-103758827D01*
X128537302Y-103779465D01*
X128597022Y-103802901D01*
X128652879Y-103829004D01*
X128704913Y-103857629D01*
X128753180Y-103888648D01*
X128797734Y-103921925D01*
X128838631Y-103957329D01*
X128875913Y-103994721D01*
X128909641Y-104033963D01*
X128939867Y-104074926D01*
X128966634Y-104117473D01*
X128990010Y-104161465D01*
X129010033Y-104206775D01*
X129026765Y-104253265D01*
X129040251Y-104300797D01*
X129050550Y-104349240D01*
X129057712Y-104398456D01*
X129061789Y-104448313D01*
X129062827Y-104498673D01*
X129060892Y-104549404D01*
X129056027Y-104600369D01*
X129048285Y-104651434D01*
X129037723Y-104702464D01*
X129024389Y-104753322D01*
X129008333Y-104803881D01*
X128989614Y-104853997D01*
X128968283Y-104903539D01*
X128944388Y-104952371D01*
X128917984Y-105000361D01*
X128889127Y-105047370D01*
X128888467Y-105048338D01*
X128887772Y-105049269D01*
X128887046Y-105050163D01*
X128886286Y-105051024D01*
X128885492Y-105051845D01*
X128884675Y-105052633D01*
X128883828Y-105053376D01*
X128882950Y-105054083D01*
X128882048Y-105054752D01*
X128881126Y-105055383D01*
X128879210Y-105056518D01*
X128877213Y-105057493D01*
X128875154Y-105058296D01*
X128873035Y-105058928D01*
X128871957Y-105059175D01*
X128870869Y-105059378D01*
X128869772Y-105059541D01*
X128868670Y-105059651D01*
X128867560Y-105059715D01*
X128866444Y-105059735D01*
X128865328Y-105059709D01*
X128864210Y-105059631D01*
X128863093Y-105059507D01*
X128861970Y-105059331D01*
X128860857Y-105059108D01*
X128859746Y-105058835D01*
X128858640Y-105058511D01*
X128857541Y-105058135D01*
X128856460Y-105057716D01*
X128855408Y-105057258D01*
X128854383Y-105056754D01*
X128853388Y-105056210D01*
X128851487Y-105055006D01*
X128849707Y-105053658D01*
X128848058Y-105052171D01*
X128846549Y-105050559D01*
X128845181Y-105048831D01*
X128843962Y-105047001D01*
X128842894Y-105045074D01*
X128841993Y-105043057D01*
X128841258Y-105040968D01*
X128840696Y-105038813D01*
X128840312Y-105036608D01*
X128840115Y-105034356D01*
X128840089Y-105033215D01*
X128840113Y-105032066D01*
X128840183Y-105030914D01*
X128840306Y-105029754D01*
X128844510Y-104985497D01*
X128846719Y-104936474D01*
X128846091Y-104883686D01*
X128841775Y-104828134D01*
X128832938Y-104770815D01*
X128826552Y-104741809D01*
X128818715Y-104712736D01*
X128809330Y-104683721D01*
X128798277Y-104654892D01*
X128785458Y-104626371D01*
X128770771Y-104598286D01*
X128754104Y-104570755D01*
X128735351Y-104543914D01*
X128714409Y-104517878D01*
X128691169Y-104492777D01*
X128665531Y-104468737D01*
X128637385Y-104445882D01*
X128606627Y-104424333D01*
X128573150Y-104404221D01*
X128536848Y-104385668D01*
X128497616Y-104368798D01*
X128455349Y-104353738D01*
X128409941Y-104340614D01*
X128361287Y-104329547D01*
X128309276Y-104320663D01*
X128253807Y-104314094D01*
X128194775Y-104309959D01*
X128094135Y-104304874D01*
X127997895Y-104298763D01*
X127906176Y-104290771D01*
X127862045Y-104285791D01*
X127819085Y-104280023D01*
X127777312Y-104273346D01*
X127736743Y-104265662D01*
X127697387Y-104256855D01*
X127659260Y-104246825D01*
X127622375Y-104235458D01*
X127586748Y-104222651D01*
X127552392Y-104208292D01*
X127519324Y-104192275D01*
X127477367Y-104169395D01*
X127437263Y-104145513D01*
X127362484Y-104095139D01*
X127294700Y-104041953D01*
X127233632Y-103986752D01*
X127178997Y-103930337D01*
X127130511Y-103873504D01*
X127087894Y-103817053D01*
X127050860Y-103761783D01*
X127019128Y-103708490D01*
X126992414Y-103657979D01*
X126970438Y-103611039D01*
X126952919Y-103568475D01*
X126939569Y-103531082D01*
X126930109Y-103499665D01*
X126924255Y-103475016D01*
X126921726Y-103457935D01*
X126993274Y-103437204D01*
X127064200Y-103415035D01*
X127134493Y-103391448D01*
X127204137Y-103366456D01*
X127273110Y-103340075D01*
X127341406Y-103312329D01*
X127408992Y-103283227D01*
X127475864Y-103252794D01*
X127542000Y-103221039D01*
X127607386Y-103187986D01*
X127672006Y-103153647D01*
X127735838Y-103118047D01*
X127798863Y-103081190D01*
X127861077Y-103043107D01*
X127922454Y-103003807D01*
X127982973Y-102963308D01*
X127963359Y-103031448D01*
G37*
G36*
X127906672Y-94448853D02*
G01*
X127907790Y-94448954D01*
X127908899Y-94449099D01*
X127909998Y-94449293D01*
X127911078Y-94449531D01*
X127912155Y-94449817D01*
X127914248Y-94450517D01*
X127916272Y-94451389D01*
X127918214Y-94452425D01*
X127920066Y-94453622D01*
X127921814Y-94454972D01*
X127923449Y-94456469D01*
X127924225Y-94457273D01*
X127924964Y-94458105D01*
X127925668Y-94458977D01*
X127926342Y-94459882D01*
X127926977Y-94460821D01*
X127927574Y-94461786D01*
X127928134Y-94462786D01*
X127928655Y-94463814D01*
X127929134Y-94464876D01*
X127929572Y-94465962D01*
X127929949Y-94467053D01*
X127930276Y-94468151D01*
X127930560Y-94469256D01*
X127930790Y-94470368D01*
X127930973Y-94471483D01*
X127931110Y-94472599D01*
X127931201Y-94473720D01*
X127931243Y-94474838D01*
X127931240Y-94475956D01*
X127931190Y-94477067D01*
X127931094Y-94478177D01*
X127930952Y-94479278D01*
X127930770Y-94480374D01*
X127930539Y-94481457D01*
X127930267Y-94482534D01*
X127929951Y-94483597D01*
X127929590Y-94484647D01*
X127929192Y-94485682D01*
X127928748Y-94486702D01*
X127928262Y-94487706D01*
X127927735Y-94488686D01*
X127927168Y-94489648D01*
X127926562Y-94490588D01*
X127925914Y-94491500D01*
X127925226Y-94492392D01*
X127924501Y-94493256D01*
X127923739Y-94494096D01*
X127922939Y-94494902D01*
X127922097Y-94495677D01*
X127921223Y-94496421D01*
X127920310Y-94497133D01*
X127919359Y-94497808D01*
X127883359Y-94523891D01*
X127845060Y-94554642D01*
X127805772Y-94590031D01*
X127766784Y-94630046D01*
X127729410Y-94674666D01*
X127711730Y-94698696D01*
X127694942Y-94723871D01*
X127679208Y-94750190D01*
X127664686Y-94777651D01*
X127651542Y-94806246D01*
X127639939Y-94835975D01*
X127630042Y-94866839D01*
X127622009Y-94898833D01*
X127616006Y-94931955D01*
X127612192Y-94966204D01*
X127610733Y-95001578D01*
X127611790Y-95038069D01*
X127615529Y-95075679D01*
X127622107Y-95114410D01*
X127631688Y-95154252D01*
X127644440Y-95195207D01*
X127660519Y-95237271D01*
X127680092Y-95280443D01*
X127703320Y-95324723D01*
X127730365Y-95370100D01*
X127761394Y-95416582D01*
X127796564Y-95464161D01*
X127857988Y-95543972D01*
X127915797Y-95621111D01*
X127969261Y-95696057D01*
X127994137Y-95732866D01*
X128017656Y-95769311D01*
X128039725Y-95805453D01*
X128060256Y-95841352D01*
X128079155Y-95877075D01*
X128096339Y-95912675D01*
X128111706Y-95948219D01*
X128125179Y-95983764D01*
X128136657Y-96019376D01*
X128146050Y-96055115D01*
X128155994Y-96101871D01*
X128164002Y-96147890D01*
X128174591Y-96237557D01*
X128178588Y-96323810D01*
X128176772Y-96406338D01*
X128169906Y-96484835D01*
X128158764Y-96558991D01*
X128144124Y-96628500D01*
X128126747Y-96693046D01*
X128107410Y-96752324D01*
X128086887Y-96806028D01*
X128065942Y-96853845D01*
X128045355Y-96895468D01*
X128025898Y-96930585D01*
X128008330Y-96958894D01*
X127993437Y-96980077D01*
X127981980Y-96993834D01*
X127859557Y-96915930D01*
X127733822Y-96842999D01*
X127604919Y-96775162D01*
X127472985Y-96712555D01*
X127338155Y-96655317D01*
X127200566Y-96603567D01*
X127060355Y-96557452D01*
X126989312Y-96536546D01*
X126917665Y-96517096D01*
X126945462Y-96504787D01*
X126980335Y-96487882D01*
X127020607Y-96466338D01*
X127064587Y-96440113D01*
X127110580Y-96409159D01*
X127156907Y-96373435D01*
X127179669Y-96353766D01*
X127201880Y-96332891D01*
X127223332Y-96310800D01*
X127243810Y-96287493D01*
X127263107Y-96262956D01*
X127281010Y-96237190D01*
X127297308Y-96210184D01*
X127311793Y-96181939D01*
X127324252Y-96152446D01*
X127334476Y-96121694D01*
X127342250Y-96089690D01*
X127347364Y-96056417D01*
X127349611Y-96021876D01*
X127348777Y-95986060D01*
X127344651Y-95948964D01*
X127337026Y-95910579D01*
X127325685Y-95870902D01*
X127310419Y-95829931D01*
X127291021Y-95787653D01*
X127267279Y-95744070D01*
X127231828Y-95679955D01*
X127201300Y-95616875D01*
X127175555Y-95554874D01*
X127154455Y-95494007D01*
X127137868Y-95434320D01*
X127125663Y-95375859D01*
X127117697Y-95318677D01*
X127113833Y-95262823D01*
X127113945Y-95208349D01*
X127117891Y-95155300D01*
X127125536Y-95103728D01*
X127136745Y-95053679D01*
X127151387Y-95005208D01*
X127169324Y-94958360D01*
X127190416Y-94913183D01*
X127214530Y-94869730D01*
X127241531Y-94828052D01*
X127271287Y-94788194D01*
X127303658Y-94750207D01*
X127338508Y-94714141D01*
X127375705Y-94680042D01*
X127415118Y-94647963D01*
X127456597Y-94617953D01*
X127500021Y-94590063D01*
X127545246Y-94564338D01*
X127592142Y-94540832D01*
X127640571Y-94519591D01*
X127690394Y-94500663D01*
X127741483Y-94484102D01*
X127793701Y-94469951D01*
X127846905Y-94458271D01*
X127900968Y-94449098D01*
X127902117Y-94448945D01*
X127903262Y-94448849D01*
X127904407Y-94448804D01*
X127905541Y-94448803D01*
X127906672Y-94448853D01*
G37*
D11*
X115763934Y-95142856D02*
X115716315Y-95285713D01*
X115716315Y-95285713D02*
X115668696Y-95333332D01*
X115668696Y-95333332D02*
X115573458Y-95380951D01*
X115573458Y-95380951D02*
X115430601Y-95380951D01*
X115430601Y-95380951D02*
X115335363Y-95333332D01*
X115335363Y-95333332D02*
X115287744Y-95285713D01*
X115287744Y-95285713D02*
X115240124Y-95190475D01*
X115240124Y-95190475D02*
X115240124Y-94809523D01*
X115240124Y-94809523D02*
X116240124Y-94809523D01*
X116240124Y-94809523D02*
X116240124Y-95142856D01*
X116240124Y-95142856D02*
X116192505Y-95238094D01*
X116192505Y-95238094D02*
X116144886Y-95285713D01*
X116144886Y-95285713D02*
X116049648Y-95333332D01*
X116049648Y-95333332D02*
X115954410Y-95333332D01*
X115954410Y-95333332D02*
X115859172Y-95285713D01*
X115859172Y-95285713D02*
X115811553Y-95238094D01*
X115811553Y-95238094D02*
X115763934Y-95142856D01*
X115763934Y-95142856D02*
X115763934Y-94809523D01*
X115240124Y-95809523D02*
X115906791Y-95809523D01*
X115716315Y-95809523D02*
X115811553Y-95857142D01*
X115811553Y-95857142D02*
X115859172Y-95904761D01*
X115859172Y-95904761D02*
X115906791Y-95999999D01*
X115906791Y-95999999D02*
X115906791Y-96095237D01*
X115240124Y-96428571D02*
X115906791Y-96428571D01*
X116240124Y-96428571D02*
X116192505Y-96380952D01*
X116192505Y-96380952D02*
X116144886Y-96428571D01*
X116144886Y-96428571D02*
X116192505Y-96476190D01*
X116192505Y-96476190D02*
X116240124Y-96428571D01*
X116240124Y-96428571D02*
X116144886Y-96428571D01*
X115906791Y-97333332D02*
X115097267Y-97333332D01*
X115097267Y-97333332D02*
X115002029Y-97285713D01*
X115002029Y-97285713D02*
X114954410Y-97238094D01*
X114954410Y-97238094D02*
X114906791Y-97142856D01*
X114906791Y-97142856D02*
X114906791Y-96999999D01*
X114906791Y-96999999D02*
X114954410Y-96904761D01*
X115287744Y-97333332D02*
X115240124Y-97238094D01*
X115240124Y-97238094D02*
X115240124Y-97047618D01*
X115240124Y-97047618D02*
X115287744Y-96952380D01*
X115287744Y-96952380D02*
X115335363Y-96904761D01*
X115335363Y-96904761D02*
X115430601Y-96857142D01*
X115430601Y-96857142D02*
X115716315Y-96857142D01*
X115716315Y-96857142D02*
X115811553Y-96904761D01*
X115811553Y-96904761D02*
X115859172Y-96952380D01*
X115859172Y-96952380D02*
X115906791Y-97047618D01*
X115906791Y-97047618D02*
X115906791Y-97238094D01*
X115906791Y-97238094D02*
X115859172Y-97333332D01*
X115240124Y-97809523D02*
X116240124Y-97809523D01*
X115240124Y-98238094D02*
X115763934Y-98238094D01*
X115763934Y-98238094D02*
X115859172Y-98190475D01*
X115859172Y-98190475D02*
X115906791Y-98095237D01*
X115906791Y-98095237D02*
X115906791Y-97952380D01*
X115906791Y-97952380D02*
X115859172Y-97857142D01*
X115859172Y-97857142D02*
X115811553Y-97809523D01*
X115906791Y-98571428D02*
X115906791Y-98952380D01*
X116240124Y-98714285D02*
X115382982Y-98714285D01*
X115382982Y-98714285D02*
X115287744Y-98761904D01*
X115287744Y-98761904D02*
X115240124Y-98857142D01*
X115240124Y-98857142D02*
X115240124Y-98952380D01*
X115906791Y-99285714D02*
X115240124Y-99285714D01*
X115811553Y-99285714D02*
X115859172Y-99333333D01*
X115859172Y-99333333D02*
X115906791Y-99428571D01*
X115906791Y-99428571D02*
X115906791Y-99571428D01*
X115906791Y-99571428D02*
X115859172Y-99666666D01*
X115859172Y-99666666D02*
X115763934Y-99714285D01*
X115763934Y-99714285D02*
X115240124Y-99714285D01*
X115287744Y-100571428D02*
X115240124Y-100476190D01*
X115240124Y-100476190D02*
X115240124Y-100285714D01*
X115240124Y-100285714D02*
X115287744Y-100190476D01*
X115287744Y-100190476D02*
X115382982Y-100142857D01*
X115382982Y-100142857D02*
X115763934Y-100142857D01*
X115763934Y-100142857D02*
X115859172Y-100190476D01*
X115859172Y-100190476D02*
X115906791Y-100285714D01*
X115906791Y-100285714D02*
X115906791Y-100476190D01*
X115906791Y-100476190D02*
X115859172Y-100571428D01*
X115859172Y-100571428D02*
X115763934Y-100619047D01*
X115763934Y-100619047D02*
X115668696Y-100619047D01*
X115668696Y-100619047D02*
X115573458Y-100142857D01*
X115287744Y-101000000D02*
X115240124Y-101095238D01*
X115240124Y-101095238D02*
X115240124Y-101285714D01*
X115240124Y-101285714D02*
X115287744Y-101380952D01*
X115287744Y-101380952D02*
X115382982Y-101428571D01*
X115382982Y-101428571D02*
X115430601Y-101428571D01*
X115430601Y-101428571D02*
X115525839Y-101380952D01*
X115525839Y-101380952D02*
X115573458Y-101285714D01*
X115573458Y-101285714D02*
X115573458Y-101142857D01*
X115573458Y-101142857D02*
X115621077Y-101047619D01*
X115621077Y-101047619D02*
X115716315Y-101000000D01*
X115716315Y-101000000D02*
X115763934Y-101000000D01*
X115763934Y-101000000D02*
X115859172Y-101047619D01*
X115859172Y-101047619D02*
X115906791Y-101142857D01*
X115906791Y-101142857D02*
X115906791Y-101285714D01*
X115906791Y-101285714D02*
X115859172Y-101380952D01*
X115287744Y-101809524D02*
X115240124Y-101904762D01*
X115240124Y-101904762D02*
X115240124Y-102095238D01*
X115240124Y-102095238D02*
X115287744Y-102190476D01*
X115287744Y-102190476D02*
X115382982Y-102238095D01*
X115382982Y-102238095D02*
X115430601Y-102238095D01*
X115430601Y-102238095D02*
X115525839Y-102190476D01*
X115525839Y-102190476D02*
X115573458Y-102095238D01*
X115573458Y-102095238D02*
X115573458Y-101952381D01*
X115573458Y-101952381D02*
X115621077Y-101857143D01*
X115621077Y-101857143D02*
X115716315Y-101809524D01*
X115716315Y-101809524D02*
X115763934Y-101809524D01*
X115763934Y-101809524D02*
X115859172Y-101857143D01*
X115859172Y-101857143D02*
X115906791Y-101952381D01*
X115906791Y-101952381D02*
X115906791Y-102095238D01*
X115906791Y-102095238D02*
X115859172Y-102190476D01*
X115525839Y-103380953D02*
X115525839Y-103857143D01*
X115240124Y-103285715D02*
X116240124Y-103619048D01*
X116240124Y-103619048D02*
X115240124Y-103952381D01*
X115240124Y-104714286D02*
X116240124Y-104714286D01*
X115287744Y-104714286D02*
X115240124Y-104619048D01*
X115240124Y-104619048D02*
X115240124Y-104428572D01*
X115240124Y-104428572D02*
X115287744Y-104333334D01*
X115287744Y-104333334D02*
X115335363Y-104285715D01*
X115335363Y-104285715D02*
X115430601Y-104238096D01*
X115430601Y-104238096D02*
X115716315Y-104238096D01*
X115716315Y-104238096D02*
X115811553Y-104285715D01*
X115811553Y-104285715D02*
X115859172Y-104333334D01*
X115859172Y-104333334D02*
X115906791Y-104428572D01*
X115906791Y-104428572D02*
X115906791Y-104619048D01*
X115906791Y-104619048D02*
X115859172Y-104714286D01*
X115906791Y-105190477D02*
X115049648Y-105190477D01*
X115049648Y-105190477D02*
X114954410Y-105142858D01*
X114954410Y-105142858D02*
X114906791Y-105047620D01*
X114906791Y-105047620D02*
X114906791Y-105000001D01*
X116240124Y-105190477D02*
X116192505Y-105142858D01*
X116192505Y-105142858D02*
X116144886Y-105190477D01*
X116144886Y-105190477D02*
X116192505Y-105238096D01*
X116192505Y-105238096D02*
X116240124Y-105190477D01*
X116240124Y-105190477D02*
X116144886Y-105190477D01*
X114630180Y-97333333D02*
X114630180Y-97428571D01*
X114630180Y-97428571D02*
X114582561Y-97523809D01*
X114582561Y-97523809D02*
X114534942Y-97571428D01*
X114534942Y-97571428D02*
X114439704Y-97619047D01*
X114439704Y-97619047D02*
X114249228Y-97666666D01*
X114249228Y-97666666D02*
X114011133Y-97666666D01*
X114011133Y-97666666D02*
X113820657Y-97619047D01*
X113820657Y-97619047D02*
X113725419Y-97571428D01*
X113725419Y-97571428D02*
X113677800Y-97523809D01*
X113677800Y-97523809D02*
X113630180Y-97428571D01*
X113630180Y-97428571D02*
X113630180Y-97333333D01*
X113630180Y-97333333D02*
X113677800Y-97238095D01*
X113677800Y-97238095D02*
X113725419Y-97190476D01*
X113725419Y-97190476D02*
X113820657Y-97142857D01*
X113820657Y-97142857D02*
X114011133Y-97095238D01*
X114011133Y-97095238D02*
X114249228Y-97095238D01*
X114249228Y-97095238D02*
X114439704Y-97142857D01*
X114439704Y-97142857D02*
X114534942Y-97190476D01*
X114534942Y-97190476D02*
X114582561Y-97238095D01*
X114582561Y-97238095D02*
X114630180Y-97333333D01*
X114011133Y-98095238D02*
X114011133Y-98857143D01*
X113630180Y-99857142D02*
X113630180Y-99285714D01*
X113630180Y-99571428D02*
X114630180Y-99571428D01*
X114630180Y-99571428D02*
X114487323Y-99476190D01*
X114487323Y-99476190D02*
X114392085Y-99380952D01*
X114392085Y-99380952D02*
X114344466Y-99285714D01*
X114630180Y-100476190D02*
X114630180Y-100571428D01*
X114630180Y-100571428D02*
X114582561Y-100666666D01*
X114582561Y-100666666D02*
X114534942Y-100714285D01*
X114534942Y-100714285D02*
X114439704Y-100761904D01*
X114439704Y-100761904D02*
X114249228Y-100809523D01*
X114249228Y-100809523D02*
X114011133Y-100809523D01*
X114011133Y-100809523D02*
X113820657Y-100761904D01*
X113820657Y-100761904D02*
X113725419Y-100714285D01*
X113725419Y-100714285D02*
X113677800Y-100666666D01*
X113677800Y-100666666D02*
X113630180Y-100571428D01*
X113630180Y-100571428D02*
X113630180Y-100476190D01*
X113630180Y-100476190D02*
X113677800Y-100380952D01*
X113677800Y-100380952D02*
X113725419Y-100333333D01*
X113725419Y-100333333D02*
X113820657Y-100285714D01*
X113820657Y-100285714D02*
X114011133Y-100238095D01*
X114011133Y-100238095D02*
X114249228Y-100238095D01*
X114249228Y-100238095D02*
X114439704Y-100285714D01*
X114439704Y-100285714D02*
X114534942Y-100333333D01*
X114534942Y-100333333D02*
X114582561Y-100380952D01*
X114582561Y-100380952D02*
X114630180Y-100476190D01*
X114630180Y-101428571D02*
X114630180Y-101523809D01*
X114630180Y-101523809D02*
X114582561Y-101619047D01*
X114582561Y-101619047D02*
X114534942Y-101666666D01*
X114534942Y-101666666D02*
X114439704Y-101714285D01*
X114439704Y-101714285D02*
X114249228Y-101761904D01*
X114249228Y-101761904D02*
X114011133Y-101761904D01*
X114011133Y-101761904D02*
X113820657Y-101714285D01*
X113820657Y-101714285D02*
X113725419Y-101666666D01*
X113725419Y-101666666D02*
X113677800Y-101619047D01*
X113677800Y-101619047D02*
X113630180Y-101523809D01*
X113630180Y-101523809D02*
X113630180Y-101428571D01*
X113630180Y-101428571D02*
X113677800Y-101333333D01*
X113677800Y-101333333D02*
X113725419Y-101285714D01*
X113725419Y-101285714D02*
X113820657Y-101238095D01*
X113820657Y-101238095D02*
X114011133Y-101190476D01*
X114011133Y-101190476D02*
X114249228Y-101190476D01*
X114249228Y-101190476D02*
X114439704Y-101238095D01*
X114439704Y-101238095D02*
X114534942Y-101285714D01*
X114534942Y-101285714D02*
X114582561Y-101333333D01*
X114582561Y-101333333D02*
X114630180Y-101428571D01*
X113630180Y-102142857D02*
X113630180Y-102380952D01*
X113630180Y-102380952D02*
X113820657Y-102380952D01*
X113820657Y-102380952D02*
X113868276Y-102285714D01*
X113868276Y-102285714D02*
X113963514Y-102190476D01*
X113963514Y-102190476D02*
X114106371Y-102142857D01*
X114106371Y-102142857D02*
X114344466Y-102142857D01*
X114344466Y-102142857D02*
X114487323Y-102190476D01*
X114487323Y-102190476D02*
X114582561Y-102285714D01*
X114582561Y-102285714D02*
X114630180Y-102428571D01*
X114630180Y-102428571D02*
X114630180Y-102619047D01*
X114630180Y-102619047D02*
X114582561Y-102761904D01*
X114582561Y-102761904D02*
X114487323Y-102857142D01*
X114487323Y-102857142D02*
X114344466Y-102904761D01*
X114344466Y-102904761D02*
X114106371Y-102904761D01*
X114106371Y-102904761D02*
X113963514Y-102857142D01*
X113963514Y-102857142D02*
X113868276Y-102761904D01*
X113868276Y-102761904D02*
X113820657Y-102666666D01*
X113820657Y-102666666D02*
X113630180Y-102666666D01*
X113630180Y-102666666D02*
X113630180Y-102904761D01*
X108630180Y-97408207D02*
X109106371Y-97074874D01*
X108630180Y-96836779D02*
X109630180Y-96836779D01*
X109630180Y-96836779D02*
X109630180Y-97217731D01*
X109630180Y-97217731D02*
X109582561Y-97312969D01*
X109582561Y-97312969D02*
X109534942Y-97360588D01*
X109534942Y-97360588D02*
X109439704Y-97408207D01*
X109439704Y-97408207D02*
X109296847Y-97408207D01*
X109296847Y-97408207D02*
X109201609Y-97360588D01*
X109201609Y-97360588D02*
X109153990Y-97312969D01*
X109153990Y-97312969D02*
X109106371Y-97217731D01*
X109106371Y-97217731D02*
X109106371Y-96836779D01*
X109153990Y-98598684D02*
X109153990Y-99360589D01*
X108868276Y-99360589D02*
X108868276Y-98598684D01*
X108630180Y-101122493D02*
X108630180Y-100551065D01*
X108630180Y-100836779D02*
X109630180Y-100836779D01*
X109630180Y-100836779D02*
X109487323Y-100741541D01*
X109487323Y-100741541D02*
X109392085Y-100646303D01*
X109392085Y-100646303D02*
X109344466Y-100551065D01*
X109630180Y-101741541D02*
X109630180Y-101836779D01*
X109630180Y-101836779D02*
X109582561Y-101932017D01*
X109582561Y-101932017D02*
X109534942Y-101979636D01*
X109534942Y-101979636D02*
X109439704Y-102027255D01*
X109439704Y-102027255D02*
X109249228Y-102074874D01*
X109249228Y-102074874D02*
X109011133Y-102074874D01*
X109011133Y-102074874D02*
X108820657Y-102027255D01*
X108820657Y-102027255D02*
X108725419Y-101979636D01*
X108725419Y-101979636D02*
X108677800Y-101932017D01*
X108677800Y-101932017D02*
X108630180Y-101836779D01*
X108630180Y-101836779D02*
X108630180Y-101741541D01*
X108630180Y-101741541D02*
X108677800Y-101646303D01*
X108677800Y-101646303D02*
X108725419Y-101598684D01*
X108725419Y-101598684D02*
X108820657Y-101551065D01*
X108820657Y-101551065D02*
X109011133Y-101503446D01*
X109011133Y-101503446D02*
X109249228Y-101503446D01*
X109249228Y-101503446D02*
X109439704Y-101551065D01*
X109439704Y-101551065D02*
X109534942Y-101598684D01*
X109534942Y-101598684D02*
X109582561Y-101646303D01*
X109582561Y-101646303D02*
X109630180Y-101741541D01*
X108630180Y-102455827D02*
X108630180Y-102693922D01*
X108630180Y-102693922D02*
X108820657Y-102693922D01*
X108820657Y-102693922D02*
X108868276Y-102598684D01*
X108868276Y-102598684D02*
X108963514Y-102503446D01*
X108963514Y-102503446D02*
X109106371Y-102455827D01*
X109106371Y-102455827D02*
X109344466Y-102455827D01*
X109344466Y-102455827D02*
X109487323Y-102503446D01*
X109487323Y-102503446D02*
X109582561Y-102598684D01*
X109582561Y-102598684D02*
X109630180Y-102741541D01*
X109630180Y-102741541D02*
X109630180Y-102932017D01*
X109630180Y-102932017D02*
X109582561Y-103074874D01*
X109582561Y-103074874D02*
X109487323Y-103170112D01*
X109487323Y-103170112D02*
X109344466Y-103217731D01*
X109344466Y-103217731D02*
X109106371Y-103217731D01*
X109106371Y-103217731D02*
X108963514Y-103170112D01*
X108963514Y-103170112D02*
X108868276Y-103074874D01*
X108868276Y-103074874D02*
X108820657Y-102979636D01*
X108820657Y-102979636D02*
X108630180Y-102979636D01*
X108630180Y-102979636D02*
X108630180Y-103217731D01*
D12*
X114632780Y-108345863D02*
X114632780Y-107869673D01*
X114632780Y-107869673D02*
X115632780Y-107869673D01*
X115156590Y-108679197D02*
X115156590Y-109012530D01*
X114632780Y-109155387D02*
X114632780Y-108679197D01*
X114632780Y-108679197D02*
X115632780Y-108679197D01*
X115632780Y-108679197D02*
X115632780Y-109155387D01*
X114632780Y-109583959D02*
X115632780Y-109583959D01*
X115632780Y-109583959D02*
X115632780Y-109822054D01*
X115632780Y-109822054D02*
X115585161Y-109964911D01*
X115585161Y-109964911D02*
X115489923Y-110060149D01*
X115489923Y-110060149D02*
X115394685Y-110107768D01*
X115394685Y-110107768D02*
X115204209Y-110155387D01*
X115204209Y-110155387D02*
X115061352Y-110155387D01*
X115061352Y-110155387D02*
X114870876Y-110107768D01*
X114870876Y-110107768D02*
X114775638Y-110060149D01*
X114775638Y-110060149D02*
X114680400Y-109964911D01*
X114680400Y-109964911D02*
X114632780Y-109822054D01*
X114632780Y-109822054D02*
X114632780Y-109583959D01*
X115013733Y-110583959D02*
X115013733Y-111345864D01*
X114632780Y-86845863D02*
X114632780Y-86369673D01*
X114632780Y-86369673D02*
X115632780Y-86369673D01*
X115156590Y-87179197D02*
X115156590Y-87512530D01*
X114632780Y-87655387D02*
X114632780Y-87179197D01*
X114632780Y-87179197D02*
X115632780Y-87179197D01*
X115632780Y-87179197D02*
X115632780Y-87655387D01*
X114632780Y-88083959D02*
X115632780Y-88083959D01*
X115632780Y-88083959D02*
X115632780Y-88322054D01*
X115632780Y-88322054D02*
X115585161Y-88464911D01*
X115585161Y-88464911D02*
X115489923Y-88560149D01*
X115489923Y-88560149D02*
X115394685Y-88607768D01*
X115394685Y-88607768D02*
X115204209Y-88655387D01*
X115204209Y-88655387D02*
X115061352Y-88655387D01*
X115061352Y-88655387D02*
X114870876Y-88607768D01*
X114870876Y-88607768D02*
X114775638Y-88560149D01*
X114775638Y-88560149D02*
X114680400Y-88464911D01*
X114680400Y-88464911D02*
X114632780Y-88322054D01*
X114632780Y-88322054D02*
X114632780Y-88083959D01*
X115013733Y-89083959D02*
X115013733Y-89845864D01*
X114632780Y-89464911D02*
X115394685Y-89464911D01*
D13*
G36*
X103706378Y-99891473D02*
G01*
X103762565Y-99945988D01*
X103789921Y-99998278D01*
X103791391Y-100129751D01*
X103767304Y-100180219D01*
X103710169Y-100239105D01*
X103573476Y-100274863D01*
X103271346Y-100276892D01*
X103122858Y-100241482D01*
X103066673Y-100186969D01*
X103039316Y-100134677D01*
X103037846Y-100003203D01*
X103061934Y-99952735D01*
X103119066Y-99893851D01*
X103255760Y-99858092D01*
X103557890Y-99856063D01*
X103706378Y-99891473D01*
G37*
G36*
X103266982Y-98880710D02*
G01*
X103287147Y-98899847D01*
X103313586Y-98950384D01*
X103314953Y-99180979D01*
X103038890Y-99181626D01*
X103037554Y-98956197D01*
X103062184Y-98904590D01*
X103081321Y-98884425D01*
X103132302Y-98857754D01*
X103216352Y-98856547D01*
X103266982Y-98880710D01*
G37*
G36*
X104164619Y-102840103D02*
G01*
X102617185Y-102840103D01*
X102617185Y-102406616D01*
X102742185Y-102406616D01*
X102746579Y-102423767D01*
X102749083Y-102441292D01*
X102752584Y-102447205D01*
X102754290Y-102453862D01*
X102767000Y-102474812D01*
X102926410Y-102683356D01*
X102968377Y-102708205D01*
X103016661Y-102715103D01*
X103063907Y-102702998D01*
X103102925Y-102673735D01*
X103127774Y-102631768D01*
X103134672Y-102583484D01*
X103122567Y-102536238D01*
X103109857Y-102515288D01*
X103021892Y-102400210D01*
X103122567Y-102263386D01*
X103134672Y-102216140D01*
X103127774Y-102167856D01*
X103102925Y-102125889D01*
X103063907Y-102096626D01*
X103016661Y-102084521D01*
X102968377Y-102091419D01*
X102926410Y-102116268D01*
X102909857Y-102134336D01*
X102778368Y-102313037D01*
X102773932Y-102316365D01*
X102765738Y-102330202D01*
X102754290Y-102345762D01*
X102752584Y-102352418D01*
X102749083Y-102358332D01*
X102746579Y-102375856D01*
X102742185Y-102393008D01*
X102743157Y-102399812D01*
X102742185Y-102406616D01*
X102617185Y-102406616D01*
X102617185Y-100685526D01*
X102789619Y-100685526D01*
X102792021Y-101281340D01*
X102810685Y-101326400D01*
X102845173Y-101360888D01*
X102890233Y-101379552D01*
X102939005Y-101379552D01*
X102984065Y-101360888D01*
X103018553Y-101326400D01*
X103037217Y-101281340D01*
X103039619Y-101256954D01*
X103038969Y-101095948D01*
X103939005Y-101093838D01*
X103984065Y-101075174D01*
X104018553Y-101040686D01*
X104037217Y-100995626D01*
X104037217Y-100946854D01*
X104018553Y-100901794D01*
X103984065Y-100867306D01*
X103939005Y-100848642D01*
X103914619Y-100846240D01*
X103037971Y-100848295D01*
X103037217Y-100661140D01*
X103018553Y-100616080D01*
X102984065Y-100581592D01*
X102939005Y-100562928D01*
X102890233Y-100562928D01*
X102845173Y-100581592D01*
X102810685Y-100616080D01*
X102792021Y-100661140D01*
X102789619Y-100685526D01*
X102617185Y-100685526D01*
X102617185Y-99971240D01*
X102789619Y-99971240D01*
X102791542Y-100143256D01*
X102790600Y-100146082D01*
X102791755Y-100162335D01*
X102792021Y-100186102D01*
X102793739Y-100190250D01*
X102794058Y-100194732D01*
X102802816Y-100217618D01*
X102852901Y-100313354D01*
X102858305Y-100326400D01*
X102862224Y-100331176D01*
X102863489Y-100333593D01*
X102865983Y-100335756D01*
X102873850Y-100345342D01*
X102961305Y-100430195D01*
X102964896Y-100436180D01*
X102975800Y-100444259D01*
X102988030Y-100456125D01*
X102996615Y-100459681D01*
X103004084Y-100465215D01*
X103027159Y-100473460D01*
X103211547Y-100517430D01*
X103223566Y-100522409D01*
X103238655Y-100523895D01*
X103241875Y-100524663D01*
X103243697Y-100524391D01*
X103247952Y-100524811D01*
X103573657Y-100522623D01*
X103587361Y-100524663D01*
X103602460Y-100522430D01*
X103605671Y-100522409D01*
X103607372Y-100521704D01*
X103611602Y-100521079D01*
X103788551Y-100474790D01*
X103796147Y-100474790D01*
X103809168Y-100469396D01*
X103825153Y-100465215D01*
X103832619Y-100459682D01*
X103841207Y-100456126D01*
X103860149Y-100440581D01*
X103954428Y-100343411D01*
X103965749Y-100333593D01*
X103969063Y-100328327D01*
X103970933Y-100326401D01*
X103972196Y-100323350D01*
X103978803Y-100312856D01*
X104017099Y-100232615D01*
X104018553Y-100231162D01*
X104023544Y-100219112D01*
X104035180Y-100194732D01*
X104035498Y-100190251D01*
X104037217Y-100186102D01*
X104039619Y-100161716D01*
X104037695Y-99989696D01*
X104038637Y-99986873D01*
X104037482Y-99970630D01*
X104037217Y-99946854D01*
X104035498Y-99942704D01*
X104035180Y-99938224D01*
X104026422Y-99915338D01*
X103976338Y-99819604D01*
X103970933Y-99806555D01*
X103967011Y-99801777D01*
X103965749Y-99799363D01*
X103963257Y-99797201D01*
X103955388Y-99787613D01*
X103867930Y-99702757D01*
X103864341Y-99696776D01*
X103853441Y-99688700D01*
X103841207Y-99676830D01*
X103832619Y-99673273D01*
X103825153Y-99667741D01*
X103802078Y-99659496D01*
X103617690Y-99615525D01*
X103605671Y-99610547D01*
X103590579Y-99609060D01*
X103587361Y-99608293D01*
X103585539Y-99608564D01*
X103581285Y-99608145D01*
X103255579Y-99610332D01*
X103241875Y-99608293D01*
X103226776Y-99610525D01*
X103223566Y-99610547D01*
X103221864Y-99611251D01*
X103217635Y-99611877D01*
X103040686Y-99658166D01*
X103033089Y-99658166D01*
X103020068Y-99663559D01*
X103004084Y-99667741D01*
X102996615Y-99673274D01*
X102988030Y-99676831D01*
X102969088Y-99692376D01*
X102874814Y-99789540D01*
X102863489Y-99799363D01*
X102860172Y-99804631D01*
X102858305Y-99806556D01*
X102857043Y-99809602D01*
X102850434Y-99820101D01*
X102812138Y-99900340D01*
X102810685Y-99901794D01*
X102805694Y-99913842D01*
X102794058Y-99938224D01*
X102793739Y-99942705D01*
X102792021Y-99946854D01*
X102789619Y-99971240D01*
X102617185Y-99971240D01*
X102617185Y-98923621D01*
X102789619Y-98923621D01*
X102792021Y-99328959D01*
X102810685Y-99374019D01*
X102845173Y-99408507D01*
X102890233Y-99427171D01*
X102914619Y-99429573D01*
X103939005Y-99427171D01*
X103984065Y-99408507D01*
X104018553Y-99374019D01*
X104037217Y-99328959D01*
X104037217Y-99280187D01*
X104018553Y-99235127D01*
X103984065Y-99200639D01*
X103939005Y-99181975D01*
X103914619Y-99179573D01*
X103562692Y-99180398D01*
X103561283Y-98942740D01*
X103562446Y-98939254D01*
X103561155Y-98921093D01*
X103561026Y-98899235D01*
X103559307Y-98895085D01*
X103558989Y-98890605D01*
X103550231Y-98867719D01*
X103500147Y-98771985D01*
X103494742Y-98758936D01*
X103490820Y-98754158D01*
X103489558Y-98751744D01*
X103487066Y-98749582D01*
X103479197Y-98739994D01*
X103427875Y-98691292D01*
X103419829Y-98682015D01*
X103414689Y-98678779D01*
X103412636Y-98676831D01*
X103409589Y-98675569D01*
X103399091Y-98668960D01*
X103318851Y-98630664D01*
X103317398Y-98629211D01*
X103305349Y-98624220D01*
X103280968Y-98612584D01*
X103276486Y-98612265D01*
X103272338Y-98610547D01*
X103247952Y-98608145D01*
X103123159Y-98609937D01*
X103120728Y-98609127D01*
X103105820Y-98610186D01*
X103080709Y-98610547D01*
X103076559Y-98612265D01*
X103072079Y-98612584D01*
X103049193Y-98621342D01*
X102953459Y-98671425D01*
X102940410Y-98676831D01*
X102935632Y-98680752D01*
X102933218Y-98682015D01*
X102931056Y-98684506D01*
X102921468Y-98692376D01*
X102872766Y-98743697D01*
X102863489Y-98751744D01*
X102860253Y-98756883D01*
X102858305Y-98758937D01*
X102857043Y-98761983D01*
X102850434Y-98772482D01*
X102812138Y-98852721D01*
X102810685Y-98854175D01*
X102805694Y-98866223D01*
X102794058Y-98890605D01*
X102793739Y-98895086D01*
X102792021Y-98899235D01*
X102789619Y-98923621D01*
X102617185Y-98923621D01*
X102617185Y-97501853D01*
X102742185Y-97501853D01*
X102746579Y-97519004D01*
X102749083Y-97536529D01*
X102752584Y-97542442D01*
X102754290Y-97549099D01*
X102767000Y-97570049D01*
X102926410Y-97778593D01*
X102968377Y-97803442D01*
X103016661Y-97810340D01*
X103063907Y-97798235D01*
X103102925Y-97768972D01*
X103127774Y-97727005D01*
X103134672Y-97678721D01*
X103122567Y-97631475D01*
X103109857Y-97610525D01*
X103021892Y-97495447D01*
X103122567Y-97358623D01*
X103134672Y-97311377D01*
X103127774Y-97263093D01*
X103102925Y-97221126D01*
X103063907Y-97191863D01*
X103016661Y-97179758D01*
X102968377Y-97186656D01*
X102926410Y-97211505D01*
X102909857Y-97229573D01*
X102778368Y-97408274D01*
X102773932Y-97411602D01*
X102765738Y-97425439D01*
X102754290Y-97440999D01*
X102752584Y-97447655D01*
X102749083Y-97453569D01*
X102746579Y-97471093D01*
X102742185Y-97488245D01*
X102743157Y-97495049D01*
X102742185Y-97501853D01*
X102617185Y-97501853D01*
X102617185Y-97054758D01*
X104164619Y-97054758D01*
X104164619Y-102840103D01*
G37*
D14*
X110130000Y-96730001D02*
X110130001Y-103270001D01*
X110130001Y-103270001D02*
X112870000Y-103270001D01*
X111499998Y-95960003D02*
X111500000Y-96730000D01*
X111500000Y-104040002D02*
X111500000Y-103270001D01*
X112870000Y-96730001D02*
X110130000Y-96730001D01*
X112870000Y-103270001D02*
X112870000Y-96730001D01*
D15*
X116700000Y-96700000D02*
X119200000Y-96700000D01*
X116700000Y-99400000D02*
X116700000Y-96700000D01*
X116700000Y-103300000D02*
X116700000Y-100600000D01*
X116700000Y-103300000D02*
X119200000Y-103300000D01*
X123300000Y-96700000D02*
X121000000Y-96700000D01*
X123300000Y-96700000D02*
X123300000Y-97500000D01*
X123300000Y-97500000D02*
X123690000Y-97500000D01*
X123300000Y-98500000D02*
X123300000Y-101500000D01*
X123300000Y-101500000D02*
X123690000Y-101500000D01*
X123300000Y-102500000D02*
X123300000Y-103300000D01*
X123300000Y-103300000D02*
X121000000Y-103300000D01*
X123690000Y-97500000D02*
X123690000Y-98500000D01*
X123690000Y-98500000D02*
X123300000Y-98500000D01*
X123690000Y-101500000D02*
X123690000Y-102500000D01*
X123690000Y-102500000D02*
X123300000Y-102500000D01*
%LPC*%
D16*
X100500000Y-96600000D03*
D17*
X100900000Y-97400000D03*
X100900000Y-98200000D03*
D16*
X100500000Y-99000000D03*
D17*
X100900000Y-99800000D03*
X100900000Y-100600000D03*
D16*
X100500000Y-101400000D03*
D17*
X100900000Y-102200000D03*
X100900000Y-103000000D03*
D16*
X100500000Y-103800000D03*
D18*
X124000000Y-90500000D03*
D19*
X111500000Y-94920001D03*
D20*
X111499998Y-105080000D03*
D21*
X124500000Y-109000000D03*
D22*
X117620000Y-100000000D03*
X120160000Y-102540000D03*
X120160000Y-97460000D03*
D23*
X110850000Y-112500000D03*
X111333274Y-111333274D03*
X111333274Y-113666726D03*
X112500000Y-110850000D03*
D24*
X112500000Y-112500000D03*
D23*
X112500000Y-114150000D03*
X113666726Y-111333274D03*
X113666726Y-113666726D03*
X114150000Y-112500000D03*
%LPD*%
M02*
