G04 #@! TF.GenerationSoftware,KiCad,Pcbnew,8.0.1*
G04 #@! TF.CreationDate,2024-04-29T19:52:15-05:00*
G04 #@! TF.ProjectId,LED_Hexpansion_v2,4c45445f-4865-4787-9061-6e73696f6e5f,rev?*
G04 #@! TF.SameCoordinates,Original*
G04 #@! TF.FileFunction,Legend,Bot*
G04 #@! TF.FilePolarity,Positive*
%FSLAX46Y46*%
G04 Gerber Fmt 4.6, Leading zero omitted, Abs format (unit mm)*
G04 Created by KiCad (PCBNEW 8.0.1) date 2024-04-29 19:52:15*
%MOMM*%
%LPD*%
G01*
G04 APERTURE LIST*
G04 Aperture macros list*
%AMRoundRect*
0 Rectangle with rounded corners*
0 $1 Rounding radius*
0 $2 $3 $4 $5 $6 $7 $8 $9 X,Y pos of 4 corners*
0 Add a 4 corners polygon primitive as box body*
4,1,4,$2,$3,$4,$5,$6,$7,$8,$9,$2,$3,0*
0 Add four circle primitives for the rounded corners*
1,1,$1+$1,$2,$3*
1,1,$1+$1,$4,$5*
1,1,$1+$1,$6,$7*
1,1,$1+$1,$8,$9*
0 Add four rect primitives between the rounded corners*
20,1,$1+$1,$2,$3,$4,$5,0*
20,1,$1+$1,$4,$5,$6,$7,0*
20,1,$1+$1,$6,$7,$8,$9,0*
20,1,$1+$1,$8,$9,$2,$3,0*%
%AMFreePoly0*
4,1,87,6.047416,3.588044,6.090111,3.543358,6.100000,3.500000,6.100000,-3.000000,6.080902,-3.058779,6.030901,-3.095106,6.000000,-3.100000,-6.000000,-3.100000,-6.058779,-3.080902,-6.095106,-3.030902,-6.100000,-3.000000,-6.100000,3.500000,-6.080902,3.558779,-6.030902,3.595106,-5.969098,3.595106,-5.919098,3.558779,-5.901613,3.517889,-5.000000,-1.440982,-4.098387,3.517889,-4.069082,3.572303,
-4.013390,3.599099,-3.952584,3.588044,-3.909889,3.543358,-3.901613,3.517889,-3.000000,-1.440982,-2.884704,-0.806854,-2.919135,-0.691848,-2.979715,-0.348279,-3.000000,0.000000,-2.979715,0.348279,-2.919135,0.691848,-2.819078,1.026060,-2.680898,1.346398,-2.506463,1.648527,-2.416235,1.769724,-2.098387,3.517889,-2.069082,3.572303,-2.013390,3.599099,-1.952584,3.588044,-1.909889,3.543359,
-1.901613,3.517889,-1.709340,2.460391,-1.500000,2.598076,-1.188239,2.754648,-0.860410,2.873969,-0.520945,2.954423,-0.193883,2.992649,-0.098387,3.517889,-0.069082,3.572303,-0.013390,3.599099,0.047416,3.588044,0.090110,3.543358,0.098387,3.517889,0.193884,2.992650,0.520945,2.954423,0.860410,2.873969,1.188239,2.754648,1.500000,2.598076,1.709340,2.460391,1.901613,3.517889,
1.930918,3.572303,1.986610,3.599099,2.047416,3.588044,2.090111,3.543358,2.098387,3.517889,2.416235,1.769724,2.506463,1.648527,2.680898,1.346398,2.819078,1.026060,2.919135,0.691848,2.979715,0.348279,3.000000,0.000000,2.979715,-0.348279,2.919135,-0.691848,2.884704,-0.806854,3.000000,-1.440982,3.901612,3.517889,3.930918,3.572303,3.986610,3.599099,4.047416,3.588044,
4.090111,3.543358,4.098387,3.517889,5.000000,-1.440982,5.901613,3.517889,5.930918,3.572303,5.986610,3.599099,6.047416,3.588044,6.047416,3.588044,$1*%
%AMFreePoly1*
4,1,19,0.500000,-0.750000,0.000000,-0.750000,0.000000,-0.744911,-0.071157,-0.744911,-0.207708,-0.704816,-0.327430,-0.627875,-0.420627,-0.520320,-0.479746,-0.390866,-0.500000,-0.250000,-0.500000,0.250000,-0.479746,0.390866,-0.420627,0.520320,-0.327430,0.627875,-0.207708,0.704816,-0.071157,0.744911,0.000000,0.744911,0.000000,0.750000,0.500000,0.750000,0.500000,-0.750000,0.500000,-0.750000,
$1*%
%AMFreePoly2*
4,1,19,0.000000,0.744911,0.071157,0.744911,0.207708,0.704816,0.327430,0.627875,0.420627,0.520320,0.479746,0.390866,0.500000,0.250000,0.500000,-0.250000,0.479746,-0.390866,0.420627,-0.520320,0.327430,-0.627875,0.207708,-0.704816,0.071157,-0.744911,0.000000,-0.744911,0.000000,-0.750000,-0.500000,-0.750000,-0.500000,0.750000,0.000000,0.750000,0.000000,0.744911,0.000000,0.744911,
$1*%
G04 Aperture macros list end*
%ADD10C,0.150000*%
%ADD11C,0.000000*%
%ADD12C,0.200000*%
%ADD13C,0.250000*%
%ADD14C,0.120000*%
%ADD15RoundRect,0.150000X-1.600000X-0.150000X1.600000X-0.150000X1.600000X0.150000X-1.600000X0.150000X0*%
%ADD16RoundRect,0.150000X-1.200000X-0.150000X1.200000X-0.150000X1.200000X0.150000X-1.200000X0.150000X0*%
%ADD17FreePoly0,150.000000*%
%ADD18C,1.600000*%
%ADD19O,1.600000X1.600000*%
%ADD20FreePoly0,30.000000*%
%ADD21C,1.900000*%
%ADD22C,0.700000*%
%ADD23C,4.400000*%
%ADD24FreePoly1,270.000000*%
%ADD25FreePoly2,270.000000*%
G04 APERTURE END LIST*
D10*
X113568532Y-93345680D02*
X113029784Y-92806932D01*
X112895097Y-92268184D02*
X112154319Y-91931467D01*
X112154319Y-91931467D02*
X112491036Y-92672245D01*
G36*
X105920781Y-100438729D02*
G01*
X106075788Y-100428116D01*
X106227665Y-100392666D01*
X106302533Y-100363258D01*
X106430057Y-100281148D01*
X106534247Y-100169504D01*
X106589030Y-100088485D01*
X106663187Y-99956803D01*
X106682086Y-99922156D01*
X106762277Y-99793259D01*
X106804452Y-99736043D01*
X106908151Y-99629729D01*
X106970781Y-99584368D01*
X107110319Y-99530092D01*
X107194996Y-99522819D01*
X107344185Y-99546521D01*
X107469688Y-99625060D01*
X107505673Y-99666434D01*
X107579804Y-99798548D01*
X107612422Y-99943565D01*
X107614117Y-99987369D01*
X107594405Y-100139162D01*
X107529089Y-100282617D01*
X107494682Y-100328820D01*
X107385689Y-100442281D01*
X107267719Y-100531339D01*
X107232365Y-100552302D01*
X107432400Y-100856385D01*
X107576926Y-100782299D01*
X107702210Y-100687811D01*
X107808251Y-100572922D01*
X107858848Y-100500279D01*
X107932522Y-100360312D01*
X107982084Y-100214085D01*
X108007535Y-100061599D01*
X108011256Y-99974180D01*
X107999097Y-99818074D01*
X107962621Y-99666296D01*
X107924794Y-99567515D01*
X107847102Y-99430026D01*
X107742619Y-99312114D01*
X107658080Y-99244382D01*
X107521776Y-99172212D01*
X107376376Y-99132599D01*
X107228017Y-99118115D01*
X107192798Y-99117620D01*
X107045665Y-99128503D01*
X106900840Y-99168109D01*
X106866734Y-99183565D01*
X106737766Y-99265469D01*
X106642519Y-99358688D01*
X106549181Y-99483166D01*
X106474724Y-99607083D01*
X106395097Y-99738115D01*
X106346496Y-99815910D01*
X106253302Y-99930456D01*
X106185296Y-99985170D01*
X106045384Y-100039621D01*
X105920781Y-100050383D01*
X105920781Y-100438729D01*
G37*
G36*
X105010000Y-100426273D02*
G01*
X105525840Y-100426273D01*
X105525840Y-100041591D01*
X105010000Y-100041591D01*
X105010000Y-100426273D01*
G37*
D11*
G36*
X110660473Y-97573487D02*
G01*
X110668768Y-97573910D01*
X110677029Y-97574731D01*
X110685233Y-97575942D01*
X110693374Y-97577545D01*
X110701431Y-97579534D01*
X110709389Y-97581908D01*
X110717238Y-97584663D01*
X110724955Y-97587800D01*
X110732532Y-97591313D01*
X110739950Y-97595199D01*
X110747193Y-97599458D01*
X110754251Y-97604086D01*
X110761101Y-97609079D01*
X110767733Y-97614437D01*
X110774134Y-97620156D01*
X110780282Y-97626233D01*
X110786169Y-97632668D01*
X110791775Y-97639455D01*
X110797086Y-97646593D01*
X110859940Y-97739261D01*
X110918848Y-97833369D01*
X110973937Y-97928636D01*
X111025336Y-98024787D01*
X111073175Y-98121545D01*
X111117580Y-98218630D01*
X111158679Y-98315761D01*
X111196601Y-98412667D01*
X111231474Y-98509065D01*
X111263426Y-98604683D01*
X111292586Y-98699235D01*
X111319078Y-98792450D01*
X111364585Y-98973748D01*
X111400972Y-99146357D01*
X111434563Y-99078343D01*
X111471252Y-99009217D01*
X111511175Y-98939133D01*
X111554473Y-98868247D01*
X111601278Y-98796707D01*
X111651729Y-98724666D01*
X111705960Y-98652281D01*
X111764111Y-98579700D01*
X111826319Y-98507075D01*
X111892718Y-98434562D01*
X111963446Y-98362310D01*
X112038640Y-98290476D01*
X112118436Y-98219209D01*
X112202973Y-98148663D01*
X112292385Y-98078990D01*
X112386809Y-98010341D01*
X112394216Y-98005413D01*
X112401782Y-98000913D01*
X112409492Y-97996840D01*
X112417332Y-97993192D01*
X112425283Y-97989964D01*
X112433334Y-97987155D01*
X112441469Y-97984762D01*
X112449670Y-97982781D01*
X112457926Y-97981214D01*
X112466219Y-97980053D01*
X112474535Y-97979298D01*
X112482859Y-97978948D01*
X112491175Y-97978996D01*
X112499468Y-97979442D01*
X112507725Y-97980281D01*
X112515926Y-97981515D01*
X112524061Y-97983139D01*
X112532111Y-97985150D01*
X112540063Y-97987543D01*
X112547901Y-97990320D01*
X112555611Y-97993476D01*
X112563176Y-97997008D01*
X112570584Y-98000915D01*
X112577815Y-98005192D01*
X112584859Y-98009839D01*
X112591696Y-98014853D01*
X112598315Y-98020227D01*
X112604698Y-98025963D01*
X112610834Y-98032058D01*
X112616699Y-98038508D01*
X112622288Y-98045309D01*
X112627580Y-98052464D01*
X112632509Y-98059868D01*
X112637008Y-98067428D01*
X112641081Y-98075132D01*
X112644731Y-98082968D01*
X112647959Y-98090917D01*
X112650767Y-98098962D01*
X112653160Y-98107096D01*
X112655140Y-98115293D01*
X112656708Y-98123549D01*
X112657869Y-98131841D01*
X112658624Y-98140153D01*
X112658975Y-98148475D01*
X112658927Y-98156792D01*
X112658481Y-98165084D01*
X112657641Y-98173338D01*
X112656406Y-98181542D01*
X112654783Y-98189676D01*
X112652774Y-98197727D01*
X112650377Y-98205678D01*
X112647602Y-98213518D01*
X112644444Y-98221229D01*
X112640913Y-98228797D01*
X112637008Y-98236204D01*
X112632730Y-98243440D01*
X112628083Y-98250484D01*
X112623071Y-98257326D01*
X112617695Y-98263948D01*
X112611958Y-98270335D01*
X112605863Y-98276473D01*
X112599415Y-98282345D01*
X112592610Y-98287936D01*
X112585458Y-98293234D01*
X112495180Y-98359055D01*
X112410131Y-98425888D01*
X112330157Y-98493558D01*
X112255105Y-98561888D01*
X112184813Y-98630703D01*
X112119125Y-98699825D01*
X112057889Y-98769083D01*
X112000941Y-98838296D01*
X111948129Y-98907290D01*
X111899296Y-98975890D01*
X111854285Y-99043919D01*
X111812936Y-99111200D01*
X111775097Y-99177561D01*
X111740610Y-99242823D01*
X111709315Y-99306809D01*
X111681060Y-99369348D01*
X111781465Y-99294133D01*
X111896243Y-99218080D01*
X112026364Y-99141683D01*
X112097483Y-99103509D01*
X112172802Y-99065434D01*
X112252443Y-99027520D01*
X112336528Y-98989825D01*
X112425178Y-98952414D01*
X112518516Y-98915348D01*
X112616661Y-98878686D01*
X112719736Y-98842495D01*
X112827864Y-98806832D01*
X112941164Y-98771758D01*
X112949750Y-98769420D01*
X112958349Y-98767540D01*
X112966951Y-98766108D01*
X112975541Y-98765119D01*
X112984106Y-98764566D01*
X112992631Y-98764440D01*
X113001105Y-98764736D01*
X113009513Y-98765445D01*
X113017841Y-98766561D01*
X113026076Y-98768077D01*
X113034206Y-98769983D01*
X113042215Y-98772274D01*
X113050091Y-98774942D01*
X113057819Y-98777982D01*
X113065386Y-98781385D01*
X113072781Y-98785141D01*
X113079989Y-98789248D01*
X113086993Y-98793694D01*
X113093785Y-98798473D01*
X113100344Y-98803582D01*
X113106667Y-98809009D01*
X113112733Y-98814748D01*
X113118530Y-98820790D01*
X113124043Y-98827131D01*
X113129262Y-98833763D01*
X113134172Y-98840677D01*
X113138759Y-98847868D01*
X113143011Y-98855327D01*
X113146911Y-98863046D01*
X113150448Y-98871019D01*
X113153607Y-98879240D01*
X113156375Y-98887701D01*
X113158709Y-98896262D01*
X113160587Y-98904841D01*
X113162016Y-98913424D01*
X113163002Y-98921998D01*
X113163553Y-98930550D01*
X113163676Y-98939065D01*
X113163379Y-98947529D01*
X113162669Y-98955931D01*
X113161552Y-98964253D01*
X113160038Y-98972485D01*
X113158129Y-98980613D01*
X113155839Y-98988621D01*
X113153169Y-98996496D01*
X113150131Y-99004227D01*
X113146732Y-99011802D01*
X113142976Y-99019197D01*
X113138871Y-99026410D01*
X113134426Y-99033421D01*
X113129645Y-99040220D01*
X113124542Y-99046790D01*
X113119116Y-99053118D01*
X113113379Y-99059192D01*
X113107337Y-99064997D01*
X113100997Y-99070519D01*
X113094368Y-99075748D01*
X113087456Y-99080666D01*
X113080266Y-99085261D01*
X113072808Y-99089519D01*
X113065089Y-99093427D01*
X113057116Y-99096971D01*
X113048897Y-99100136D01*
X113040437Y-99102911D01*
X112952126Y-99130082D01*
X112867484Y-99157494D01*
X112786432Y-99185110D01*
X112708894Y-99212896D01*
X112634790Y-99240812D01*
X112564042Y-99268823D01*
X112496574Y-99296896D01*
X112432307Y-99324992D01*
X112371164Y-99353071D01*
X112313067Y-99381104D01*
X112257940Y-99409049D01*
X112205701Y-99436870D01*
X112156277Y-99464534D01*
X112109585Y-99492001D01*
X112065552Y-99519235D01*
X112024099Y-99546202D01*
X111985147Y-99572862D01*
X111948619Y-99599183D01*
X111914436Y-99625126D01*
X111882524Y-99650654D01*
X111825191Y-99700322D01*
X111775999Y-99747897D01*
X111734327Y-99793085D01*
X111699550Y-99835597D01*
X111671047Y-99875141D01*
X111648199Y-99911426D01*
X111660985Y-99916638D01*
X111673460Y-99922205D01*
X111685614Y-99928121D01*
X111697434Y-99934377D01*
X111708907Y-99940960D01*
X111720023Y-99947866D01*
X111730768Y-99955081D01*
X111741133Y-99962597D01*
X111751106Y-99970407D01*
X111760672Y-99978500D01*
X111769822Y-99986866D01*
X111778541Y-99995500D01*
X111786823Y-100004388D01*
X111794651Y-100013522D01*
X111802016Y-100022898D01*
X111808906Y-100032499D01*
X111816598Y-100030426D01*
X111824430Y-100028581D01*
X111832397Y-100026979D01*
X111840497Y-100025634D01*
X111848726Y-100024563D01*
X111857083Y-100023779D01*
X111865559Y-100023296D01*
X111874153Y-100023132D01*
X111882102Y-100023260D01*
X111889961Y-100023638D01*
X111897721Y-100024267D01*
X111905380Y-100025130D01*
X111912929Y-100026234D01*
X111920359Y-100027565D01*
X111927665Y-100029124D01*
X111934842Y-100030902D01*
X111941881Y-100032895D01*
X111948777Y-100035097D01*
X111955521Y-100037504D01*
X111962111Y-100040112D01*
X111968534Y-100042912D01*
X111974789Y-100045898D01*
X111980865Y-100049072D01*
X111986759Y-100052423D01*
X111992462Y-100055946D01*
X111997970Y-100059637D01*
X112003270Y-100063490D01*
X112008362Y-100067502D01*
X112013237Y-100071666D01*
X112017889Y-100075976D01*
X112022309Y-100080428D01*
X112026492Y-100085017D01*
X112030432Y-100089735D01*
X112034123Y-100094581D01*
X112037554Y-100099546D01*
X112040723Y-100104628D01*
X112043623Y-100109818D01*
X112046245Y-100115114D01*
X112048581Y-100120512D01*
X112050628Y-100126004D01*
X111849176Y-100145053D01*
X111849817Y-100152541D01*
X111849961Y-100154407D01*
X111850077Y-100156275D01*
X111850154Y-100158147D01*
X111850181Y-100160028D01*
X111850153Y-100161909D01*
X111850077Y-100163780D01*
X111849961Y-100165648D01*
X111849817Y-100167510D01*
X111849176Y-100174952D01*
X112050630Y-100194001D01*
X112046253Y-100204888D01*
X112040741Y-100215377D01*
X112034143Y-100225425D01*
X112026515Y-100234989D01*
X112017913Y-100244028D01*
X112008385Y-100252503D01*
X111997990Y-100260367D01*
X111986780Y-100267583D01*
X111974805Y-100274105D01*
X111962124Y-100279895D01*
X111948787Y-100284907D01*
X111934849Y-100289103D01*
X111920363Y-100292438D01*
X111905382Y-100294873D01*
X111889961Y-100296365D01*
X111874153Y-100296872D01*
X111865559Y-100296706D01*
X111857082Y-100296218D01*
X111848727Y-100295426D01*
X111840498Y-100294343D01*
X111832397Y-100292990D01*
X111824430Y-100291378D01*
X111816598Y-100289528D01*
X111808906Y-100287452D01*
X111802017Y-100297055D01*
X111794653Y-100306429D01*
X111786824Y-100315563D01*
X111778543Y-100324453D01*
X111769821Y-100333086D01*
X111760671Y-100341451D01*
X111751104Y-100349545D01*
X111741133Y-100357355D01*
X111730770Y-100364871D01*
X111720022Y-100372086D01*
X111708908Y-100378991D01*
X111697434Y-100385574D01*
X111685616Y-100391830D01*
X111673461Y-100397745D01*
X111660985Y-100403314D01*
X111648200Y-100408524D01*
X111671050Y-100444812D01*
X111699552Y-100484355D01*
X111734330Y-100526871D01*
X111776007Y-100572064D01*
X111825202Y-100619639D01*
X111882538Y-100669310D01*
X111948637Y-100720786D01*
X112024118Y-100773768D01*
X112109609Y-100827973D01*
X112205723Y-100883104D01*
X112313091Y-100938871D01*
X112432330Y-100994984D01*
X112564061Y-101051147D01*
X112708908Y-101107071D01*
X112867493Y-101162466D01*
X113040435Y-101217040D01*
X113048896Y-101219803D01*
X113057116Y-101222957D01*
X113065089Y-101226490D01*
X113072808Y-101230384D01*
X113080266Y-101234629D01*
X113087455Y-101239209D01*
X113094369Y-101244113D01*
X113100997Y-101249326D01*
X113107337Y-101254834D01*
X113113379Y-101260627D01*
X113119116Y-101266688D01*
X113124541Y-101273004D01*
X113129646Y-101279563D01*
X113134425Y-101286350D01*
X113138871Y-101293352D01*
X113142975Y-101300555D01*
X113146731Y-101307947D01*
X113150132Y-101315513D01*
X113153170Y-101323241D01*
X113155839Y-101331118D01*
X113158130Y-101339126D01*
X113160037Y-101347258D01*
X113161552Y-101355496D01*
X113162668Y-101363829D01*
X113163380Y-101372243D01*
X113163677Y-101380721D01*
X113163553Y-101389254D01*
X113163002Y-101397826D01*
X113162017Y-101406427D01*
X113160588Y-101415040D01*
X113158710Y-101423652D01*
X113156377Y-101432252D01*
X113153606Y-101440703D01*
X113150447Y-101448915D01*
X113146910Y-101456881D01*
X113143010Y-101464595D01*
X113138758Y-101472049D01*
X113134172Y-101479236D01*
X113129263Y-101486146D01*
X113124045Y-101492775D01*
X113118530Y-101499114D01*
X113112732Y-101505157D01*
X113106668Y-101510893D01*
X113100346Y-101516321D01*
X113093784Y-101521428D01*
X113086993Y-101526208D01*
X113079988Y-101530658D01*
X113072779Y-101534764D01*
X113065386Y-101538523D01*
X113057819Y-101541926D01*
X113050090Y-101544967D01*
X113042215Y-101547636D01*
X113034207Y-101549930D01*
X113026076Y-101551836D01*
X113017841Y-101553353D01*
X113009513Y-101554469D01*
X113001105Y-101555179D01*
X112992629Y-101555472D01*
X112984106Y-101555346D01*
X112975542Y-101554791D01*
X112966951Y-101553801D01*
X112958348Y-101552367D01*
X112949750Y-101550482D01*
X112941164Y-101548139D01*
X112827277Y-101512875D01*
X112718618Y-101477016D01*
X112615064Y-101440621D01*
X112516490Y-101403757D01*
X112422775Y-101366484D01*
X112333794Y-101328865D01*
X112249423Y-101290963D01*
X112169540Y-101252838D01*
X112094021Y-101214555D01*
X112022741Y-101176176D01*
X111955579Y-101137763D01*
X111892409Y-101099378D01*
X111833111Y-101061084D01*
X111777557Y-101022946D01*
X111725628Y-100985022D01*
X111677196Y-100947375D01*
X111705319Y-101009853D01*
X111736510Y-101073805D01*
X111770934Y-101139054D01*
X111808749Y-101205429D01*
X111850113Y-101272756D01*
X111895193Y-101340860D01*
X111944146Y-101409572D01*
X111997130Y-101478712D01*
X112054312Y-101548111D01*
X112115846Y-101617595D01*
X112181899Y-101686991D01*
X112252625Y-101756123D01*
X112328192Y-101824820D01*
X112408752Y-101892905D01*
X112494474Y-101960212D01*
X112585512Y-102026559D01*
X112592659Y-102031852D01*
X112599460Y-102037437D01*
X112605905Y-102043306D01*
X112611998Y-102049438D01*
X112617731Y-102055822D01*
X112623106Y-102062439D01*
X112628114Y-102069275D01*
X112632759Y-102076318D01*
X112637037Y-102083548D01*
X112640942Y-102090953D01*
X112644474Y-102098517D01*
X112647632Y-102106226D01*
X112650409Y-102114064D01*
X112652804Y-102122015D01*
X112654815Y-102130066D01*
X112656440Y-102138200D01*
X112657674Y-102146401D01*
X112658518Y-102154659D01*
X112658964Y-102162951D01*
X112659015Y-102171268D01*
X112658664Y-102179594D01*
X112657910Y-102187914D01*
X112656752Y-102196209D01*
X112655185Y-102204467D01*
X112653208Y-102212675D01*
X112650815Y-102220813D01*
X112648008Y-102228869D01*
X112644782Y-102236828D01*
X112641134Y-102244674D01*
X112637060Y-102252390D01*
X112632562Y-102259967D01*
X112627634Y-102267382D01*
X112622342Y-102274536D01*
X112616754Y-102281338D01*
X112610885Y-102287787D01*
X112604751Y-102293883D01*
X112598370Y-102299620D01*
X112591753Y-102304995D01*
X112584918Y-102310008D01*
X112577875Y-102314654D01*
X112570644Y-102318933D01*
X112563241Y-102322838D01*
X112555676Y-102326371D01*
X112547969Y-102329527D01*
X112540132Y-102332306D01*
X112532181Y-102334702D01*
X112524132Y-102336713D01*
X112515998Y-102338337D01*
X112507798Y-102339572D01*
X112499543Y-102340415D01*
X112491252Y-102340862D01*
X112482934Y-102340912D01*
X112474611Y-102340562D01*
X112466296Y-102339810D01*
X112458003Y-102338652D01*
X112449744Y-102337086D01*
X112441544Y-102335109D01*
X112433407Y-102332719D01*
X112425354Y-102329914D01*
X112417399Y-102326691D01*
X112409559Y-102323046D01*
X112401846Y-102318976D01*
X112394273Y-102314481D01*
X112386862Y-102309556D01*
X112292467Y-102240939D01*
X112203084Y-102171294D01*
X112118574Y-102100775D01*
X112038801Y-102029533D01*
X111963627Y-101957721D01*
X111892919Y-101885496D01*
X111826537Y-101813006D01*
X111764344Y-101740405D01*
X111706204Y-101667846D01*
X111651978Y-101595481D01*
X111601531Y-101523461D01*
X111554727Y-101451941D01*
X111511426Y-101381074D01*
X111471495Y-101311012D01*
X111434791Y-101241908D01*
X111401184Y-101173912D01*
X111364752Y-101346538D01*
X111319192Y-101527846D01*
X111292669Y-101621058D01*
X111263486Y-101715610D01*
X111231508Y-101811218D01*
X111196614Y-101907608D01*
X111158673Y-102004499D01*
X111117562Y-102101614D01*
X111073150Y-102198672D01*
X111025311Y-102295399D01*
X110973917Y-102391514D01*
X110918842Y-102486739D01*
X110859958Y-102580799D01*
X110797139Y-102673411D01*
X110791828Y-102680545D01*
X110786222Y-102687327D01*
X110780336Y-102693757D01*
X110774186Y-102699830D01*
X110767787Y-102705547D01*
X110761154Y-102710900D01*
X110754302Y-102715893D01*
X110747246Y-102720518D01*
X110740001Y-102724774D01*
X110732582Y-102728662D01*
X110725008Y-102732174D01*
X110717290Y-102735307D01*
X110709443Y-102738064D01*
X110701483Y-102740440D01*
X110693428Y-102742431D01*
X110685287Y-102744036D01*
X110677082Y-102745251D01*
X110668821Y-102746073D01*
X110660526Y-102746502D01*
X110652207Y-102746535D01*
X110643885Y-102746166D01*
X110635569Y-102745395D01*
X110627276Y-102744221D01*
X110619024Y-102742640D01*
X110610823Y-102740646D01*
X110602693Y-102738242D01*
X110594647Y-102735423D01*
X110586700Y-102732184D01*
X110578868Y-102728526D01*
X110571166Y-102724445D01*
X110563609Y-102719938D01*
X110556212Y-102715004D01*
X110547533Y-102708466D01*
X110539380Y-102701493D01*
X110531757Y-102694111D01*
X110524670Y-102686348D01*
X110518122Y-102678233D01*
X110512119Y-102669794D01*
X110506666Y-102661058D01*
X110501766Y-102652053D01*
X110497424Y-102642807D01*
X110493647Y-102633346D01*
X110490438Y-102623701D01*
X110487802Y-102613896D01*
X110485743Y-102603964D01*
X110484267Y-102593929D01*
X110483378Y-102583819D01*
X110483080Y-102573664D01*
X110483202Y-102567194D01*
X110483564Y-102560722D01*
X110484173Y-102554259D01*
X110485026Y-102547811D01*
X110486126Y-102541385D01*
X110487472Y-102534985D01*
X110489067Y-102528623D01*
X110490913Y-102522300D01*
X110493008Y-102516029D01*
X110495353Y-102509813D01*
X110497952Y-102503658D01*
X110500804Y-102497576D01*
X110503913Y-102491568D01*
X110507279Y-102485644D01*
X110510897Y-102479810D01*
X110514777Y-102474075D01*
X110577412Y-102381204D01*
X110635724Y-102286493D01*
X110689863Y-102190311D01*
X110739989Y-102093021D01*
X110786251Y-101994992D01*
X110828811Y-101896588D01*
X110867820Y-101798181D01*
X110903430Y-101700135D01*
X110935799Y-101602816D01*
X110965083Y-101506597D01*
X110991436Y-101411837D01*
X111015011Y-101318906D01*
X111054448Y-101140006D01*
X111084637Y-100972827D01*
X111022396Y-101040749D01*
X110953288Y-101110110D01*
X110876954Y-101180710D01*
X110793033Y-101252349D01*
X110701168Y-101324825D01*
X110600997Y-101397936D01*
X110492165Y-101471478D01*
X110374309Y-101545254D01*
X110247074Y-101619058D01*
X110110098Y-101692692D01*
X109963022Y-101765952D01*
X109805490Y-101838637D01*
X109637138Y-101910543D01*
X109457610Y-101981471D01*
X109266548Y-102051219D01*
X109063590Y-102119586D01*
X109055060Y-102122104D01*
X109046506Y-102124165D01*
X109037939Y-102125775D01*
X109029375Y-102126946D01*
X109020826Y-102127678D01*
X109012307Y-102127983D01*
X109003830Y-102127865D01*
X108995411Y-102127333D01*
X108987065Y-102126394D01*
X108978800Y-102125053D01*
X108970633Y-102123318D01*
X108962578Y-102121197D01*
X108954650Y-102118697D01*
X108946859Y-102115822D01*
X108939222Y-102112583D01*
X108931748Y-102108981D01*
X108924458Y-102105031D01*
X108917358Y-102100735D01*
X108910465Y-102096100D01*
X108903796Y-102091135D01*
X108897359Y-102085845D01*
X108891171Y-102080237D01*
X108885245Y-102074320D01*
X108879595Y-102068098D01*
X108874232Y-102061581D01*
X108869174Y-102054775D01*
X108864432Y-102047687D01*
X108860019Y-102040321D01*
X108855951Y-102032688D01*
X108852241Y-102024794D01*
X108848900Y-102016644D01*
X108845943Y-102008250D01*
X108843958Y-102001611D01*
X108842241Y-101994952D01*
X108840793Y-101988283D01*
X108839613Y-101981611D01*
X108838701Y-101974941D01*
X108838049Y-101968281D01*
X108837661Y-101961635D01*
X108837532Y-101955015D01*
X108837665Y-101948196D01*
X108838071Y-101941411D01*
X108838742Y-101934672D01*
X108839673Y-101927983D01*
X108840865Y-101921355D01*
X108842310Y-101914791D01*
X108844008Y-101908301D01*
X108845949Y-101901891D01*
X108848138Y-101895562D01*
X108850564Y-101889334D01*
X108853228Y-101883207D01*
X108856124Y-101877186D01*
X108859249Y-101871280D01*
X108862600Y-101865500D01*
X108866173Y-101859847D01*
X108869962Y-101854334D01*
X108873966Y-101848964D01*
X108878183Y-101843745D01*
X108882603Y-101838686D01*
X108887231Y-101833791D01*
X108892056Y-101829069D01*
X108897078Y-101824528D01*
X108902293Y-101820175D01*
X108907696Y-101816018D01*
X108913284Y-101812060D01*
X108919056Y-101808310D01*
X108925003Y-101804777D01*
X108931124Y-101801468D01*
X108937415Y-101798387D01*
X108943876Y-101795546D01*
X108950501Y-101792948D01*
X108957281Y-101790602D01*
X109136220Y-101730570D01*
X109304879Y-101669719D01*
X109463566Y-101608206D01*
X109612580Y-101546190D01*
X109752229Y-101483829D01*
X109882814Y-101421278D01*
X110004641Y-101358697D01*
X110118014Y-101296242D01*
X110223238Y-101234071D01*
X110320613Y-101172342D01*
X110410449Y-101111210D01*
X110493047Y-101050837D01*
X110568709Y-100991378D01*
X110637742Y-100932988D01*
X110700450Y-100875830D01*
X110757135Y-100820058D01*
X110720259Y-100829213D01*
X110682757Y-100837286D01*
X110644649Y-100844230D01*
X110605966Y-100850009D01*
X110566732Y-100854577D01*
X110526972Y-100857890D01*
X110486713Y-100859910D01*
X110445986Y-100860592D01*
X110397839Y-100859682D01*
X110350323Y-100856974D01*
X110303497Y-100852519D01*
X110257421Y-100846361D01*
X110212154Y-100838538D01*
X110167755Y-100829098D01*
X110124281Y-100818084D01*
X110081792Y-100805541D01*
X110040345Y-100791513D01*
X110000000Y-100776043D01*
X109960817Y-100759174D01*
X109922855Y-100740953D01*
X109886168Y-100721423D01*
X109850822Y-100700627D01*
X109816871Y-100678609D01*
X109784375Y-100655412D01*
X109753394Y-100631087D01*
X109723984Y-100605668D01*
X109696206Y-100579205D01*
X109670118Y-100551740D01*
X109645780Y-100523318D01*
X109623248Y-100493983D01*
X109602586Y-100463777D01*
X109583846Y-100432749D01*
X109567092Y-100400936D01*
X109552382Y-100368388D01*
X109539772Y-100335147D01*
X109529324Y-100301258D01*
X109521095Y-100266760D01*
X109515145Y-100231703D01*
X109511531Y-100196129D01*
X109510313Y-100160081D01*
X109511531Y-100124029D01*
X109515144Y-100088450D01*
X109521095Y-100053389D01*
X109529323Y-100018888D01*
X109539773Y-99984994D01*
X109552380Y-99951749D01*
X109567092Y-99919197D01*
X109583848Y-99887383D01*
X109602586Y-99856350D01*
X109623249Y-99826144D01*
X109645779Y-99796807D01*
X109670119Y-99768382D01*
X109696205Y-99740916D01*
X109723983Y-99714451D01*
X109784375Y-99664702D01*
X109850822Y-99619488D01*
X109922853Y-99579159D01*
X110000000Y-99544068D01*
X110081793Y-99514569D01*
X110167755Y-99491011D01*
X110257422Y-99473750D01*
X110350322Y-99463134D01*
X110445986Y-99459518D01*
X110486727Y-99460201D01*
X110526978Y-99462219D01*
X110566721Y-99465531D01*
X110605932Y-99470094D01*
X110644591Y-99475865D01*
X110682674Y-99482803D01*
X110720161Y-99490860D01*
X110757028Y-99500000D01*
X110700345Y-99444216D01*
X110637640Y-99387052D01*
X110568613Y-99328658D01*
X110492957Y-99269197D01*
X110410366Y-99208821D01*
X110320542Y-99147689D01*
X110223175Y-99085959D01*
X110117960Y-99023789D01*
X110004599Y-98961335D01*
X109882780Y-98898752D01*
X109752204Y-98836202D01*
X109612564Y-98773837D01*
X109463557Y-98711817D01*
X109304875Y-98650301D01*
X109136218Y-98589444D01*
X108957281Y-98529403D01*
X108950498Y-98527055D01*
X108943878Y-98524459D01*
X108937416Y-98521617D01*
X108931122Y-98518540D01*
X108919053Y-98511698D01*
X108907695Y-98503996D01*
X108897079Y-98495484D01*
X108887230Y-98486225D01*
X108878183Y-98476275D01*
X108869962Y-98465690D01*
X108862600Y-98454525D01*
X108856124Y-98442841D01*
X108850564Y-98430694D01*
X108845950Y-98418138D01*
X108842310Y-98405233D01*
X108839674Y-98392035D01*
X108838071Y-98378600D01*
X108837530Y-98364988D01*
X108837660Y-98358368D01*
X108838049Y-98351724D01*
X108838699Y-98345063D01*
X108839616Y-98338392D01*
X108840793Y-98331721D01*
X108842240Y-98325052D01*
X108843958Y-98318393D01*
X108845943Y-98311755D01*
X108848895Y-98303359D01*
X108852230Y-98295209D01*
X108855937Y-98287315D01*
X108860004Y-98279684D01*
X108864413Y-98272319D01*
X108869154Y-98265229D01*
X108874211Y-98258423D01*
X108879573Y-98251907D01*
X108885223Y-98245685D01*
X108891147Y-98239769D01*
X108897335Y-98234162D01*
X108903772Y-98228873D01*
X108910443Y-98223909D01*
X108917335Y-98219274D01*
X108924434Y-98214979D01*
X108931728Y-98211028D01*
X108939202Y-98207431D01*
X108946841Y-98204191D01*
X108954633Y-98201319D01*
X108962564Y-98198820D01*
X108970622Y-98196700D01*
X108978789Y-98194969D01*
X108987055Y-98193630D01*
X108995404Y-98192694D01*
X109003825Y-98192164D01*
X109012302Y-98192048D01*
X109020823Y-98192358D01*
X109029372Y-98193096D01*
X109037937Y-98194266D01*
X109046503Y-98195883D01*
X109055060Y-98197949D01*
X109063590Y-98200472D01*
X109266333Y-98268752D01*
X109457204Y-98338403D01*
X109636565Y-98409228D01*
X109804772Y-98481020D01*
X109962184Y-98553584D01*
X110109158Y-98626719D01*
X110246052Y-98700223D01*
X110373225Y-98773895D01*
X110491033Y-98847540D01*
X110599837Y-98920954D01*
X110699990Y-98993935D01*
X110791856Y-99066286D01*
X110875791Y-99137807D01*
X110952149Y-99208295D01*
X111021292Y-99277552D01*
X111083577Y-99345375D01*
X111053268Y-99178073D01*
X111013753Y-98999125D01*
X110990158Y-98906205D01*
X110963804Y-98811480D01*
X110934534Y-98715316D01*
X110902199Y-98618083D01*
X110866643Y-98520151D01*
X110827714Y-98421887D01*
X110785258Y-98323662D01*
X110739123Y-98225840D01*
X110689155Y-98128792D01*
X110635201Y-98032888D01*
X110577108Y-97938496D01*
X110514724Y-97845983D01*
X110510836Y-97840255D01*
X110507208Y-97834429D01*
X110503839Y-97828510D01*
X110500731Y-97822506D01*
X110497875Y-97816423D01*
X110495277Y-97810271D01*
X110492932Y-97804055D01*
X110490838Y-97797782D01*
X110488998Y-97791461D01*
X110487406Y-97785097D01*
X110486062Y-97778701D01*
X110484964Y-97772276D01*
X110484116Y-97765832D01*
X110483511Y-97759372D01*
X110483147Y-97752909D01*
X110483027Y-97746445D01*
X110483325Y-97736291D01*
X110484216Y-97726182D01*
X110485693Y-97716151D01*
X110487756Y-97706219D01*
X110490396Y-97696420D01*
X110493607Y-97686778D01*
X110497389Y-97677321D01*
X110501732Y-97668076D01*
X110506634Y-97659074D01*
X110512090Y-97650339D01*
X110518093Y-97641900D01*
X110524639Y-97633783D01*
X110531723Y-97626018D01*
X110539341Y-97618634D01*
X110547489Y-97611652D01*
X110556156Y-97605107D01*
X110563555Y-97600158D01*
X110571112Y-97595637D01*
X110578815Y-97591544D01*
X110586646Y-97587875D01*
X110594594Y-97584625D01*
X110602640Y-97581795D01*
X110610770Y-97579380D01*
X110618969Y-97577381D01*
X110627222Y-97575791D01*
X110635515Y-97574609D01*
X110643831Y-97573831D01*
X110652155Y-97573458D01*
X110660473Y-97573487D01*
G37*
G36*
X123819011Y-98000000D02*
G01*
X123822968Y-98000198D01*
X123826900Y-98000525D01*
X123830804Y-98000981D01*
X123834679Y-98001563D01*
X123838522Y-98002271D01*
X123842329Y-98003102D01*
X123846099Y-98004055D01*
X123849828Y-98005129D01*
X123853513Y-98006322D01*
X123857153Y-98007631D01*
X123860743Y-98009057D01*
X123864283Y-98010597D01*
X123867768Y-98012249D01*
X123871196Y-98014012D01*
X123874565Y-98015885D01*
X123877871Y-98017866D01*
X123881112Y-98019953D01*
X123884286Y-98022145D01*
X123887389Y-98024441D01*
X123890419Y-98026837D01*
X123893373Y-98029334D01*
X123896248Y-98031930D01*
X123899043Y-98034622D01*
X123901753Y-98037410D01*
X123904376Y-98040292D01*
X123906910Y-98043266D01*
X123909352Y-98046331D01*
X123911699Y-98049485D01*
X123913949Y-98052726D01*
X123916098Y-98056053D01*
X123918145Y-98059465D01*
X123921883Y-98066468D01*
X123925123Y-98073647D01*
X123927865Y-98080976D01*
X123930108Y-98088429D01*
X123931853Y-98095984D01*
X123933099Y-98103613D01*
X123933847Y-98111292D01*
X123934096Y-98118996D01*
X123933847Y-98126701D01*
X123933099Y-98134380D01*
X123931853Y-98142009D01*
X123930108Y-98149564D01*
X123927865Y-98157017D01*
X123925123Y-98164346D01*
X123921883Y-98171525D01*
X123918145Y-98178528D01*
X123913949Y-98185267D01*
X123909352Y-98191662D01*
X123904376Y-98197701D01*
X123899043Y-98203371D01*
X123893373Y-98208659D01*
X123887389Y-98213552D01*
X123881112Y-98218040D01*
X123874565Y-98222108D01*
X123867768Y-98225744D01*
X123860743Y-98228936D01*
X123853513Y-98231671D01*
X123846099Y-98233938D01*
X123838522Y-98235722D01*
X123830804Y-98237012D01*
X123822968Y-98237795D01*
X123815033Y-98238059D01*
X123695971Y-98238059D01*
X123695971Y-98565713D01*
X123742100Y-98571943D01*
X123787889Y-98579751D01*
X123833298Y-98589121D01*
X123878291Y-98600037D01*
X123922828Y-98612484D01*
X123966871Y-98626446D01*
X124010383Y-98641907D01*
X124053324Y-98658851D01*
X124095657Y-98677262D01*
X124137344Y-98697124D01*
X124178346Y-98718422D01*
X124218625Y-98741140D01*
X124258143Y-98765261D01*
X124296861Y-98790770D01*
X124334742Y-98817652D01*
X124371746Y-98845890D01*
X124603632Y-98614005D01*
X124524602Y-98520678D01*
X124519179Y-98514881D01*
X124514192Y-98508786D01*
X124509647Y-98502417D01*
X124505552Y-98495797D01*
X124501912Y-98488953D01*
X124498734Y-98481906D01*
X124496025Y-98474682D01*
X124493790Y-98467305D01*
X124492037Y-98459800D01*
X124490772Y-98452189D01*
X124490002Y-98444497D01*
X124489732Y-98436750D01*
X124489970Y-98428970D01*
X124490722Y-98421182D01*
X124491994Y-98413410D01*
X124493793Y-98405678D01*
X124496101Y-98398083D01*
X124498886Y-98390717D01*
X124502130Y-98383596D01*
X124505815Y-98376740D01*
X124509922Y-98370166D01*
X124514436Y-98363890D01*
X124519337Y-98357932D01*
X124524609Y-98352309D01*
X124530232Y-98347038D01*
X124536191Y-98342137D01*
X124542467Y-98337624D01*
X124549042Y-98333516D01*
X124555898Y-98329832D01*
X124563019Y-98326589D01*
X124570385Y-98323805D01*
X124577981Y-98321497D01*
X124585712Y-98319699D01*
X124593484Y-98318427D01*
X124601272Y-98317676D01*
X124609052Y-98317439D01*
X124616800Y-98317709D01*
X124624492Y-98318480D01*
X124632102Y-98319746D01*
X124639608Y-98321499D01*
X124646985Y-98323734D01*
X124654208Y-98326444D01*
X124661255Y-98329623D01*
X124668099Y-98333263D01*
X124674718Y-98337359D01*
X124681087Y-98341904D01*
X124687181Y-98346892D01*
X124692978Y-98352315D01*
X125089850Y-98749195D01*
X125095279Y-98754991D01*
X125100270Y-98761086D01*
X125104819Y-98767456D01*
X125108919Y-98774076D01*
X125112563Y-98780922D01*
X125115744Y-98787969D01*
X125118457Y-98795195D01*
X125120695Y-98802574D01*
X125122451Y-98810082D01*
X125123718Y-98817695D01*
X125124491Y-98825389D01*
X125124763Y-98833139D01*
X125124526Y-98840922D01*
X125123776Y-98848713D01*
X125122505Y-98856488D01*
X125120706Y-98864223D01*
X125118398Y-98871821D01*
X125115613Y-98879190D01*
X125112368Y-98886314D01*
X125108683Y-98893173D01*
X125104574Y-98899750D01*
X125100059Y-98906027D01*
X125095156Y-98911988D01*
X125089882Y-98917613D01*
X125084256Y-98922886D01*
X125078295Y-98927788D01*
X125072016Y-98932302D01*
X125065439Y-98936410D01*
X125058579Y-98940094D01*
X125051455Y-98943337D01*
X125044085Y-98946121D01*
X125036487Y-98948428D01*
X125028752Y-98950225D01*
X125020976Y-98951495D01*
X125013185Y-98952244D01*
X125005402Y-98952479D01*
X124997652Y-98952206D01*
X124989958Y-98951432D01*
X124982345Y-98950163D01*
X124974837Y-98948406D01*
X124967459Y-98946167D01*
X124960234Y-98943453D01*
X124953187Y-98940270D01*
X124946341Y-98936625D01*
X124939722Y-98932525D01*
X124933353Y-98927974D01*
X124927259Y-98922982D01*
X124921464Y-98917553D01*
X124828133Y-98838526D01*
X124596262Y-99070412D01*
X124624502Y-99107415D01*
X124651386Y-99145295D01*
X124676897Y-99184012D01*
X124701021Y-99223529D01*
X124723740Y-99263807D01*
X124745040Y-99304809D01*
X124764903Y-99346495D01*
X124783316Y-99388828D01*
X124800260Y-99431770D01*
X124815722Y-99475282D01*
X124829685Y-99519325D01*
X124842132Y-99563862D01*
X124853049Y-99608855D01*
X124862419Y-99654265D01*
X124870226Y-99700054D01*
X124876456Y-99746184D01*
X125204096Y-99746184D01*
X125204096Y-99627121D01*
X125204241Y-99621217D01*
X125204677Y-99615353D01*
X125205398Y-99609538D01*
X125206402Y-99603784D01*
X125207683Y-99598098D01*
X125209238Y-99592492D01*
X125211063Y-99586974D01*
X125213154Y-99581555D01*
X125215507Y-99576245D01*
X125218117Y-99571052D01*
X125220981Y-99565988D01*
X125224094Y-99561061D01*
X125227453Y-99556282D01*
X125231054Y-99551660D01*
X125234892Y-99547205D01*
X125238963Y-99542926D01*
X125243242Y-99538855D01*
X125247697Y-99535017D01*
X125252319Y-99531416D01*
X125257098Y-99528057D01*
X125262025Y-99524944D01*
X125267089Y-99522080D01*
X125272282Y-99519470D01*
X125277592Y-99517117D01*
X125283011Y-99515026D01*
X125288529Y-99513201D01*
X125294135Y-99511646D01*
X125299821Y-99510365D01*
X125305575Y-99509361D01*
X125311390Y-99508640D01*
X125317254Y-99508204D01*
X125323149Y-99508059D01*
X125329044Y-99508203D01*
X125334908Y-99508638D01*
X125340723Y-99509359D01*
X125346478Y-99510361D01*
X125352164Y-99511642D01*
X125357770Y-99513196D01*
X125363288Y-99515020D01*
X125368707Y-99517110D01*
X125374018Y-99519462D01*
X125379211Y-99522071D01*
X125384276Y-99524934D01*
X125389203Y-99528047D01*
X125393983Y-99531405D01*
X125398606Y-99535005D01*
X125403061Y-99538842D01*
X125407340Y-99542913D01*
X125411413Y-99547191D01*
X125415251Y-99551646D01*
X125418852Y-99556267D01*
X125422212Y-99561046D01*
X125425326Y-99565973D01*
X125428191Y-99571037D01*
X125430802Y-99576230D01*
X125433155Y-99581541D01*
X125435247Y-99586960D01*
X125437073Y-99592479D01*
X125438629Y-99598086D01*
X125439911Y-99603773D01*
X125440916Y-99609530D01*
X125441638Y-99615347D01*
X125442074Y-99621214D01*
X125442221Y-99627121D01*
X125442221Y-100182746D01*
X125442154Y-100186724D01*
X125441957Y-100190681D01*
X125441629Y-100194613D01*
X125441174Y-100198517D01*
X125440591Y-100202392D01*
X125439884Y-100206235D01*
X125439052Y-100210042D01*
X125438099Y-100213812D01*
X125437026Y-100217541D01*
X125435833Y-100221226D01*
X125434523Y-100224866D01*
X125433098Y-100228456D01*
X125431558Y-100231996D01*
X125429906Y-100235481D01*
X125428142Y-100238909D01*
X125426269Y-100242278D01*
X125424289Y-100245584D01*
X125422201Y-100248825D01*
X125420009Y-100251999D01*
X125417714Y-100255102D01*
X125415317Y-100258132D01*
X125412820Y-100261086D01*
X125410225Y-100263961D01*
X125407532Y-100266756D01*
X125404745Y-100269466D01*
X125401863Y-100272089D01*
X125398889Y-100274623D01*
X125395824Y-100277065D01*
X125392670Y-100279412D01*
X125389429Y-100281662D01*
X125386101Y-100283811D01*
X125382690Y-100285858D01*
X125375687Y-100289596D01*
X125368508Y-100292836D01*
X125361179Y-100295578D01*
X125353725Y-100297821D01*
X125346171Y-100299566D01*
X125338542Y-100300812D01*
X125330863Y-100301560D01*
X125323158Y-100301809D01*
X125315454Y-100301560D01*
X125307775Y-100300812D01*
X125300145Y-100299566D01*
X125292591Y-100297821D01*
X125285137Y-100295578D01*
X125277809Y-100292836D01*
X125270630Y-100289596D01*
X125263627Y-100285858D01*
X125256888Y-100281662D01*
X125250493Y-100277065D01*
X125244454Y-100272089D01*
X125238784Y-100266756D01*
X125233496Y-100261086D01*
X125228602Y-100255102D01*
X125224115Y-100248825D01*
X125220047Y-100242278D01*
X125216411Y-100235481D01*
X125213219Y-100228456D01*
X125210483Y-100221226D01*
X125208217Y-100213812D01*
X125206433Y-100206235D01*
X125205143Y-100198517D01*
X125204360Y-100190681D01*
X125204096Y-100182746D01*
X125204096Y-100063684D01*
X124876455Y-100063684D01*
X124870226Y-100109814D01*
X124862418Y-100155603D01*
X124853048Y-100201013D01*
X124842131Y-100246006D01*
X124829683Y-100290543D01*
X124815721Y-100334587D01*
X124800259Y-100378098D01*
X124783314Y-100421040D01*
X124764901Y-100463373D01*
X124745037Y-100505059D01*
X124723738Y-100546061D01*
X124701018Y-100586339D01*
X124676895Y-100625856D01*
X124651383Y-100664573D01*
X124624499Y-100702453D01*
X124596259Y-100739456D01*
X124828130Y-100971342D01*
X124921461Y-100892315D01*
X124927257Y-100886891D01*
X124933352Y-100881904D01*
X124939721Y-100877358D01*
X124946340Y-100873262D01*
X124953184Y-100869622D01*
X124960231Y-100866443D01*
X124967454Y-100863733D01*
X124974831Y-100861498D01*
X124982337Y-100859744D01*
X124989948Y-100858479D01*
X124997639Y-100857707D01*
X125005387Y-100857437D01*
X125013167Y-100857674D01*
X125020956Y-100858425D01*
X125028728Y-100859696D01*
X125036460Y-100861494D01*
X125044055Y-100863802D01*
X125051422Y-100866586D01*
X125058542Y-100869829D01*
X125065399Y-100873513D01*
X125071974Y-100877621D01*
X125078250Y-100882134D01*
X125084209Y-100887035D01*
X125089833Y-100892306D01*
X125095104Y-100897929D01*
X125100006Y-100903887D01*
X125104520Y-100910163D01*
X125108628Y-100916737D01*
X125112312Y-100923594D01*
X125115556Y-100930714D01*
X125118341Y-100938081D01*
X125120650Y-100945676D01*
X125122449Y-100953407D01*
X125123721Y-100961179D01*
X125124473Y-100968967D01*
X125124711Y-100976748D01*
X125124442Y-100984495D01*
X125123671Y-100992187D01*
X125122406Y-100999798D01*
X125120654Y-101007304D01*
X125118419Y-101014681D01*
X125115710Y-101021905D01*
X125112532Y-101028952D01*
X125108892Y-101035797D01*
X125104797Y-101042416D01*
X125100252Y-101048785D01*
X125095265Y-101054881D01*
X125089842Y-101060678D01*
X124692975Y-101457553D01*
X124687178Y-101462976D01*
X124681084Y-101467964D01*
X124674715Y-101472509D01*
X124668096Y-101476605D01*
X124661251Y-101480245D01*
X124654205Y-101483423D01*
X124646982Y-101486133D01*
X124639605Y-101488368D01*
X124632099Y-101490122D01*
X124624489Y-101491387D01*
X124616797Y-101492158D01*
X124609050Y-101492429D01*
X124601270Y-101492191D01*
X124593481Y-101491440D01*
X124585709Y-101490169D01*
X124577978Y-101488371D01*
X124570382Y-101486063D01*
X124563016Y-101483278D01*
X124555895Y-101480035D01*
X124549039Y-101476351D01*
X124542464Y-101472244D01*
X124536188Y-101467731D01*
X124530229Y-101462830D01*
X124524606Y-101457559D01*
X124519334Y-101451936D01*
X124514433Y-101445977D01*
X124509919Y-101439702D01*
X124505812Y-101433127D01*
X124502127Y-101426271D01*
X124498883Y-101419151D01*
X124496098Y-101411784D01*
X124493790Y-101404189D01*
X124491991Y-101396458D01*
X124490719Y-101388686D01*
X124489967Y-101380898D01*
X124489729Y-101373118D01*
X124489999Y-101365370D01*
X124490769Y-101357679D01*
X124492034Y-101350068D01*
X124493787Y-101342562D01*
X124496022Y-101335185D01*
X124498731Y-101327961D01*
X124501909Y-101320915D01*
X124505549Y-101314070D01*
X124509644Y-101307451D01*
X124514189Y-101301082D01*
X124519176Y-101294987D01*
X124524599Y-101289190D01*
X124603629Y-101195863D01*
X124371753Y-100963978D01*
X124334748Y-100992216D01*
X124296867Y-101019098D01*
X124258148Y-101044607D01*
X124218630Y-101068729D01*
X124178351Y-101091446D01*
X124137348Y-101112744D01*
X124095661Y-101132607D01*
X124053328Y-101151018D01*
X124010386Y-101167962D01*
X123966874Y-101183422D01*
X123922830Y-101197384D01*
X123878292Y-101209831D01*
X123833300Y-101220747D01*
X123787890Y-101230117D01*
X123742101Y-101237925D01*
X123695971Y-101244154D01*
X123695971Y-101571809D01*
X123815033Y-101571809D01*
X123819011Y-101571875D01*
X123822968Y-101572073D01*
X123826900Y-101572400D01*
X123830804Y-101572856D01*
X123834679Y-101573438D01*
X123838522Y-101574146D01*
X123842329Y-101574977D01*
X123846099Y-101575930D01*
X123849828Y-101577004D01*
X123853513Y-101578196D01*
X123857153Y-101579506D01*
X123860743Y-101580932D01*
X123864283Y-101582471D01*
X123867768Y-101584124D01*
X123871196Y-101585887D01*
X123874565Y-101587760D01*
X123877871Y-101589741D01*
X123881112Y-101591828D01*
X123884286Y-101594020D01*
X123887389Y-101596315D01*
X123890419Y-101598712D01*
X123893373Y-101601209D01*
X123896248Y-101603805D01*
X123899043Y-101606497D01*
X123901753Y-101609285D01*
X123904376Y-101612167D01*
X123906910Y-101615141D01*
X123909352Y-101618206D01*
X123911699Y-101621359D01*
X123913949Y-101624601D01*
X123916098Y-101627928D01*
X123918145Y-101631340D01*
X123921883Y-101638343D01*
X123925123Y-101645522D01*
X123927865Y-101652850D01*
X123930108Y-101660304D01*
X123931853Y-101667858D01*
X123933099Y-101675488D01*
X123933847Y-101683167D01*
X123934096Y-101690871D01*
X123933847Y-101698576D01*
X123933099Y-101706255D01*
X123931853Y-101713884D01*
X123930108Y-101721438D01*
X123927865Y-101728892D01*
X123925123Y-101736221D01*
X123921883Y-101743400D01*
X123918145Y-101750403D01*
X123913949Y-101757142D01*
X123909352Y-101763537D01*
X123904376Y-101769576D01*
X123899043Y-101775245D01*
X123893373Y-101780533D01*
X123887389Y-101785427D01*
X123881112Y-101789914D01*
X123874565Y-101793982D01*
X123867768Y-101797619D01*
X123860743Y-101800811D01*
X123853513Y-101803546D01*
X123846099Y-101805812D01*
X123838522Y-101807597D01*
X123830804Y-101808887D01*
X123822968Y-101809670D01*
X123815033Y-101809934D01*
X123259408Y-101809934D01*
X123255430Y-101809867D01*
X123251474Y-101809670D01*
X123247542Y-101809342D01*
X123243637Y-101808887D01*
X123239762Y-101808304D01*
X123235920Y-101807597D01*
X123232112Y-101806765D01*
X123228343Y-101805812D01*
X123224614Y-101804739D01*
X123220929Y-101803546D01*
X123217289Y-101802236D01*
X123213698Y-101800811D01*
X123210159Y-101799271D01*
X123206674Y-101797619D01*
X123203246Y-101795855D01*
X123199877Y-101793982D01*
X123196571Y-101792002D01*
X123193330Y-101789914D01*
X123190156Y-101787722D01*
X123187053Y-101785427D01*
X123184023Y-101783030D01*
X123181069Y-101780533D01*
X123178193Y-101777938D01*
X123175399Y-101775245D01*
X123172689Y-101772458D01*
X123170066Y-101769576D01*
X123167531Y-101766602D01*
X123165090Y-101763537D01*
X123162742Y-101760383D01*
X123160493Y-101757142D01*
X123158344Y-101753814D01*
X123156297Y-101750403D01*
X123152559Y-101743400D01*
X123149319Y-101736221D01*
X123146577Y-101728892D01*
X123144334Y-101721438D01*
X123142589Y-101713884D01*
X123141343Y-101706255D01*
X123140595Y-101698576D01*
X123140346Y-101690871D01*
X123140595Y-101683167D01*
X123141343Y-101675488D01*
X123142589Y-101667858D01*
X123144334Y-101660304D01*
X123146577Y-101652850D01*
X123149319Y-101645522D01*
X123152559Y-101638343D01*
X123156297Y-101631340D01*
X123160493Y-101624601D01*
X123165090Y-101618206D01*
X123170066Y-101612167D01*
X123175399Y-101606497D01*
X123181069Y-101601209D01*
X123187053Y-101596315D01*
X123193330Y-101591828D01*
X123199877Y-101587760D01*
X123206674Y-101584124D01*
X123213698Y-101580932D01*
X123220929Y-101578196D01*
X123228343Y-101575930D01*
X123235920Y-101574146D01*
X123243637Y-101572856D01*
X123251474Y-101572073D01*
X123259408Y-101571809D01*
X123378471Y-101571809D01*
X123378471Y-101244154D01*
X123332341Y-101237925D01*
X123286552Y-101230117D01*
X123241142Y-101220747D01*
X123196149Y-101209831D01*
X123151612Y-101197384D01*
X123107568Y-101183422D01*
X123064056Y-101167961D01*
X123021114Y-101151018D01*
X122978780Y-101132607D01*
X122937093Y-101112744D01*
X122896091Y-101091446D01*
X122855812Y-101068729D01*
X122816293Y-101044607D01*
X122777575Y-101019098D01*
X122739694Y-100992216D01*
X122702689Y-100963978D01*
X122470813Y-101195863D01*
X122549843Y-101289190D01*
X122555266Y-101294987D01*
X122560253Y-101301082D01*
X122564797Y-101307451D01*
X122568893Y-101314070D01*
X122572533Y-101320915D01*
X122575711Y-101327961D01*
X122578420Y-101335185D01*
X122580654Y-101342562D01*
X122582407Y-101350068D01*
X122583672Y-101357679D01*
X122584443Y-101365370D01*
X122584712Y-101373118D01*
X122584474Y-101380898D01*
X122583723Y-101388686D01*
X122582451Y-101396458D01*
X122580652Y-101404189D01*
X122578343Y-101411784D01*
X122575558Y-101419151D01*
X122572315Y-101426271D01*
X122568630Y-101433127D01*
X122564522Y-101439702D01*
X122560009Y-101445977D01*
X122555107Y-101451936D01*
X122549836Y-101457559D01*
X122544212Y-101462830D01*
X122538253Y-101467731D01*
X122531978Y-101472244D01*
X122525403Y-101476351D01*
X122518546Y-101480035D01*
X122511426Y-101483278D01*
X122504059Y-101486063D01*
X122496464Y-101488371D01*
X122488732Y-101490169D01*
X122480960Y-101491440D01*
X122473172Y-101492191D01*
X122465392Y-101492429D01*
X122457644Y-101492158D01*
X122449953Y-101491387D01*
X122442342Y-101490122D01*
X122434837Y-101488368D01*
X122427460Y-101486133D01*
X122420236Y-101483423D01*
X122413190Y-101480245D01*
X122406346Y-101476605D01*
X122399727Y-101472509D01*
X122393358Y-101467964D01*
X122387263Y-101462976D01*
X122381467Y-101457553D01*
X121984597Y-101060676D01*
X121980381Y-101056233D01*
X121976438Y-101051631D01*
X121972766Y-101046882D01*
X121969367Y-101041996D01*
X121966240Y-101036984D01*
X121963385Y-101031855D01*
X121960802Y-101026621D01*
X121958492Y-101021291D01*
X121956453Y-101015878D01*
X121954687Y-101010391D01*
X121953193Y-101004840D01*
X121951972Y-100999237D01*
X121951022Y-100993592D01*
X121950344Y-100987915D01*
X121949939Y-100982217D01*
X121949806Y-100976509D01*
X121949945Y-100970801D01*
X121950356Y-100965103D01*
X121951039Y-100959427D01*
X121951995Y-100953783D01*
X121953222Y-100948181D01*
X121954722Y-100942632D01*
X121956493Y-100937146D01*
X121958537Y-100931735D01*
X121960853Y-100926408D01*
X121963441Y-100921177D01*
X121966301Y-100916051D01*
X121969433Y-100911041D01*
X121972838Y-100906159D01*
X121976514Y-100901413D01*
X121980462Y-100896816D01*
X121984683Y-100892378D01*
X121989122Y-100888158D01*
X121993720Y-100884210D01*
X121998465Y-100880534D01*
X122003349Y-100877131D01*
X122008358Y-100873999D01*
X122013485Y-100871140D01*
X122018717Y-100868553D01*
X122024044Y-100866238D01*
X122029455Y-100864194D01*
X122034941Y-100862424D01*
X122040490Y-100860925D01*
X122046092Y-100859698D01*
X122051737Y-100858743D01*
X122057413Y-100858061D01*
X122063111Y-100857651D01*
X122068819Y-100857512D01*
X122074527Y-100857646D01*
X122080225Y-100858052D01*
X122085901Y-100858731D01*
X122091546Y-100859681D01*
X122097149Y-100860904D01*
X122102700Y-100862398D01*
X122108187Y-100864165D01*
X122113600Y-100866204D01*
X122118929Y-100868516D01*
X122124163Y-100871099D01*
X122129291Y-100873954D01*
X122134303Y-100877082D01*
X122139189Y-100880482D01*
X122143937Y-100884154D01*
X122148538Y-100888099D01*
X122152981Y-100892315D01*
X122246311Y-100971342D01*
X122478179Y-100739456D01*
X122449939Y-100702452D01*
X122423056Y-100664573D01*
X122397544Y-100625855D01*
X122373421Y-100586338D01*
X122350702Y-100546060D01*
X122329402Y-100505059D01*
X122309858Y-100464043D01*
X123854754Y-100464043D01*
X123855431Y-100475637D01*
X123856966Y-100487207D01*
X123859367Y-100498707D01*
X123862643Y-100510090D01*
X123866805Y-100521310D01*
X123871796Y-100532186D01*
X123877528Y-100542552D01*
X123883962Y-100552382D01*
X123891058Y-100561648D01*
X123898777Y-100570325D01*
X123907079Y-100578386D01*
X123915925Y-100585805D01*
X123925274Y-100592555D01*
X123935088Y-100598609D01*
X123945327Y-100603943D01*
X123955952Y-100608528D01*
X123966922Y-100612339D01*
X123978198Y-100615348D01*
X123989742Y-100617531D01*
X124001512Y-100618860D01*
X124013471Y-100619309D01*
X124013476Y-100619309D01*
X124021645Y-100619102D01*
X124029707Y-100618488D01*
X124037651Y-100617478D01*
X124045469Y-100616082D01*
X124053149Y-100614309D01*
X124060682Y-100612169D01*
X124068058Y-100609673D01*
X124075267Y-100606831D01*
X124082299Y-100603651D01*
X124089144Y-100600145D01*
X124095791Y-100596323D01*
X124102232Y-100592193D01*
X124108456Y-100587767D01*
X124114453Y-100583054D01*
X124120213Y-100578064D01*
X124125726Y-100572808D01*
X124130982Y-100567295D01*
X124135972Y-100561535D01*
X124140684Y-100555538D01*
X124145110Y-100549314D01*
X124149239Y-100542873D01*
X124153061Y-100536225D01*
X124156567Y-100529380D01*
X124159746Y-100522348D01*
X124162588Y-100515140D01*
X124165084Y-100507764D01*
X124167223Y-100500231D01*
X124168996Y-100492551D01*
X124170392Y-100484733D01*
X124171401Y-100476789D01*
X124172014Y-100468728D01*
X124172221Y-100460559D01*
X124172108Y-100454559D01*
X124171772Y-100448600D01*
X124171216Y-100442689D01*
X124170443Y-100436830D01*
X124169457Y-100431027D01*
X124168260Y-100425286D01*
X124166857Y-100419612D01*
X124165251Y-100414010D01*
X124163444Y-100408484D01*
X124161440Y-100403040D01*
X124159242Y-100397682D01*
X124156855Y-100392415D01*
X124154280Y-100387245D01*
X124151521Y-100382176D01*
X124148583Y-100377214D01*
X124145467Y-100372362D01*
X124142177Y-100367627D01*
X124138717Y-100363013D01*
X124135089Y-100358524D01*
X124131298Y-100354167D01*
X124127346Y-100349946D01*
X124123237Y-100345865D01*
X124118974Y-100341930D01*
X124114560Y-100338146D01*
X124109999Y-100334518D01*
X124105294Y-100331050D01*
X124100448Y-100327748D01*
X124095464Y-100324616D01*
X124090347Y-100321660D01*
X124085098Y-100318884D01*
X124079722Y-100316293D01*
X124074222Y-100313893D01*
X124063002Y-100309731D01*
X124051619Y-100306455D01*
X124040119Y-100304054D01*
X124028549Y-100302519D01*
X124016955Y-100301842D01*
X124005385Y-100302012D01*
X123993884Y-100303021D01*
X123982500Y-100304859D01*
X123971279Y-100307517D01*
X123960268Y-100310986D01*
X123949513Y-100315257D01*
X123939062Y-100320319D01*
X123928960Y-100326165D01*
X123919254Y-100332784D01*
X123909991Y-100340167D01*
X123901218Y-100348306D01*
X123893079Y-100357079D01*
X123885696Y-100366342D01*
X123879077Y-100376048D01*
X123873231Y-100386150D01*
X123868169Y-100396601D01*
X123863898Y-100407356D01*
X123860429Y-100418367D01*
X123857771Y-100429588D01*
X123855933Y-100440972D01*
X123854924Y-100452473D01*
X123854754Y-100464043D01*
X122309858Y-100464043D01*
X122309538Y-100463372D01*
X122291126Y-100421039D01*
X122274181Y-100378098D01*
X122258720Y-100334586D01*
X122244757Y-100290543D01*
X122232310Y-100246005D01*
X122221393Y-100201013D01*
X122212023Y-100155603D01*
X122204215Y-100109814D01*
X122197986Y-100063684D01*
X121870346Y-100063684D01*
X121870346Y-100182746D01*
X121870280Y-100186724D01*
X121870082Y-100190681D01*
X121869755Y-100194613D01*
X121869299Y-100198517D01*
X121868716Y-100202392D01*
X121868009Y-100206235D01*
X121867178Y-100210042D01*
X121866225Y-100213812D01*
X121865151Y-100217541D01*
X121863958Y-100221226D01*
X121862649Y-100224866D01*
X121861223Y-100228456D01*
X121859683Y-100231996D01*
X121858031Y-100235481D01*
X121856268Y-100238909D01*
X121854395Y-100242278D01*
X121852414Y-100245584D01*
X121850327Y-100248825D01*
X121848135Y-100251999D01*
X121845839Y-100255102D01*
X121843443Y-100258132D01*
X121840946Y-100261086D01*
X121838350Y-100263961D01*
X121835658Y-100266756D01*
X121832870Y-100269466D01*
X121829988Y-100272089D01*
X121827014Y-100274623D01*
X121823949Y-100277065D01*
X121820795Y-100279412D01*
X121817554Y-100281662D01*
X121814227Y-100283811D01*
X121810815Y-100285858D01*
X121803812Y-100289596D01*
X121796633Y-100292836D01*
X121789304Y-100295578D01*
X121781851Y-100297821D01*
X121774296Y-100299566D01*
X121766667Y-100300812D01*
X121758988Y-100301560D01*
X121751283Y-100301809D01*
X121743579Y-100301560D01*
X121735900Y-100300812D01*
X121728271Y-100299566D01*
X121720716Y-100297821D01*
X121713263Y-100295578D01*
X121705934Y-100292836D01*
X121698755Y-100289596D01*
X121691752Y-100285858D01*
X121685013Y-100281662D01*
X121678618Y-100277065D01*
X121672579Y-100272089D01*
X121666909Y-100266756D01*
X121661621Y-100261086D01*
X121656728Y-100255102D01*
X121652240Y-100248825D01*
X121648172Y-100242278D01*
X121644536Y-100235481D01*
X121641344Y-100228456D01*
X121638609Y-100221226D01*
X121636342Y-100213812D01*
X121634558Y-100206235D01*
X121633268Y-100198517D01*
X121632485Y-100190681D01*
X121632221Y-100182746D01*
X121632221Y-99627121D01*
X121632287Y-99623143D01*
X121632485Y-99619187D01*
X121632812Y-99615255D01*
X121633268Y-99611350D01*
X121633850Y-99607475D01*
X121634558Y-99603633D01*
X121635389Y-99599825D01*
X121636342Y-99596056D01*
X121637416Y-99592327D01*
X121638609Y-99588642D01*
X121639918Y-99585002D01*
X121641344Y-99581411D01*
X121642884Y-99577872D01*
X121644536Y-99574387D01*
X121646299Y-99570959D01*
X121648172Y-99567590D01*
X121650153Y-99564284D01*
X121652240Y-99561043D01*
X121654432Y-99557869D01*
X121656728Y-99554766D01*
X121659124Y-99551736D01*
X121661621Y-99548782D01*
X121664217Y-99545906D01*
X121666909Y-99543112D01*
X121669697Y-99540402D01*
X121672579Y-99537779D01*
X121675553Y-99535244D01*
X121678618Y-99532803D01*
X121681772Y-99530455D01*
X121685013Y-99528206D01*
X121688340Y-99526057D01*
X121691752Y-99524010D01*
X121698755Y-99520272D01*
X121705934Y-99517032D01*
X121713263Y-99514290D01*
X121720716Y-99512047D01*
X121728271Y-99510302D01*
X121735900Y-99509056D01*
X121743579Y-99508308D01*
X121751283Y-99508059D01*
X121758988Y-99508308D01*
X121766667Y-99509056D01*
X121774296Y-99510302D01*
X121781851Y-99512047D01*
X121789304Y-99514290D01*
X121796633Y-99517032D01*
X121803812Y-99520272D01*
X121810815Y-99524010D01*
X121817554Y-99528206D01*
X121823949Y-99532803D01*
X121829988Y-99537779D01*
X121835658Y-99543112D01*
X121840946Y-99548782D01*
X121845839Y-99554766D01*
X121850327Y-99561043D01*
X121854395Y-99567590D01*
X121858031Y-99574387D01*
X121861223Y-99581411D01*
X121863958Y-99588642D01*
X121866225Y-99596056D01*
X121868009Y-99603633D01*
X121869299Y-99611350D01*
X121870082Y-99619187D01*
X121870346Y-99627121D01*
X121870346Y-99746184D01*
X122197986Y-99746184D01*
X122204215Y-99700054D01*
X122212023Y-99654265D01*
X122221393Y-99608855D01*
X122232310Y-99563862D01*
X122244758Y-99519325D01*
X122258721Y-99475281D01*
X122274183Y-99431770D01*
X122291128Y-99388828D01*
X122309540Y-99346495D01*
X122324205Y-99315719D01*
X122822903Y-99315719D01*
X122824089Y-99336008D01*
X122826774Y-99356255D01*
X122830976Y-99376380D01*
X122836710Y-99396301D01*
X122843993Y-99415936D01*
X122852727Y-99434969D01*
X122862759Y-99453110D01*
X122874018Y-99470312D01*
X122886436Y-99486528D01*
X122899944Y-99501712D01*
X122914473Y-99515819D01*
X122929952Y-99528802D01*
X122946314Y-99540614D01*
X122963489Y-99551210D01*
X122981407Y-99560543D01*
X123000000Y-99568567D01*
X123019198Y-99575236D01*
X123038932Y-99580503D01*
X123059133Y-99584323D01*
X123079731Y-99586648D01*
X123100657Y-99587434D01*
X123114430Y-99587093D01*
X123128112Y-99586075D01*
X123141678Y-99584391D01*
X123155106Y-99582048D01*
X123168371Y-99579058D01*
X123181452Y-99575428D01*
X123194325Y-99571169D01*
X123206969Y-99566290D01*
X123219359Y-99560800D01*
X123231474Y-99554710D01*
X123243291Y-99548027D01*
X123254786Y-99540762D01*
X123265937Y-99532925D01*
X123276722Y-99524524D01*
X123287117Y-99515569D01*
X123297099Y-99506069D01*
X123306599Y-99496087D01*
X123315555Y-99485692D01*
X123323956Y-99474908D01*
X123331794Y-99463757D01*
X123339059Y-99452262D01*
X123345742Y-99440446D01*
X123351833Y-99428331D01*
X123357323Y-99415940D01*
X123362203Y-99403297D01*
X123366462Y-99390423D01*
X123370092Y-99377342D01*
X123373083Y-99364076D01*
X123375426Y-99350648D01*
X123377111Y-99337082D01*
X123378130Y-99323398D01*
X123378471Y-99309621D01*
X123378274Y-99299121D01*
X123377685Y-99288694D01*
X123376712Y-99278350D01*
X123375360Y-99268096D01*
X123373634Y-99257941D01*
X123371540Y-99247895D01*
X123369085Y-99237965D01*
X123366273Y-99228161D01*
X123363111Y-99218490D01*
X123359604Y-99208963D01*
X123355759Y-99199586D01*
X123351580Y-99190370D01*
X123347074Y-99181322D01*
X123342247Y-99172452D01*
X123337104Y-99163767D01*
X123331651Y-99155277D01*
X123325894Y-99146990D01*
X123319839Y-99138915D01*
X123313491Y-99131061D01*
X123306856Y-99123436D01*
X123299940Y-99116048D01*
X123292749Y-99108907D01*
X123285289Y-99102022D01*
X123277565Y-99095400D01*
X123269583Y-99089050D01*
X123261349Y-99082981D01*
X123252868Y-99077202D01*
X123244147Y-99071722D01*
X123235191Y-99066548D01*
X123226006Y-99061690D01*
X123216598Y-99057157D01*
X123206973Y-99052956D01*
X123187338Y-99045673D01*
X123167417Y-99039939D01*
X123147292Y-99035738D01*
X123127045Y-99033052D01*
X123106756Y-99031866D01*
X123086508Y-99032165D01*
X123066382Y-99033930D01*
X123046460Y-99037147D01*
X123026823Y-99041799D01*
X123007554Y-99047869D01*
X122988733Y-99055343D01*
X122970442Y-99064202D01*
X122952764Y-99074432D01*
X122935779Y-99086015D01*
X122919569Y-99098936D01*
X122904215Y-99113178D01*
X122889973Y-99128531D01*
X122877052Y-99144741D01*
X122865469Y-99161727D01*
X122855239Y-99179405D01*
X122846380Y-99197696D01*
X122838907Y-99216517D01*
X122832836Y-99235786D01*
X122828184Y-99255423D01*
X122824967Y-99275345D01*
X122823202Y-99295471D01*
X122822903Y-99315719D01*
X122324205Y-99315719D01*
X122329404Y-99304809D01*
X122350704Y-99263807D01*
X122373423Y-99223529D01*
X122397547Y-99184012D01*
X122423058Y-99145294D01*
X122449942Y-99107415D01*
X122478182Y-99070411D01*
X122246311Y-98838526D01*
X122162121Y-98917552D01*
X122157677Y-98921756D01*
X122153076Y-98925689D01*
X122148327Y-98929350D01*
X122143442Y-98932739D01*
X122138430Y-98935856D01*
X122133303Y-98938702D01*
X122128072Y-98941276D01*
X122122746Y-98943578D01*
X122117335Y-98945608D01*
X122111852Y-98947367D01*
X122106306Y-98948854D01*
X122100707Y-98950070D01*
X122095067Y-98951013D01*
X122089395Y-98951686D01*
X122083703Y-98952086D01*
X122078000Y-98952215D01*
X122072298Y-98952073D01*
X122066606Y-98951658D01*
X122060936Y-98950972D01*
X122055298Y-98950015D01*
X122049703Y-98948786D01*
X122044160Y-98947286D01*
X122038681Y-98945514D01*
X122033276Y-98943470D01*
X122027955Y-98941155D01*
X122022729Y-98938569D01*
X122017610Y-98935711D01*
X122012606Y-98932581D01*
X122007729Y-98929180D01*
X122002989Y-98925508D01*
X121998396Y-98921564D01*
X121993962Y-98917349D01*
X121989747Y-98912916D01*
X121985802Y-98908324D01*
X121982130Y-98903585D01*
X121978728Y-98898708D01*
X121975598Y-98893704D01*
X121972740Y-98888585D01*
X121970152Y-98883360D01*
X121967837Y-98878039D01*
X121965793Y-98872634D01*
X121964020Y-98867155D01*
X121962519Y-98861613D01*
X121961289Y-98856017D01*
X121960331Y-98850379D01*
X121959645Y-98844709D01*
X121959230Y-98839018D01*
X121959087Y-98833316D01*
X121959215Y-98827613D01*
X121959615Y-98821921D01*
X121960286Y-98816249D01*
X121961229Y-98810609D01*
X121962444Y-98805010D01*
X121963931Y-98799463D01*
X121965689Y-98793980D01*
X121967719Y-98788569D01*
X121970020Y-98783243D01*
X121972593Y-98778011D01*
X121975438Y-98772884D01*
X121978555Y-98767872D01*
X121981944Y-98762986D01*
X121985604Y-98758237D01*
X121989536Y-98753635D01*
X121993740Y-98749190D01*
X122381467Y-98352315D01*
X122387263Y-98346892D01*
X122393358Y-98341904D01*
X122399727Y-98337359D01*
X122406346Y-98333263D01*
X122413190Y-98329623D01*
X122420236Y-98326444D01*
X122427460Y-98323734D01*
X122434837Y-98321500D01*
X122442342Y-98319746D01*
X122449953Y-98318481D01*
X122457644Y-98317709D01*
X122465392Y-98317439D01*
X122473172Y-98317676D01*
X122480960Y-98318427D01*
X122488732Y-98319699D01*
X122496464Y-98321497D01*
X122504059Y-98323805D01*
X122511426Y-98326589D01*
X122518546Y-98329832D01*
X122525403Y-98333516D01*
X122531978Y-98337624D01*
X122538254Y-98342137D01*
X122544212Y-98347038D01*
X122549836Y-98352309D01*
X122555108Y-98357932D01*
X122560009Y-98363890D01*
X122564522Y-98370166D01*
X122568630Y-98376740D01*
X122572315Y-98383596D01*
X122575558Y-98390717D01*
X122578343Y-98398083D01*
X122580652Y-98405678D01*
X122582451Y-98413410D01*
X122583723Y-98421182D01*
X122584475Y-98428970D01*
X122584712Y-98436750D01*
X122584443Y-98444497D01*
X122583672Y-98452189D01*
X122582407Y-98459800D01*
X122580654Y-98467306D01*
X122578420Y-98474682D01*
X122575711Y-98481906D01*
X122572533Y-98488953D01*
X122568893Y-98495798D01*
X122564798Y-98502417D01*
X122560253Y-98508786D01*
X122555266Y-98514881D01*
X122549843Y-98520678D01*
X122470813Y-98614005D01*
X122702698Y-98845890D01*
X122739703Y-98817652D01*
X122777583Y-98790771D01*
X122816301Y-98765262D01*
X122855819Y-98741140D01*
X122896098Y-98718423D01*
X122937099Y-98697125D01*
X122978786Y-98677263D01*
X123021119Y-98658851D01*
X123064060Y-98641908D01*
X123107572Y-98626447D01*
X123151615Y-98612485D01*
X123196152Y-98600038D01*
X123241144Y-98589121D01*
X123286553Y-98579751D01*
X123332342Y-98571943D01*
X123378471Y-98565713D01*
X123378471Y-98238059D01*
X123259408Y-98238059D01*
X123255430Y-98237993D01*
X123251474Y-98237795D01*
X123247542Y-98237468D01*
X123243637Y-98237012D01*
X123239762Y-98236429D01*
X123235920Y-98235722D01*
X123232112Y-98234891D01*
X123228343Y-98233938D01*
X123224614Y-98232864D01*
X123220929Y-98231671D01*
X123217289Y-98230362D01*
X123213698Y-98228936D01*
X123210159Y-98227396D01*
X123206674Y-98225744D01*
X123203246Y-98223981D01*
X123199877Y-98222108D01*
X123196571Y-98220127D01*
X123193330Y-98218040D01*
X123190156Y-98215848D01*
X123187053Y-98213552D01*
X123184023Y-98211156D01*
X123181069Y-98208659D01*
X123178193Y-98206063D01*
X123175399Y-98203371D01*
X123172689Y-98200583D01*
X123170066Y-98197701D01*
X123167531Y-98194727D01*
X123165090Y-98191662D01*
X123162742Y-98188508D01*
X123160493Y-98185267D01*
X123158344Y-98181940D01*
X123156297Y-98178528D01*
X123152559Y-98171525D01*
X123149319Y-98164346D01*
X123146577Y-98157017D01*
X123144334Y-98149564D01*
X123142589Y-98142009D01*
X123141343Y-98134380D01*
X123140595Y-98126701D01*
X123140346Y-98118996D01*
X123140595Y-98111292D01*
X123141343Y-98103613D01*
X123142589Y-98095984D01*
X123144334Y-98088429D01*
X123146577Y-98080976D01*
X123149319Y-98073647D01*
X123152559Y-98066468D01*
X123156297Y-98059465D01*
X123160493Y-98052726D01*
X123165090Y-98046331D01*
X123170066Y-98040292D01*
X123175399Y-98034622D01*
X123181069Y-98029334D01*
X123187053Y-98024441D01*
X123193330Y-98019953D01*
X123199877Y-98015885D01*
X123206674Y-98012249D01*
X123213698Y-98009057D01*
X123220929Y-98006322D01*
X123228343Y-98004055D01*
X123235920Y-98002271D01*
X123243637Y-98000981D01*
X123251474Y-98000198D01*
X123259408Y-97999934D01*
X123815033Y-97999934D01*
X123819011Y-98000000D01*
G37*
G36*
X129955461Y-98868205D02*
G01*
X129960720Y-98868606D01*
X129965903Y-98869265D01*
X129971002Y-98870175D01*
X129976011Y-98871332D01*
X129980926Y-98872727D01*
X129985737Y-98874357D01*
X129990439Y-98876211D01*
X129995027Y-98878285D01*
X129999491Y-98880570D01*
X130003829Y-98883064D01*
X130008031Y-98885758D01*
X130012089Y-98888645D01*
X130016001Y-98891720D01*
X130019759Y-98894974D01*
X130023355Y-98898403D01*
X130026782Y-98901999D01*
X130030038Y-98905756D01*
X130033113Y-98909669D01*
X130035999Y-98913729D01*
X130038692Y-98917930D01*
X130041187Y-98922267D01*
X130043472Y-98926731D01*
X130045547Y-98931321D01*
X130047400Y-98936021D01*
X130049029Y-98940832D01*
X130050423Y-98945746D01*
X130051579Y-98950754D01*
X130052491Y-98955854D01*
X130053149Y-98961037D01*
X130053550Y-98966294D01*
X130053684Y-98971623D01*
X130053549Y-98976952D01*
X130053149Y-98982207D01*
X130052490Y-98987391D01*
X130051580Y-98992490D01*
X130050425Y-98997499D01*
X130049028Y-99002413D01*
X130047401Y-99007224D01*
X130045546Y-99011926D01*
X130043472Y-99016512D01*
X130041187Y-99020977D01*
X130038693Y-99025314D01*
X130036001Y-99029516D01*
X130033112Y-99033576D01*
X130030038Y-99037488D01*
X130026783Y-99041246D01*
X130023355Y-99044841D01*
X130019758Y-99048269D01*
X130016001Y-99051525D01*
X130012090Y-99054601D01*
X130008029Y-99057486D01*
X130003828Y-99060180D01*
X129999494Y-99062673D01*
X129995027Y-99064962D01*
X129990440Y-99067035D01*
X129985738Y-99068889D01*
X129980927Y-99070518D01*
X129976012Y-99071913D01*
X129971002Y-99073069D01*
X129965903Y-99073979D01*
X129960722Y-99074640D01*
X129955461Y-99075039D01*
X129950132Y-99075174D01*
X129690229Y-99075174D01*
X129684900Y-99075038D01*
X129679640Y-99074638D01*
X129674460Y-99073980D01*
X129669362Y-99073070D01*
X129664351Y-99071913D01*
X129659437Y-99070518D01*
X129654624Y-99068889D01*
X129649922Y-99067036D01*
X129645335Y-99064961D01*
X129640871Y-99062674D01*
X129636533Y-99060181D01*
X129632332Y-99057487D01*
X129628272Y-99054601D01*
X129624360Y-99051525D01*
X129620604Y-99048270D01*
X129617008Y-99044841D01*
X129613578Y-99041244D01*
X129610325Y-99037487D01*
X129607251Y-99033575D01*
X129604363Y-99029516D01*
X129601669Y-99025314D01*
X129599178Y-99020978D01*
X129596889Y-99016513D01*
X129594815Y-99011925D01*
X129592962Y-99007224D01*
X129591334Y-99002412D01*
X129589938Y-98997499D01*
X129588783Y-98992490D01*
X129587873Y-98987391D01*
X129587212Y-98982209D01*
X129586813Y-98976950D01*
X129586679Y-98971622D01*
X129586813Y-98966294D01*
X129587213Y-98961036D01*
X129587872Y-98955854D01*
X129588782Y-98950754D01*
X129589938Y-98945746D01*
X129591334Y-98940833D01*
X129592962Y-98936021D01*
X129594815Y-98931318D01*
X129596888Y-98926733D01*
X129599176Y-98922267D01*
X129601670Y-98917931D01*
X129604364Y-98913728D01*
X129607250Y-98909669D01*
X129610324Y-98905758D01*
X129613578Y-98902000D01*
X129617008Y-98898403D01*
X129620603Y-98894974D01*
X129624360Y-98891720D01*
X129628273Y-98888644D01*
X129632332Y-98885758D01*
X129636536Y-98883063D01*
X129640870Y-98880571D01*
X129645336Y-98878285D01*
X129649922Y-98876209D01*
X129654625Y-98874356D01*
X129659437Y-98872727D01*
X129664350Y-98871332D01*
X129669360Y-98870174D01*
X129674460Y-98869266D01*
X129679642Y-98868607D01*
X129684901Y-98868206D01*
X129690229Y-98868072D01*
X129950132Y-98868071D01*
X129955461Y-98868205D01*
G37*
G36*
X127941553Y-100307031D02*
G01*
X127946583Y-100307514D01*
X127951565Y-100308242D01*
X127956487Y-100309207D01*
X127961342Y-100310406D01*
X127966124Y-100311835D01*
X127970822Y-100313487D01*
X127975432Y-100315362D01*
X127979939Y-100317452D01*
X127984345Y-100319755D01*
X127988632Y-100322265D01*
X127992796Y-100324975D01*
X127996831Y-100327888D01*
X128000727Y-100330993D01*
X128004474Y-100334287D01*
X128008071Y-100337765D01*
X128011499Y-100341426D01*
X128014759Y-100345262D01*
X128017839Y-100349270D01*
X128020732Y-100353445D01*
X128023432Y-100357781D01*
X128025925Y-100362279D01*
X128028208Y-100366928D01*
X128030273Y-100371727D01*
X128032109Y-100376671D01*
X128033709Y-100381757D01*
X128045179Y-100418557D01*
X128058247Y-100454701D01*
X128072881Y-100490148D01*
X128089045Y-100524847D01*
X128106707Y-100558755D01*
X128125832Y-100591824D01*
X128146384Y-100624007D01*
X128168328Y-100655258D01*
X128191637Y-100685533D01*
X128216269Y-100714783D01*
X128242193Y-100742960D01*
X128269376Y-100770020D01*
X128297781Y-100795917D01*
X128327376Y-100820603D01*
X128358124Y-100844034D01*
X128389996Y-100866159D01*
X128394366Y-100869213D01*
X128398529Y-100872448D01*
X128402488Y-100875856D01*
X128406236Y-100879431D01*
X128409776Y-100883159D01*
X128413101Y-100887034D01*
X128416216Y-100891047D01*
X128419114Y-100895189D01*
X128421793Y-100899448D01*
X128424253Y-100903818D01*
X128426493Y-100908290D01*
X128428510Y-100912855D01*
X128430302Y-100917504D01*
X128431867Y-100922226D01*
X128433202Y-100927014D01*
X128434308Y-100931857D01*
X128435181Y-100936748D01*
X128435821Y-100941678D01*
X128436224Y-100946635D01*
X128436391Y-100951615D01*
X128436317Y-100956605D01*
X128436004Y-100961596D01*
X128435445Y-100966582D01*
X128434642Y-100971550D01*
X128433594Y-100976496D01*
X128432295Y-100981406D01*
X128430746Y-100986274D01*
X128428947Y-100991091D01*
X128426891Y-100995847D01*
X128424579Y-101000530D01*
X128422011Y-101005136D01*
X128419183Y-101009653D01*
X128416129Y-101014022D01*
X128412894Y-101018186D01*
X128409484Y-101022144D01*
X128405912Y-101025894D01*
X128402182Y-101029432D01*
X128398305Y-101032758D01*
X128394294Y-101035872D01*
X128390153Y-101038769D01*
X128385892Y-101041449D01*
X128381520Y-101043909D01*
X128377048Y-101046149D01*
X128372484Y-101048165D01*
X128367835Y-101049956D01*
X128363112Y-101051523D01*
X128358324Y-101052858D01*
X128353480Y-101053964D01*
X128348589Y-101054839D01*
X128343661Y-101055479D01*
X128338701Y-101055883D01*
X128333723Y-101056050D01*
X128328734Y-101055977D01*
X128323740Y-101055663D01*
X128318754Y-101055106D01*
X128313787Y-101054303D01*
X128308843Y-101053254D01*
X128303933Y-101051957D01*
X128299066Y-101050409D01*
X128294249Y-101048608D01*
X128289494Y-101046554D01*
X128284810Y-101044244D01*
X128280204Y-101041677D01*
X128275688Y-101038849D01*
X128236249Y-101011465D01*
X128198198Y-100982464D01*
X128161574Y-100951906D01*
X128126421Y-100919847D01*
X128092779Y-100886342D01*
X128060694Y-100851451D01*
X128030206Y-100815232D01*
X128001357Y-100777739D01*
X127974190Y-100739033D01*
X127948748Y-100699170D01*
X127925070Y-100658207D01*
X127903202Y-100616203D01*
X127883185Y-100573214D01*
X127865061Y-100529299D01*
X127848873Y-100484513D01*
X127834662Y-100438917D01*
X127833698Y-100435331D01*
X127832869Y-100431742D01*
X127832172Y-100428153D01*
X127831605Y-100424563D01*
X127831167Y-100420978D01*
X127830857Y-100417401D01*
X127830671Y-100413832D01*
X127830610Y-100410276D01*
X127830696Y-100406067D01*
X127830953Y-100401883D01*
X127831376Y-100397730D01*
X127831968Y-100393612D01*
X127832722Y-100389533D01*
X127833637Y-100385498D01*
X127834711Y-100381510D01*
X127835940Y-100377576D01*
X127837322Y-100373701D01*
X127838854Y-100369886D01*
X127840536Y-100366138D01*
X127842359Y-100362462D01*
X127844329Y-100358859D01*
X127846439Y-100355338D01*
X127848687Y-100351901D01*
X127851071Y-100348552D01*
X127853589Y-100345297D01*
X127856235Y-100342143D01*
X127859011Y-100339089D01*
X127861912Y-100336144D01*
X127864936Y-100333310D01*
X127868079Y-100330592D01*
X127871342Y-100327996D01*
X127874720Y-100325523D01*
X127878212Y-100323183D01*
X127881814Y-100320977D01*
X127885522Y-100318909D01*
X127889337Y-100316985D01*
X127893255Y-100315209D01*
X127897275Y-100313585D01*
X127901390Y-100312121D01*
X127905603Y-100310816D01*
X127910760Y-100309476D01*
X127915923Y-100308408D01*
X127921086Y-100307612D01*
X127926238Y-100307080D01*
X127931371Y-100306808D01*
X127936479Y-100306794D01*
X127941553Y-100307031D01*
G37*
G36*
X127901910Y-99805012D02*
G01*
X127907170Y-99805411D01*
X127912353Y-99806071D01*
X127917452Y-99806981D01*
X127922461Y-99808137D01*
X127927375Y-99809532D01*
X127932187Y-99811161D01*
X127936891Y-99813014D01*
X127941476Y-99815090D01*
X127945941Y-99817374D01*
X127950278Y-99819869D01*
X127954479Y-99822563D01*
X127958538Y-99825450D01*
X127962452Y-99828523D01*
X127966208Y-99831779D01*
X127969803Y-99835208D01*
X127973232Y-99838803D01*
X127976488Y-99842561D01*
X127979561Y-99846472D01*
X127982448Y-99850531D01*
X127985142Y-99854733D01*
X127987635Y-99859069D01*
X127989921Y-99863534D01*
X127991996Y-99868119D01*
X127993849Y-99872821D01*
X127995479Y-99877633D01*
X127996873Y-99882546D01*
X127998028Y-99887555D01*
X127998939Y-99892652D01*
X127999597Y-99897834D01*
X127999997Y-99903092D01*
X128000131Y-99908419D01*
X128000133Y-99994672D01*
X128000000Y-100000000D01*
X127999597Y-100005258D01*
X127998939Y-100010439D01*
X127998027Y-100015537D01*
X127996872Y-100020547D01*
X127995477Y-100025460D01*
X127993849Y-100030271D01*
X127991995Y-100034974D01*
X127989920Y-100039561D01*
X127987636Y-100044026D01*
X127985141Y-100048360D01*
X127982448Y-100052563D01*
X127979562Y-100056623D01*
X127976488Y-100060535D01*
X127973232Y-100064293D01*
X127969804Y-100067888D01*
X127966208Y-100071319D01*
X127962449Y-100074573D01*
X127958538Y-100077648D01*
X127954480Y-100080535D01*
X127950277Y-100083228D01*
X127945940Y-100085723D01*
X127941477Y-100088009D01*
X127936891Y-100090084D01*
X127932186Y-100091940D01*
X127927375Y-100093567D01*
X127922461Y-100094964D01*
X127917452Y-100096120D01*
X127912352Y-100097032D01*
X127907170Y-100097689D01*
X127901911Y-100098089D01*
X127896581Y-100098223D01*
X127891253Y-100098089D01*
X127885995Y-100097691D01*
X127880813Y-100097031D01*
X127875713Y-100096120D01*
X127870703Y-100094963D01*
X127865788Y-100093567D01*
X127860976Y-100091938D01*
X127856275Y-100090085D01*
X127851687Y-100088013D01*
X127847222Y-100085724D01*
X127842888Y-100083231D01*
X127838685Y-100080537D01*
X127834625Y-100077650D01*
X127830713Y-100074576D01*
X127826956Y-100071321D01*
X127823359Y-100067892D01*
X127819931Y-100064296D01*
X127816676Y-100060537D01*
X127813602Y-100056627D01*
X127810715Y-100052567D01*
X127808023Y-100048364D01*
X127805529Y-100044030D01*
X127803241Y-100039565D01*
X127801168Y-100034976D01*
X127799313Y-100030274D01*
X127797686Y-100025465D01*
X127796290Y-100020551D01*
X127795134Y-100015540D01*
X127794224Y-100010440D01*
X127793564Y-100005259D01*
X127793165Y-100000001D01*
X127793030Y-99994672D01*
X127793030Y-99908419D01*
X127793165Y-99903091D01*
X127793566Y-99897833D01*
X127794223Y-99892652D01*
X127795134Y-99887552D01*
X127796290Y-99882543D01*
X127797686Y-99877629D01*
X127799314Y-99872816D01*
X127801170Y-99868116D01*
X127803241Y-99863530D01*
X127805529Y-99859065D01*
X127808021Y-99854729D01*
X127810716Y-99850529D01*
X127813603Y-99846468D01*
X127816676Y-99842557D01*
X127819931Y-99838799D01*
X127823359Y-99835204D01*
X127826956Y-99831776D01*
X127830713Y-99828521D01*
X127834623Y-99825446D01*
X127838684Y-99822560D01*
X127842886Y-99819867D01*
X127847223Y-99817374D01*
X127851687Y-99815087D01*
X127856275Y-99813011D01*
X127860977Y-99811160D01*
X127865788Y-99809532D01*
X127870702Y-99808135D01*
X127875713Y-99806980D01*
X127880811Y-99806070D01*
X127885996Y-99805412D01*
X127891252Y-99805011D01*
X127896580Y-99804877D01*
X127901910Y-99805012D01*
G37*
G36*
X129293197Y-97491199D02*
G01*
X129300253Y-97491985D01*
X129307277Y-97493263D01*
X129314247Y-97495036D01*
X129321136Y-97497310D01*
X129327850Y-97500056D01*
X129334298Y-97503237D01*
X129340465Y-97506831D01*
X129346339Y-97510818D01*
X129351901Y-97515179D01*
X129357134Y-97519894D01*
X129362025Y-97524945D01*
X129366560Y-97530311D01*
X129370720Y-97535969D01*
X129374491Y-97541903D01*
X129377858Y-97548092D01*
X129380804Y-97554516D01*
X129383315Y-97561157D01*
X129385374Y-97567994D01*
X129386967Y-97575007D01*
X129388077Y-97582175D01*
X129391646Y-97608082D01*
X129396108Y-97633651D01*
X129401408Y-97658866D01*
X129407504Y-97683716D01*
X129414343Y-97708183D01*
X129421880Y-97732253D01*
X129430065Y-97755913D01*
X129438851Y-97779151D01*
X129448190Y-97801951D01*
X129458031Y-97824298D01*
X129479036Y-97867582D01*
X129501481Y-97908888D01*
X129524978Y-97948106D01*
X129549143Y-97985121D01*
X129573593Y-98019821D01*
X129597939Y-98052097D01*
X129617240Y-98076150D01*
X129621798Y-98081833D01*
X129644784Y-98108916D01*
X129666509Y-98133233D01*
X129704650Y-98173128D01*
X129755708Y-98178463D01*
X129805987Y-98186159D01*
X129855428Y-98196158D01*
X129903980Y-98208406D01*
X129951584Y-98222841D01*
X129998188Y-98239410D01*
X130043734Y-98258050D01*
X130088170Y-98278710D01*
X130131440Y-98301329D01*
X130173489Y-98325848D01*
X130214260Y-98352214D01*
X130253698Y-98380367D01*
X130291751Y-98410250D01*
X130328361Y-98441805D01*
X130363476Y-98474972D01*
X130397038Y-98509701D01*
X130428992Y-98545927D01*
X130459285Y-98583597D01*
X130487860Y-98622650D01*
X130514663Y-98663033D01*
X130539638Y-98704688D01*
X130562730Y-98747554D01*
X130583885Y-98791573D01*
X130603047Y-98836693D01*
X130620160Y-98882853D01*
X130635170Y-98929996D01*
X130648025Y-98978065D01*
X130658664Y-99027002D01*
X130667035Y-99076750D01*
X130673085Y-99127252D01*
X130676756Y-99178449D01*
X130677990Y-99230284D01*
X130676609Y-99284787D01*
X130672504Y-99338584D01*
X130665747Y-99391607D01*
X130656402Y-99443788D01*
X130644538Y-99495065D01*
X130630224Y-99545365D01*
X130613522Y-99594623D01*
X130594500Y-99642772D01*
X130573231Y-99689746D01*
X130549776Y-99735476D01*
X130524206Y-99779894D01*
X130496585Y-99822937D01*
X130466984Y-99864533D01*
X130435466Y-99904617D01*
X130402100Y-99943123D01*
X130366954Y-99979982D01*
X130330097Y-100015127D01*
X130291588Y-100048491D01*
X130251505Y-100080008D01*
X130209908Y-100109612D01*
X130166867Y-100137230D01*
X130122446Y-100162801D01*
X130076718Y-100186255D01*
X130029744Y-100207525D01*
X129981594Y-100226544D01*
X129932335Y-100243244D01*
X129882034Y-100257562D01*
X129830759Y-100269425D01*
X129778577Y-100278769D01*
X129725553Y-100285526D01*
X129671756Y-100289631D01*
X129617254Y-100291014D01*
X129579394Y-100290346D01*
X129541731Y-100288351D01*
X129504291Y-100285040D01*
X129467106Y-100280423D01*
X129430208Y-100274513D01*
X129393622Y-100267323D01*
X129357378Y-100258864D01*
X129321507Y-100249146D01*
X129286037Y-100238180D01*
X129250995Y-100225979D01*
X129216415Y-100212555D01*
X129182321Y-100197919D01*
X129148746Y-100182081D01*
X129115719Y-100165057D01*
X129083266Y-100146854D01*
X129051418Y-100127485D01*
X129048157Y-100214904D01*
X129047254Y-100300342D01*
X129048701Y-100383742D01*
X129052490Y-100465060D01*
X129058613Y-100544243D01*
X129067061Y-100621243D01*
X129077828Y-100696005D01*
X129090907Y-100768484D01*
X129106287Y-100838627D01*
X129123960Y-100906387D01*
X129143921Y-100971708D01*
X129166162Y-101034546D01*
X129190672Y-101094843D01*
X129217443Y-101152558D01*
X129246472Y-101207633D01*
X129277747Y-101260024D01*
X129288298Y-101277911D01*
X129297530Y-101296228D01*
X129305443Y-101314916D01*
X129312032Y-101333922D01*
X129317295Y-101353190D01*
X129321234Y-101372669D01*
X129323842Y-101392305D01*
X129325121Y-101412036D01*
X129325067Y-101431815D01*
X129323682Y-101451582D01*
X129320959Y-101471286D01*
X129316902Y-101490870D01*
X129311504Y-101510283D01*
X129304767Y-101529466D01*
X129296686Y-101548369D01*
X129287261Y-101566933D01*
X129276706Y-101584688D01*
X129265071Y-101601548D01*
X129252416Y-101617477D01*
X129238799Y-101632441D01*
X129224278Y-101646408D01*
X129208913Y-101659340D01*
X129192758Y-101671202D01*
X129175876Y-101681963D01*
X129158320Y-101691587D01*
X129140154Y-101700039D01*
X129121432Y-101707285D01*
X129102212Y-101713290D01*
X129082556Y-101718019D01*
X129062520Y-101721440D01*
X129042160Y-101723519D01*
X129021536Y-101724218D01*
X128867353Y-101724218D01*
X128783875Y-101723018D01*
X128702040Y-101719431D01*
X128621898Y-101713470D01*
X128543519Y-101705155D01*
X128466961Y-101694498D01*
X128392282Y-101681518D01*
X128319543Y-101666232D01*
X128248807Y-101648654D01*
X128180131Y-101628801D01*
X128113579Y-101606690D01*
X128049207Y-101582337D01*
X127987081Y-101555758D01*
X127927258Y-101526969D01*
X127869797Y-101495986D01*
X127814765Y-101462826D01*
X127762215Y-101427505D01*
X127705487Y-101384676D01*
X127652230Y-101339189D01*
X127602471Y-101291096D01*
X127556233Y-101240452D01*
X127513547Y-101187311D01*
X127474431Y-101131725D01*
X127438919Y-101073748D01*
X127407034Y-101013434D01*
X127378802Y-100950835D01*
X127354249Y-100886007D01*
X127333403Y-100819001D01*
X127316289Y-100749871D01*
X127302931Y-100678669D01*
X127293359Y-100605452D01*
X127287593Y-100530270D01*
X127285669Y-100453178D01*
X127285668Y-99167331D01*
X127492753Y-99167331D01*
X127492755Y-100453187D01*
X127494288Y-100518082D01*
X127498886Y-100581086D01*
X127506545Y-100642189D01*
X127517256Y-100701384D01*
X127531018Y-100758656D01*
X127547821Y-100813993D01*
X127567663Y-100867386D01*
X127590539Y-100918827D01*
X127616440Y-100968300D01*
X127645364Y-101015795D01*
X127677304Y-101061303D01*
X127712257Y-101104810D01*
X127750214Y-101146307D01*
X127791174Y-101185784D01*
X127835126Y-101223227D01*
X127882071Y-101258628D01*
X127927945Y-101289398D01*
X127976164Y-101318288D01*
X128026676Y-101345280D01*
X128079424Y-101370362D01*
X128134357Y-101393518D01*
X128191421Y-101414734D01*
X128250560Y-101433999D01*
X128311723Y-101451296D01*
X128374852Y-101466610D01*
X128439898Y-101479930D01*
X128506802Y-101491238D01*
X128575513Y-101500522D01*
X128645977Y-101507768D01*
X128718139Y-101512962D01*
X128791948Y-101516086D01*
X128867343Y-101517131D01*
X129021514Y-101517132D01*
X129026240Y-101517033D01*
X129030812Y-101516737D01*
X129035236Y-101516258D01*
X129039508Y-101515602D01*
X129043633Y-101514784D01*
X129047609Y-101513811D01*
X129051443Y-101512693D01*
X129055133Y-101511442D01*
X129058684Y-101510065D01*
X129062095Y-101508576D01*
X129065370Y-101506981D01*
X129068509Y-101505293D01*
X129071514Y-101503520D01*
X129074388Y-101501672D01*
X129077133Y-101499761D01*
X129079751Y-101497798D01*
X129082242Y-101495787D01*
X129084608Y-101493745D01*
X129088977Y-101489597D01*
X129092870Y-101485435D01*
X129096307Y-101481337D01*
X129099296Y-101477384D01*
X129101855Y-101473657D01*
X129104000Y-101470236D01*
X129105742Y-101467200D01*
X129109056Y-101460570D01*
X129110804Y-101456482D01*
X129112512Y-101451916D01*
X129114106Y-101446906D01*
X129115513Y-101441480D01*
X129116659Y-101435668D01*
X129117466Y-101429503D01*
X129117865Y-101423012D01*
X129117776Y-101416229D01*
X129117126Y-101409182D01*
X129115844Y-101401902D01*
X129114942Y-101398184D01*
X129113854Y-101394417D01*
X129112567Y-101390610D01*
X129111079Y-101386761D01*
X129109373Y-101382877D01*
X129107446Y-101378960D01*
X129105285Y-101375018D01*
X129102880Y-101371050D01*
X129063150Y-101304131D01*
X129026627Y-101233658D01*
X128993328Y-101159709D01*
X128963267Y-101082361D01*
X128936455Y-101001694D01*
X128912905Y-100917792D01*
X128892632Y-100830727D01*
X128875648Y-100740583D01*
X128861966Y-100647436D01*
X128851600Y-100551369D01*
X128844565Y-100452458D01*
X128840871Y-100350786D01*
X128840536Y-100246426D01*
X128843566Y-100139462D01*
X128849978Y-100029971D01*
X128859787Y-99918036D01*
X128860225Y-99914380D01*
X128860787Y-99910758D01*
X128861475Y-99907177D01*
X128862285Y-99903635D01*
X128863217Y-99900137D01*
X128864264Y-99896685D01*
X128866708Y-99889930D01*
X128869600Y-99883389D01*
X128872925Y-99877085D01*
X128876667Y-99871037D01*
X128880813Y-99865265D01*
X128885341Y-99859792D01*
X128890241Y-99854635D01*
X128895494Y-99849820D01*
X128901086Y-99845361D01*
X128906999Y-99841283D01*
X128910071Y-99839393D01*
X128913218Y-99837604D01*
X128916437Y-99835923D01*
X128919728Y-99834348D01*
X128923087Y-99832885D01*
X128926511Y-99831533D01*
X128933477Y-99829205D01*
X128940527Y-99827391D01*
X128947632Y-99826084D01*
X128954770Y-99825278D01*
X128961915Y-99824971D01*
X128969041Y-99825158D01*
X128976123Y-99825831D01*
X128983134Y-99826987D01*
X128990049Y-99828618D01*
X128996843Y-99830724D01*
X129003491Y-99833297D01*
X129009965Y-99836329D01*
X129016244Y-99839820D01*
X129022297Y-99843763D01*
X129028104Y-99848151D01*
X129033634Y-99852981D01*
X129063973Y-99880119D01*
X129095392Y-99905669D01*
X129127834Y-99929604D01*
X129161241Y-99951904D01*
X129195562Y-99972548D01*
X129230737Y-99991513D01*
X129266713Y-100008776D01*
X129303430Y-100024317D01*
X129340837Y-100038111D01*
X129378874Y-100050138D01*
X129417486Y-100060375D01*
X129456619Y-100068803D01*
X129496216Y-100075394D01*
X129536221Y-100080130D01*
X129576577Y-100082988D01*
X129617230Y-100083946D01*
X129661092Y-100082832D01*
X129704385Y-100079530D01*
X129747057Y-100074091D01*
X129789052Y-100066571D01*
X129830317Y-100057025D01*
X129870797Y-100045502D01*
X129910441Y-100032063D01*
X129949189Y-100016756D01*
X129986992Y-99999637D01*
X130023794Y-99980763D01*
X130059541Y-99960185D01*
X130094179Y-99937957D01*
X130127655Y-99914136D01*
X130159914Y-99888773D01*
X130190902Y-99861921D01*
X130220564Y-99833637D01*
X130248847Y-99803975D01*
X130275698Y-99772987D01*
X130301063Y-99740728D01*
X130324886Y-99707253D01*
X130347113Y-99672616D01*
X130367691Y-99636868D01*
X130386566Y-99600065D01*
X130403685Y-99562263D01*
X130418989Y-99523515D01*
X130432430Y-99483874D01*
X130443952Y-99443394D01*
X130453499Y-99402129D01*
X130461019Y-99360135D01*
X130466458Y-99317464D01*
X130469761Y-99274171D01*
X130470874Y-99230310D01*
X130469831Y-99187606D01*
X130466739Y-99145443D01*
X130461644Y-99103867D01*
X130454589Y-99062930D01*
X130445630Y-99022682D01*
X130434807Y-98983171D01*
X130422168Y-98944448D01*
X130407765Y-98906563D01*
X130391643Y-98869564D01*
X130373847Y-98833502D01*
X130354428Y-98798425D01*
X130333434Y-98764384D01*
X130310910Y-98731429D01*
X130286904Y-98699607D01*
X130261463Y-98668971D01*
X130234635Y-98639569D01*
X130206467Y-98611452D01*
X130177008Y-98584665D01*
X130146304Y-98559264D01*
X130114403Y-98535294D01*
X130081352Y-98512808D01*
X130047199Y-98491852D01*
X130011990Y-98472477D01*
X129975775Y-98454734D01*
X129938599Y-98438672D01*
X129900512Y-98424341D01*
X129861558Y-98411787D01*
X129821789Y-98401065D01*
X129781248Y-98392222D01*
X129739983Y-98385306D01*
X129698046Y-98380368D01*
X129655479Y-98377460D01*
X129646111Y-98377042D01*
X129636708Y-98376751D01*
X129627130Y-98376581D01*
X129617239Y-98376525D01*
X129579103Y-98377377D01*
X129541175Y-98379920D01*
X129503508Y-98384134D01*
X129466157Y-98389999D01*
X129429172Y-98397496D01*
X129392610Y-98406604D01*
X129356523Y-98417305D01*
X129320962Y-98429579D01*
X129285982Y-98443405D01*
X129251638Y-98458766D01*
X129217980Y-98475639D01*
X129185061Y-98494007D01*
X129152939Y-98513850D01*
X129121661Y-98535145D01*
X129091285Y-98557877D01*
X129061863Y-98582024D01*
X129061858Y-98582026D01*
X129061854Y-98582029D01*
X129061852Y-98582033D01*
X129061849Y-98582035D01*
X129061843Y-98582042D01*
X129061834Y-98582047D01*
X129061822Y-98582058D01*
X129061816Y-98582062D01*
X129061815Y-98582064D01*
X129061813Y-98582065D01*
X129047506Y-98594617D01*
X129033485Y-98607472D01*
X129019765Y-98620617D01*
X129006354Y-98634042D01*
X128993268Y-98647735D01*
X128980516Y-98661685D01*
X128968111Y-98675879D01*
X128956063Y-98690304D01*
X128952296Y-98694669D01*
X128948313Y-98698796D01*
X128944131Y-98702676D01*
X128939755Y-98706309D01*
X128935203Y-98709684D01*
X128930480Y-98712800D01*
X128925602Y-98715649D01*
X128920580Y-98718225D01*
X128915424Y-98720524D01*
X128910147Y-98722541D01*
X128904759Y-98724268D01*
X128899276Y-98725700D01*
X128893704Y-98726835D01*
X128888059Y-98727662D01*
X128882349Y-98728179D01*
X128876589Y-98728381D01*
X128870821Y-98728261D01*
X128865107Y-98727825D01*
X128859450Y-98727078D01*
X128853862Y-98726023D01*
X128848359Y-98724669D01*
X128842947Y-98723019D01*
X128837643Y-98721078D01*
X128832455Y-98718854D01*
X128827396Y-98716350D01*
X128822478Y-98713572D01*
X128817710Y-98710527D01*
X128813110Y-98707216D01*
X128808681Y-98703650D01*
X128804440Y-98699833D01*
X128800400Y-98695769D01*
X128796569Y-98691461D01*
X128769589Y-98661059D01*
X128741206Y-98632334D01*
X128711492Y-98605324D01*
X128680523Y-98580064D01*
X128648379Y-98556593D01*
X128615133Y-98534944D01*
X128580864Y-98515156D01*
X128545644Y-98497265D01*
X128509556Y-98481306D01*
X128472671Y-98467315D01*
X128435068Y-98455330D01*
X128396824Y-98445387D01*
X128358011Y-98437522D01*
X128318711Y-98431770D01*
X128278996Y-98428170D01*
X128238944Y-98426756D01*
X128201792Y-98427392D01*
X128164962Y-98429829D01*
X128128505Y-98434053D01*
X128092474Y-98440035D01*
X128056916Y-98447760D01*
X128021885Y-98457206D01*
X127987429Y-98468353D01*
X127953600Y-98481179D01*
X127920446Y-98495664D01*
X127888023Y-98511787D01*
X127856376Y-98529527D01*
X127825558Y-98548865D01*
X127795621Y-98569781D01*
X127766612Y-98592252D01*
X127738584Y-98616257D01*
X127711589Y-98641780D01*
X127685875Y-98668582D01*
X127661668Y-98696427D01*
X127638990Y-98725263D01*
X127617862Y-98755038D01*
X127598300Y-98785704D01*
X127580331Y-98817208D01*
X127563974Y-98849501D01*
X127549251Y-98882534D01*
X127536180Y-98916254D01*
X127524785Y-98950613D01*
X127515084Y-98985559D01*
X127507102Y-99021042D01*
X127500856Y-99057010D01*
X127496369Y-99093415D01*
X127493661Y-99130204D01*
X127492753Y-99167331D01*
X127285668Y-99167331D01*
X127286829Y-99119822D01*
X127290294Y-99072743D01*
X127296036Y-99026157D01*
X127304028Y-98980128D01*
X127314243Y-98934724D01*
X127326654Y-98890008D01*
X127341236Y-98846041D01*
X127357961Y-98802893D01*
X127376803Y-98760624D01*
X127397733Y-98719299D01*
X127420725Y-98678987D01*
X127445753Y-98639745D01*
X127472790Y-98601644D01*
X127501811Y-98564744D01*
X127532785Y-98529111D01*
X127565687Y-98494812D01*
X127600230Y-98462154D01*
X127636092Y-98431437D01*
X127673206Y-98402684D01*
X127711513Y-98375921D01*
X127750946Y-98351175D01*
X127791441Y-98328476D01*
X127832930Y-98307843D01*
X127875351Y-98289309D01*
X127918641Y-98272897D01*
X127962732Y-98258633D01*
X128007559Y-98246547D01*
X128053061Y-98236659D01*
X128099170Y-98229002D01*
X128145821Y-98223601D01*
X128192953Y-98220477D01*
X128240497Y-98219662D01*
X128284639Y-98221045D01*
X128328464Y-98224491D01*
X128371915Y-98229975D01*
X128414923Y-98237466D01*
X128457433Y-98246934D01*
X128499381Y-98258350D01*
X128540705Y-98271683D01*
X128581341Y-98286907D01*
X128621233Y-98303992D01*
X128660314Y-98322907D01*
X128698522Y-98343623D01*
X128735799Y-98366111D01*
X128772082Y-98390343D01*
X128807306Y-98416288D01*
X128841411Y-98443915D01*
X128874339Y-98473197D01*
X128877750Y-98469899D01*
X128881200Y-98466636D01*
X128888121Y-98460134D01*
X128887442Y-98442793D01*
X128886944Y-98425600D01*
X128886638Y-98408569D01*
X128886535Y-98391707D01*
X128887435Y-98339643D01*
X128889167Y-98306394D01*
X129096423Y-98306394D01*
X129116412Y-98295402D01*
X129136620Y-98284848D01*
X129157038Y-98274737D01*
X129177658Y-98265070D01*
X129198475Y-98255849D01*
X129219481Y-98247078D01*
X129240667Y-98238761D01*
X129262027Y-98230901D01*
X129283553Y-98223501D01*
X129305237Y-98216564D01*
X129327073Y-98210089D01*
X129349053Y-98204086D01*
X129371170Y-98198553D01*
X129393416Y-98193497D01*
X129415783Y-98188917D01*
X129438265Y-98184819D01*
X129410764Y-98148827D01*
X129383211Y-98110300D01*
X129355957Y-98069319D01*
X129329350Y-98025958D01*
X129316399Y-98003405D01*
X129303742Y-97980289D01*
X129291422Y-97956615D01*
X129279484Y-97932393D01*
X129267971Y-97907634D01*
X129256926Y-97882345D01*
X129246395Y-97856538D01*
X129236419Y-97830219D01*
X129213399Y-97872510D01*
X129190691Y-97919733D01*
X129179650Y-97945195D01*
X129168927Y-97971886D01*
X129158595Y-97999809D01*
X129148741Y-98028961D01*
X129139436Y-98059344D01*
X129130763Y-98090955D01*
X129122801Y-98123795D01*
X129115629Y-98157863D01*
X129109327Y-98193157D01*
X129103972Y-98229678D01*
X129099645Y-98267424D01*
X129096423Y-98306394D01*
X128889167Y-98306394D01*
X128890066Y-98289148D01*
X128894311Y-98240223D01*
X128900062Y-98192873D01*
X128907204Y-98147101D01*
X128915626Y-98102908D01*
X128925214Y-98060300D01*
X128935856Y-98019275D01*
X128947442Y-97979842D01*
X128959856Y-97942001D01*
X128972988Y-97905756D01*
X128986722Y-97871106D01*
X129000949Y-97838059D01*
X129015555Y-97806616D01*
X129030429Y-97776779D01*
X129045455Y-97748552D01*
X129060525Y-97721939D01*
X129075522Y-97696940D01*
X129104859Y-97651805D01*
X129132561Y-97613168D01*
X129157731Y-97581055D01*
X129179472Y-97555486D01*
X129196878Y-97536489D01*
X129215097Y-97518302D01*
X129220599Y-97513573D01*
X129226370Y-97509277D01*
X129232377Y-97505419D01*
X129236420Y-97503199D01*
X129238601Y-97502005D01*
X129245016Y-97499036D01*
X129251597Y-97496521D01*
X129258320Y-97494462D01*
X129265159Y-97492867D01*
X129272091Y-97491737D01*
X129279091Y-97491080D01*
X129286134Y-97490901D01*
X129293197Y-97491199D01*
G37*
D10*
G36*
X113870002Y-89648836D02*
G01*
X111940935Y-90762583D01*
X111737768Y-90923596D01*
X111585547Y-91159961D01*
X111576205Y-91188911D01*
X111288964Y-91191482D01*
X111269413Y-91196821D01*
X111023359Y-91292346D01*
X109013069Y-92452988D01*
X108819506Y-92117728D01*
X108404503Y-92357330D01*
X108736673Y-92932666D01*
X108838023Y-92996833D01*
X109038101Y-92944774D01*
X111110579Y-91748229D01*
X111394894Y-91654724D01*
X111414437Y-91653174D01*
X111652253Y-91748543D01*
X112035528Y-91527259D01*
X112025951Y-91349471D01*
X112147584Y-91179126D01*
X112290863Y-91066791D01*
X114282117Y-89917140D01*
X114430581Y-89758097D01*
X114422344Y-89650042D01*
X114090174Y-89074706D01*
X113676440Y-89313576D01*
X113870002Y-89648836D01*
G37*
X115740124Y-110000000D02*
X116740124Y-110000000D01*
X116740124Y-110000000D02*
X116740124Y-109619048D01*
X116740124Y-109619048D02*
X116692505Y-109523810D01*
X116692505Y-109523810D02*
X116644886Y-109476191D01*
X116644886Y-109476191D02*
X116549648Y-109428572D01*
X116549648Y-109428572D02*
X116406791Y-109428572D01*
X116406791Y-109428572D02*
X116311553Y-109476191D01*
X116311553Y-109476191D02*
X116263934Y-109523810D01*
X116263934Y-109523810D02*
X116216315Y-109619048D01*
X116216315Y-109619048D02*
X116216315Y-110000000D01*
X115740124Y-108857143D02*
X115787744Y-108952381D01*
X115787744Y-108952381D02*
X115882982Y-109000000D01*
X115882982Y-109000000D02*
X116740124Y-109000000D01*
X115787744Y-108095238D02*
X115740124Y-108190476D01*
X115740124Y-108190476D02*
X115740124Y-108380952D01*
X115740124Y-108380952D02*
X115787744Y-108476190D01*
X115787744Y-108476190D02*
X115882982Y-108523809D01*
X115882982Y-108523809D02*
X116263934Y-108523809D01*
X116263934Y-108523809D02*
X116359172Y-108476190D01*
X116359172Y-108476190D02*
X116406791Y-108380952D01*
X116406791Y-108380952D02*
X116406791Y-108190476D01*
X116406791Y-108190476D02*
X116359172Y-108095238D01*
X116359172Y-108095238D02*
X116263934Y-108047619D01*
X116263934Y-108047619D02*
X116168696Y-108047619D01*
X116168696Y-108047619D02*
X116073458Y-108523809D01*
X115740124Y-107190476D02*
X116263934Y-107190476D01*
X116263934Y-107190476D02*
X116359172Y-107238095D01*
X116359172Y-107238095D02*
X116406791Y-107333333D01*
X116406791Y-107333333D02*
X116406791Y-107523809D01*
X116406791Y-107523809D02*
X116359172Y-107619047D01*
X115787744Y-107190476D02*
X115740124Y-107285714D01*
X115740124Y-107285714D02*
X115740124Y-107523809D01*
X115740124Y-107523809D02*
X115787744Y-107619047D01*
X115787744Y-107619047D02*
X115882982Y-107666666D01*
X115882982Y-107666666D02*
X115978220Y-107666666D01*
X115978220Y-107666666D02*
X116073458Y-107619047D01*
X116073458Y-107619047D02*
X116121077Y-107523809D01*
X116121077Y-107523809D02*
X116121077Y-107285714D01*
X116121077Y-107285714D02*
X116168696Y-107190476D01*
X115787744Y-106761904D02*
X115740124Y-106666666D01*
X115740124Y-106666666D02*
X115740124Y-106476190D01*
X115740124Y-106476190D02*
X115787744Y-106380952D01*
X115787744Y-106380952D02*
X115882982Y-106333333D01*
X115882982Y-106333333D02*
X115930601Y-106333333D01*
X115930601Y-106333333D02*
X116025839Y-106380952D01*
X116025839Y-106380952D02*
X116073458Y-106476190D01*
X116073458Y-106476190D02*
X116073458Y-106619047D01*
X116073458Y-106619047D02*
X116121077Y-106714285D01*
X116121077Y-106714285D02*
X116216315Y-106761904D01*
X116216315Y-106761904D02*
X116263934Y-106761904D01*
X116263934Y-106761904D02*
X116359172Y-106714285D01*
X116359172Y-106714285D02*
X116406791Y-106619047D01*
X116406791Y-106619047D02*
X116406791Y-106476190D01*
X116406791Y-106476190D02*
X116359172Y-106380952D01*
X115787744Y-105523809D02*
X115740124Y-105619047D01*
X115740124Y-105619047D02*
X115740124Y-105809523D01*
X115740124Y-105809523D02*
X115787744Y-105904761D01*
X115787744Y-105904761D02*
X115882982Y-105952380D01*
X115882982Y-105952380D02*
X116263934Y-105952380D01*
X116263934Y-105952380D02*
X116359172Y-105904761D01*
X116359172Y-105904761D02*
X116406791Y-105809523D01*
X116406791Y-105809523D02*
X116406791Y-105619047D01*
X116406791Y-105619047D02*
X116359172Y-105523809D01*
X116359172Y-105523809D02*
X116263934Y-105476190D01*
X116263934Y-105476190D02*
X116168696Y-105476190D01*
X116168696Y-105476190D02*
X116073458Y-105952380D01*
X116406791Y-104428570D02*
X116406791Y-104047618D01*
X116740124Y-104285713D02*
X115882982Y-104285713D01*
X115882982Y-104285713D02*
X115787744Y-104238094D01*
X115787744Y-104238094D02*
X115740124Y-104142856D01*
X115740124Y-104142856D02*
X115740124Y-104047618D01*
X115740124Y-103285713D02*
X116263934Y-103285713D01*
X116263934Y-103285713D02*
X116359172Y-103333332D01*
X116359172Y-103333332D02*
X116406791Y-103428570D01*
X116406791Y-103428570D02*
X116406791Y-103619046D01*
X116406791Y-103619046D02*
X116359172Y-103714284D01*
X115787744Y-103285713D02*
X115740124Y-103380951D01*
X115740124Y-103380951D02*
X115740124Y-103619046D01*
X115740124Y-103619046D02*
X115787744Y-103714284D01*
X115787744Y-103714284D02*
X115882982Y-103761903D01*
X115882982Y-103761903D02*
X115978220Y-103761903D01*
X115978220Y-103761903D02*
X116073458Y-103714284D01*
X116073458Y-103714284D02*
X116121077Y-103619046D01*
X116121077Y-103619046D02*
X116121077Y-103380951D01*
X116121077Y-103380951D02*
X116168696Y-103285713D01*
X116406791Y-102380951D02*
X115597267Y-102380951D01*
X115597267Y-102380951D02*
X115502029Y-102428570D01*
X115502029Y-102428570D02*
X115454410Y-102476189D01*
X115454410Y-102476189D02*
X115406791Y-102571427D01*
X115406791Y-102571427D02*
X115406791Y-102714284D01*
X115406791Y-102714284D02*
X115454410Y-102809522D01*
X115787744Y-102380951D02*
X115740124Y-102476189D01*
X115740124Y-102476189D02*
X115740124Y-102666665D01*
X115740124Y-102666665D02*
X115787744Y-102761903D01*
X115787744Y-102761903D02*
X115835363Y-102809522D01*
X115835363Y-102809522D02*
X115930601Y-102857141D01*
X115930601Y-102857141D02*
X116216315Y-102857141D01*
X116216315Y-102857141D02*
X116311553Y-102809522D01*
X116311553Y-102809522D02*
X116359172Y-102761903D01*
X116359172Y-102761903D02*
X116406791Y-102666665D01*
X116406791Y-102666665D02*
X116406791Y-102476189D01*
X116406791Y-102476189D02*
X116359172Y-102380951D01*
X115740124Y-101142855D02*
X116406791Y-101142855D01*
X116311553Y-101142855D02*
X116359172Y-101095236D01*
X116359172Y-101095236D02*
X116406791Y-100999998D01*
X116406791Y-100999998D02*
X116406791Y-100857141D01*
X116406791Y-100857141D02*
X116359172Y-100761903D01*
X116359172Y-100761903D02*
X116263934Y-100714284D01*
X116263934Y-100714284D02*
X115740124Y-100714284D01*
X116263934Y-100714284D02*
X116359172Y-100666665D01*
X116359172Y-100666665D02*
X116406791Y-100571427D01*
X116406791Y-100571427D02*
X116406791Y-100428570D01*
X116406791Y-100428570D02*
X116359172Y-100333331D01*
X116359172Y-100333331D02*
X116263934Y-100285712D01*
X116263934Y-100285712D02*
X115740124Y-100285712D01*
X115787744Y-99428570D02*
X115740124Y-99523808D01*
X115740124Y-99523808D02*
X115740124Y-99714284D01*
X115740124Y-99714284D02*
X115787744Y-99809522D01*
X115787744Y-99809522D02*
X115882982Y-99857141D01*
X115882982Y-99857141D02*
X116263934Y-99857141D01*
X116263934Y-99857141D02*
X116359172Y-99809522D01*
X116359172Y-99809522D02*
X116406791Y-99714284D01*
X116406791Y-99714284D02*
X116406791Y-99523808D01*
X116406791Y-99523808D02*
X116359172Y-99428570D01*
X116359172Y-99428570D02*
X116263934Y-99380951D01*
X116263934Y-99380951D02*
X116168696Y-99380951D01*
X116168696Y-99380951D02*
X116073458Y-99857141D01*
X116406791Y-98285712D02*
X115740124Y-98095236D01*
X115740124Y-98095236D02*
X116216315Y-97904760D01*
X116216315Y-97904760D02*
X115740124Y-97714284D01*
X115740124Y-97714284D02*
X116406791Y-97523808D01*
X115740124Y-97142855D02*
X116406791Y-97142855D01*
X116740124Y-97142855D02*
X116692505Y-97190474D01*
X116692505Y-97190474D02*
X116644886Y-97142855D01*
X116644886Y-97142855D02*
X116692505Y-97095236D01*
X116692505Y-97095236D02*
X116740124Y-97142855D01*
X116740124Y-97142855D02*
X116644886Y-97142855D01*
X116406791Y-96809522D02*
X116406791Y-96428570D01*
X116740124Y-96666665D02*
X115882982Y-96666665D01*
X115882982Y-96666665D02*
X115787744Y-96619046D01*
X115787744Y-96619046D02*
X115740124Y-96523808D01*
X115740124Y-96523808D02*
X115740124Y-96428570D01*
X115740124Y-96095236D02*
X116740124Y-96095236D01*
X115740124Y-95666665D02*
X116263934Y-95666665D01*
X116263934Y-95666665D02*
X116359172Y-95714284D01*
X116359172Y-95714284D02*
X116406791Y-95809522D01*
X116406791Y-95809522D02*
X116406791Y-95952379D01*
X116406791Y-95952379D02*
X116359172Y-96047617D01*
X116359172Y-96047617D02*
X116311553Y-96095236D01*
X115740124Y-93999998D02*
X116263934Y-93999998D01*
X116263934Y-93999998D02*
X116359172Y-94047617D01*
X116359172Y-94047617D02*
X116406791Y-94142855D01*
X116406791Y-94142855D02*
X116406791Y-94333331D01*
X116406791Y-94333331D02*
X116359172Y-94428569D01*
X115787744Y-93999998D02*
X115740124Y-94095236D01*
X115740124Y-94095236D02*
X115740124Y-94333331D01*
X115740124Y-94333331D02*
X115787744Y-94428569D01*
X115787744Y-94428569D02*
X115882982Y-94476188D01*
X115882982Y-94476188D02*
X115978220Y-94476188D01*
X115978220Y-94476188D02*
X116073458Y-94428569D01*
X116073458Y-94428569D02*
X116121077Y-94333331D01*
X116121077Y-94333331D02*
X116121077Y-94095236D01*
X116121077Y-94095236D02*
X116168696Y-93999998D01*
X116406791Y-92761902D02*
X115406791Y-92761902D01*
X116359172Y-92761902D02*
X116406791Y-92666664D01*
X116406791Y-92666664D02*
X116406791Y-92476188D01*
X116406791Y-92476188D02*
X116359172Y-92380950D01*
X116359172Y-92380950D02*
X116311553Y-92333331D01*
X116311553Y-92333331D02*
X116216315Y-92285712D01*
X116216315Y-92285712D02*
X115930601Y-92285712D01*
X115930601Y-92285712D02*
X115835363Y-92333331D01*
X115835363Y-92333331D02*
X115787744Y-92380950D01*
X115787744Y-92380950D02*
X115740124Y-92476188D01*
X115740124Y-92476188D02*
X115740124Y-92666664D01*
X115740124Y-92666664D02*
X115787744Y-92761902D01*
X115740124Y-91857140D02*
X116406791Y-91857140D01*
X116740124Y-91857140D02*
X116692505Y-91904759D01*
X116692505Y-91904759D02*
X116644886Y-91857140D01*
X116644886Y-91857140D02*
X116692505Y-91809521D01*
X116692505Y-91809521D02*
X116740124Y-91857140D01*
X116740124Y-91857140D02*
X116644886Y-91857140D01*
X115787744Y-90952379D02*
X115740124Y-91047617D01*
X115740124Y-91047617D02*
X115740124Y-91238093D01*
X115740124Y-91238093D02*
X115787744Y-91333331D01*
X115787744Y-91333331D02*
X115835363Y-91380950D01*
X115835363Y-91380950D02*
X115930601Y-91428569D01*
X115930601Y-91428569D02*
X116216315Y-91428569D01*
X116216315Y-91428569D02*
X116311553Y-91380950D01*
X116311553Y-91380950D02*
X116359172Y-91333331D01*
X116359172Y-91333331D02*
X116406791Y-91238093D01*
X116406791Y-91238093D02*
X116406791Y-91047617D01*
X116406791Y-91047617D02*
X116359172Y-90952379D01*
X114130180Y-108047619D02*
X114653990Y-108047619D01*
X114653990Y-108047619D02*
X114749228Y-108095238D01*
X114749228Y-108095238D02*
X114796847Y-108190476D01*
X114796847Y-108190476D02*
X114796847Y-108380952D01*
X114796847Y-108380952D02*
X114749228Y-108476190D01*
X114177800Y-108047619D02*
X114130180Y-108142857D01*
X114130180Y-108142857D02*
X114130180Y-108380952D01*
X114130180Y-108380952D02*
X114177800Y-108476190D01*
X114177800Y-108476190D02*
X114273038Y-108523809D01*
X114273038Y-108523809D02*
X114368276Y-108523809D01*
X114368276Y-108523809D02*
X114463514Y-108476190D01*
X114463514Y-108476190D02*
X114511133Y-108380952D01*
X114511133Y-108380952D02*
X114511133Y-108142857D01*
X114511133Y-108142857D02*
X114558752Y-108047619D01*
X114796847Y-107571428D02*
X114130180Y-107571428D01*
X114701609Y-107571428D02*
X114749228Y-107523809D01*
X114749228Y-107523809D02*
X114796847Y-107428571D01*
X114796847Y-107428571D02*
X114796847Y-107285714D01*
X114796847Y-107285714D02*
X114749228Y-107190476D01*
X114749228Y-107190476D02*
X114653990Y-107142857D01*
X114653990Y-107142857D02*
X114130180Y-107142857D01*
X114130180Y-106238095D02*
X115130180Y-106238095D01*
X114177800Y-106238095D02*
X114130180Y-106333333D01*
X114130180Y-106333333D02*
X114130180Y-106523809D01*
X114130180Y-106523809D02*
X114177800Y-106619047D01*
X114177800Y-106619047D02*
X114225419Y-106666666D01*
X114225419Y-106666666D02*
X114320657Y-106714285D01*
X114320657Y-106714285D02*
X114606371Y-106714285D01*
X114606371Y-106714285D02*
X114701609Y-106666666D01*
X114701609Y-106666666D02*
X114749228Y-106619047D01*
X114749228Y-106619047D02*
X114796847Y-106523809D01*
X114796847Y-106523809D02*
X114796847Y-106333333D01*
X114796847Y-106333333D02*
X114749228Y-106238095D01*
X114177800Y-104619047D02*
X114130180Y-104714285D01*
X114130180Y-104714285D02*
X114130180Y-104904761D01*
X114130180Y-104904761D02*
X114177800Y-104999999D01*
X114177800Y-104999999D02*
X114273038Y-105047618D01*
X114273038Y-105047618D02*
X114653990Y-105047618D01*
X114653990Y-105047618D02*
X114749228Y-104999999D01*
X114749228Y-104999999D02*
X114796847Y-104904761D01*
X114796847Y-104904761D02*
X114796847Y-104714285D01*
X114796847Y-104714285D02*
X114749228Y-104619047D01*
X114749228Y-104619047D02*
X114653990Y-104571428D01*
X114653990Y-104571428D02*
X114558752Y-104571428D01*
X114558752Y-104571428D02*
X114463514Y-105047618D01*
X114796847Y-104142856D02*
X114130180Y-104142856D01*
X114701609Y-104142856D02*
X114749228Y-104095237D01*
X114749228Y-104095237D02*
X114796847Y-103999999D01*
X114796847Y-103999999D02*
X114796847Y-103857142D01*
X114796847Y-103857142D02*
X114749228Y-103761904D01*
X114749228Y-103761904D02*
X114653990Y-103714285D01*
X114653990Y-103714285D02*
X114130180Y-103714285D01*
X114796847Y-103238094D02*
X113939704Y-103238094D01*
X113939704Y-103238094D02*
X113844466Y-103285713D01*
X113844466Y-103285713D02*
X113796847Y-103380951D01*
X113796847Y-103380951D02*
X113796847Y-103428570D01*
X115130180Y-103238094D02*
X115082561Y-103285713D01*
X115082561Y-103285713D02*
X115034942Y-103238094D01*
X115034942Y-103238094D02*
X115082561Y-103190475D01*
X115082561Y-103190475D02*
X115130180Y-103238094D01*
X115130180Y-103238094D02*
X115034942Y-103238094D01*
X114130180Y-102619047D02*
X114177800Y-102714285D01*
X114177800Y-102714285D02*
X114225419Y-102761904D01*
X114225419Y-102761904D02*
X114320657Y-102809523D01*
X114320657Y-102809523D02*
X114606371Y-102809523D01*
X114606371Y-102809523D02*
X114701609Y-102761904D01*
X114701609Y-102761904D02*
X114749228Y-102714285D01*
X114749228Y-102714285D02*
X114796847Y-102619047D01*
X114796847Y-102619047D02*
X114796847Y-102476190D01*
X114796847Y-102476190D02*
X114749228Y-102380952D01*
X114749228Y-102380952D02*
X114701609Y-102333333D01*
X114701609Y-102333333D02*
X114606371Y-102285714D01*
X114606371Y-102285714D02*
X114320657Y-102285714D01*
X114320657Y-102285714D02*
X114225419Y-102333333D01*
X114225419Y-102333333D02*
X114177800Y-102380952D01*
X114177800Y-102380952D02*
X114130180Y-102476190D01*
X114130180Y-102476190D02*
X114130180Y-102619047D01*
X114796847Y-101952380D02*
X114130180Y-101714285D01*
X114796847Y-101476190D02*
X114130180Y-101714285D01*
X114130180Y-101714285D02*
X113892085Y-101809523D01*
X113892085Y-101809523D02*
X113844466Y-101857142D01*
X113844466Y-101857142D02*
X113796847Y-101952380D01*
X114653990Y-100333332D02*
X114653990Y-99999999D01*
X114130180Y-99857142D02*
X114130180Y-100333332D01*
X114130180Y-100333332D02*
X115130180Y-100333332D01*
X115130180Y-100333332D02*
X115130180Y-99857142D01*
X114130180Y-99428570D02*
X115130180Y-99428570D01*
X115130180Y-99428570D02*
X114415895Y-99095237D01*
X114415895Y-99095237D02*
X115130180Y-98761904D01*
X115130180Y-98761904D02*
X114130180Y-98761904D01*
X114653990Y-97952380D02*
X114653990Y-98285713D01*
X114130180Y-98285713D02*
X115130180Y-98285713D01*
X115130180Y-98285713D02*
X115130180Y-97809523D01*
X114225419Y-96095237D02*
X114177800Y-96142856D01*
X114177800Y-96142856D02*
X114130180Y-96285713D01*
X114130180Y-96285713D02*
X114130180Y-96380951D01*
X114130180Y-96380951D02*
X114177800Y-96523808D01*
X114177800Y-96523808D02*
X114273038Y-96619046D01*
X114273038Y-96619046D02*
X114368276Y-96666665D01*
X114368276Y-96666665D02*
X114558752Y-96714284D01*
X114558752Y-96714284D02*
X114701609Y-96714284D01*
X114701609Y-96714284D02*
X114892085Y-96666665D01*
X114892085Y-96666665D02*
X114987323Y-96619046D01*
X114987323Y-96619046D02*
X115082561Y-96523808D01*
X115082561Y-96523808D02*
X115130180Y-96380951D01*
X115130180Y-96380951D02*
X115130180Y-96285713D01*
X115130180Y-96285713D02*
X115082561Y-96142856D01*
X115082561Y-96142856D02*
X115034942Y-96095237D01*
X114130180Y-95238094D02*
X114653990Y-95238094D01*
X114653990Y-95238094D02*
X114749228Y-95285713D01*
X114749228Y-95285713D02*
X114796847Y-95380951D01*
X114796847Y-95380951D02*
X114796847Y-95571427D01*
X114796847Y-95571427D02*
X114749228Y-95666665D01*
X114177800Y-95238094D02*
X114130180Y-95333332D01*
X114130180Y-95333332D02*
X114130180Y-95571427D01*
X114130180Y-95571427D02*
X114177800Y-95666665D01*
X114177800Y-95666665D02*
X114273038Y-95714284D01*
X114273038Y-95714284D02*
X114368276Y-95714284D01*
X114368276Y-95714284D02*
X114463514Y-95666665D01*
X114463514Y-95666665D02*
X114511133Y-95571427D01*
X114511133Y-95571427D02*
X114511133Y-95333332D01*
X114511133Y-95333332D02*
X114558752Y-95238094D01*
X114130180Y-94761903D02*
X114796847Y-94761903D01*
X114701609Y-94761903D02*
X114749228Y-94714284D01*
X114749228Y-94714284D02*
X114796847Y-94619046D01*
X114796847Y-94619046D02*
X114796847Y-94476189D01*
X114796847Y-94476189D02*
X114749228Y-94380951D01*
X114749228Y-94380951D02*
X114653990Y-94333332D01*
X114653990Y-94333332D02*
X114130180Y-94333332D01*
X114653990Y-94333332D02*
X114749228Y-94285713D01*
X114749228Y-94285713D02*
X114796847Y-94190475D01*
X114796847Y-94190475D02*
X114796847Y-94047618D01*
X114796847Y-94047618D02*
X114749228Y-93952379D01*
X114749228Y-93952379D02*
X114653990Y-93904760D01*
X114653990Y-93904760D02*
X114130180Y-93904760D01*
X114796847Y-93428570D02*
X113796847Y-93428570D01*
X114749228Y-93428570D02*
X114796847Y-93333332D01*
X114796847Y-93333332D02*
X114796847Y-93142856D01*
X114796847Y-93142856D02*
X114749228Y-93047618D01*
X114749228Y-93047618D02*
X114701609Y-92999999D01*
X114701609Y-92999999D02*
X114606371Y-92952380D01*
X114606371Y-92952380D02*
X114320657Y-92952380D01*
X114320657Y-92952380D02*
X114225419Y-92999999D01*
X114225419Y-92999999D02*
X114177800Y-93047618D01*
X114177800Y-93047618D02*
X114130180Y-93142856D01*
X114130180Y-93142856D02*
X114130180Y-93333332D01*
X114130180Y-93333332D02*
X114177800Y-93428570D01*
X114225419Y-92523808D02*
X114177800Y-92476189D01*
X114177800Y-92476189D02*
X114130180Y-92523808D01*
X114130180Y-92523808D02*
X114177800Y-92571427D01*
X114177800Y-92571427D02*
X114225419Y-92523808D01*
X114225419Y-92523808D02*
X114130180Y-92523808D01*
X114511133Y-92523808D02*
X115082561Y-92571427D01*
X115082561Y-92571427D02*
X115130180Y-92523808D01*
X115130180Y-92523808D02*
X115082561Y-92476189D01*
X115082561Y-92476189D02*
X114511133Y-92523808D01*
X114511133Y-92523808D02*
X115130180Y-92523808D01*
D12*
X113901228Y-84453646D02*
X114313621Y-84215550D01*
X114313621Y-84215550D02*
X113813621Y-83349525D01*
X113350648Y-84166680D02*
X113061973Y-84333347D01*
X113200160Y-84858408D02*
X113612553Y-84620312D01*
X113612553Y-84620312D02*
X113112553Y-83754287D01*
X113112553Y-83754287D02*
X112700160Y-83992382D01*
X112829006Y-85072693D02*
X112329006Y-84206668D01*
X112329006Y-84206668D02*
X112122809Y-84325716D01*
X112122809Y-84325716D02*
X112022901Y-84438384D01*
X112022901Y-84438384D02*
X111988041Y-84568481D01*
X111988041Y-84568481D02*
X111994421Y-84674769D01*
X111994421Y-84674769D02*
X112048420Y-84863536D01*
X112048420Y-84863536D02*
X112119848Y-84987254D01*
X112119848Y-84987254D02*
X112256326Y-85128402D01*
X112256326Y-85128402D02*
X112345184Y-85187071D01*
X112345184Y-85187071D02*
X112475282Y-85221930D01*
X112475282Y-85221930D02*
X112622809Y-85191741D01*
X112622809Y-85191741D02*
X112829006Y-85072693D01*
X111303151Y-85953646D02*
X110803151Y-85087621D01*
X111041246Y-85500014D02*
X110546375Y-85785728D01*
X110808280Y-86239360D02*
X110308280Y-85373335D01*
X110042163Y-86626692D02*
X110148451Y-86620313D01*
X110148451Y-86620313D02*
X110313408Y-86525074D01*
X110313408Y-86525074D02*
X110372077Y-86436216D01*
X110372077Y-86436216D02*
X110365697Y-86329928D01*
X110365697Y-86329928D02*
X110175221Y-86000014D01*
X110175221Y-86000014D02*
X110086363Y-85941344D01*
X110086363Y-85941344D02*
X109980075Y-85947724D01*
X109980075Y-85947724D02*
X109815117Y-86042962D01*
X109815117Y-86042962D02*
X109756448Y-86131821D01*
X109756448Y-86131821D02*
X109762828Y-86238109D01*
X109762828Y-86238109D02*
X109810447Y-86320587D01*
X109810447Y-86320587D02*
X110270459Y-86164971D01*
X109736058Y-86858408D02*
X108949092Y-86542962D01*
X109402724Y-86281058D02*
X109282425Y-87120313D01*
X108619177Y-86733439D02*
X109119177Y-87599464D01*
X108642987Y-86774678D02*
X108536699Y-86781058D01*
X108536699Y-86781058D02*
X108371741Y-86876296D01*
X108371741Y-86876296D02*
X108313072Y-86965154D01*
X108313072Y-86965154D02*
X108295643Y-87030203D01*
X108295643Y-87030203D02*
X108302022Y-87136491D01*
X108302022Y-87136491D02*
X108444879Y-87383927D01*
X108444879Y-87383927D02*
X108533738Y-87442596D01*
X108533738Y-87442596D02*
X108598787Y-87460026D01*
X108598787Y-87460026D02*
X108705075Y-87453646D01*
X108705075Y-87453646D02*
X108870032Y-87358408D01*
X108870032Y-87358408D02*
X108928701Y-87269550D01*
X107797810Y-87977456D02*
X107535905Y-87523823D01*
X107535905Y-87523823D02*
X107529525Y-87417535D01*
X107529525Y-87417535D02*
X107588195Y-87328677D01*
X107588195Y-87328677D02*
X107753152Y-87233439D01*
X107753152Y-87233439D02*
X107859440Y-87227059D01*
X107774000Y-87936216D02*
X107880289Y-87929837D01*
X107880289Y-87929837D02*
X108086485Y-87810789D01*
X108086485Y-87810789D02*
X108145154Y-87721931D01*
X108145154Y-87721931D02*
X108138774Y-87615643D01*
X108138774Y-87615643D02*
X108091155Y-87533164D01*
X108091155Y-87533164D02*
X108002297Y-87474495D01*
X108002297Y-87474495D02*
X107896009Y-87480875D01*
X107896009Y-87480875D02*
X107689812Y-87599922D01*
X107689812Y-87599922D02*
X107583524Y-87606302D01*
X107052083Y-87638201D02*
X107385417Y-88215551D01*
X107099703Y-87720679D02*
X107034654Y-87703250D01*
X107034654Y-87703250D02*
X106928366Y-87709629D01*
X106928366Y-87709629D02*
X106804648Y-87781058D01*
X106804648Y-87781058D02*
X106745979Y-87869916D01*
X106745979Y-87869916D02*
X106752358Y-87976204D01*
X106752358Y-87976204D02*
X107014263Y-88429837D01*
X106619300Y-88602883D02*
X106560631Y-88691741D01*
X106560631Y-88691741D02*
X106395673Y-88786980D01*
X106395673Y-88786980D02*
X106289385Y-88793359D01*
X106289385Y-88793359D02*
X106200527Y-88734690D01*
X106200527Y-88734690D02*
X106176717Y-88693451D01*
X106176717Y-88693451D02*
X106170338Y-88587163D01*
X106170338Y-88587163D02*
X106229007Y-88498304D01*
X106229007Y-88498304D02*
X106352725Y-88426876D01*
X106352725Y-88426876D02*
X106411394Y-88338018D01*
X106411394Y-88338018D02*
X106405014Y-88231729D01*
X106405014Y-88231729D02*
X106381204Y-88190490D01*
X106381204Y-88190490D02*
X106292346Y-88131821D01*
X106292346Y-88131821D02*
X106186058Y-88138201D01*
X106186058Y-88138201D02*
X106062340Y-88209629D01*
X106062340Y-88209629D02*
X106003671Y-88298488D01*
X105900802Y-89072694D02*
X105567468Y-88495344D01*
X105400802Y-88206669D02*
X105465850Y-88224098D01*
X105465850Y-88224098D02*
X105448421Y-88289147D01*
X105448421Y-88289147D02*
X105383372Y-88271717D01*
X105383372Y-88271717D02*
X105400802Y-88206669D01*
X105400802Y-88206669D02*
X105448421Y-88289147D01*
X105364691Y-89382218D02*
X105423360Y-89293359D01*
X105423360Y-89293359D02*
X105440790Y-89228310D01*
X105440790Y-89228310D02*
X105434410Y-89122022D01*
X105434410Y-89122022D02*
X105291553Y-88874586D01*
X105291553Y-88874586D02*
X105202695Y-88815917D01*
X105202695Y-88815917D02*
X105137646Y-88798488D01*
X105137646Y-88798488D02*
X105031358Y-88804867D01*
X105031358Y-88804867D02*
X104907640Y-88876296D01*
X104907640Y-88876296D02*
X104848971Y-88965154D01*
X104848971Y-88965154D02*
X104831541Y-89030203D01*
X104831541Y-89030203D02*
X104837921Y-89136491D01*
X104837921Y-89136491D02*
X104980778Y-89383927D01*
X104980778Y-89383927D02*
X105069636Y-89442596D01*
X105069636Y-89442596D02*
X105134685Y-89460026D01*
X105134685Y-89460026D02*
X105240973Y-89453646D01*
X105240973Y-89453646D02*
X105364691Y-89382218D01*
X104371529Y-89185820D02*
X104704862Y-89763170D01*
X104419148Y-89268298D02*
X104354099Y-89250869D01*
X104354099Y-89250869D02*
X104247811Y-89257248D01*
X104247811Y-89257248D02*
X104124093Y-89328677D01*
X104124093Y-89328677D02*
X104065424Y-89417535D01*
X104065424Y-89417535D02*
X104071804Y-89523823D01*
X104071804Y-89523823D02*
X104333708Y-89977456D01*
X113139107Y-86752659D02*
X112639107Y-85886634D01*
X112829583Y-86216548D02*
X112723295Y-86222928D01*
X112723295Y-86222928D02*
X112558337Y-86318166D01*
X112558337Y-86318166D02*
X112499668Y-86407025D01*
X112499668Y-86407025D02*
X112482239Y-86472073D01*
X112482239Y-86472073D02*
X112488618Y-86578362D01*
X112488618Y-86578362D02*
X112631475Y-86825797D01*
X112631475Y-86825797D02*
X112720334Y-86884467D01*
X112720334Y-86884467D02*
X112785383Y-86901896D01*
X112785383Y-86901896D02*
X112891671Y-86895517D01*
X112891671Y-86895517D02*
X113056628Y-86800278D01*
X113056628Y-86800278D02*
X113115297Y-86711420D01*
X112104705Y-86580071D02*
X112231842Y-87276469D01*
X111692312Y-86818166D02*
X112231842Y-87276469D01*
X112231842Y-87276469D02*
X112433368Y-87435046D01*
X112433368Y-87435046D02*
X112498417Y-87452476D01*
X112498417Y-87452476D02*
X112604705Y-87446097D01*
X110288466Y-87243777D02*
X110645609Y-87862367D01*
X110645609Y-87862367D02*
X110758276Y-87962275D01*
X110758276Y-87962275D02*
X110888374Y-87997135D01*
X110888374Y-87997135D02*
X111035901Y-87966945D01*
X111035901Y-87966945D02*
X111118380Y-87919326D01*
X110252354Y-88419327D02*
X110311024Y-88330468D01*
X110311024Y-88330468D02*
X110328453Y-88265419D01*
X110328453Y-88265419D02*
X110322074Y-88159131D01*
X110322074Y-88159131D02*
X110179216Y-87911695D01*
X110179216Y-87911695D02*
X110090358Y-87853026D01*
X110090358Y-87853026D02*
X110025309Y-87835597D01*
X110025309Y-87835597D02*
X109919021Y-87841976D01*
X109919021Y-87841976D02*
X109795303Y-87913405D01*
X109795303Y-87913405D02*
X109736634Y-88002263D01*
X109736634Y-88002263D02*
X109719204Y-88067312D01*
X109719204Y-88067312D02*
X109725584Y-88173600D01*
X109725584Y-88173600D02*
X109868441Y-88421036D01*
X109868441Y-88421036D02*
X109957300Y-88479705D01*
X109957300Y-88479705D02*
X110022348Y-88497135D01*
X110022348Y-88497135D02*
X110128637Y-88490755D01*
X110128637Y-88490755D02*
X110252354Y-88419327D01*
X109592526Y-88800279D02*
X109092526Y-87934254D01*
X109221372Y-89014565D02*
X108959467Y-88560932D01*
X108959467Y-88560932D02*
X108953087Y-88454644D01*
X108953087Y-88454644D02*
X109011756Y-88365786D01*
X109011756Y-88365786D02*
X109135474Y-88294357D01*
X109135474Y-88294357D02*
X109241762Y-88287978D01*
X109241762Y-88287978D02*
X109306811Y-88305407D01*
X108475645Y-88675310D02*
X108808979Y-89252660D01*
X108523264Y-88757788D02*
X108458216Y-88740359D01*
X108458216Y-88740359D02*
X108351927Y-88746738D01*
X108351927Y-88746738D02*
X108228209Y-88818167D01*
X108228209Y-88818167D02*
X108169540Y-88907025D01*
X108169540Y-88907025D02*
X108175920Y-89013313D01*
X108175920Y-89013313D02*
X108437825Y-89466946D01*
X106989321Y-89148539D02*
X106494449Y-89434254D01*
X107241885Y-90157422D02*
X106741885Y-89291397D01*
X113190492Y-88032138D02*
X113207921Y-87967089D01*
X113207921Y-87967089D02*
X113266590Y-87878231D01*
X113266590Y-87878231D02*
X113349069Y-87830611D01*
X113349069Y-87830611D02*
X113455357Y-87824232D01*
X113455357Y-87824232D02*
X113520406Y-87841662D01*
X113520406Y-87841662D02*
X113609264Y-87900331D01*
X113609264Y-87900331D02*
X113656883Y-87982809D01*
X113656883Y-87982809D02*
X113663263Y-88089097D01*
X113663263Y-88089097D02*
X113645833Y-88154146D01*
X113645833Y-88154146D02*
X113587164Y-88243005D01*
X113587164Y-88243005D02*
X113504686Y-88290624D01*
X113504686Y-88290624D02*
X113398398Y-88297003D01*
X113398398Y-88297003D02*
X113333349Y-88279574D01*
X113142872Y-87949659D02*
X113333349Y-88279574D01*
X113333349Y-88279574D02*
X113315919Y-88344622D01*
X113315919Y-88344622D02*
X113274680Y-88368432D01*
X113274680Y-88368432D02*
X113168391Y-88374812D01*
X113168391Y-88374812D02*
X113079533Y-88316143D01*
X113079533Y-88316143D02*
X112960485Y-88109946D01*
X112960485Y-88109946D02*
X112971536Y-87938609D01*
X112971536Y-87938609D02*
X113047634Y-87784702D01*
X113047634Y-87784702D02*
X113188782Y-87648224D01*
X113188782Y-87648224D02*
X113377549Y-87594226D01*
X113377549Y-87594226D02*
X113548886Y-87605276D01*
X113548886Y-87605276D02*
X113702793Y-87681375D01*
X113702793Y-87681375D02*
X113839270Y-87822522D01*
X113839270Y-87822522D02*
X113893269Y-88011289D01*
X113893269Y-88011289D02*
X113882219Y-88182626D01*
X113882219Y-88182626D02*
X113806120Y-88336533D01*
X113806120Y-88336533D02*
X113664973Y-88473011D01*
X113664973Y-88473011D02*
X113476206Y-88527009D01*
X113476206Y-88527009D02*
X113304869Y-88515959D01*
X112146750Y-88414799D02*
X112551512Y-89115868D01*
X112551512Y-89115868D02*
X112640370Y-89174537D01*
X112640370Y-89174537D02*
X112705419Y-89191966D01*
X112705419Y-89191966D02*
X112811707Y-89185587D01*
X112811707Y-89185587D02*
X112935425Y-89114158D01*
X112935425Y-89114158D02*
X112994094Y-89025300D01*
X112456273Y-88950910D02*
X112562562Y-88944531D01*
X112562562Y-88944531D02*
X112727519Y-88849293D01*
X112727519Y-88849293D02*
X112786188Y-88760434D01*
X112786188Y-88760434D02*
X112803618Y-88695385D01*
X112803618Y-88695385D02*
X112797238Y-88589097D01*
X112797238Y-88589097D02*
X112654381Y-88341661D01*
X112654381Y-88341661D02*
X112565522Y-88282992D01*
X112565522Y-88282992D02*
X112500474Y-88265563D01*
X112500474Y-88265563D02*
X112394185Y-88271942D01*
X112394185Y-88271942D02*
X112229228Y-88367180D01*
X112229228Y-88367180D02*
X112170559Y-88456039D01*
X112067690Y-89230245D02*
X111734357Y-88652895D01*
X111829595Y-88817852D02*
X111740736Y-88759183D01*
X111740736Y-88759183D02*
X111675687Y-88741753D01*
X111675687Y-88741753D02*
X111569399Y-88748133D01*
X111569399Y-88748133D02*
X111486921Y-88795752D01*
X111160425Y-89754055D02*
X110898520Y-89300422D01*
X110898520Y-89300422D02*
X110892140Y-89194134D01*
X110892140Y-89194134D02*
X110950809Y-89105276D01*
X110950809Y-89105276D02*
X111115767Y-89010038D01*
X111115767Y-89010038D02*
X111222055Y-89003658D01*
X111136615Y-89712815D02*
X111242903Y-89706436D01*
X111242903Y-89706436D02*
X111449100Y-89587388D01*
X111449100Y-89587388D02*
X111507769Y-89498530D01*
X111507769Y-89498530D02*
X111501389Y-89392242D01*
X111501389Y-89392242D02*
X111453770Y-89309763D01*
X111453770Y-89309763D02*
X111364912Y-89251094D01*
X111364912Y-89251094D02*
X111258624Y-89257474D01*
X111258624Y-89257474D02*
X111052427Y-89376521D01*
X111052427Y-89376521D02*
X110946139Y-89382901D01*
X110414698Y-89414800D02*
X110843270Y-90157107D01*
X110843270Y-90157107D02*
X110932128Y-90215776D01*
X110932128Y-90215776D02*
X111038416Y-90209397D01*
X111038416Y-90209397D02*
X111079656Y-90185587D01*
X110248032Y-89126125D02*
X110313081Y-89143554D01*
X110313081Y-89143554D02*
X110295651Y-89208603D01*
X110295651Y-89208603D02*
X110230602Y-89191173D01*
X110230602Y-89191173D02*
X110248032Y-89126125D01*
X110248032Y-89126125D02*
X110295651Y-89208603D01*
X110211921Y-90301674D02*
X110270590Y-90212815D01*
X110270590Y-90212815D02*
X110288020Y-90147766D01*
X110288020Y-90147766D02*
X110281640Y-90041478D01*
X110281640Y-90041478D02*
X110138783Y-89794042D01*
X110138783Y-89794042D02*
X110049925Y-89735373D01*
X110049925Y-89735373D02*
X109984876Y-89717944D01*
X109984876Y-89717944D02*
X109878588Y-89724323D01*
X109878588Y-89724323D02*
X109754870Y-89795752D01*
X109754870Y-89795752D02*
X109696201Y-89884610D01*
X109696201Y-89884610D02*
X109678771Y-89949659D01*
X109678771Y-89949659D02*
X109685151Y-90055947D01*
X109685151Y-90055947D02*
X109828008Y-90303383D01*
X109828008Y-90303383D02*
X109916866Y-90362052D01*
X109916866Y-90362052D02*
X109981915Y-90379482D01*
X109981915Y-90379482D02*
X110088203Y-90373102D01*
X110088203Y-90373102D02*
X110211921Y-90301674D01*
X109552092Y-90682626D02*
X109052092Y-89816601D01*
X109180938Y-90896912D02*
X108919034Y-90443279D01*
X108919034Y-90443279D02*
X108912654Y-90336991D01*
X108912654Y-90336991D02*
X108971323Y-90248133D01*
X108971323Y-90248133D02*
X109095041Y-90176704D01*
X109095041Y-90176704D02*
X109201329Y-90170325D01*
X109201329Y-90170325D02*
X109266378Y-90187754D01*
X108435212Y-90557657D02*
X108768545Y-91135007D01*
X108482831Y-90640135D02*
X108417782Y-90622706D01*
X108417782Y-90622706D02*
X108311494Y-90629085D01*
X108311494Y-90629085D02*
X108187776Y-90700514D01*
X108187776Y-90700514D02*
X108129107Y-90789372D01*
X108129107Y-90789372D02*
X108135487Y-90895660D01*
X108135487Y-90895660D02*
X108397392Y-91349293D01*
X107775383Y-90938609D02*
X107445469Y-91129085D01*
X107484998Y-90721363D02*
X107913570Y-91463670D01*
X107913570Y-91463670D02*
X107919950Y-91569958D01*
X107919950Y-91569958D02*
X107861281Y-91658817D01*
X107861281Y-91658817D02*
X107778802Y-91706436D01*
D10*
X108773431Y-113718870D02*
X109273431Y-112852844D01*
X109035335Y-113265238D02*
X108540464Y-112979523D01*
X108278559Y-113433156D02*
X108778559Y-112567130D01*
X107560061Y-112963345D02*
X107618730Y-113052203D01*
X107618730Y-113052203D02*
X107783687Y-113147441D01*
X107783687Y-113147441D02*
X107889975Y-113153821D01*
X107889975Y-113153821D02*
X107978834Y-113095152D01*
X107978834Y-113095152D02*
X108169310Y-112765238D01*
X108169310Y-112765238D02*
X108175690Y-112658949D01*
X108175690Y-112658949D02*
X108117021Y-112570091D01*
X108117021Y-112570091D02*
X107952063Y-112474853D01*
X107952063Y-112474853D02*
X107845775Y-112468473D01*
X107845775Y-112468473D02*
X107756917Y-112527142D01*
X107756917Y-112527142D02*
X107709298Y-112609621D01*
X107709298Y-112609621D02*
X108074072Y-112930195D01*
X107206337Y-112814108D02*
X107086038Y-111974853D01*
X107539670Y-112236758D02*
X106752705Y-112552203D01*
X106756123Y-111784377D02*
X106256123Y-112650402D01*
X106732314Y-111825616D02*
X106673645Y-111736758D01*
X106673645Y-111736758D02*
X106508687Y-111641519D01*
X106508687Y-111641519D02*
X106402399Y-111635140D01*
X106402399Y-111635140D02*
X106337351Y-111652569D01*
X106337351Y-111652569D02*
X106248492Y-111711239D01*
X106248492Y-111711239D02*
X106105635Y-111958674D01*
X106105635Y-111958674D02*
X106099255Y-112064963D01*
X106099255Y-112064963D02*
X106116685Y-112130011D01*
X106116685Y-112130011D02*
X106175354Y-112218870D01*
X106175354Y-112218870D02*
X106340311Y-112314108D01*
X106340311Y-112314108D02*
X106446599Y-112320488D01*
X104979414Y-111528393D02*
X105479414Y-110662368D01*
X105479414Y-110662368D02*
X105273217Y-110543320D01*
X105273217Y-110543320D02*
X105125690Y-110513131D01*
X105125690Y-110513131D02*
X104995592Y-110547991D01*
X104995592Y-110547991D02*
X104906734Y-110606660D01*
X104906734Y-110606660D02*
X104770257Y-110747807D01*
X104770257Y-110747807D02*
X104698828Y-110871525D01*
X104698828Y-110871525D02*
X104644829Y-111060292D01*
X104644829Y-111060292D02*
X104638450Y-111166580D01*
X104638450Y-111166580D02*
X104673309Y-111296678D01*
X104673309Y-111296678D02*
X104773217Y-111409346D01*
X104773217Y-111409346D02*
X104979414Y-111528393D01*
X103807284Y-110796678D02*
X103865953Y-110885536D01*
X103865953Y-110885536D02*
X104030910Y-110980774D01*
X104030910Y-110980774D02*
X104137198Y-110987154D01*
X104137198Y-110987154D02*
X104226056Y-110928485D01*
X104226056Y-110928485D02*
X104416533Y-110598571D01*
X104416533Y-110598571D02*
X104422912Y-110492282D01*
X104422912Y-110492282D02*
X104364243Y-110403424D01*
X104364243Y-110403424D02*
X104199286Y-110308186D01*
X104199286Y-110308186D02*
X104092998Y-110301806D01*
X104092998Y-110301806D02*
X104004140Y-110360475D01*
X104004140Y-110360475D02*
X103956521Y-110442954D01*
X103956521Y-110442954D02*
X104321295Y-110763528D01*
X103828132Y-110093900D02*
X103498218Y-109903424D01*
X103871081Y-109733796D02*
X103442510Y-110476104D01*
X103442510Y-110476104D02*
X103353651Y-110534773D01*
X103353651Y-110534773D02*
X103247363Y-110528393D01*
X103247363Y-110528393D02*
X103164884Y-110480774D01*
X102570104Y-110082392D02*
X102628773Y-110171250D01*
X102628773Y-110171250D02*
X102793730Y-110266488D01*
X102793730Y-110266488D02*
X102900018Y-110272868D01*
X102900018Y-110272868D02*
X102988877Y-110214199D01*
X102988877Y-110214199D02*
X103179353Y-109884285D01*
X103179353Y-109884285D02*
X103185733Y-109777996D01*
X103185733Y-109777996D02*
X103127064Y-109689138D01*
X103127064Y-109689138D02*
X102962106Y-109593900D01*
X102962106Y-109593900D02*
X102855818Y-109587520D01*
X102855818Y-109587520D02*
X102766960Y-109646189D01*
X102766960Y-109646189D02*
X102719341Y-109728668D01*
X102719341Y-109728668D02*
X103084115Y-110049242D01*
X101786557Y-109630011D02*
X101845226Y-109718869D01*
X101845226Y-109718869D02*
X102010183Y-109814107D01*
X102010183Y-109814107D02*
X102116472Y-109820487D01*
X102116472Y-109820487D02*
X102181520Y-109803057D01*
X102181520Y-109803057D02*
X102270379Y-109744388D01*
X102270379Y-109744388D02*
X102413236Y-109496952D01*
X102413236Y-109496952D02*
X102419616Y-109390664D01*
X102419616Y-109390664D02*
X102402186Y-109325615D01*
X102402186Y-109325615D02*
X102343517Y-109236757D01*
X102343517Y-109236757D02*
X102178560Y-109141519D01*
X102178560Y-109141519D02*
X102072271Y-109135139D01*
X101848645Y-108951043D02*
X101518731Y-108760566D01*
X101891594Y-108590939D02*
X101463022Y-109333246D01*
X101463022Y-109333246D02*
X101374164Y-109391916D01*
X101374164Y-109391916D02*
X101267876Y-109385536D01*
X101267876Y-109385536D02*
X101185397Y-109337917D01*
X121861038Y-95980775D02*
X122273431Y-96218870D01*
X122273431Y-96218870D02*
X122773431Y-95352844D01*
X121834267Y-95360476D02*
X121545592Y-95193809D01*
X121159969Y-95576013D02*
X121572362Y-95814108D01*
X121572362Y-95814108D02*
X122072362Y-94948082D01*
X122072362Y-94948082D02*
X121659969Y-94709987D01*
X120788815Y-95361727D02*
X121288815Y-94495701D01*
X121288815Y-94495701D02*
X121082619Y-94376654D01*
X121082619Y-94376654D02*
X120935091Y-94346465D01*
X120935091Y-94346465D02*
X120804994Y-94381324D01*
X120804994Y-94381324D02*
X120716135Y-94439993D01*
X120716135Y-94439993D02*
X120579658Y-94581141D01*
X120579658Y-94581141D02*
X120508229Y-94704859D01*
X120508229Y-94704859D02*
X120454231Y-94893626D01*
X120454231Y-94893626D02*
X120447851Y-94999914D01*
X120447851Y-94999914D02*
X120482710Y-95130011D01*
X120482710Y-95130011D02*
X120582619Y-95242679D01*
X120582619Y-95242679D02*
X120788815Y-95361727D01*
X120113266Y-94531812D02*
X119453437Y-94150860D01*
X119592876Y-94671251D02*
X119973828Y-94011422D01*
X121269142Y-104706255D02*
X120856749Y-104944350D01*
X120856749Y-104944350D02*
X121356749Y-105810375D01*
X121819722Y-104993220D02*
X122108398Y-104826554D01*
X121970211Y-104301493D02*
X121557818Y-104539588D01*
X121557818Y-104539588D02*
X122057818Y-105405613D01*
X122057818Y-105405613D02*
X122470211Y-105167518D01*
X122341365Y-104087207D02*
X122841365Y-104953232D01*
X122841365Y-104953232D02*
X123047561Y-104834185D01*
X123047561Y-104834185D02*
X123147469Y-104721517D01*
X123147469Y-104721517D02*
X123182329Y-104591419D01*
X123182329Y-104591419D02*
X123175949Y-104485131D01*
X123175949Y-104485131D02*
X123121951Y-104296364D01*
X123121951Y-104296364D02*
X123050522Y-104172646D01*
X123050522Y-104172646D02*
X122914045Y-104031499D01*
X122914045Y-104031499D02*
X122825186Y-103972830D01*
X122825186Y-103972830D02*
X122695089Y-103937970D01*
X122695089Y-103937970D02*
X122547561Y-103968159D01*
X122547561Y-103968159D02*
X122341365Y-104087207D01*
X123397866Y-103917121D02*
X124057695Y-103536169D01*
D13*
X103290809Y-96435901D02*
X103338428Y-96578758D01*
X103338428Y-96578758D02*
X103386047Y-96626377D01*
X103386047Y-96626377D02*
X103481285Y-96673996D01*
X103481285Y-96673996D02*
X103624142Y-96673996D01*
X103624142Y-96673996D02*
X103719380Y-96626377D01*
X103719380Y-96626377D02*
X103767000Y-96578758D01*
X103767000Y-96578758D02*
X103814619Y-96483520D01*
X103814619Y-96483520D02*
X103814619Y-96102568D01*
X103814619Y-96102568D02*
X102814619Y-96102568D01*
X102814619Y-96102568D02*
X102814619Y-96435901D01*
X102814619Y-96435901D02*
X102862238Y-96531139D01*
X102862238Y-96531139D02*
X102909857Y-96578758D01*
X102909857Y-96578758D02*
X103005095Y-96626377D01*
X103005095Y-96626377D02*
X103100333Y-96626377D01*
X103100333Y-96626377D02*
X103195571Y-96578758D01*
X103195571Y-96578758D02*
X103243190Y-96531139D01*
X103243190Y-96531139D02*
X103290809Y-96435901D01*
X103290809Y-96435901D02*
X103290809Y-96102568D01*
X102814619Y-97293044D02*
X102814619Y-97483520D01*
X102814619Y-97483520D02*
X102862238Y-97578758D01*
X102862238Y-97578758D02*
X102957476Y-97673996D01*
X102957476Y-97673996D02*
X103147952Y-97721615D01*
X103147952Y-97721615D02*
X103481285Y-97721615D01*
X103481285Y-97721615D02*
X103671761Y-97673996D01*
X103671761Y-97673996D02*
X103767000Y-97578758D01*
X103767000Y-97578758D02*
X103814619Y-97483520D01*
X103814619Y-97483520D02*
X103814619Y-97293044D01*
X103814619Y-97293044D02*
X103767000Y-97197806D01*
X103767000Y-97197806D02*
X103671761Y-97102568D01*
X103671761Y-97102568D02*
X103481285Y-97054949D01*
X103481285Y-97054949D02*
X103147952Y-97054949D01*
X103147952Y-97054949D02*
X102957476Y-97102568D01*
X102957476Y-97102568D02*
X102862238Y-97197806D01*
X102862238Y-97197806D02*
X102814619Y-97293044D01*
X102814619Y-98007330D02*
X102814619Y-98578758D01*
X103814619Y-98293044D02*
X102814619Y-98293044D01*
X102814619Y-98769235D02*
X102814619Y-99340663D01*
X103814619Y-99054949D02*
X102814619Y-99054949D01*
X102814619Y-99864473D02*
X102814619Y-100054949D01*
X102814619Y-100054949D02*
X102862238Y-100150187D01*
X102862238Y-100150187D02*
X102957476Y-100245425D01*
X102957476Y-100245425D02*
X103147952Y-100293044D01*
X103147952Y-100293044D02*
X103481285Y-100293044D01*
X103481285Y-100293044D02*
X103671761Y-100245425D01*
X103671761Y-100245425D02*
X103767000Y-100150187D01*
X103767000Y-100150187D02*
X103814619Y-100054949D01*
X103814619Y-100054949D02*
X103814619Y-99864473D01*
X103814619Y-99864473D02*
X103767000Y-99769235D01*
X103767000Y-99769235D02*
X103671761Y-99673997D01*
X103671761Y-99673997D02*
X103481285Y-99626378D01*
X103481285Y-99626378D02*
X103147952Y-99626378D01*
X103147952Y-99626378D02*
X102957476Y-99673997D01*
X102957476Y-99673997D02*
X102862238Y-99769235D01*
X102862238Y-99769235D02*
X102814619Y-99864473D01*
X103814619Y-100721616D02*
X102814619Y-100721616D01*
X102814619Y-100721616D02*
X103528904Y-101054949D01*
X103528904Y-101054949D02*
X102814619Y-101388282D01*
X102814619Y-101388282D02*
X103814619Y-101388282D01*
X103719380Y-101864473D02*
X103767000Y-101912092D01*
X103767000Y-101912092D02*
X103814619Y-101864473D01*
X103814619Y-101864473D02*
X103767000Y-101816854D01*
X103767000Y-101816854D02*
X103719380Y-101864473D01*
X103719380Y-101864473D02*
X103814619Y-101864473D01*
X103433666Y-101864473D02*
X102862238Y-101816854D01*
X102862238Y-101816854D02*
X102814619Y-101864473D01*
X102814619Y-101864473D02*
X102862238Y-101912092D01*
X102862238Y-101912092D02*
X103433666Y-101864473D01*
X103433666Y-101864473D02*
X102814619Y-101864473D01*
D12*
X103341695Y-103791101D02*
X103341695Y-103333958D01*
X103341695Y-103562530D02*
X102541695Y-103562530D01*
X102541695Y-103562530D02*
X102655980Y-103486339D01*
X102655980Y-103486339D02*
X102732171Y-103410149D01*
X102732171Y-103410149D02*
X102770266Y-103333958D01*
D14*
X106000000Y-110050000D02*
X106000000Y-108650000D01*
X106700000Y-107950000D02*
X107300000Y-107950000D01*
X107300000Y-110750000D02*
X106700000Y-110750000D01*
X108000000Y-108650000D02*
X108000000Y-110050000D01*
X106000000Y-108650000D02*
G75*
G02*
X106700000Y-107950000I699999J1D01*
G01*
X106700000Y-110750000D02*
G75*
G02*
X106000000Y-110050000I0J700000D01*
G01*
X107300000Y-107950000D02*
G75*
G02*
X108000000Y-108650000I1J-699999D01*
G01*
X108000000Y-110050000D02*
G75*
G02*
X107300000Y-110750000I-700000J0D01*
G01*
%LPC*%
D15*
X100500000Y-103400000D03*
D16*
X100900000Y-102600000D03*
X100900000Y-101800000D03*
X100900000Y-101000000D03*
X100900000Y-100200000D03*
X100900000Y-99400000D03*
X100900000Y-98600000D03*
X100900000Y-97800000D03*
D15*
X100500000Y-97000000D03*
X100500000Y-96200000D03*
D17*
X124000000Y-90500000D03*
D18*
X111500000Y-94920001D03*
D19*
X111499998Y-105080000D03*
D20*
X124500000Y-109000000D03*
D21*
X117620000Y-100000000D03*
X120160000Y-102540000D03*
X120160000Y-97460000D03*
D22*
X110850000Y-112500000D03*
X111333274Y-111333274D03*
X111333274Y-113666726D03*
X112500000Y-110850000D03*
D23*
X112500000Y-112500000D03*
D22*
X112500000Y-114150000D03*
X113666726Y-111333274D03*
X113666726Y-113666726D03*
X114150000Y-112500000D03*
D24*
X107000000Y-108700000D03*
D25*
X107000000Y-110000000D03*
%LPD*%
M02*
