%TF.GenerationSoftware,KiCad,Pcbnew,8.0.1*%
%TF.CreationDate,2024-04-29T19:49:41-05:00*%
%TF.ProjectId,LED_Hexpansion_v2,4c45445f-4865-4787-9061-6e73696f6e5f,rev?*%
%TF.SameCoordinates,Original*%
%TF.FileFunction,Drillmap*%
%TF.FilePolarity,Positive*%
%FSLAX45Y45*%
G04 Gerber Fmt 4.5, Leading zero omitted, Abs format (unit mm)*
G04 Created by KiCad (PCBNEW 8.0.1) date 2024-04-29 19:49:41*
%MOMM*%
%LPD*%
G01*
G04 APERTURE LIST*
%ADD10C,0.050000*%
%ADD11C,0.100000*%
%ADD12C,0.200000*%
%ADD13C,0.220000*%
%ADD14C,0.320000*%
G04 APERTURE END LIST*
D10*
X10050000Y-9047373D02*
X11549999Y-8181347D01*
X13149999Y-9047373D02*
G75*
G02*
X13199995Y-9133975I-49999J-86597D01*
G01*
D11*
X10025000Y-9400000D02*
G75*
G02*
X10000000Y-9375000I0J25000D01*
G01*
D10*
X11549999Y-8181347D02*
G75*
G02*
X11649999Y-8181347I50000J-86602D01*
G01*
X10050000Y-10952627D02*
X11549999Y-11818652D01*
X13199999Y-9133975D02*
X13199999Y-10866024D01*
X10000000Y-9375000D02*
X10000000Y-9133975D01*
X10000000Y-9133975D02*
G75*
G02*
X10050002Y-9047376I100000J-5D01*
G01*
X10000000Y-10625000D02*
X10000000Y-10866024D01*
X11649999Y-8181347D02*
X13149999Y-9047373D01*
D11*
X10000000Y-10625000D02*
G75*
G02*
X10025000Y-10600000I25000J0D01*
G01*
D10*
X10050000Y-10952627D02*
G75*
G02*
X9999996Y-10866024I50000J86607D01*
G01*
X13199999Y-10866024D02*
G75*
G02*
X13149997Y-10952623I-99999J4D01*
G01*
X11649999Y-11818652D02*
G75*
G02*
X11549999Y-11818652I-50000J86602D01*
G01*
X11649999Y-11818652D02*
X13149999Y-10952627D01*
X9825000Y-10440000D02*
X9825000Y-9560000D01*
X10450000Y-9400000D02*
X10025000Y-9400000D01*
X10450000Y-9540000D02*
X9845000Y-9540000D01*
X10450000Y-10460000D02*
X9845000Y-10460000D01*
X10450000Y-10600000D02*
X10025000Y-10600000D01*
X9825000Y-9560000D02*
G75*
G02*
X9845000Y-9540000I20000J0D01*
G01*
X9845000Y-10460000D02*
G75*
G02*
X9825000Y-10440000I0J20000D01*
G01*
X10450000Y-9400000D02*
G75*
G02*
X10520000Y-9470000I0J-70000D01*
G01*
X10450000Y-10460000D02*
G75*
G02*
X10520000Y-10530000I0J-70000D01*
G01*
X10520000Y-9470000D02*
G75*
G02*
X10450000Y-9540000I-70000J0D01*
G01*
X10520000Y-10530000D02*
G75*
G02*
X10450000Y-10600000I-70000J0D01*
G01*
D12*
D11*
X12130000Y-8630000D02*
X12170000Y-8670000D01*
X12170000Y-8630000D02*
X12130000Y-8670000D01*
X12130000Y-11330000D02*
X12170000Y-11370000D01*
X12170000Y-11330000D02*
X12130000Y-11370000D01*
X12180000Y-8930000D02*
X12220000Y-8970000D01*
X12220000Y-8930000D02*
X12180000Y-8970000D01*
X12230000Y-10980000D02*
X12270000Y-11020000D01*
X12270000Y-10980000D02*
X12230000Y-11020000D01*
X12530000Y-8830000D02*
X12570000Y-8870000D01*
X12570000Y-8830000D02*
X12530000Y-8870000D01*
X12530000Y-11080000D02*
X12570000Y-11120000D01*
X12570000Y-11080000D02*
X12530000Y-11120000D01*
X12580000Y-9130000D02*
X12620000Y-9170000D01*
X12620000Y-9130000D02*
X12580000Y-9170000D01*
X12630000Y-10780000D02*
X12670000Y-10820000D01*
X12670000Y-10780000D02*
X12630000Y-10820000D01*
X12830000Y-9030000D02*
X12870000Y-9070000D01*
X12870000Y-9030000D02*
X12830000Y-9070000D01*
X12980000Y-10830000D02*
X13020000Y-10870000D01*
X13020000Y-10830000D02*
X12980000Y-10870000D01*
X102500Y-247500D02*
G75*
G02*
X62500Y-247500I-20000J0D01*
G01*
X62500Y-247500D02*
G75*
G02*
X102500Y-247500I20000J0D01*
G01*
X150827Y-130827D02*
G75*
G02*
X110827Y-130827I-20000J0D01*
G01*
X110827Y-130827D02*
G75*
G02*
X150827Y-130827I20000J0D01*
G01*
X150827Y-364173D02*
G75*
G02*
X110827Y-364173I-20000J0D01*
G01*
X110827Y-364173D02*
G75*
G02*
X150827Y-364173I20000J0D01*
G01*
X267500Y-82500D02*
G75*
G02*
X227500Y-82500I-20000J0D01*
G01*
X227500Y-82500D02*
G75*
G02*
X267500Y-82500I20000J0D01*
G01*
X267500Y-412500D02*
G75*
G02*
X227500Y-412500I-20000J0D01*
G01*
X227500Y-412500D02*
G75*
G02*
X267500Y-412500I20000J0D01*
G01*
X384173Y-130827D02*
G75*
G02*
X344173Y-130827I-20000J0D01*
G01*
X344173Y-130827D02*
G75*
G02*
X384173Y-130827I20000J0D01*
G01*
X384173Y-364173D02*
G75*
G02*
X344173Y-364173I-20000J0D01*
G01*
X344173Y-364173D02*
G75*
G02*
X384173Y-364173I20000J0D01*
G01*
X432500Y-247500D02*
G75*
G02*
X392500Y-247500I-20000J0D01*
G01*
X392500Y-247500D02*
G75*
G02*
X432500Y-247500I20000J0D01*
G01*
X11105000Y-11250000D02*
G75*
G02*
X11065000Y-11250000I-20000J0D01*
G01*
X11065000Y-11250000D02*
G75*
G02*
X11105000Y-11250000I20000J0D01*
G01*
X11153327Y-11133327D02*
G75*
G02*
X11113327Y-11133327I-20000J0D01*
G01*
X11113327Y-11133327D02*
G75*
G02*
X11153327Y-11133327I20000J0D01*
G01*
X11153327Y-11366673D02*
G75*
G02*
X11113327Y-11366673I-20000J0D01*
G01*
X11113327Y-11366673D02*
G75*
G02*
X11153327Y-11366673I20000J0D01*
G01*
X11270000Y-11085000D02*
G75*
G02*
X11230000Y-11085000I-20000J0D01*
G01*
X11230000Y-11085000D02*
G75*
G02*
X11270000Y-11085000I20000J0D01*
G01*
X11270000Y-11415000D02*
G75*
G02*
X11230000Y-11415000I-20000J0D01*
G01*
X11230000Y-11415000D02*
G75*
G02*
X11270000Y-11415000I20000J0D01*
G01*
X11386673Y-11133327D02*
G75*
G02*
X11346673Y-11133327I-20000J0D01*
G01*
X11346673Y-11133327D02*
G75*
G02*
X11386673Y-11133327I20000J0D01*
G01*
X11386673Y-11366673D02*
G75*
G02*
X11346673Y-11366673I-20000J0D01*
G01*
X11346673Y-11366673D02*
G75*
G02*
X11386673Y-11366673I20000J0D01*
G01*
X11435000Y-11250000D02*
G75*
G02*
X11395000Y-11250000I-20000J0D01*
G01*
X11395000Y-11250000D02*
G75*
G02*
X11435000Y-11250000I20000J0D01*
G01*
X11150000Y-10468000D02*
X11150000Y-10548000D01*
X11110000Y-10508000D02*
X11190000Y-10508000D01*
X11150000Y-9452000D02*
X11150000Y-9532000D01*
X11110000Y-9492000D02*
X11190000Y-9492000D01*
X11762000Y-9960000D02*
X11762000Y-10040000D01*
X11722000Y-10000000D02*
X11802000Y-10000000D01*
X12016000Y-9706000D02*
X12016000Y-9786000D01*
X11976000Y-9746000D02*
X12056000Y-9746000D01*
X12016000Y-10214000D02*
X12016000Y-10294000D01*
X11976000Y-10254000D02*
X12056000Y-10254000D01*
D13*
X325283Y-325283D02*
X325283Y-169718D01*
X169718Y-169718D01*
X169718Y-325283D01*
X325283Y-325283D01*
X11327782Y-11327782D02*
X11327782Y-11172218D01*
X11172218Y-11172218D01*
X11172218Y-11327782D01*
X11327782Y-11327782D01*
D14*
X12400000Y-9210000D02*
X12560000Y-9050000D01*
X12400000Y-8890000D01*
X12240000Y-9050000D01*
X12400000Y-9210000D01*
X12450000Y-11060000D02*
X12610000Y-10900000D01*
X12450000Y-10740000D01*
X12290000Y-10900000D01*
X12450000Y-11060000D01*
D12*
X10255777Y-12146033D02*
X10255777Y-11946033D01*
X10255777Y-11946033D02*
X10303396Y-11946033D01*
X10303396Y-11946033D02*
X10331967Y-11955557D01*
X10331967Y-11955557D02*
X10351015Y-11974605D01*
X10351015Y-11974605D02*
X10360539Y-11993652D01*
X10360539Y-11993652D02*
X10370063Y-12031748D01*
X10370063Y-12031748D02*
X10370063Y-12060319D01*
X10370063Y-12060319D02*
X10360539Y-12098414D01*
X10360539Y-12098414D02*
X10351015Y-12117462D01*
X10351015Y-12117462D02*
X10331967Y-12136510D01*
X10331967Y-12136510D02*
X10303396Y-12146033D01*
X10303396Y-12146033D02*
X10255777Y-12146033D01*
X10455777Y-12146033D02*
X10455777Y-12012700D01*
X10455777Y-12050795D02*
X10465301Y-12031748D01*
X10465301Y-12031748D02*
X10474824Y-12022224D01*
X10474824Y-12022224D02*
X10493872Y-12012700D01*
X10493872Y-12012700D02*
X10512920Y-12012700D01*
X10579586Y-12146033D02*
X10579586Y-12012700D01*
X10579586Y-11946033D02*
X10570063Y-11955557D01*
X10570063Y-11955557D02*
X10579586Y-11965081D01*
X10579586Y-11965081D02*
X10589110Y-11955557D01*
X10589110Y-11955557D02*
X10579586Y-11946033D01*
X10579586Y-11946033D02*
X10579586Y-11965081D01*
X10703396Y-12146033D02*
X10684348Y-12136510D01*
X10684348Y-12136510D02*
X10674824Y-12117462D01*
X10674824Y-12117462D02*
X10674824Y-11946033D01*
X10808158Y-12146033D02*
X10789110Y-12136510D01*
X10789110Y-12136510D02*
X10779586Y-12117462D01*
X10779586Y-12117462D02*
X10779586Y-11946033D01*
X11036729Y-12146033D02*
X11036729Y-11946033D01*
X11036729Y-11946033D02*
X11103396Y-12088891D01*
X11103396Y-12088891D02*
X11170063Y-11946033D01*
X11170063Y-11946033D02*
X11170063Y-12146033D01*
X11351015Y-12146033D02*
X11351015Y-12041272D01*
X11351015Y-12041272D02*
X11341491Y-12022224D01*
X11341491Y-12022224D02*
X11322443Y-12012700D01*
X11322443Y-12012700D02*
X11284348Y-12012700D01*
X11284348Y-12012700D02*
X11265301Y-12022224D01*
X11351015Y-12136510D02*
X11331967Y-12146033D01*
X11331967Y-12146033D02*
X11284348Y-12146033D01*
X11284348Y-12146033D02*
X11265301Y-12136510D01*
X11265301Y-12136510D02*
X11255777Y-12117462D01*
X11255777Y-12117462D02*
X11255777Y-12098414D01*
X11255777Y-12098414D02*
X11265301Y-12079367D01*
X11265301Y-12079367D02*
X11284348Y-12069843D01*
X11284348Y-12069843D02*
X11331967Y-12069843D01*
X11331967Y-12069843D02*
X11351015Y-12060319D01*
X11446253Y-12012700D02*
X11446253Y-12212700D01*
X11446253Y-12022224D02*
X11465301Y-12012700D01*
X11465301Y-12012700D02*
X11503396Y-12012700D01*
X11503396Y-12012700D02*
X11522443Y-12022224D01*
X11522443Y-12022224D02*
X11531967Y-12031748D01*
X11531967Y-12031748D02*
X11541491Y-12050795D01*
X11541491Y-12050795D02*
X11541491Y-12107938D01*
X11541491Y-12107938D02*
X11531967Y-12126986D01*
X11531967Y-12126986D02*
X11522443Y-12136510D01*
X11522443Y-12136510D02*
X11503396Y-12146033D01*
X11503396Y-12146033D02*
X11465301Y-12146033D01*
X11465301Y-12146033D02*
X11446253Y-12136510D01*
X11627205Y-12126986D02*
X11636729Y-12136510D01*
X11636729Y-12136510D02*
X11627205Y-12146033D01*
X11627205Y-12146033D02*
X11617682Y-12136510D01*
X11617682Y-12136510D02*
X11627205Y-12126986D01*
X11627205Y-12126986D02*
X11627205Y-12146033D01*
X11627205Y-12022224D02*
X11636729Y-12031748D01*
X11636729Y-12031748D02*
X11627205Y-12041272D01*
X11627205Y-12041272D02*
X11617682Y-12031748D01*
X11617682Y-12031748D02*
X11627205Y-12022224D01*
X11627205Y-12022224D02*
X11627205Y-12041272D01*
D11*
X9955000Y-12454550D02*
X9995000Y-12494550D01*
X9995000Y-12454550D02*
X9955000Y-12494550D01*
D12*
X10293872Y-12366033D02*
X10312920Y-12366033D01*
X10312920Y-12366033D02*
X10331967Y-12375557D01*
X10331967Y-12375557D02*
X10341491Y-12385081D01*
X10341491Y-12385081D02*
X10351015Y-12404129D01*
X10351015Y-12404129D02*
X10360539Y-12442224D01*
X10360539Y-12442224D02*
X10360539Y-12489843D01*
X10360539Y-12489843D02*
X10351015Y-12527938D01*
X10351015Y-12527938D02*
X10341491Y-12546986D01*
X10341491Y-12546986D02*
X10331967Y-12556510D01*
X10331967Y-12556510D02*
X10312920Y-12566033D01*
X10312920Y-12566033D02*
X10293872Y-12566033D01*
X10293872Y-12566033D02*
X10274824Y-12556510D01*
X10274824Y-12556510D02*
X10265301Y-12546986D01*
X10265301Y-12546986D02*
X10255777Y-12527938D01*
X10255777Y-12527938D02*
X10246253Y-12489843D01*
X10246253Y-12489843D02*
X10246253Y-12442224D01*
X10246253Y-12442224D02*
X10255777Y-12404129D01*
X10255777Y-12404129D02*
X10265301Y-12385081D01*
X10265301Y-12385081D02*
X10274824Y-12375557D01*
X10274824Y-12375557D02*
X10293872Y-12366033D01*
X10446253Y-12546986D02*
X10455777Y-12556510D01*
X10455777Y-12556510D02*
X10446253Y-12566033D01*
X10446253Y-12566033D02*
X10436729Y-12556510D01*
X10436729Y-12556510D02*
X10446253Y-12546986D01*
X10446253Y-12546986D02*
X10446253Y-12566033D01*
X10627205Y-12432700D02*
X10627205Y-12566033D01*
X10579586Y-12356510D02*
X10531967Y-12499367D01*
X10531967Y-12499367D02*
X10655777Y-12499367D01*
X10770063Y-12366033D02*
X10789110Y-12366033D01*
X10789110Y-12366033D02*
X10808158Y-12375557D01*
X10808158Y-12375557D02*
X10817682Y-12385081D01*
X10817682Y-12385081D02*
X10827205Y-12404129D01*
X10827205Y-12404129D02*
X10836729Y-12442224D01*
X10836729Y-12442224D02*
X10836729Y-12489843D01*
X10836729Y-12489843D02*
X10827205Y-12527938D01*
X10827205Y-12527938D02*
X10817682Y-12546986D01*
X10817682Y-12546986D02*
X10808158Y-12556510D01*
X10808158Y-12556510D02*
X10789110Y-12566033D01*
X10789110Y-12566033D02*
X10770063Y-12566033D01*
X10770063Y-12566033D02*
X10751015Y-12556510D01*
X10751015Y-12556510D02*
X10741491Y-12546986D01*
X10741491Y-12546986D02*
X10731967Y-12527938D01*
X10731967Y-12527938D02*
X10722444Y-12489843D01*
X10722444Y-12489843D02*
X10722444Y-12442224D01*
X10722444Y-12442224D02*
X10731967Y-12404129D01*
X10731967Y-12404129D02*
X10741491Y-12385081D01*
X10741491Y-12385081D02*
X10751015Y-12375557D01*
X10751015Y-12375557D02*
X10770063Y-12366033D01*
X10960539Y-12366033D02*
X10979586Y-12366033D01*
X10979586Y-12366033D02*
X10998634Y-12375557D01*
X10998634Y-12375557D02*
X11008158Y-12385081D01*
X11008158Y-12385081D02*
X11017682Y-12404129D01*
X11017682Y-12404129D02*
X11027205Y-12442224D01*
X11027205Y-12442224D02*
X11027205Y-12489843D01*
X11027205Y-12489843D02*
X11017682Y-12527938D01*
X11017682Y-12527938D02*
X11008158Y-12546986D01*
X11008158Y-12546986D02*
X10998634Y-12556510D01*
X10998634Y-12556510D02*
X10979586Y-12566033D01*
X10979586Y-12566033D02*
X10960539Y-12566033D01*
X10960539Y-12566033D02*
X10941491Y-12556510D01*
X10941491Y-12556510D02*
X10931967Y-12546986D01*
X10931967Y-12546986D02*
X10922444Y-12527938D01*
X10922444Y-12527938D02*
X10912920Y-12489843D01*
X10912920Y-12489843D02*
X10912920Y-12442224D01*
X10912920Y-12442224D02*
X10922444Y-12404129D01*
X10922444Y-12404129D02*
X10931967Y-12385081D01*
X10931967Y-12385081D02*
X10941491Y-12375557D01*
X10941491Y-12375557D02*
X10960539Y-12366033D01*
X11112920Y-12566033D02*
X11112920Y-12432700D01*
X11112920Y-12451748D02*
X11122444Y-12442224D01*
X11122444Y-12442224D02*
X11141491Y-12432700D01*
X11141491Y-12432700D02*
X11170063Y-12432700D01*
X11170063Y-12432700D02*
X11189110Y-12442224D01*
X11189110Y-12442224D02*
X11198634Y-12461272D01*
X11198634Y-12461272D02*
X11198634Y-12566033D01*
X11198634Y-12461272D02*
X11208158Y-12442224D01*
X11208158Y-12442224D02*
X11227205Y-12432700D01*
X11227205Y-12432700D02*
X11255777Y-12432700D01*
X11255777Y-12432700D02*
X11274824Y-12442224D01*
X11274824Y-12442224D02*
X11284348Y-12461272D01*
X11284348Y-12461272D02*
X11284348Y-12566033D01*
X11379586Y-12566033D02*
X11379586Y-12432700D01*
X11379586Y-12451748D02*
X11389110Y-12442224D01*
X11389110Y-12442224D02*
X11408158Y-12432700D01*
X11408158Y-12432700D02*
X11436729Y-12432700D01*
X11436729Y-12432700D02*
X11455777Y-12442224D01*
X11455777Y-12442224D02*
X11465301Y-12461272D01*
X11465301Y-12461272D02*
X11465301Y-12566033D01*
X11465301Y-12461272D02*
X11474824Y-12442224D01*
X11474824Y-12442224D02*
X11493872Y-12432700D01*
X11493872Y-12432700D02*
X11522443Y-12432700D01*
X11522443Y-12432700D02*
X11541491Y-12442224D01*
X11541491Y-12442224D02*
X11551015Y-12461272D01*
X11551015Y-12461272D02*
X11551015Y-12566033D01*
X11941491Y-12356510D02*
X11770063Y-12613652D01*
X12198634Y-12366033D02*
X12217682Y-12366033D01*
X12217682Y-12366033D02*
X12236729Y-12375557D01*
X12236729Y-12375557D02*
X12246253Y-12385081D01*
X12246253Y-12385081D02*
X12255777Y-12404129D01*
X12255777Y-12404129D02*
X12265301Y-12442224D01*
X12265301Y-12442224D02*
X12265301Y-12489843D01*
X12265301Y-12489843D02*
X12255777Y-12527938D01*
X12255777Y-12527938D02*
X12246253Y-12546986D01*
X12246253Y-12546986D02*
X12236729Y-12556510D01*
X12236729Y-12556510D02*
X12217682Y-12566033D01*
X12217682Y-12566033D02*
X12198634Y-12566033D01*
X12198634Y-12566033D02*
X12179586Y-12556510D01*
X12179586Y-12556510D02*
X12170063Y-12546986D01*
X12170063Y-12546986D02*
X12160539Y-12527938D01*
X12160539Y-12527938D02*
X12151015Y-12489843D01*
X12151015Y-12489843D02*
X12151015Y-12442224D01*
X12151015Y-12442224D02*
X12160539Y-12404129D01*
X12160539Y-12404129D02*
X12170063Y-12385081D01*
X12170063Y-12385081D02*
X12179586Y-12375557D01*
X12179586Y-12375557D02*
X12198634Y-12366033D01*
X12351015Y-12546986D02*
X12360539Y-12556510D01*
X12360539Y-12556510D02*
X12351015Y-12566033D01*
X12351015Y-12566033D02*
X12341491Y-12556510D01*
X12341491Y-12556510D02*
X12351015Y-12546986D01*
X12351015Y-12546986D02*
X12351015Y-12566033D01*
X12484348Y-12366033D02*
X12503396Y-12366033D01*
X12503396Y-12366033D02*
X12522444Y-12375557D01*
X12522444Y-12375557D02*
X12531967Y-12385081D01*
X12531967Y-12385081D02*
X12541491Y-12404129D01*
X12541491Y-12404129D02*
X12551015Y-12442224D01*
X12551015Y-12442224D02*
X12551015Y-12489843D01*
X12551015Y-12489843D02*
X12541491Y-12527938D01*
X12541491Y-12527938D02*
X12531967Y-12546986D01*
X12531967Y-12546986D02*
X12522444Y-12556510D01*
X12522444Y-12556510D02*
X12503396Y-12566033D01*
X12503396Y-12566033D02*
X12484348Y-12566033D01*
X12484348Y-12566033D02*
X12465301Y-12556510D01*
X12465301Y-12556510D02*
X12455777Y-12546986D01*
X12455777Y-12546986D02*
X12446253Y-12527938D01*
X12446253Y-12527938D02*
X12436729Y-12489843D01*
X12436729Y-12489843D02*
X12436729Y-12442224D01*
X12436729Y-12442224D02*
X12446253Y-12404129D01*
X12446253Y-12404129D02*
X12455777Y-12385081D01*
X12455777Y-12385081D02*
X12465301Y-12375557D01*
X12465301Y-12375557D02*
X12484348Y-12366033D01*
X12741491Y-12566033D02*
X12627206Y-12566033D01*
X12684348Y-12566033D02*
X12684348Y-12366033D01*
X12684348Y-12366033D02*
X12665301Y-12394605D01*
X12665301Y-12394605D02*
X12646253Y-12413652D01*
X12646253Y-12413652D02*
X12627206Y-12423176D01*
X12922444Y-12366033D02*
X12827206Y-12366033D01*
X12827206Y-12366033D02*
X12817682Y-12461272D01*
X12817682Y-12461272D02*
X12827206Y-12451748D01*
X12827206Y-12451748D02*
X12846253Y-12442224D01*
X12846253Y-12442224D02*
X12893872Y-12442224D01*
X12893872Y-12442224D02*
X12912920Y-12451748D01*
X12912920Y-12451748D02*
X12922444Y-12461272D01*
X12922444Y-12461272D02*
X12931967Y-12480319D01*
X12931967Y-12480319D02*
X12931967Y-12527938D01*
X12931967Y-12527938D02*
X12922444Y-12546986D01*
X12922444Y-12546986D02*
X12912920Y-12556510D01*
X12912920Y-12556510D02*
X12893872Y-12566033D01*
X12893872Y-12566033D02*
X12846253Y-12566033D01*
X12846253Y-12566033D02*
X12827206Y-12556510D01*
X12827206Y-12556510D02*
X12817682Y-12546986D01*
X12998634Y-12366033D02*
X13131967Y-12366033D01*
X13131967Y-12366033D02*
X13046253Y-12566033D01*
X13198634Y-12366033D02*
X13198634Y-12404129D01*
X13274825Y-12366033D02*
X13274825Y-12404129D01*
X13570063Y-12642224D02*
X13560539Y-12632700D01*
X13560539Y-12632700D02*
X13541491Y-12604129D01*
X13541491Y-12604129D02*
X13531968Y-12585081D01*
X13531968Y-12585081D02*
X13522444Y-12556510D01*
X13522444Y-12556510D02*
X13512920Y-12508891D01*
X13512920Y-12508891D02*
X13512920Y-12470795D01*
X13512920Y-12470795D02*
X13522444Y-12423176D01*
X13522444Y-12423176D02*
X13531968Y-12394605D01*
X13531968Y-12394605D02*
X13541491Y-12375557D01*
X13541491Y-12375557D02*
X13560539Y-12346986D01*
X13560539Y-12346986D02*
X13570063Y-12337462D01*
X13751015Y-12566033D02*
X13636729Y-12566033D01*
X13693872Y-12566033D02*
X13693872Y-12366033D01*
X13693872Y-12366033D02*
X13674825Y-12394605D01*
X13674825Y-12394605D02*
X13655777Y-12413652D01*
X13655777Y-12413652D02*
X13636729Y-12423176D01*
X13874825Y-12366033D02*
X13893872Y-12366033D01*
X13893872Y-12366033D02*
X13912920Y-12375557D01*
X13912920Y-12375557D02*
X13922444Y-12385081D01*
X13922444Y-12385081D02*
X13931968Y-12404129D01*
X13931968Y-12404129D02*
X13941491Y-12442224D01*
X13941491Y-12442224D02*
X13941491Y-12489843D01*
X13941491Y-12489843D02*
X13931968Y-12527938D01*
X13931968Y-12527938D02*
X13922444Y-12546986D01*
X13922444Y-12546986D02*
X13912920Y-12556510D01*
X13912920Y-12556510D02*
X13893872Y-12566033D01*
X13893872Y-12566033D02*
X13874825Y-12566033D01*
X13874825Y-12566033D02*
X13855777Y-12556510D01*
X13855777Y-12556510D02*
X13846253Y-12546986D01*
X13846253Y-12546986D02*
X13836729Y-12527938D01*
X13836729Y-12527938D02*
X13827206Y-12489843D01*
X13827206Y-12489843D02*
X13827206Y-12442224D01*
X13827206Y-12442224D02*
X13836729Y-12404129D01*
X13836729Y-12404129D02*
X13846253Y-12385081D01*
X13846253Y-12385081D02*
X13855777Y-12375557D01*
X13855777Y-12375557D02*
X13874825Y-12366033D01*
X14179587Y-12566033D02*
X14179587Y-12366033D01*
X14265301Y-12566033D02*
X14265301Y-12461272D01*
X14265301Y-12461272D02*
X14255777Y-12442224D01*
X14255777Y-12442224D02*
X14236730Y-12432700D01*
X14236730Y-12432700D02*
X14208158Y-12432700D01*
X14208158Y-12432700D02*
X14189110Y-12442224D01*
X14189110Y-12442224D02*
X14179587Y-12451748D01*
X14389110Y-12566033D02*
X14370063Y-12556510D01*
X14370063Y-12556510D02*
X14360539Y-12546986D01*
X14360539Y-12546986D02*
X14351015Y-12527938D01*
X14351015Y-12527938D02*
X14351015Y-12470795D01*
X14351015Y-12470795D02*
X14360539Y-12451748D01*
X14360539Y-12451748D02*
X14370063Y-12442224D01*
X14370063Y-12442224D02*
X14389110Y-12432700D01*
X14389110Y-12432700D02*
X14417682Y-12432700D01*
X14417682Y-12432700D02*
X14436730Y-12442224D01*
X14436730Y-12442224D02*
X14446253Y-12451748D01*
X14446253Y-12451748D02*
X14455777Y-12470795D01*
X14455777Y-12470795D02*
X14455777Y-12527938D01*
X14455777Y-12527938D02*
X14446253Y-12546986D01*
X14446253Y-12546986D02*
X14436730Y-12556510D01*
X14436730Y-12556510D02*
X14417682Y-12566033D01*
X14417682Y-12566033D02*
X14389110Y-12566033D01*
X14570063Y-12566033D02*
X14551015Y-12556510D01*
X14551015Y-12556510D02*
X14541491Y-12537462D01*
X14541491Y-12537462D02*
X14541491Y-12366033D01*
X14722444Y-12556510D02*
X14703396Y-12566033D01*
X14703396Y-12566033D02*
X14665301Y-12566033D01*
X14665301Y-12566033D02*
X14646253Y-12556510D01*
X14646253Y-12556510D02*
X14636730Y-12537462D01*
X14636730Y-12537462D02*
X14636730Y-12461272D01*
X14636730Y-12461272D02*
X14646253Y-12442224D01*
X14646253Y-12442224D02*
X14665301Y-12432700D01*
X14665301Y-12432700D02*
X14703396Y-12432700D01*
X14703396Y-12432700D02*
X14722444Y-12442224D01*
X14722444Y-12442224D02*
X14731968Y-12461272D01*
X14731968Y-12461272D02*
X14731968Y-12480319D01*
X14731968Y-12480319D02*
X14636730Y-12499367D01*
X14808158Y-12556510D02*
X14827206Y-12566033D01*
X14827206Y-12566033D02*
X14865301Y-12566033D01*
X14865301Y-12566033D02*
X14884349Y-12556510D01*
X14884349Y-12556510D02*
X14893872Y-12537462D01*
X14893872Y-12537462D02*
X14893872Y-12527938D01*
X14893872Y-12527938D02*
X14884349Y-12508891D01*
X14884349Y-12508891D02*
X14865301Y-12499367D01*
X14865301Y-12499367D02*
X14836730Y-12499367D01*
X14836730Y-12499367D02*
X14817682Y-12489843D01*
X14817682Y-12489843D02*
X14808158Y-12470795D01*
X14808158Y-12470795D02*
X14808158Y-12461272D01*
X14808158Y-12461272D02*
X14817682Y-12442224D01*
X14817682Y-12442224D02*
X14836730Y-12432700D01*
X14836730Y-12432700D02*
X14865301Y-12432700D01*
X14865301Y-12432700D02*
X14884349Y-12442224D01*
X14960539Y-12642224D02*
X14970063Y-12632700D01*
X14970063Y-12632700D02*
X14989111Y-12604129D01*
X14989111Y-12604129D02*
X14998634Y-12585081D01*
X14998634Y-12585081D02*
X15008158Y-12556510D01*
X15008158Y-12556510D02*
X15017682Y-12508891D01*
X15017682Y-12508891D02*
X15017682Y-12470795D01*
X15017682Y-12470795D02*
X15008158Y-12423176D01*
X15008158Y-12423176D02*
X14998634Y-12394605D01*
X14998634Y-12394605D02*
X14989111Y-12375557D01*
X14989111Y-12375557D02*
X14970063Y-12346986D01*
X14970063Y-12346986D02*
X14960539Y-12337462D01*
D11*
X9995000Y-12738550D02*
G75*
G02*
X9955000Y-12738550I-20000J0D01*
G01*
X9955000Y-12738550D02*
G75*
G02*
X9995000Y-12738550I20000J0D01*
G01*
D12*
X10293872Y-12630033D02*
X10312920Y-12630033D01*
X10312920Y-12630033D02*
X10331967Y-12639557D01*
X10331967Y-12639557D02*
X10341491Y-12649081D01*
X10341491Y-12649081D02*
X10351015Y-12668129D01*
X10351015Y-12668129D02*
X10360539Y-12706224D01*
X10360539Y-12706224D02*
X10360539Y-12753843D01*
X10360539Y-12753843D02*
X10351015Y-12791938D01*
X10351015Y-12791938D02*
X10341491Y-12810986D01*
X10341491Y-12810986D02*
X10331967Y-12820510D01*
X10331967Y-12820510D02*
X10312920Y-12830033D01*
X10312920Y-12830033D02*
X10293872Y-12830033D01*
X10293872Y-12830033D02*
X10274824Y-12820510D01*
X10274824Y-12820510D02*
X10265301Y-12810986D01*
X10265301Y-12810986D02*
X10255777Y-12791938D01*
X10255777Y-12791938D02*
X10246253Y-12753843D01*
X10246253Y-12753843D02*
X10246253Y-12706224D01*
X10246253Y-12706224D02*
X10255777Y-12668129D01*
X10255777Y-12668129D02*
X10265301Y-12649081D01*
X10265301Y-12649081D02*
X10274824Y-12639557D01*
X10274824Y-12639557D02*
X10293872Y-12630033D01*
X10446253Y-12810986D02*
X10455777Y-12820510D01*
X10455777Y-12820510D02*
X10446253Y-12830033D01*
X10446253Y-12830033D02*
X10436729Y-12820510D01*
X10436729Y-12820510D02*
X10446253Y-12810986D01*
X10446253Y-12810986D02*
X10446253Y-12830033D01*
X10627205Y-12696700D02*
X10627205Y-12830033D01*
X10579586Y-12620510D02*
X10531967Y-12763367D01*
X10531967Y-12763367D02*
X10655777Y-12763367D01*
X10770063Y-12630033D02*
X10789110Y-12630033D01*
X10789110Y-12630033D02*
X10808158Y-12639557D01*
X10808158Y-12639557D02*
X10817682Y-12649081D01*
X10817682Y-12649081D02*
X10827205Y-12668129D01*
X10827205Y-12668129D02*
X10836729Y-12706224D01*
X10836729Y-12706224D02*
X10836729Y-12753843D01*
X10836729Y-12753843D02*
X10827205Y-12791938D01*
X10827205Y-12791938D02*
X10817682Y-12810986D01*
X10817682Y-12810986D02*
X10808158Y-12820510D01*
X10808158Y-12820510D02*
X10789110Y-12830033D01*
X10789110Y-12830033D02*
X10770063Y-12830033D01*
X10770063Y-12830033D02*
X10751015Y-12820510D01*
X10751015Y-12820510D02*
X10741491Y-12810986D01*
X10741491Y-12810986D02*
X10731967Y-12791938D01*
X10731967Y-12791938D02*
X10722444Y-12753843D01*
X10722444Y-12753843D02*
X10722444Y-12706224D01*
X10722444Y-12706224D02*
X10731967Y-12668129D01*
X10731967Y-12668129D02*
X10741491Y-12649081D01*
X10741491Y-12649081D02*
X10751015Y-12639557D01*
X10751015Y-12639557D02*
X10770063Y-12630033D01*
X10960539Y-12630033D02*
X10979586Y-12630033D01*
X10979586Y-12630033D02*
X10998634Y-12639557D01*
X10998634Y-12639557D02*
X11008158Y-12649081D01*
X11008158Y-12649081D02*
X11017682Y-12668129D01*
X11017682Y-12668129D02*
X11027205Y-12706224D01*
X11027205Y-12706224D02*
X11027205Y-12753843D01*
X11027205Y-12753843D02*
X11017682Y-12791938D01*
X11017682Y-12791938D02*
X11008158Y-12810986D01*
X11008158Y-12810986D02*
X10998634Y-12820510D01*
X10998634Y-12820510D02*
X10979586Y-12830033D01*
X10979586Y-12830033D02*
X10960539Y-12830033D01*
X10960539Y-12830033D02*
X10941491Y-12820510D01*
X10941491Y-12820510D02*
X10931967Y-12810986D01*
X10931967Y-12810986D02*
X10922444Y-12791938D01*
X10922444Y-12791938D02*
X10912920Y-12753843D01*
X10912920Y-12753843D02*
X10912920Y-12706224D01*
X10912920Y-12706224D02*
X10922444Y-12668129D01*
X10922444Y-12668129D02*
X10931967Y-12649081D01*
X10931967Y-12649081D02*
X10941491Y-12639557D01*
X10941491Y-12639557D02*
X10960539Y-12630033D01*
X11112920Y-12830033D02*
X11112920Y-12696700D01*
X11112920Y-12715748D02*
X11122444Y-12706224D01*
X11122444Y-12706224D02*
X11141491Y-12696700D01*
X11141491Y-12696700D02*
X11170063Y-12696700D01*
X11170063Y-12696700D02*
X11189110Y-12706224D01*
X11189110Y-12706224D02*
X11198634Y-12725272D01*
X11198634Y-12725272D02*
X11198634Y-12830033D01*
X11198634Y-12725272D02*
X11208158Y-12706224D01*
X11208158Y-12706224D02*
X11227205Y-12696700D01*
X11227205Y-12696700D02*
X11255777Y-12696700D01*
X11255777Y-12696700D02*
X11274824Y-12706224D01*
X11274824Y-12706224D02*
X11284348Y-12725272D01*
X11284348Y-12725272D02*
X11284348Y-12830033D01*
X11379586Y-12830033D02*
X11379586Y-12696700D01*
X11379586Y-12715748D02*
X11389110Y-12706224D01*
X11389110Y-12706224D02*
X11408158Y-12696700D01*
X11408158Y-12696700D02*
X11436729Y-12696700D01*
X11436729Y-12696700D02*
X11455777Y-12706224D01*
X11455777Y-12706224D02*
X11465301Y-12725272D01*
X11465301Y-12725272D02*
X11465301Y-12830033D01*
X11465301Y-12725272D02*
X11474824Y-12706224D01*
X11474824Y-12706224D02*
X11493872Y-12696700D01*
X11493872Y-12696700D02*
X11522443Y-12696700D01*
X11522443Y-12696700D02*
X11541491Y-12706224D01*
X11541491Y-12706224D02*
X11551015Y-12725272D01*
X11551015Y-12725272D02*
X11551015Y-12830033D01*
X11941491Y-12620510D02*
X11770063Y-12877652D01*
X12198634Y-12630033D02*
X12217682Y-12630033D01*
X12217682Y-12630033D02*
X12236729Y-12639557D01*
X12236729Y-12639557D02*
X12246253Y-12649081D01*
X12246253Y-12649081D02*
X12255777Y-12668129D01*
X12255777Y-12668129D02*
X12265301Y-12706224D01*
X12265301Y-12706224D02*
X12265301Y-12753843D01*
X12265301Y-12753843D02*
X12255777Y-12791938D01*
X12255777Y-12791938D02*
X12246253Y-12810986D01*
X12246253Y-12810986D02*
X12236729Y-12820510D01*
X12236729Y-12820510D02*
X12217682Y-12830033D01*
X12217682Y-12830033D02*
X12198634Y-12830033D01*
X12198634Y-12830033D02*
X12179586Y-12820510D01*
X12179586Y-12820510D02*
X12170063Y-12810986D01*
X12170063Y-12810986D02*
X12160539Y-12791938D01*
X12160539Y-12791938D02*
X12151015Y-12753843D01*
X12151015Y-12753843D02*
X12151015Y-12706224D01*
X12151015Y-12706224D02*
X12160539Y-12668129D01*
X12160539Y-12668129D02*
X12170063Y-12649081D01*
X12170063Y-12649081D02*
X12179586Y-12639557D01*
X12179586Y-12639557D02*
X12198634Y-12630033D01*
X12351015Y-12810986D02*
X12360539Y-12820510D01*
X12360539Y-12820510D02*
X12351015Y-12830033D01*
X12351015Y-12830033D02*
X12341491Y-12820510D01*
X12341491Y-12820510D02*
X12351015Y-12810986D01*
X12351015Y-12810986D02*
X12351015Y-12830033D01*
X12484348Y-12630033D02*
X12503396Y-12630033D01*
X12503396Y-12630033D02*
X12522444Y-12639557D01*
X12522444Y-12639557D02*
X12531967Y-12649081D01*
X12531967Y-12649081D02*
X12541491Y-12668129D01*
X12541491Y-12668129D02*
X12551015Y-12706224D01*
X12551015Y-12706224D02*
X12551015Y-12753843D01*
X12551015Y-12753843D02*
X12541491Y-12791938D01*
X12541491Y-12791938D02*
X12531967Y-12810986D01*
X12531967Y-12810986D02*
X12522444Y-12820510D01*
X12522444Y-12820510D02*
X12503396Y-12830033D01*
X12503396Y-12830033D02*
X12484348Y-12830033D01*
X12484348Y-12830033D02*
X12465301Y-12820510D01*
X12465301Y-12820510D02*
X12455777Y-12810986D01*
X12455777Y-12810986D02*
X12446253Y-12791938D01*
X12446253Y-12791938D02*
X12436729Y-12753843D01*
X12436729Y-12753843D02*
X12436729Y-12706224D01*
X12436729Y-12706224D02*
X12446253Y-12668129D01*
X12446253Y-12668129D02*
X12455777Y-12649081D01*
X12455777Y-12649081D02*
X12465301Y-12639557D01*
X12465301Y-12639557D02*
X12484348Y-12630033D01*
X12741491Y-12830033D02*
X12627206Y-12830033D01*
X12684348Y-12830033D02*
X12684348Y-12630033D01*
X12684348Y-12630033D02*
X12665301Y-12658605D01*
X12665301Y-12658605D02*
X12646253Y-12677652D01*
X12646253Y-12677652D02*
X12627206Y-12687176D01*
X12922444Y-12630033D02*
X12827206Y-12630033D01*
X12827206Y-12630033D02*
X12817682Y-12725272D01*
X12817682Y-12725272D02*
X12827206Y-12715748D01*
X12827206Y-12715748D02*
X12846253Y-12706224D01*
X12846253Y-12706224D02*
X12893872Y-12706224D01*
X12893872Y-12706224D02*
X12912920Y-12715748D01*
X12912920Y-12715748D02*
X12922444Y-12725272D01*
X12922444Y-12725272D02*
X12931967Y-12744319D01*
X12931967Y-12744319D02*
X12931967Y-12791938D01*
X12931967Y-12791938D02*
X12922444Y-12810986D01*
X12922444Y-12810986D02*
X12912920Y-12820510D01*
X12912920Y-12820510D02*
X12893872Y-12830033D01*
X12893872Y-12830033D02*
X12846253Y-12830033D01*
X12846253Y-12830033D02*
X12827206Y-12820510D01*
X12827206Y-12820510D02*
X12817682Y-12810986D01*
X12998634Y-12630033D02*
X13131967Y-12630033D01*
X13131967Y-12630033D02*
X13046253Y-12830033D01*
X13198634Y-12630033D02*
X13198634Y-12668129D01*
X13274825Y-12630033D02*
X13274825Y-12668129D01*
X13570063Y-12906224D02*
X13560539Y-12896700D01*
X13560539Y-12896700D02*
X13541491Y-12868129D01*
X13541491Y-12868129D02*
X13531968Y-12849081D01*
X13531968Y-12849081D02*
X13522444Y-12820510D01*
X13522444Y-12820510D02*
X13512920Y-12772891D01*
X13512920Y-12772891D02*
X13512920Y-12734795D01*
X13512920Y-12734795D02*
X13522444Y-12687176D01*
X13522444Y-12687176D02*
X13531968Y-12658605D01*
X13531968Y-12658605D02*
X13541491Y-12639557D01*
X13541491Y-12639557D02*
X13560539Y-12610986D01*
X13560539Y-12610986D02*
X13570063Y-12601462D01*
X13751015Y-12830033D02*
X13636729Y-12830033D01*
X13693872Y-12830033D02*
X13693872Y-12630033D01*
X13693872Y-12630033D02*
X13674825Y-12658605D01*
X13674825Y-12658605D02*
X13655777Y-12677652D01*
X13655777Y-12677652D02*
X13636729Y-12687176D01*
X13922444Y-12630033D02*
X13884348Y-12630033D01*
X13884348Y-12630033D02*
X13865301Y-12639557D01*
X13865301Y-12639557D02*
X13855777Y-12649081D01*
X13855777Y-12649081D02*
X13836729Y-12677652D01*
X13836729Y-12677652D02*
X13827206Y-12715748D01*
X13827206Y-12715748D02*
X13827206Y-12791938D01*
X13827206Y-12791938D02*
X13836729Y-12810986D01*
X13836729Y-12810986D02*
X13846253Y-12820510D01*
X13846253Y-12820510D02*
X13865301Y-12830033D01*
X13865301Y-12830033D02*
X13903396Y-12830033D01*
X13903396Y-12830033D02*
X13922444Y-12820510D01*
X13922444Y-12820510D02*
X13931968Y-12810986D01*
X13931968Y-12810986D02*
X13941491Y-12791938D01*
X13941491Y-12791938D02*
X13941491Y-12744319D01*
X13941491Y-12744319D02*
X13931968Y-12725272D01*
X13931968Y-12725272D02*
X13922444Y-12715748D01*
X13922444Y-12715748D02*
X13903396Y-12706224D01*
X13903396Y-12706224D02*
X13865301Y-12706224D01*
X13865301Y-12706224D02*
X13846253Y-12715748D01*
X13846253Y-12715748D02*
X13836729Y-12725272D01*
X13836729Y-12725272D02*
X13827206Y-12744319D01*
X14179587Y-12830033D02*
X14179587Y-12630033D01*
X14265301Y-12830033D02*
X14265301Y-12725272D01*
X14265301Y-12725272D02*
X14255777Y-12706224D01*
X14255777Y-12706224D02*
X14236730Y-12696700D01*
X14236730Y-12696700D02*
X14208158Y-12696700D01*
X14208158Y-12696700D02*
X14189110Y-12706224D01*
X14189110Y-12706224D02*
X14179587Y-12715748D01*
X14389110Y-12830033D02*
X14370063Y-12820510D01*
X14370063Y-12820510D02*
X14360539Y-12810986D01*
X14360539Y-12810986D02*
X14351015Y-12791938D01*
X14351015Y-12791938D02*
X14351015Y-12734795D01*
X14351015Y-12734795D02*
X14360539Y-12715748D01*
X14360539Y-12715748D02*
X14370063Y-12706224D01*
X14370063Y-12706224D02*
X14389110Y-12696700D01*
X14389110Y-12696700D02*
X14417682Y-12696700D01*
X14417682Y-12696700D02*
X14436730Y-12706224D01*
X14436730Y-12706224D02*
X14446253Y-12715748D01*
X14446253Y-12715748D02*
X14455777Y-12734795D01*
X14455777Y-12734795D02*
X14455777Y-12791938D01*
X14455777Y-12791938D02*
X14446253Y-12810986D01*
X14446253Y-12810986D02*
X14436730Y-12820510D01*
X14436730Y-12820510D02*
X14417682Y-12830033D01*
X14417682Y-12830033D02*
X14389110Y-12830033D01*
X14570063Y-12830033D02*
X14551015Y-12820510D01*
X14551015Y-12820510D02*
X14541491Y-12801462D01*
X14541491Y-12801462D02*
X14541491Y-12630033D01*
X14722444Y-12820510D02*
X14703396Y-12830033D01*
X14703396Y-12830033D02*
X14665301Y-12830033D01*
X14665301Y-12830033D02*
X14646253Y-12820510D01*
X14646253Y-12820510D02*
X14636730Y-12801462D01*
X14636730Y-12801462D02*
X14636730Y-12725272D01*
X14636730Y-12725272D02*
X14646253Y-12706224D01*
X14646253Y-12706224D02*
X14665301Y-12696700D01*
X14665301Y-12696700D02*
X14703396Y-12696700D01*
X14703396Y-12696700D02*
X14722444Y-12706224D01*
X14722444Y-12706224D02*
X14731968Y-12725272D01*
X14731968Y-12725272D02*
X14731968Y-12744319D01*
X14731968Y-12744319D02*
X14636730Y-12763367D01*
X14808158Y-12820510D02*
X14827206Y-12830033D01*
X14827206Y-12830033D02*
X14865301Y-12830033D01*
X14865301Y-12830033D02*
X14884349Y-12820510D01*
X14884349Y-12820510D02*
X14893872Y-12801462D01*
X14893872Y-12801462D02*
X14893872Y-12791938D01*
X14893872Y-12791938D02*
X14884349Y-12772891D01*
X14884349Y-12772891D02*
X14865301Y-12763367D01*
X14865301Y-12763367D02*
X14836730Y-12763367D01*
X14836730Y-12763367D02*
X14817682Y-12753843D01*
X14817682Y-12753843D02*
X14808158Y-12734795D01*
X14808158Y-12734795D02*
X14808158Y-12725272D01*
X14808158Y-12725272D02*
X14817682Y-12706224D01*
X14817682Y-12706224D02*
X14836730Y-12696700D01*
X14836730Y-12696700D02*
X14865301Y-12696700D01*
X14865301Y-12696700D02*
X14884349Y-12706224D01*
X14960539Y-12906224D02*
X14970063Y-12896700D01*
X14970063Y-12896700D02*
X14989111Y-12868129D01*
X14989111Y-12868129D02*
X14998634Y-12849081D01*
X14998634Y-12849081D02*
X15008158Y-12820510D01*
X15008158Y-12820510D02*
X15017682Y-12772891D01*
X15017682Y-12772891D02*
X15017682Y-12734795D01*
X15017682Y-12734795D02*
X15008158Y-12687176D01*
X15008158Y-12687176D02*
X14998634Y-12658605D01*
X14998634Y-12658605D02*
X14989111Y-12639557D01*
X14989111Y-12639557D02*
X14970063Y-12610986D01*
X14970063Y-12610986D02*
X14960539Y-12601462D01*
D11*
X9955000Y-12962550D02*
X9955000Y-13042550D01*
X9915000Y-13002550D02*
X9995000Y-13002550D01*
D12*
X10293872Y-12894033D02*
X10312920Y-12894033D01*
X10312920Y-12894033D02*
X10331967Y-12903557D01*
X10331967Y-12903557D02*
X10341491Y-12913081D01*
X10341491Y-12913081D02*
X10351015Y-12932129D01*
X10351015Y-12932129D02*
X10360539Y-12970224D01*
X10360539Y-12970224D02*
X10360539Y-13017843D01*
X10360539Y-13017843D02*
X10351015Y-13055938D01*
X10351015Y-13055938D02*
X10341491Y-13074986D01*
X10341491Y-13074986D02*
X10331967Y-13084510D01*
X10331967Y-13084510D02*
X10312920Y-13094033D01*
X10312920Y-13094033D02*
X10293872Y-13094033D01*
X10293872Y-13094033D02*
X10274824Y-13084510D01*
X10274824Y-13084510D02*
X10265301Y-13074986D01*
X10265301Y-13074986D02*
X10255777Y-13055938D01*
X10255777Y-13055938D02*
X10246253Y-13017843D01*
X10246253Y-13017843D02*
X10246253Y-12970224D01*
X10246253Y-12970224D02*
X10255777Y-12932129D01*
X10255777Y-12932129D02*
X10265301Y-12913081D01*
X10265301Y-12913081D02*
X10274824Y-12903557D01*
X10274824Y-12903557D02*
X10293872Y-12894033D01*
X10446253Y-13074986D02*
X10455777Y-13084510D01*
X10455777Y-13084510D02*
X10446253Y-13094033D01*
X10446253Y-13094033D02*
X10436729Y-13084510D01*
X10436729Y-13084510D02*
X10446253Y-13074986D01*
X10446253Y-13074986D02*
X10446253Y-13094033D01*
X10570063Y-12979748D02*
X10551015Y-12970224D01*
X10551015Y-12970224D02*
X10541491Y-12960700D01*
X10541491Y-12960700D02*
X10531967Y-12941652D01*
X10531967Y-12941652D02*
X10531967Y-12932129D01*
X10531967Y-12932129D02*
X10541491Y-12913081D01*
X10541491Y-12913081D02*
X10551015Y-12903557D01*
X10551015Y-12903557D02*
X10570063Y-12894033D01*
X10570063Y-12894033D02*
X10608158Y-12894033D01*
X10608158Y-12894033D02*
X10627205Y-12903557D01*
X10627205Y-12903557D02*
X10636729Y-12913081D01*
X10636729Y-12913081D02*
X10646253Y-12932129D01*
X10646253Y-12932129D02*
X10646253Y-12941652D01*
X10646253Y-12941652D02*
X10636729Y-12960700D01*
X10636729Y-12960700D02*
X10627205Y-12970224D01*
X10627205Y-12970224D02*
X10608158Y-12979748D01*
X10608158Y-12979748D02*
X10570063Y-12979748D01*
X10570063Y-12979748D02*
X10551015Y-12989272D01*
X10551015Y-12989272D02*
X10541491Y-12998795D01*
X10541491Y-12998795D02*
X10531967Y-13017843D01*
X10531967Y-13017843D02*
X10531967Y-13055938D01*
X10531967Y-13055938D02*
X10541491Y-13074986D01*
X10541491Y-13074986D02*
X10551015Y-13084510D01*
X10551015Y-13084510D02*
X10570063Y-13094033D01*
X10570063Y-13094033D02*
X10608158Y-13094033D01*
X10608158Y-13094033D02*
X10627205Y-13084510D01*
X10627205Y-13084510D02*
X10636729Y-13074986D01*
X10636729Y-13074986D02*
X10646253Y-13055938D01*
X10646253Y-13055938D02*
X10646253Y-13017843D01*
X10646253Y-13017843D02*
X10636729Y-12998795D01*
X10636729Y-12998795D02*
X10627205Y-12989272D01*
X10627205Y-12989272D02*
X10608158Y-12979748D01*
X10770063Y-12894033D02*
X10789110Y-12894033D01*
X10789110Y-12894033D02*
X10808158Y-12903557D01*
X10808158Y-12903557D02*
X10817682Y-12913081D01*
X10817682Y-12913081D02*
X10827205Y-12932129D01*
X10827205Y-12932129D02*
X10836729Y-12970224D01*
X10836729Y-12970224D02*
X10836729Y-13017843D01*
X10836729Y-13017843D02*
X10827205Y-13055938D01*
X10827205Y-13055938D02*
X10817682Y-13074986D01*
X10817682Y-13074986D02*
X10808158Y-13084510D01*
X10808158Y-13084510D02*
X10789110Y-13094033D01*
X10789110Y-13094033D02*
X10770063Y-13094033D01*
X10770063Y-13094033D02*
X10751015Y-13084510D01*
X10751015Y-13084510D02*
X10741491Y-13074986D01*
X10741491Y-13074986D02*
X10731967Y-13055938D01*
X10731967Y-13055938D02*
X10722444Y-13017843D01*
X10722444Y-13017843D02*
X10722444Y-12970224D01*
X10722444Y-12970224D02*
X10731967Y-12932129D01*
X10731967Y-12932129D02*
X10741491Y-12913081D01*
X10741491Y-12913081D02*
X10751015Y-12903557D01*
X10751015Y-12903557D02*
X10770063Y-12894033D01*
X10960539Y-12894033D02*
X10979586Y-12894033D01*
X10979586Y-12894033D02*
X10998634Y-12903557D01*
X10998634Y-12903557D02*
X11008158Y-12913081D01*
X11008158Y-12913081D02*
X11017682Y-12932129D01*
X11017682Y-12932129D02*
X11027205Y-12970224D01*
X11027205Y-12970224D02*
X11027205Y-13017843D01*
X11027205Y-13017843D02*
X11017682Y-13055938D01*
X11017682Y-13055938D02*
X11008158Y-13074986D01*
X11008158Y-13074986D02*
X10998634Y-13084510D01*
X10998634Y-13084510D02*
X10979586Y-13094033D01*
X10979586Y-13094033D02*
X10960539Y-13094033D01*
X10960539Y-13094033D02*
X10941491Y-13084510D01*
X10941491Y-13084510D02*
X10931967Y-13074986D01*
X10931967Y-13074986D02*
X10922444Y-13055938D01*
X10922444Y-13055938D02*
X10912920Y-13017843D01*
X10912920Y-13017843D02*
X10912920Y-12970224D01*
X10912920Y-12970224D02*
X10922444Y-12932129D01*
X10922444Y-12932129D02*
X10931967Y-12913081D01*
X10931967Y-12913081D02*
X10941491Y-12903557D01*
X10941491Y-12903557D02*
X10960539Y-12894033D01*
X11112920Y-13094033D02*
X11112920Y-12960700D01*
X11112920Y-12979748D02*
X11122444Y-12970224D01*
X11122444Y-12970224D02*
X11141491Y-12960700D01*
X11141491Y-12960700D02*
X11170063Y-12960700D01*
X11170063Y-12960700D02*
X11189110Y-12970224D01*
X11189110Y-12970224D02*
X11198634Y-12989272D01*
X11198634Y-12989272D02*
X11198634Y-13094033D01*
X11198634Y-12989272D02*
X11208158Y-12970224D01*
X11208158Y-12970224D02*
X11227205Y-12960700D01*
X11227205Y-12960700D02*
X11255777Y-12960700D01*
X11255777Y-12960700D02*
X11274824Y-12970224D01*
X11274824Y-12970224D02*
X11284348Y-12989272D01*
X11284348Y-12989272D02*
X11284348Y-13094033D01*
X11379586Y-13094033D02*
X11379586Y-12960700D01*
X11379586Y-12979748D02*
X11389110Y-12970224D01*
X11389110Y-12970224D02*
X11408158Y-12960700D01*
X11408158Y-12960700D02*
X11436729Y-12960700D01*
X11436729Y-12960700D02*
X11455777Y-12970224D01*
X11455777Y-12970224D02*
X11465301Y-12989272D01*
X11465301Y-12989272D02*
X11465301Y-13094033D01*
X11465301Y-12989272D02*
X11474824Y-12970224D01*
X11474824Y-12970224D02*
X11493872Y-12960700D01*
X11493872Y-12960700D02*
X11522443Y-12960700D01*
X11522443Y-12960700D02*
X11541491Y-12970224D01*
X11541491Y-12970224D02*
X11551015Y-12989272D01*
X11551015Y-12989272D02*
X11551015Y-13094033D01*
X11941491Y-12884510D02*
X11770063Y-13141652D01*
X12198634Y-12894033D02*
X12217682Y-12894033D01*
X12217682Y-12894033D02*
X12236729Y-12903557D01*
X12236729Y-12903557D02*
X12246253Y-12913081D01*
X12246253Y-12913081D02*
X12255777Y-12932129D01*
X12255777Y-12932129D02*
X12265301Y-12970224D01*
X12265301Y-12970224D02*
X12265301Y-13017843D01*
X12265301Y-13017843D02*
X12255777Y-13055938D01*
X12255777Y-13055938D02*
X12246253Y-13074986D01*
X12246253Y-13074986D02*
X12236729Y-13084510D01*
X12236729Y-13084510D02*
X12217682Y-13094033D01*
X12217682Y-13094033D02*
X12198634Y-13094033D01*
X12198634Y-13094033D02*
X12179586Y-13084510D01*
X12179586Y-13084510D02*
X12170063Y-13074986D01*
X12170063Y-13074986D02*
X12160539Y-13055938D01*
X12160539Y-13055938D02*
X12151015Y-13017843D01*
X12151015Y-13017843D02*
X12151015Y-12970224D01*
X12151015Y-12970224D02*
X12160539Y-12932129D01*
X12160539Y-12932129D02*
X12170063Y-12913081D01*
X12170063Y-12913081D02*
X12179586Y-12903557D01*
X12179586Y-12903557D02*
X12198634Y-12894033D01*
X12351015Y-13074986D02*
X12360539Y-13084510D01*
X12360539Y-13084510D02*
X12351015Y-13094033D01*
X12351015Y-13094033D02*
X12341491Y-13084510D01*
X12341491Y-13084510D02*
X12351015Y-13074986D01*
X12351015Y-13074986D02*
X12351015Y-13094033D01*
X12484348Y-12894033D02*
X12503396Y-12894033D01*
X12503396Y-12894033D02*
X12522444Y-12903557D01*
X12522444Y-12903557D02*
X12531967Y-12913081D01*
X12531967Y-12913081D02*
X12541491Y-12932129D01*
X12541491Y-12932129D02*
X12551015Y-12970224D01*
X12551015Y-12970224D02*
X12551015Y-13017843D01*
X12551015Y-13017843D02*
X12541491Y-13055938D01*
X12541491Y-13055938D02*
X12531967Y-13074986D01*
X12531967Y-13074986D02*
X12522444Y-13084510D01*
X12522444Y-13084510D02*
X12503396Y-13094033D01*
X12503396Y-13094033D02*
X12484348Y-13094033D01*
X12484348Y-13094033D02*
X12465301Y-13084510D01*
X12465301Y-13084510D02*
X12455777Y-13074986D01*
X12455777Y-13074986D02*
X12446253Y-13055938D01*
X12446253Y-13055938D02*
X12436729Y-13017843D01*
X12436729Y-13017843D02*
X12436729Y-12970224D01*
X12436729Y-12970224D02*
X12446253Y-12932129D01*
X12446253Y-12932129D02*
X12455777Y-12913081D01*
X12455777Y-12913081D02*
X12465301Y-12903557D01*
X12465301Y-12903557D02*
X12484348Y-12894033D01*
X12617682Y-12894033D02*
X12741491Y-12894033D01*
X12741491Y-12894033D02*
X12674825Y-12970224D01*
X12674825Y-12970224D02*
X12703396Y-12970224D01*
X12703396Y-12970224D02*
X12722444Y-12979748D01*
X12722444Y-12979748D02*
X12731967Y-12989272D01*
X12731967Y-12989272D02*
X12741491Y-13008319D01*
X12741491Y-13008319D02*
X12741491Y-13055938D01*
X12741491Y-13055938D02*
X12731967Y-13074986D01*
X12731967Y-13074986D02*
X12722444Y-13084510D01*
X12722444Y-13084510D02*
X12703396Y-13094033D01*
X12703396Y-13094033D02*
X12646253Y-13094033D01*
X12646253Y-13094033D02*
X12627206Y-13084510D01*
X12627206Y-13084510D02*
X12617682Y-13074986D01*
X12931967Y-13094033D02*
X12817682Y-13094033D01*
X12874825Y-13094033D02*
X12874825Y-12894033D01*
X12874825Y-12894033D02*
X12855777Y-12922605D01*
X12855777Y-12922605D02*
X12836729Y-12941652D01*
X12836729Y-12941652D02*
X12817682Y-12951176D01*
X13112920Y-12894033D02*
X13017682Y-12894033D01*
X13017682Y-12894033D02*
X13008158Y-12989272D01*
X13008158Y-12989272D02*
X13017682Y-12979748D01*
X13017682Y-12979748D02*
X13036729Y-12970224D01*
X13036729Y-12970224D02*
X13084348Y-12970224D01*
X13084348Y-12970224D02*
X13103396Y-12979748D01*
X13103396Y-12979748D02*
X13112920Y-12989272D01*
X13112920Y-12989272D02*
X13122444Y-13008319D01*
X13122444Y-13008319D02*
X13122444Y-13055938D01*
X13122444Y-13055938D02*
X13112920Y-13074986D01*
X13112920Y-13074986D02*
X13103396Y-13084510D01*
X13103396Y-13084510D02*
X13084348Y-13094033D01*
X13084348Y-13094033D02*
X13036729Y-13094033D01*
X13036729Y-13094033D02*
X13017682Y-13084510D01*
X13017682Y-13084510D02*
X13008158Y-13074986D01*
X13198634Y-12894033D02*
X13198634Y-12932129D01*
X13274825Y-12894033D02*
X13274825Y-12932129D01*
X13570063Y-13170224D02*
X13560539Y-13160700D01*
X13560539Y-13160700D02*
X13541491Y-13132129D01*
X13541491Y-13132129D02*
X13531968Y-13113081D01*
X13531968Y-13113081D02*
X13522444Y-13084510D01*
X13522444Y-13084510D02*
X13512920Y-13036891D01*
X13512920Y-13036891D02*
X13512920Y-12998795D01*
X13512920Y-12998795D02*
X13522444Y-12951176D01*
X13522444Y-12951176D02*
X13531968Y-12922605D01*
X13531968Y-12922605D02*
X13541491Y-12903557D01*
X13541491Y-12903557D02*
X13560539Y-12874986D01*
X13560539Y-12874986D02*
X13570063Y-12865462D01*
X13741491Y-12894033D02*
X13646253Y-12894033D01*
X13646253Y-12894033D02*
X13636729Y-12989272D01*
X13636729Y-12989272D02*
X13646253Y-12979748D01*
X13646253Y-12979748D02*
X13665301Y-12970224D01*
X13665301Y-12970224D02*
X13712920Y-12970224D01*
X13712920Y-12970224D02*
X13731968Y-12979748D01*
X13731968Y-12979748D02*
X13741491Y-12989272D01*
X13741491Y-12989272D02*
X13751015Y-13008319D01*
X13751015Y-13008319D02*
X13751015Y-13055938D01*
X13751015Y-13055938D02*
X13741491Y-13074986D01*
X13741491Y-13074986D02*
X13731968Y-13084510D01*
X13731968Y-13084510D02*
X13712920Y-13094033D01*
X13712920Y-13094033D02*
X13665301Y-13094033D01*
X13665301Y-13094033D02*
X13646253Y-13084510D01*
X13646253Y-13084510D02*
X13636729Y-13074986D01*
X13989110Y-13094033D02*
X13989110Y-12894033D01*
X14074825Y-13094033D02*
X14074825Y-12989272D01*
X14074825Y-12989272D02*
X14065301Y-12970224D01*
X14065301Y-12970224D02*
X14046253Y-12960700D01*
X14046253Y-12960700D02*
X14017682Y-12960700D01*
X14017682Y-12960700D02*
X13998634Y-12970224D01*
X13998634Y-12970224D02*
X13989110Y-12979748D01*
X14198634Y-13094033D02*
X14179587Y-13084510D01*
X14179587Y-13084510D02*
X14170063Y-13074986D01*
X14170063Y-13074986D02*
X14160539Y-13055938D01*
X14160539Y-13055938D02*
X14160539Y-12998795D01*
X14160539Y-12998795D02*
X14170063Y-12979748D01*
X14170063Y-12979748D02*
X14179587Y-12970224D01*
X14179587Y-12970224D02*
X14198634Y-12960700D01*
X14198634Y-12960700D02*
X14227206Y-12960700D01*
X14227206Y-12960700D02*
X14246253Y-12970224D01*
X14246253Y-12970224D02*
X14255777Y-12979748D01*
X14255777Y-12979748D02*
X14265301Y-12998795D01*
X14265301Y-12998795D02*
X14265301Y-13055938D01*
X14265301Y-13055938D02*
X14255777Y-13074986D01*
X14255777Y-13074986D02*
X14246253Y-13084510D01*
X14246253Y-13084510D02*
X14227206Y-13094033D01*
X14227206Y-13094033D02*
X14198634Y-13094033D01*
X14379587Y-13094033D02*
X14360539Y-13084510D01*
X14360539Y-13084510D02*
X14351015Y-13065462D01*
X14351015Y-13065462D02*
X14351015Y-12894033D01*
X14531968Y-13084510D02*
X14512920Y-13094033D01*
X14512920Y-13094033D02*
X14474825Y-13094033D01*
X14474825Y-13094033D02*
X14455777Y-13084510D01*
X14455777Y-13084510D02*
X14446253Y-13065462D01*
X14446253Y-13065462D02*
X14446253Y-12989272D01*
X14446253Y-12989272D02*
X14455777Y-12970224D01*
X14455777Y-12970224D02*
X14474825Y-12960700D01*
X14474825Y-12960700D02*
X14512920Y-12960700D01*
X14512920Y-12960700D02*
X14531968Y-12970224D01*
X14531968Y-12970224D02*
X14541491Y-12989272D01*
X14541491Y-12989272D02*
X14541491Y-13008319D01*
X14541491Y-13008319D02*
X14446253Y-13027367D01*
X14617682Y-13084510D02*
X14636730Y-13094033D01*
X14636730Y-13094033D02*
X14674825Y-13094033D01*
X14674825Y-13094033D02*
X14693872Y-13084510D01*
X14693872Y-13084510D02*
X14703396Y-13065462D01*
X14703396Y-13065462D02*
X14703396Y-13055938D01*
X14703396Y-13055938D02*
X14693872Y-13036891D01*
X14693872Y-13036891D02*
X14674825Y-13027367D01*
X14674825Y-13027367D02*
X14646253Y-13027367D01*
X14646253Y-13027367D02*
X14627206Y-13017843D01*
X14627206Y-13017843D02*
X14617682Y-12998795D01*
X14617682Y-12998795D02*
X14617682Y-12989272D01*
X14617682Y-12989272D02*
X14627206Y-12970224D01*
X14627206Y-12970224D02*
X14646253Y-12960700D01*
X14646253Y-12960700D02*
X14674825Y-12960700D01*
X14674825Y-12960700D02*
X14693872Y-12970224D01*
X14770063Y-13170224D02*
X14779587Y-13160700D01*
X14779587Y-13160700D02*
X14798634Y-13132129D01*
X14798634Y-13132129D02*
X14808158Y-13113081D01*
X14808158Y-13113081D02*
X14817682Y-13084510D01*
X14817682Y-13084510D02*
X14827206Y-13036891D01*
X14827206Y-13036891D02*
X14827206Y-12998795D01*
X14827206Y-12998795D02*
X14817682Y-12951176D01*
X14817682Y-12951176D02*
X14808158Y-12922605D01*
X14808158Y-12922605D02*
X14798634Y-12903557D01*
X14798634Y-12903557D02*
X14779587Y-12874986D01*
X14779587Y-12874986D02*
X14770063Y-12865462D01*
X9965711Y-13337261D02*
X9965711Y-13195838D01*
X9824289Y-13195838D01*
X9824289Y-13337261D01*
X9965711Y-13337261D01*
X10246253Y-13177081D02*
X10255777Y-13167557D01*
X10255777Y-13167557D02*
X10274824Y-13158033D01*
X10274824Y-13158033D02*
X10322444Y-13158033D01*
X10322444Y-13158033D02*
X10341491Y-13167557D01*
X10341491Y-13167557D02*
X10351015Y-13177081D01*
X10351015Y-13177081D02*
X10360539Y-13196129D01*
X10360539Y-13196129D02*
X10360539Y-13215176D01*
X10360539Y-13215176D02*
X10351015Y-13243748D01*
X10351015Y-13243748D02*
X10236729Y-13358033D01*
X10236729Y-13358033D02*
X10360539Y-13358033D01*
X10446253Y-13338986D02*
X10455777Y-13348510D01*
X10455777Y-13348510D02*
X10446253Y-13358033D01*
X10446253Y-13358033D02*
X10436729Y-13348510D01*
X10436729Y-13348510D02*
X10446253Y-13338986D01*
X10446253Y-13338986D02*
X10446253Y-13358033D01*
X10531967Y-13177081D02*
X10541491Y-13167557D01*
X10541491Y-13167557D02*
X10560539Y-13158033D01*
X10560539Y-13158033D02*
X10608158Y-13158033D01*
X10608158Y-13158033D02*
X10627205Y-13167557D01*
X10627205Y-13167557D02*
X10636729Y-13177081D01*
X10636729Y-13177081D02*
X10646253Y-13196129D01*
X10646253Y-13196129D02*
X10646253Y-13215176D01*
X10646253Y-13215176D02*
X10636729Y-13243748D01*
X10636729Y-13243748D02*
X10522444Y-13358033D01*
X10522444Y-13358033D02*
X10646253Y-13358033D01*
X10770063Y-13158033D02*
X10789110Y-13158033D01*
X10789110Y-13158033D02*
X10808158Y-13167557D01*
X10808158Y-13167557D02*
X10817682Y-13177081D01*
X10817682Y-13177081D02*
X10827205Y-13196129D01*
X10827205Y-13196129D02*
X10836729Y-13234224D01*
X10836729Y-13234224D02*
X10836729Y-13281843D01*
X10836729Y-13281843D02*
X10827205Y-13319938D01*
X10827205Y-13319938D02*
X10817682Y-13338986D01*
X10817682Y-13338986D02*
X10808158Y-13348510D01*
X10808158Y-13348510D02*
X10789110Y-13358033D01*
X10789110Y-13358033D02*
X10770063Y-13358033D01*
X10770063Y-13358033D02*
X10751015Y-13348510D01*
X10751015Y-13348510D02*
X10741491Y-13338986D01*
X10741491Y-13338986D02*
X10731967Y-13319938D01*
X10731967Y-13319938D02*
X10722444Y-13281843D01*
X10722444Y-13281843D02*
X10722444Y-13234224D01*
X10722444Y-13234224D02*
X10731967Y-13196129D01*
X10731967Y-13196129D02*
X10741491Y-13177081D01*
X10741491Y-13177081D02*
X10751015Y-13167557D01*
X10751015Y-13167557D02*
X10770063Y-13158033D01*
X10960539Y-13158033D02*
X10979586Y-13158033D01*
X10979586Y-13158033D02*
X10998634Y-13167557D01*
X10998634Y-13167557D02*
X11008158Y-13177081D01*
X11008158Y-13177081D02*
X11017682Y-13196129D01*
X11017682Y-13196129D02*
X11027205Y-13234224D01*
X11027205Y-13234224D02*
X11027205Y-13281843D01*
X11027205Y-13281843D02*
X11017682Y-13319938D01*
X11017682Y-13319938D02*
X11008158Y-13338986D01*
X11008158Y-13338986D02*
X10998634Y-13348510D01*
X10998634Y-13348510D02*
X10979586Y-13358033D01*
X10979586Y-13358033D02*
X10960539Y-13358033D01*
X10960539Y-13358033D02*
X10941491Y-13348510D01*
X10941491Y-13348510D02*
X10931967Y-13338986D01*
X10931967Y-13338986D02*
X10922444Y-13319938D01*
X10922444Y-13319938D02*
X10912920Y-13281843D01*
X10912920Y-13281843D02*
X10912920Y-13234224D01*
X10912920Y-13234224D02*
X10922444Y-13196129D01*
X10922444Y-13196129D02*
X10931967Y-13177081D01*
X10931967Y-13177081D02*
X10941491Y-13167557D01*
X10941491Y-13167557D02*
X10960539Y-13158033D01*
X11112920Y-13358033D02*
X11112920Y-13224700D01*
X11112920Y-13243748D02*
X11122444Y-13234224D01*
X11122444Y-13234224D02*
X11141491Y-13224700D01*
X11141491Y-13224700D02*
X11170063Y-13224700D01*
X11170063Y-13224700D02*
X11189110Y-13234224D01*
X11189110Y-13234224D02*
X11198634Y-13253272D01*
X11198634Y-13253272D02*
X11198634Y-13358033D01*
X11198634Y-13253272D02*
X11208158Y-13234224D01*
X11208158Y-13234224D02*
X11227205Y-13224700D01*
X11227205Y-13224700D02*
X11255777Y-13224700D01*
X11255777Y-13224700D02*
X11274824Y-13234224D01*
X11274824Y-13234224D02*
X11284348Y-13253272D01*
X11284348Y-13253272D02*
X11284348Y-13358033D01*
X11379586Y-13358033D02*
X11379586Y-13224700D01*
X11379586Y-13243748D02*
X11389110Y-13234224D01*
X11389110Y-13234224D02*
X11408158Y-13224700D01*
X11408158Y-13224700D02*
X11436729Y-13224700D01*
X11436729Y-13224700D02*
X11455777Y-13234224D01*
X11455777Y-13234224D02*
X11465301Y-13253272D01*
X11465301Y-13253272D02*
X11465301Y-13358033D01*
X11465301Y-13253272D02*
X11474824Y-13234224D01*
X11474824Y-13234224D02*
X11493872Y-13224700D01*
X11493872Y-13224700D02*
X11522443Y-13224700D01*
X11522443Y-13224700D02*
X11541491Y-13234224D01*
X11541491Y-13234224D02*
X11551015Y-13253272D01*
X11551015Y-13253272D02*
X11551015Y-13358033D01*
X11941491Y-13148510D02*
X11770063Y-13405652D01*
X12198634Y-13158033D02*
X12217682Y-13158033D01*
X12217682Y-13158033D02*
X12236729Y-13167557D01*
X12236729Y-13167557D02*
X12246253Y-13177081D01*
X12246253Y-13177081D02*
X12255777Y-13196129D01*
X12255777Y-13196129D02*
X12265301Y-13234224D01*
X12265301Y-13234224D02*
X12265301Y-13281843D01*
X12265301Y-13281843D02*
X12255777Y-13319938D01*
X12255777Y-13319938D02*
X12246253Y-13338986D01*
X12246253Y-13338986D02*
X12236729Y-13348510D01*
X12236729Y-13348510D02*
X12217682Y-13358033D01*
X12217682Y-13358033D02*
X12198634Y-13358033D01*
X12198634Y-13358033D02*
X12179586Y-13348510D01*
X12179586Y-13348510D02*
X12170063Y-13338986D01*
X12170063Y-13338986D02*
X12160539Y-13319938D01*
X12160539Y-13319938D02*
X12151015Y-13281843D01*
X12151015Y-13281843D02*
X12151015Y-13234224D01*
X12151015Y-13234224D02*
X12160539Y-13196129D01*
X12160539Y-13196129D02*
X12170063Y-13177081D01*
X12170063Y-13177081D02*
X12179586Y-13167557D01*
X12179586Y-13167557D02*
X12198634Y-13158033D01*
X12351015Y-13338986D02*
X12360539Y-13348510D01*
X12360539Y-13348510D02*
X12351015Y-13358033D01*
X12351015Y-13358033D02*
X12341491Y-13348510D01*
X12341491Y-13348510D02*
X12351015Y-13338986D01*
X12351015Y-13338986D02*
X12351015Y-13358033D01*
X12484348Y-13158033D02*
X12503396Y-13158033D01*
X12503396Y-13158033D02*
X12522444Y-13167557D01*
X12522444Y-13167557D02*
X12531967Y-13177081D01*
X12531967Y-13177081D02*
X12541491Y-13196129D01*
X12541491Y-13196129D02*
X12551015Y-13234224D01*
X12551015Y-13234224D02*
X12551015Y-13281843D01*
X12551015Y-13281843D02*
X12541491Y-13319938D01*
X12541491Y-13319938D02*
X12531967Y-13338986D01*
X12531967Y-13338986D02*
X12522444Y-13348510D01*
X12522444Y-13348510D02*
X12503396Y-13358033D01*
X12503396Y-13358033D02*
X12484348Y-13358033D01*
X12484348Y-13358033D02*
X12465301Y-13348510D01*
X12465301Y-13348510D02*
X12455777Y-13338986D01*
X12455777Y-13338986D02*
X12446253Y-13319938D01*
X12446253Y-13319938D02*
X12436729Y-13281843D01*
X12436729Y-13281843D02*
X12436729Y-13234224D01*
X12436729Y-13234224D02*
X12446253Y-13196129D01*
X12446253Y-13196129D02*
X12455777Y-13177081D01*
X12455777Y-13177081D02*
X12465301Y-13167557D01*
X12465301Y-13167557D02*
X12484348Y-13158033D01*
X12665301Y-13243748D02*
X12646253Y-13234224D01*
X12646253Y-13234224D02*
X12636729Y-13224700D01*
X12636729Y-13224700D02*
X12627206Y-13205652D01*
X12627206Y-13205652D02*
X12627206Y-13196129D01*
X12627206Y-13196129D02*
X12636729Y-13177081D01*
X12636729Y-13177081D02*
X12646253Y-13167557D01*
X12646253Y-13167557D02*
X12665301Y-13158033D01*
X12665301Y-13158033D02*
X12703396Y-13158033D01*
X12703396Y-13158033D02*
X12722444Y-13167557D01*
X12722444Y-13167557D02*
X12731967Y-13177081D01*
X12731967Y-13177081D02*
X12741491Y-13196129D01*
X12741491Y-13196129D02*
X12741491Y-13205652D01*
X12741491Y-13205652D02*
X12731967Y-13224700D01*
X12731967Y-13224700D02*
X12722444Y-13234224D01*
X12722444Y-13234224D02*
X12703396Y-13243748D01*
X12703396Y-13243748D02*
X12665301Y-13243748D01*
X12665301Y-13243748D02*
X12646253Y-13253272D01*
X12646253Y-13253272D02*
X12636729Y-13262795D01*
X12636729Y-13262795D02*
X12627206Y-13281843D01*
X12627206Y-13281843D02*
X12627206Y-13319938D01*
X12627206Y-13319938D02*
X12636729Y-13338986D01*
X12636729Y-13338986D02*
X12646253Y-13348510D01*
X12646253Y-13348510D02*
X12665301Y-13358033D01*
X12665301Y-13358033D02*
X12703396Y-13358033D01*
X12703396Y-13358033D02*
X12722444Y-13348510D01*
X12722444Y-13348510D02*
X12731967Y-13338986D01*
X12731967Y-13338986D02*
X12741491Y-13319938D01*
X12741491Y-13319938D02*
X12741491Y-13281843D01*
X12741491Y-13281843D02*
X12731967Y-13262795D01*
X12731967Y-13262795D02*
X12722444Y-13253272D01*
X12722444Y-13253272D02*
X12703396Y-13243748D01*
X12912920Y-13158033D02*
X12874825Y-13158033D01*
X12874825Y-13158033D02*
X12855777Y-13167557D01*
X12855777Y-13167557D02*
X12846253Y-13177081D01*
X12846253Y-13177081D02*
X12827206Y-13205652D01*
X12827206Y-13205652D02*
X12817682Y-13243748D01*
X12817682Y-13243748D02*
X12817682Y-13319938D01*
X12817682Y-13319938D02*
X12827206Y-13338986D01*
X12827206Y-13338986D02*
X12836729Y-13348510D01*
X12836729Y-13348510D02*
X12855777Y-13358033D01*
X12855777Y-13358033D02*
X12893872Y-13358033D01*
X12893872Y-13358033D02*
X12912920Y-13348510D01*
X12912920Y-13348510D02*
X12922444Y-13338986D01*
X12922444Y-13338986D02*
X12931967Y-13319938D01*
X12931967Y-13319938D02*
X12931967Y-13272319D01*
X12931967Y-13272319D02*
X12922444Y-13253272D01*
X12922444Y-13253272D02*
X12912920Y-13243748D01*
X12912920Y-13243748D02*
X12893872Y-13234224D01*
X12893872Y-13234224D02*
X12855777Y-13234224D01*
X12855777Y-13234224D02*
X12836729Y-13243748D01*
X12836729Y-13243748D02*
X12827206Y-13253272D01*
X12827206Y-13253272D02*
X12817682Y-13272319D01*
X13103396Y-13158033D02*
X13065301Y-13158033D01*
X13065301Y-13158033D02*
X13046253Y-13167557D01*
X13046253Y-13167557D02*
X13036729Y-13177081D01*
X13036729Y-13177081D02*
X13017682Y-13205652D01*
X13017682Y-13205652D02*
X13008158Y-13243748D01*
X13008158Y-13243748D02*
X13008158Y-13319938D01*
X13008158Y-13319938D02*
X13017682Y-13338986D01*
X13017682Y-13338986D02*
X13027206Y-13348510D01*
X13027206Y-13348510D02*
X13046253Y-13358033D01*
X13046253Y-13358033D02*
X13084348Y-13358033D01*
X13084348Y-13358033D02*
X13103396Y-13348510D01*
X13103396Y-13348510D02*
X13112920Y-13338986D01*
X13112920Y-13338986D02*
X13122444Y-13319938D01*
X13122444Y-13319938D02*
X13122444Y-13272319D01*
X13122444Y-13272319D02*
X13112920Y-13253272D01*
X13112920Y-13253272D02*
X13103396Y-13243748D01*
X13103396Y-13243748D02*
X13084348Y-13234224D01*
X13084348Y-13234224D02*
X13046253Y-13234224D01*
X13046253Y-13234224D02*
X13027206Y-13243748D01*
X13027206Y-13243748D02*
X13017682Y-13253272D01*
X13017682Y-13253272D02*
X13008158Y-13272319D01*
X13198634Y-13158033D02*
X13198634Y-13196129D01*
X13274825Y-13158033D02*
X13274825Y-13196129D01*
X13570063Y-13434224D02*
X13560539Y-13424700D01*
X13560539Y-13424700D02*
X13541491Y-13396129D01*
X13541491Y-13396129D02*
X13531968Y-13377081D01*
X13531968Y-13377081D02*
X13522444Y-13348510D01*
X13522444Y-13348510D02*
X13512920Y-13300891D01*
X13512920Y-13300891D02*
X13512920Y-13262795D01*
X13512920Y-13262795D02*
X13522444Y-13215176D01*
X13522444Y-13215176D02*
X13531968Y-13186605D01*
X13531968Y-13186605D02*
X13541491Y-13167557D01*
X13541491Y-13167557D02*
X13560539Y-13138986D01*
X13560539Y-13138986D02*
X13570063Y-13129462D01*
X13636729Y-13177081D02*
X13646253Y-13167557D01*
X13646253Y-13167557D02*
X13665301Y-13158033D01*
X13665301Y-13158033D02*
X13712920Y-13158033D01*
X13712920Y-13158033D02*
X13731968Y-13167557D01*
X13731968Y-13167557D02*
X13741491Y-13177081D01*
X13741491Y-13177081D02*
X13751015Y-13196129D01*
X13751015Y-13196129D02*
X13751015Y-13215176D01*
X13751015Y-13215176D02*
X13741491Y-13243748D01*
X13741491Y-13243748D02*
X13627206Y-13358033D01*
X13627206Y-13358033D02*
X13751015Y-13358033D01*
X13989110Y-13358033D02*
X13989110Y-13158033D01*
X14074825Y-13358033D02*
X14074825Y-13253272D01*
X14074825Y-13253272D02*
X14065301Y-13234224D01*
X14065301Y-13234224D02*
X14046253Y-13224700D01*
X14046253Y-13224700D02*
X14017682Y-13224700D01*
X14017682Y-13224700D02*
X13998634Y-13234224D01*
X13998634Y-13234224D02*
X13989110Y-13243748D01*
X14198634Y-13358033D02*
X14179587Y-13348510D01*
X14179587Y-13348510D02*
X14170063Y-13338986D01*
X14170063Y-13338986D02*
X14160539Y-13319938D01*
X14160539Y-13319938D02*
X14160539Y-13262795D01*
X14160539Y-13262795D02*
X14170063Y-13243748D01*
X14170063Y-13243748D02*
X14179587Y-13234224D01*
X14179587Y-13234224D02*
X14198634Y-13224700D01*
X14198634Y-13224700D02*
X14227206Y-13224700D01*
X14227206Y-13224700D02*
X14246253Y-13234224D01*
X14246253Y-13234224D02*
X14255777Y-13243748D01*
X14255777Y-13243748D02*
X14265301Y-13262795D01*
X14265301Y-13262795D02*
X14265301Y-13319938D01*
X14265301Y-13319938D02*
X14255777Y-13338986D01*
X14255777Y-13338986D02*
X14246253Y-13348510D01*
X14246253Y-13348510D02*
X14227206Y-13358033D01*
X14227206Y-13358033D02*
X14198634Y-13358033D01*
X14379587Y-13358033D02*
X14360539Y-13348510D01*
X14360539Y-13348510D02*
X14351015Y-13329462D01*
X14351015Y-13329462D02*
X14351015Y-13158033D01*
X14531968Y-13348510D02*
X14512920Y-13358033D01*
X14512920Y-13358033D02*
X14474825Y-13358033D01*
X14474825Y-13358033D02*
X14455777Y-13348510D01*
X14455777Y-13348510D02*
X14446253Y-13329462D01*
X14446253Y-13329462D02*
X14446253Y-13253272D01*
X14446253Y-13253272D02*
X14455777Y-13234224D01*
X14455777Y-13234224D02*
X14474825Y-13224700D01*
X14474825Y-13224700D02*
X14512920Y-13224700D01*
X14512920Y-13224700D02*
X14531968Y-13234224D01*
X14531968Y-13234224D02*
X14541491Y-13253272D01*
X14541491Y-13253272D02*
X14541491Y-13272319D01*
X14541491Y-13272319D02*
X14446253Y-13291367D01*
X14617682Y-13348510D02*
X14636730Y-13358033D01*
X14636730Y-13358033D02*
X14674825Y-13358033D01*
X14674825Y-13358033D02*
X14693872Y-13348510D01*
X14693872Y-13348510D02*
X14703396Y-13329462D01*
X14703396Y-13329462D02*
X14703396Y-13319938D01*
X14703396Y-13319938D02*
X14693872Y-13300891D01*
X14693872Y-13300891D02*
X14674825Y-13291367D01*
X14674825Y-13291367D02*
X14646253Y-13291367D01*
X14646253Y-13291367D02*
X14627206Y-13281843D01*
X14627206Y-13281843D02*
X14617682Y-13262795D01*
X14617682Y-13262795D02*
X14617682Y-13253272D01*
X14617682Y-13253272D02*
X14627206Y-13234224D01*
X14627206Y-13234224D02*
X14646253Y-13224700D01*
X14646253Y-13224700D02*
X14674825Y-13224700D01*
X14674825Y-13224700D02*
X14693872Y-13234224D01*
X14770063Y-13434224D02*
X14779587Y-13424700D01*
X14779587Y-13424700D02*
X14798634Y-13396129D01*
X14798634Y-13396129D02*
X14808158Y-13377081D01*
X14808158Y-13377081D02*
X14817682Y-13348510D01*
X14817682Y-13348510D02*
X14827206Y-13300891D01*
X14827206Y-13300891D02*
X14827206Y-13262795D01*
X14827206Y-13262795D02*
X14817682Y-13215176D01*
X14817682Y-13215176D02*
X14808158Y-13186605D01*
X14808158Y-13186605D02*
X14798634Y-13167557D01*
X14798634Y-13167557D02*
X14779587Y-13138986D01*
X14779587Y-13138986D02*
X14770063Y-13129462D01*
X9895000Y-13686550D02*
X9995000Y-13586550D01*
X9895000Y-13486550D01*
X9795000Y-13586550D01*
X9895000Y-13686550D01*
X10236729Y-13478033D02*
X10360539Y-13478033D01*
X10360539Y-13478033D02*
X10293872Y-13554224D01*
X10293872Y-13554224D02*
X10322444Y-13554224D01*
X10322444Y-13554224D02*
X10341491Y-13563748D01*
X10341491Y-13563748D02*
X10351015Y-13573272D01*
X10351015Y-13573272D02*
X10360539Y-13592319D01*
X10360539Y-13592319D02*
X10360539Y-13639938D01*
X10360539Y-13639938D02*
X10351015Y-13658986D01*
X10351015Y-13658986D02*
X10341491Y-13668510D01*
X10341491Y-13668510D02*
X10322444Y-13678033D01*
X10322444Y-13678033D02*
X10265301Y-13678033D01*
X10265301Y-13678033D02*
X10246253Y-13668510D01*
X10246253Y-13668510D02*
X10236729Y-13658986D01*
X10446253Y-13658986D02*
X10455777Y-13668510D01*
X10455777Y-13668510D02*
X10446253Y-13678033D01*
X10446253Y-13678033D02*
X10436729Y-13668510D01*
X10436729Y-13668510D02*
X10446253Y-13658986D01*
X10446253Y-13658986D02*
X10446253Y-13678033D01*
X10531967Y-13497081D02*
X10541491Y-13487557D01*
X10541491Y-13487557D02*
X10560539Y-13478033D01*
X10560539Y-13478033D02*
X10608158Y-13478033D01*
X10608158Y-13478033D02*
X10627205Y-13487557D01*
X10627205Y-13487557D02*
X10636729Y-13497081D01*
X10636729Y-13497081D02*
X10646253Y-13516129D01*
X10646253Y-13516129D02*
X10646253Y-13535176D01*
X10646253Y-13535176D02*
X10636729Y-13563748D01*
X10636729Y-13563748D02*
X10522444Y-13678033D01*
X10522444Y-13678033D02*
X10646253Y-13678033D01*
X10770063Y-13478033D02*
X10789110Y-13478033D01*
X10789110Y-13478033D02*
X10808158Y-13487557D01*
X10808158Y-13487557D02*
X10817682Y-13497081D01*
X10817682Y-13497081D02*
X10827205Y-13516129D01*
X10827205Y-13516129D02*
X10836729Y-13554224D01*
X10836729Y-13554224D02*
X10836729Y-13601843D01*
X10836729Y-13601843D02*
X10827205Y-13639938D01*
X10827205Y-13639938D02*
X10817682Y-13658986D01*
X10817682Y-13658986D02*
X10808158Y-13668510D01*
X10808158Y-13668510D02*
X10789110Y-13678033D01*
X10789110Y-13678033D02*
X10770063Y-13678033D01*
X10770063Y-13678033D02*
X10751015Y-13668510D01*
X10751015Y-13668510D02*
X10741491Y-13658986D01*
X10741491Y-13658986D02*
X10731967Y-13639938D01*
X10731967Y-13639938D02*
X10722444Y-13601843D01*
X10722444Y-13601843D02*
X10722444Y-13554224D01*
X10722444Y-13554224D02*
X10731967Y-13516129D01*
X10731967Y-13516129D02*
X10741491Y-13497081D01*
X10741491Y-13497081D02*
X10751015Y-13487557D01*
X10751015Y-13487557D02*
X10770063Y-13478033D01*
X10960539Y-13478033D02*
X10979586Y-13478033D01*
X10979586Y-13478033D02*
X10998634Y-13487557D01*
X10998634Y-13487557D02*
X11008158Y-13497081D01*
X11008158Y-13497081D02*
X11017682Y-13516129D01*
X11017682Y-13516129D02*
X11027205Y-13554224D01*
X11027205Y-13554224D02*
X11027205Y-13601843D01*
X11027205Y-13601843D02*
X11017682Y-13639938D01*
X11017682Y-13639938D02*
X11008158Y-13658986D01*
X11008158Y-13658986D02*
X10998634Y-13668510D01*
X10998634Y-13668510D02*
X10979586Y-13678033D01*
X10979586Y-13678033D02*
X10960539Y-13678033D01*
X10960539Y-13678033D02*
X10941491Y-13668510D01*
X10941491Y-13668510D02*
X10931967Y-13658986D01*
X10931967Y-13658986D02*
X10922444Y-13639938D01*
X10922444Y-13639938D02*
X10912920Y-13601843D01*
X10912920Y-13601843D02*
X10912920Y-13554224D01*
X10912920Y-13554224D02*
X10922444Y-13516129D01*
X10922444Y-13516129D02*
X10931967Y-13497081D01*
X10931967Y-13497081D02*
X10941491Y-13487557D01*
X10941491Y-13487557D02*
X10960539Y-13478033D01*
X11112920Y-13678033D02*
X11112920Y-13544700D01*
X11112920Y-13563748D02*
X11122444Y-13554224D01*
X11122444Y-13554224D02*
X11141491Y-13544700D01*
X11141491Y-13544700D02*
X11170063Y-13544700D01*
X11170063Y-13544700D02*
X11189110Y-13554224D01*
X11189110Y-13554224D02*
X11198634Y-13573272D01*
X11198634Y-13573272D02*
X11198634Y-13678033D01*
X11198634Y-13573272D02*
X11208158Y-13554224D01*
X11208158Y-13554224D02*
X11227205Y-13544700D01*
X11227205Y-13544700D02*
X11255777Y-13544700D01*
X11255777Y-13544700D02*
X11274824Y-13554224D01*
X11274824Y-13554224D02*
X11284348Y-13573272D01*
X11284348Y-13573272D02*
X11284348Y-13678033D01*
X11379586Y-13678033D02*
X11379586Y-13544700D01*
X11379586Y-13563748D02*
X11389110Y-13554224D01*
X11389110Y-13554224D02*
X11408158Y-13544700D01*
X11408158Y-13544700D02*
X11436729Y-13544700D01*
X11436729Y-13544700D02*
X11455777Y-13554224D01*
X11455777Y-13554224D02*
X11465301Y-13573272D01*
X11465301Y-13573272D02*
X11465301Y-13678033D01*
X11465301Y-13573272D02*
X11474824Y-13554224D01*
X11474824Y-13554224D02*
X11493872Y-13544700D01*
X11493872Y-13544700D02*
X11522443Y-13544700D01*
X11522443Y-13544700D02*
X11541491Y-13554224D01*
X11541491Y-13554224D02*
X11551015Y-13573272D01*
X11551015Y-13573272D02*
X11551015Y-13678033D01*
X11941491Y-13468510D02*
X11770063Y-13725652D01*
X12198634Y-13478033D02*
X12217682Y-13478033D01*
X12217682Y-13478033D02*
X12236729Y-13487557D01*
X12236729Y-13487557D02*
X12246253Y-13497081D01*
X12246253Y-13497081D02*
X12255777Y-13516129D01*
X12255777Y-13516129D02*
X12265301Y-13554224D01*
X12265301Y-13554224D02*
X12265301Y-13601843D01*
X12265301Y-13601843D02*
X12255777Y-13639938D01*
X12255777Y-13639938D02*
X12246253Y-13658986D01*
X12246253Y-13658986D02*
X12236729Y-13668510D01*
X12236729Y-13668510D02*
X12217682Y-13678033D01*
X12217682Y-13678033D02*
X12198634Y-13678033D01*
X12198634Y-13678033D02*
X12179586Y-13668510D01*
X12179586Y-13668510D02*
X12170063Y-13658986D01*
X12170063Y-13658986D02*
X12160539Y-13639938D01*
X12160539Y-13639938D02*
X12151015Y-13601843D01*
X12151015Y-13601843D02*
X12151015Y-13554224D01*
X12151015Y-13554224D02*
X12160539Y-13516129D01*
X12160539Y-13516129D02*
X12170063Y-13497081D01*
X12170063Y-13497081D02*
X12179586Y-13487557D01*
X12179586Y-13487557D02*
X12198634Y-13478033D01*
X12351015Y-13658986D02*
X12360539Y-13668510D01*
X12360539Y-13668510D02*
X12351015Y-13678033D01*
X12351015Y-13678033D02*
X12341491Y-13668510D01*
X12341491Y-13668510D02*
X12351015Y-13658986D01*
X12351015Y-13658986D02*
X12351015Y-13678033D01*
X12551015Y-13678033D02*
X12436729Y-13678033D01*
X12493872Y-13678033D02*
X12493872Y-13478033D01*
X12493872Y-13478033D02*
X12474825Y-13506605D01*
X12474825Y-13506605D02*
X12455777Y-13525652D01*
X12455777Y-13525652D02*
X12436729Y-13535176D01*
X12627206Y-13497081D02*
X12636729Y-13487557D01*
X12636729Y-13487557D02*
X12655777Y-13478033D01*
X12655777Y-13478033D02*
X12703396Y-13478033D01*
X12703396Y-13478033D02*
X12722444Y-13487557D01*
X12722444Y-13487557D02*
X12731967Y-13497081D01*
X12731967Y-13497081D02*
X12741491Y-13516129D01*
X12741491Y-13516129D02*
X12741491Y-13535176D01*
X12741491Y-13535176D02*
X12731967Y-13563748D01*
X12731967Y-13563748D02*
X12617682Y-13678033D01*
X12617682Y-13678033D02*
X12741491Y-13678033D01*
X12912920Y-13478033D02*
X12874825Y-13478033D01*
X12874825Y-13478033D02*
X12855777Y-13487557D01*
X12855777Y-13487557D02*
X12846253Y-13497081D01*
X12846253Y-13497081D02*
X12827206Y-13525652D01*
X12827206Y-13525652D02*
X12817682Y-13563748D01*
X12817682Y-13563748D02*
X12817682Y-13639938D01*
X12817682Y-13639938D02*
X12827206Y-13658986D01*
X12827206Y-13658986D02*
X12836729Y-13668510D01*
X12836729Y-13668510D02*
X12855777Y-13678033D01*
X12855777Y-13678033D02*
X12893872Y-13678033D01*
X12893872Y-13678033D02*
X12912920Y-13668510D01*
X12912920Y-13668510D02*
X12922444Y-13658986D01*
X12922444Y-13658986D02*
X12931967Y-13639938D01*
X12931967Y-13639938D02*
X12931967Y-13592319D01*
X12931967Y-13592319D02*
X12922444Y-13573272D01*
X12922444Y-13573272D02*
X12912920Y-13563748D01*
X12912920Y-13563748D02*
X12893872Y-13554224D01*
X12893872Y-13554224D02*
X12855777Y-13554224D01*
X12855777Y-13554224D02*
X12836729Y-13563748D01*
X12836729Y-13563748D02*
X12827206Y-13573272D01*
X12827206Y-13573272D02*
X12817682Y-13592319D01*
X13055777Y-13478033D02*
X13074825Y-13478033D01*
X13074825Y-13478033D02*
X13093872Y-13487557D01*
X13093872Y-13487557D02*
X13103396Y-13497081D01*
X13103396Y-13497081D02*
X13112920Y-13516129D01*
X13112920Y-13516129D02*
X13122444Y-13554224D01*
X13122444Y-13554224D02*
X13122444Y-13601843D01*
X13122444Y-13601843D02*
X13112920Y-13639938D01*
X13112920Y-13639938D02*
X13103396Y-13658986D01*
X13103396Y-13658986D02*
X13093872Y-13668510D01*
X13093872Y-13668510D02*
X13074825Y-13678033D01*
X13074825Y-13678033D02*
X13055777Y-13678033D01*
X13055777Y-13678033D02*
X13036729Y-13668510D01*
X13036729Y-13668510D02*
X13027206Y-13658986D01*
X13027206Y-13658986D02*
X13017682Y-13639938D01*
X13017682Y-13639938D02*
X13008158Y-13601843D01*
X13008158Y-13601843D02*
X13008158Y-13554224D01*
X13008158Y-13554224D02*
X13017682Y-13516129D01*
X13017682Y-13516129D02*
X13027206Y-13497081D01*
X13027206Y-13497081D02*
X13036729Y-13487557D01*
X13036729Y-13487557D02*
X13055777Y-13478033D01*
X13198634Y-13478033D02*
X13198634Y-13516129D01*
X13274825Y-13478033D02*
X13274825Y-13516129D01*
X13570063Y-13754224D02*
X13560539Y-13744700D01*
X13560539Y-13744700D02*
X13541491Y-13716129D01*
X13541491Y-13716129D02*
X13531968Y-13697081D01*
X13531968Y-13697081D02*
X13522444Y-13668510D01*
X13522444Y-13668510D02*
X13512920Y-13620891D01*
X13512920Y-13620891D02*
X13512920Y-13582795D01*
X13512920Y-13582795D02*
X13522444Y-13535176D01*
X13522444Y-13535176D02*
X13531968Y-13506605D01*
X13531968Y-13506605D02*
X13541491Y-13487557D01*
X13541491Y-13487557D02*
X13560539Y-13458986D01*
X13560539Y-13458986D02*
X13570063Y-13449462D01*
X13636729Y-13497081D02*
X13646253Y-13487557D01*
X13646253Y-13487557D02*
X13665301Y-13478033D01*
X13665301Y-13478033D02*
X13712920Y-13478033D01*
X13712920Y-13478033D02*
X13731968Y-13487557D01*
X13731968Y-13487557D02*
X13741491Y-13497081D01*
X13741491Y-13497081D02*
X13751015Y-13516129D01*
X13751015Y-13516129D02*
X13751015Y-13535176D01*
X13751015Y-13535176D02*
X13741491Y-13563748D01*
X13741491Y-13563748D02*
X13627206Y-13678033D01*
X13627206Y-13678033D02*
X13751015Y-13678033D01*
X13989110Y-13678033D02*
X13989110Y-13478033D01*
X14074825Y-13678033D02*
X14074825Y-13573272D01*
X14074825Y-13573272D02*
X14065301Y-13554224D01*
X14065301Y-13554224D02*
X14046253Y-13544700D01*
X14046253Y-13544700D02*
X14017682Y-13544700D01*
X14017682Y-13544700D02*
X13998634Y-13554224D01*
X13998634Y-13554224D02*
X13989110Y-13563748D01*
X14198634Y-13678033D02*
X14179587Y-13668510D01*
X14179587Y-13668510D02*
X14170063Y-13658986D01*
X14170063Y-13658986D02*
X14160539Y-13639938D01*
X14160539Y-13639938D02*
X14160539Y-13582795D01*
X14160539Y-13582795D02*
X14170063Y-13563748D01*
X14170063Y-13563748D02*
X14179587Y-13554224D01*
X14179587Y-13554224D02*
X14198634Y-13544700D01*
X14198634Y-13544700D02*
X14227206Y-13544700D01*
X14227206Y-13544700D02*
X14246253Y-13554224D01*
X14246253Y-13554224D02*
X14255777Y-13563748D01*
X14255777Y-13563748D02*
X14265301Y-13582795D01*
X14265301Y-13582795D02*
X14265301Y-13639938D01*
X14265301Y-13639938D02*
X14255777Y-13658986D01*
X14255777Y-13658986D02*
X14246253Y-13668510D01*
X14246253Y-13668510D02*
X14227206Y-13678033D01*
X14227206Y-13678033D02*
X14198634Y-13678033D01*
X14379587Y-13678033D02*
X14360539Y-13668510D01*
X14360539Y-13668510D02*
X14351015Y-13649462D01*
X14351015Y-13649462D02*
X14351015Y-13478033D01*
X14531968Y-13668510D02*
X14512920Y-13678033D01*
X14512920Y-13678033D02*
X14474825Y-13678033D01*
X14474825Y-13678033D02*
X14455777Y-13668510D01*
X14455777Y-13668510D02*
X14446253Y-13649462D01*
X14446253Y-13649462D02*
X14446253Y-13573272D01*
X14446253Y-13573272D02*
X14455777Y-13554224D01*
X14455777Y-13554224D02*
X14474825Y-13544700D01*
X14474825Y-13544700D02*
X14512920Y-13544700D01*
X14512920Y-13544700D02*
X14531968Y-13554224D01*
X14531968Y-13554224D02*
X14541491Y-13573272D01*
X14541491Y-13573272D02*
X14541491Y-13592319D01*
X14541491Y-13592319D02*
X14446253Y-13611367D01*
X14617682Y-13668510D02*
X14636730Y-13678033D01*
X14636730Y-13678033D02*
X14674825Y-13678033D01*
X14674825Y-13678033D02*
X14693872Y-13668510D01*
X14693872Y-13668510D02*
X14703396Y-13649462D01*
X14703396Y-13649462D02*
X14703396Y-13639938D01*
X14703396Y-13639938D02*
X14693872Y-13620891D01*
X14693872Y-13620891D02*
X14674825Y-13611367D01*
X14674825Y-13611367D02*
X14646253Y-13611367D01*
X14646253Y-13611367D02*
X14627206Y-13601843D01*
X14627206Y-13601843D02*
X14617682Y-13582795D01*
X14617682Y-13582795D02*
X14617682Y-13573272D01*
X14617682Y-13573272D02*
X14627206Y-13554224D01*
X14627206Y-13554224D02*
X14646253Y-13544700D01*
X14646253Y-13544700D02*
X14674825Y-13544700D01*
X14674825Y-13544700D02*
X14693872Y-13554224D01*
X14770063Y-13754224D02*
X14779587Y-13744700D01*
X14779587Y-13744700D02*
X14798634Y-13716129D01*
X14798634Y-13716129D02*
X14808158Y-13697081D01*
X14808158Y-13697081D02*
X14817682Y-13668510D01*
X14817682Y-13668510D02*
X14827206Y-13620891D01*
X14827206Y-13620891D02*
X14827206Y-13582795D01*
X14827206Y-13582795D02*
X14817682Y-13535176D01*
X14817682Y-13535176D02*
X14808158Y-13506605D01*
X14808158Y-13506605D02*
X14798634Y-13487557D01*
X14798634Y-13487557D02*
X14779587Y-13458986D01*
X14779587Y-13458986D02*
X14770063Y-13449462D01*
M02*
