%TF.GenerationSoftware,KiCad,Pcbnew,8.0.1*%
%TF.CreationDate,2024-04-29T19:49:41-05:00*%
%TF.ProjectId,LED_Hexpansion_v2,4c45445f-4865-4787-9061-6e73696f6e5f,rev?*%
%TF.SameCoordinates,Original*%
%TF.FileFunction,Drillmap*%
%TF.FilePolarity,Positive*%
%FSLAX45Y45*%
G04 Gerber Fmt 4.5, Leading zero omitted, Abs format (unit mm)*
G04 Created by KiCad (PCBNEW 8.0.1) date 2024-04-29 19:49:41*
%MOMM*%
%LPD*%
G01*
G04 APERTURE LIST*
%ADD10C,0.050000*%
%ADD11C,0.100000*%
%ADD12C,0.200000*%
G04 APERTURE END LIST*
D10*
X10050000Y-9047373D02*
X11549999Y-8181347D01*
X13149999Y-9047373D02*
G75*
G02*
X13199995Y-9133975I-49999J-86597D01*
G01*
D11*
X10025000Y-9400000D02*
G75*
G02*
X10000000Y-9375000I0J25000D01*
G01*
D10*
X11549999Y-8181347D02*
G75*
G02*
X11649999Y-8181347I50000J-86602D01*
G01*
X10050000Y-10952627D02*
X11549999Y-11818652D01*
X13199999Y-9133975D02*
X13199999Y-10866024D01*
X10000000Y-9375000D02*
X10000000Y-9133975D01*
X10000000Y-9133975D02*
G75*
G02*
X10050002Y-9047376I100000J-5D01*
G01*
X10000000Y-10625000D02*
X10000000Y-10866024D01*
X11649999Y-8181347D02*
X13149999Y-9047373D01*
D11*
X10000000Y-10625000D02*
G75*
G02*
X10025000Y-10600000I25000J0D01*
G01*
D10*
X10050000Y-10952627D02*
G75*
G02*
X9999996Y-10866024I50000J86607D01*
G01*
X13199999Y-10866024D02*
G75*
G02*
X13149997Y-10952623I-99999J4D01*
G01*
X11649999Y-11818652D02*
G75*
G02*
X11549999Y-11818652I-50000J86602D01*
G01*
X11649999Y-11818652D02*
X13149999Y-10952627D01*
X9825000Y-10440000D02*
X9825000Y-9560000D01*
X10450000Y-9400000D02*
X10025000Y-9400000D01*
X10450000Y-9540000D02*
X9845000Y-9540000D01*
X10450000Y-10460000D02*
X9845000Y-10460000D01*
X10450000Y-10600000D02*
X10025000Y-10600000D01*
X9825000Y-9560000D02*
G75*
G02*
X9845000Y-9540000I20000J0D01*
G01*
X9845000Y-10460000D02*
G75*
G02*
X9825000Y-10440000I0J20000D01*
G01*
X10450000Y-9400000D02*
G75*
G02*
X10520000Y-9470000I0J-70000D01*
G01*
X10450000Y-10460000D02*
G75*
G02*
X10520000Y-10530000I0J-70000D01*
G01*
X10520000Y-9470000D02*
G75*
G02*
X10450000Y-9540000I-70000J0D01*
G01*
X10520000Y-10530000D02*
G75*
G02*
X10450000Y-10600000I-70000J0D01*
G01*
D12*
X10255777Y-12146033D02*
X10255777Y-11946033D01*
X10255777Y-11946033D02*
X10303396Y-11946033D01*
X10303396Y-11946033D02*
X10331967Y-11955557D01*
X10331967Y-11955557D02*
X10351015Y-11974605D01*
X10351015Y-11974605D02*
X10360539Y-11993652D01*
X10360539Y-11993652D02*
X10370063Y-12031748D01*
X10370063Y-12031748D02*
X10370063Y-12060319D01*
X10370063Y-12060319D02*
X10360539Y-12098414D01*
X10360539Y-12098414D02*
X10351015Y-12117462D01*
X10351015Y-12117462D02*
X10331967Y-12136510D01*
X10331967Y-12136510D02*
X10303396Y-12146033D01*
X10303396Y-12146033D02*
X10255777Y-12146033D01*
X10455777Y-12146033D02*
X10455777Y-12012700D01*
X10455777Y-12050795D02*
X10465301Y-12031748D01*
X10465301Y-12031748D02*
X10474824Y-12022224D01*
X10474824Y-12022224D02*
X10493872Y-12012700D01*
X10493872Y-12012700D02*
X10512920Y-12012700D01*
X10579586Y-12146033D02*
X10579586Y-12012700D01*
X10579586Y-11946033D02*
X10570063Y-11955557D01*
X10570063Y-11955557D02*
X10579586Y-11965081D01*
X10579586Y-11965081D02*
X10589110Y-11955557D01*
X10589110Y-11955557D02*
X10579586Y-11946033D01*
X10579586Y-11946033D02*
X10579586Y-11965081D01*
X10703396Y-12146033D02*
X10684348Y-12136510D01*
X10684348Y-12136510D02*
X10674824Y-12117462D01*
X10674824Y-12117462D02*
X10674824Y-11946033D01*
X10808158Y-12146033D02*
X10789110Y-12136510D01*
X10789110Y-12136510D02*
X10779586Y-12117462D01*
X10779586Y-12117462D02*
X10779586Y-11946033D01*
X11036729Y-12146033D02*
X11036729Y-11946033D01*
X11036729Y-11946033D02*
X11103396Y-12088891D01*
X11103396Y-12088891D02*
X11170063Y-11946033D01*
X11170063Y-11946033D02*
X11170063Y-12146033D01*
X11351015Y-12146033D02*
X11351015Y-12041272D01*
X11351015Y-12041272D02*
X11341491Y-12022224D01*
X11341491Y-12022224D02*
X11322443Y-12012700D01*
X11322443Y-12012700D02*
X11284348Y-12012700D01*
X11284348Y-12012700D02*
X11265301Y-12022224D01*
X11351015Y-12136510D02*
X11331967Y-12146033D01*
X11331967Y-12146033D02*
X11284348Y-12146033D01*
X11284348Y-12146033D02*
X11265301Y-12136510D01*
X11265301Y-12136510D02*
X11255777Y-12117462D01*
X11255777Y-12117462D02*
X11255777Y-12098414D01*
X11255777Y-12098414D02*
X11265301Y-12079367D01*
X11265301Y-12079367D02*
X11284348Y-12069843D01*
X11284348Y-12069843D02*
X11331967Y-12069843D01*
X11331967Y-12069843D02*
X11351015Y-12060319D01*
X11446253Y-12012700D02*
X11446253Y-12212700D01*
X11446253Y-12022224D02*
X11465301Y-12012700D01*
X11465301Y-12012700D02*
X11503396Y-12012700D01*
X11503396Y-12012700D02*
X11522443Y-12022224D01*
X11522443Y-12022224D02*
X11531967Y-12031748D01*
X11531967Y-12031748D02*
X11541491Y-12050795D01*
X11541491Y-12050795D02*
X11541491Y-12107938D01*
X11541491Y-12107938D02*
X11531967Y-12126986D01*
X11531967Y-12126986D02*
X11522443Y-12136510D01*
X11522443Y-12136510D02*
X11503396Y-12146033D01*
X11503396Y-12146033D02*
X11465301Y-12146033D01*
X11465301Y-12146033D02*
X11446253Y-12136510D01*
X11627205Y-12126986D02*
X11636729Y-12136510D01*
X11636729Y-12136510D02*
X11627205Y-12146033D01*
X11627205Y-12146033D02*
X11617682Y-12136510D01*
X11617682Y-12136510D02*
X11627205Y-12126986D01*
X11627205Y-12126986D02*
X11627205Y-12146033D01*
X11627205Y-12022224D02*
X11636729Y-12031748D01*
X11636729Y-12031748D02*
X11627205Y-12041272D01*
X11627205Y-12041272D02*
X11617682Y-12031748D01*
X11617682Y-12031748D02*
X11627205Y-12022224D01*
X11627205Y-12022224D02*
X11627205Y-12041272D01*
M02*
