G04 #@! TF.GenerationSoftware,KiCad,Pcbnew,8.0.1*
G04 #@! TF.CreationDate,2024-04-29T19:52:15-05:00*
G04 #@! TF.ProjectId,LED_Hexpansion_v2,4c45445f-4865-4787-9061-6e73696f6e5f,rev?*
G04 #@! TF.SameCoordinates,Original*
G04 #@! TF.FileFunction,Copper,L2,Bot*
G04 #@! TF.FilePolarity,Positive*
%FSLAX46Y46*%
G04 Gerber Fmt 4.6, Leading zero omitted, Abs format (unit mm)*
G04 Created by KiCad (PCBNEW 8.0.1) date 2024-04-29 19:52:15*
%MOMM*%
%LPD*%
G01*
G04 APERTURE LIST*
G04 Aperture macros list*
%AMRoundRect*
0 Rectangle with rounded corners*
0 $1 Rounding radius*
0 $2 $3 $4 $5 $6 $7 $8 $9 X,Y pos of 4 corners*
0 Add a 4 corners polygon primitive as box body*
4,1,4,$2,$3,$4,$5,$6,$7,$8,$9,$2,$3,0*
0 Add four circle primitives for the rounded corners*
1,1,$1+$1,$2,$3*
1,1,$1+$1,$4,$5*
1,1,$1+$1,$6,$7*
1,1,$1+$1,$8,$9*
0 Add four rect primitives between the rounded corners*
20,1,$1+$1,$2,$3,$4,$5,0*
20,1,$1+$1,$4,$5,$6,$7,0*
20,1,$1+$1,$6,$7,$8,$9,0*
20,1,$1+$1,$8,$9,$2,$3,0*%
%AMFreePoly0*
4,1,87,6.047416,3.588044,6.090111,3.543358,6.100000,3.500000,6.100000,-3.000000,6.080902,-3.058779,6.030901,-3.095106,6.000000,-3.100000,-6.000000,-3.100000,-6.058779,-3.080902,-6.095106,-3.030902,-6.100000,-3.000000,-6.100000,3.500000,-6.080902,3.558779,-6.030902,3.595106,-5.969098,3.595106,-5.919098,3.558779,-5.901613,3.517889,-5.000000,-1.440982,-4.098387,3.517889,-4.069082,3.572303,
-4.013390,3.599099,-3.952584,3.588044,-3.909889,3.543358,-3.901613,3.517889,-3.000000,-1.440982,-2.884704,-0.806854,-2.919135,-0.691848,-2.979715,-0.348279,-3.000000,0.000000,-2.979715,0.348279,-2.919135,0.691848,-2.819078,1.026060,-2.680898,1.346398,-2.506463,1.648527,-2.416235,1.769724,-2.098387,3.517889,-2.069082,3.572303,-2.013390,3.599099,-1.952584,3.588044,-1.909889,3.543359,
-1.901613,3.517889,-1.709340,2.460391,-1.500000,2.598076,-1.188239,2.754648,-0.860410,2.873969,-0.520945,2.954423,-0.193883,2.992649,-0.098387,3.517889,-0.069082,3.572303,-0.013390,3.599099,0.047416,3.588044,0.090110,3.543358,0.098387,3.517889,0.193884,2.992650,0.520945,2.954423,0.860410,2.873969,1.188239,2.754648,1.500000,2.598076,1.709340,2.460391,1.901613,3.517889,
1.930918,3.572303,1.986610,3.599099,2.047416,3.588044,2.090111,3.543358,2.098387,3.517889,2.416235,1.769724,2.506463,1.648527,2.680898,1.346398,2.819078,1.026060,2.919135,0.691848,2.979715,0.348279,3.000000,0.000000,2.979715,-0.348279,2.919135,-0.691848,2.884704,-0.806854,3.000000,-1.440982,3.901612,3.517889,3.930918,3.572303,3.986610,3.599099,4.047416,3.588044,
4.090111,3.543358,4.098387,3.517889,5.000000,-1.440982,5.901613,3.517889,5.930918,3.572303,5.986610,3.599099,6.047416,3.588044,6.047416,3.588044,$1*%
%AMFreePoly1*
4,1,19,0.500000,-0.750000,0.000000,-0.750000,0.000000,-0.744911,-0.071157,-0.744911,-0.207708,-0.704816,-0.327430,-0.627875,-0.420627,-0.520320,-0.479746,-0.390866,-0.500000,-0.250000,-0.500000,0.250000,-0.479746,0.390866,-0.420627,0.520320,-0.327430,0.627875,-0.207708,0.704816,-0.071157,0.744911,0.000000,0.744911,0.000000,0.750000,0.500000,0.750000,0.500000,-0.750000,0.500000,-0.750000,
$1*%
%AMFreePoly2*
4,1,19,0.000000,0.744911,0.071157,0.744911,0.207708,0.704816,0.327430,0.627875,0.420627,0.520320,0.479746,0.390866,0.500000,0.250000,0.500000,-0.250000,0.479746,-0.390866,0.420627,-0.520320,0.327430,-0.627875,0.207708,-0.704816,0.071157,-0.744911,0.000000,-0.744911,0.000000,-0.750000,-0.500000,-0.750000,-0.500000,0.750000,0.000000,0.750000,0.000000,0.744911,0.000000,0.744911,
$1*%
G04 Aperture macros list end*
G04 #@! TA.AperFunction,EtchedComponent*
%ADD10C,0.000000*%
G04 #@! TD*
G04 #@! TA.AperFunction,SMDPad,CuDef*
%ADD11RoundRect,0.150000X-1.600000X-0.150000X1.600000X-0.150000X1.600000X0.150000X-1.600000X0.150000X0*%
G04 #@! TD*
G04 #@! TA.AperFunction,SMDPad,CuDef*
%ADD12RoundRect,0.150000X-1.200000X-0.150000X1.200000X-0.150000X1.200000X0.150000X-1.200000X0.150000X0*%
G04 #@! TD*
G04 #@! TA.AperFunction,ComponentPad*
%ADD13FreePoly0,150.000000*%
G04 #@! TD*
G04 #@! TA.AperFunction,ComponentPad*
%ADD14C,1.600000*%
G04 #@! TD*
G04 #@! TA.AperFunction,ComponentPad*
%ADD15O,1.600000X1.600000*%
G04 #@! TD*
G04 #@! TA.AperFunction,ComponentPad*
%ADD16FreePoly0,30.000000*%
G04 #@! TD*
G04 #@! TA.AperFunction,ComponentPad*
%ADD17C,1.900000*%
G04 #@! TD*
G04 #@! TA.AperFunction,ComponentPad*
%ADD18C,0.700000*%
G04 #@! TD*
G04 #@! TA.AperFunction,ComponentPad*
%ADD19C,4.400000*%
G04 #@! TD*
G04 #@! TA.AperFunction,SMDPad,CuDef*
%ADD20FreePoly1,270.000000*%
G04 #@! TD*
G04 #@! TA.AperFunction,SMDPad,CuDef*
%ADD21FreePoly2,270.000000*%
G04 #@! TD*
G04 #@! TA.AperFunction,ViaPad*
%ADD22C,0.800000*%
G04 #@! TD*
G04 #@! TA.AperFunction,Conductor*
%ADD23C,0.250000*%
G04 #@! TD*
G04 APERTURE END LIST*
D10*
G04 #@! TA.AperFunction,EtchedComponent*
G36*
X107300000Y-109600000D02*
G01*
X106700000Y-109600000D01*
X106700000Y-109100000D01*
X107300000Y-109100000D01*
X107300000Y-109600000D01*
G37*
G04 #@! TD.AperFunction*
D11*
X100500000Y-103400000D03*
D12*
X100900000Y-102600000D03*
X100900000Y-101800000D03*
X100900000Y-101000000D03*
X100900000Y-100200000D03*
X100900000Y-99400000D03*
X100900000Y-98600000D03*
X100900000Y-97800000D03*
D11*
X100500000Y-97000000D03*
X100500000Y-96200000D03*
D13*
X124000000Y-90500000D03*
D14*
X111500000Y-94920001D03*
D15*
X111499998Y-105080000D03*
D16*
X124500000Y-109000000D03*
D17*
X117620000Y-100000000D03*
X120160000Y-102540000D03*
X120160000Y-97460000D03*
D18*
X110850000Y-112500000D03*
X111333274Y-111333274D03*
X111333274Y-113666726D03*
X112500000Y-110850000D03*
D19*
X112500000Y-112500000D03*
D18*
X112500000Y-114150000D03*
X113666726Y-111333274D03*
X113666726Y-113666726D03*
X114150000Y-112500000D03*
D20*
X107000000Y-108700000D03*
D21*
X107000000Y-110000000D03*
D22*
X128500000Y-90500000D03*
X121500000Y-86500000D03*
X125500000Y-88500000D03*
X126000000Y-91500000D03*
X122000000Y-89500000D03*
X121500000Y-113500000D03*
X122500000Y-110000000D03*
X125500000Y-111000000D03*
X126500000Y-108000000D03*
X130000000Y-108500000D03*
D23*
X100500000Y-96200000D02*
X104336396Y-96200000D01*
X106900000Y-99400000D02*
X107000000Y-99500000D01*
X107000000Y-99500000D02*
X107000000Y-108700000D01*
X100900000Y-99400000D02*
X106900000Y-99400000D01*
G04 #@! TA.AperFunction,Conductor*
G36*
X116182495Y-81695729D02*
G01*
X116233409Y-81706552D01*
X116385944Y-81756114D01*
X116428227Y-81774328D01*
X116497358Y-81812034D01*
X116502617Y-81814986D01*
X119610610Y-83609387D01*
X119683653Y-83673443D01*
X119726624Y-83760579D01*
X119732978Y-83857526D01*
X119701748Y-83949525D01*
X119637690Y-84022570D01*
X119633149Y-84025973D01*
X119588334Y-84058765D01*
X119588329Y-84058769D01*
X119540108Y-84102188D01*
X119540094Y-84102201D01*
X119461154Y-84181675D01*
X119342123Y-84346678D01*
X116092141Y-89975811D01*
X116081494Y-89994722D01*
X116002137Y-90182045D01*
X115988371Y-90226647D01*
X115988358Y-90226693D01*
X115957524Y-90356712D01*
X115957522Y-90356724D01*
X115944308Y-90559738D01*
X115944308Y-90559742D01*
X115972231Y-90761270D01*
X115985862Y-90817203D01*
X115987595Y-90824314D01*
X115992623Y-90844075D01*
X115992625Y-90844081D01*
X115992627Y-90844087D01*
X116064414Y-91034432D01*
X116064416Y-91034436D01*
X116173059Y-91206449D01*
X116314104Y-91353071D01*
X116363593Y-91395047D01*
X116379248Y-91408055D01*
X116549219Y-91519866D01*
X116738218Y-91595174D01*
X116938507Y-91630894D01*
X117003217Y-91635766D01*
X117023580Y-91637092D01*
X117226810Y-91627637D01*
X117401973Y-91583064D01*
X117498989Y-91577935D01*
X117590586Y-91610323D01*
X117662817Y-91675299D01*
X117704684Y-91762970D01*
X117705294Y-91765420D01*
X117719640Y-91824291D01*
X117719646Y-91824314D01*
X117724674Y-91844075D01*
X117724676Y-91844081D01*
X117724678Y-91844087D01*
X117796465Y-92034432D01*
X117796467Y-92034436D01*
X117860378Y-92135625D01*
X117905109Y-92206448D01*
X117905110Y-92206449D01*
X118046155Y-92353071D01*
X118046159Y-92353074D01*
X118095631Y-92395037D01*
X118111020Y-92407824D01*
X118111298Y-92408055D01*
X118281269Y-92519866D01*
X118470268Y-92595173D01*
X118670557Y-92630894D01*
X118735266Y-92635766D01*
X118755622Y-92637091D01*
X118958852Y-92627638D01*
X119134022Y-92583065D01*
X119231041Y-92577936D01*
X119322638Y-92610325D01*
X119394868Y-92675302D01*
X119436734Y-92762973D01*
X119437344Y-92765420D01*
X119451695Y-92824310D01*
X119456728Y-92844087D01*
X119528524Y-93034450D01*
X119637166Y-93206457D01*
X119778214Y-93353079D01*
X119827747Y-93395091D01*
X119843342Y-93408050D01*
X119843348Y-93408055D01*
X120013309Y-93519860D01*
X120013316Y-93519863D01*
X120013320Y-93519866D01*
X120202319Y-93595173D01*
X120402608Y-93630894D01*
X120453839Y-93634751D01*
X120467288Y-93635764D01*
X120467305Y-93635765D01*
X120467317Y-93635766D01*
X120487681Y-93637092D01*
X120690911Y-93627637D01*
X120866074Y-93583064D01*
X120963090Y-93577935D01*
X121054687Y-93610323D01*
X121126918Y-93675299D01*
X121168785Y-93762970D01*
X121169395Y-93765420D01*
X121183741Y-93824291D01*
X121183747Y-93824314D01*
X121188775Y-93844075D01*
X121188777Y-93844081D01*
X121188779Y-93844087D01*
X121260566Y-94034432D01*
X121260568Y-94034436D01*
X121324479Y-94135625D01*
X121367323Y-94203461D01*
X121369211Y-94206449D01*
X121510256Y-94353071D01*
X121559745Y-94395047D01*
X121575400Y-94408055D01*
X121745371Y-94519866D01*
X121934370Y-94595174D01*
X122134659Y-94630894D01*
X122199369Y-94635766D01*
X122219732Y-94637092D01*
X122422962Y-94627637D01*
X122598125Y-94583064D01*
X122695141Y-94577935D01*
X122786738Y-94610323D01*
X122858969Y-94675299D01*
X122900836Y-94762970D01*
X122901446Y-94765420D01*
X122915792Y-94824291D01*
X122915798Y-94824314D01*
X122920826Y-94844075D01*
X122920828Y-94844081D01*
X122920830Y-94844087D01*
X122983403Y-95010000D01*
X122992619Y-95034436D01*
X123101262Y-95206449D01*
X123242307Y-95353071D01*
X123291796Y-95395047D01*
X123307451Y-95408055D01*
X123477422Y-95519866D01*
X123666421Y-95595174D01*
X123866710Y-95630894D01*
X123931420Y-95635766D01*
X123951783Y-95637092D01*
X124155013Y-95627637D01*
X124330176Y-95583064D01*
X124427192Y-95577935D01*
X124518789Y-95610323D01*
X124591020Y-95675299D01*
X124632887Y-95762970D01*
X124633497Y-95765420D01*
X124645566Y-95814945D01*
X124647849Y-95824314D01*
X124652877Y-95844075D01*
X124652879Y-95844081D01*
X124652881Y-95844087D01*
X124724668Y-96034432D01*
X124724670Y-96034436D01*
X124773570Y-96111858D01*
X124816251Y-96179436D01*
X124833313Y-96206449D01*
X124974358Y-96353071D01*
X125023847Y-96395047D01*
X125039502Y-96408055D01*
X125209473Y-96519866D01*
X125398472Y-96595174D01*
X125598761Y-96630894D01*
X125663471Y-96635766D01*
X125683834Y-96637092D01*
X125887064Y-96627637D01*
X126058352Y-96584050D01*
X126155366Y-96578921D01*
X126246964Y-96611309D01*
X126319195Y-96676285D01*
X126356305Y-96747620D01*
X126423154Y-96951031D01*
X126449532Y-97010278D01*
X126449547Y-97010310D01*
X126458030Y-97028855D01*
X126562716Y-97203304D01*
X126700376Y-97353109D01*
X126865373Y-97472137D01*
X126921573Y-97504584D01*
X126939334Y-97514600D01*
X126939338Y-97514602D01*
X127126563Y-97594196D01*
X127126564Y-97594196D01*
X127126566Y-97594197D01*
X127325989Y-97634475D01*
X127529437Y-97633786D01*
X127593975Y-97627002D01*
X127614209Y-97624667D01*
X127812470Y-97579013D01*
X127997482Y-97494383D01*
X128161671Y-97374243D01*
X128209896Y-97330821D01*
X128288846Y-97251336D01*
X128407874Y-97086339D01*
X131535349Y-91669391D01*
X131599407Y-91596348D01*
X131686543Y-91553377D01*
X131783490Y-91547023D01*
X131875489Y-91578253D01*
X131948534Y-91642311D01*
X131991505Y-91729447D01*
X131999989Y-91793893D01*
X131999989Y-107841081D01*
X131981035Y-107936369D01*
X131927059Y-108017151D01*
X131846277Y-108071127D01*
X131750989Y-108090081D01*
X131655701Y-108071127D01*
X131574919Y-108017151D01*
X131535349Y-107965581D01*
X128474433Y-102663919D01*
X128474426Y-102663908D01*
X128407335Y-102572988D01*
X128375577Y-102538749D01*
X128277923Y-102457067D01*
X128277916Y-102457062D01*
X128147108Y-102397486D01*
X128084827Y-102379269D01*
X128056914Y-102371962D01*
X128056919Y-102371962D01*
X127913689Y-102359811D01*
X127772850Y-102388501D01*
X127711762Y-102410368D01*
X127684894Y-102420861D01*
X127561884Y-102495208D01*
X127561883Y-102495209D01*
X127464796Y-102601208D01*
X127428222Y-102654812D01*
X127412650Y-102679096D01*
X127412649Y-102679098D01*
X127356835Y-102811552D01*
X127356833Y-102811558D01*
X127340596Y-102954366D01*
X127340596Y-102954374D01*
X127342516Y-103019244D01*
X127343148Y-103033643D01*
X127343148Y-103033646D01*
X127371837Y-103174489D01*
X127663582Y-103989519D01*
X127677851Y-104085621D01*
X127654256Y-104179867D01*
X127596392Y-104257911D01*
X127513066Y-104307869D01*
X127416964Y-104322138D01*
X127322718Y-104298543D01*
X127244674Y-104240679D01*
X127239258Y-104234503D01*
X126679293Y-103574328D01*
X126632086Y-103525703D01*
X126611195Y-103506892D01*
X126611190Y-103506887D01*
X126545867Y-103457063D01*
X126545865Y-103457062D01*
X126415057Y-103397486D01*
X126352776Y-103379269D01*
X126324865Y-103371962D01*
X126268136Y-103367149D01*
X125875422Y-104832771D01*
X125875423Y-104832774D01*
X125978298Y-105120170D01*
X125992567Y-105216272D01*
X125968972Y-105310518D01*
X125911108Y-105388562D01*
X125827782Y-105438520D01*
X125798406Y-105447040D01*
X125705226Y-105467957D01*
X125151089Y-107536023D01*
X125114187Y-107517221D01*
X124874668Y-107439397D01*
X124668107Y-107406681D01*
X125311854Y-105004189D01*
X124947235Y-104574320D01*
X124900056Y-104525722D01*
X124900045Y-104525712D01*
X124879150Y-104506897D01*
X124813817Y-104457063D01*
X124683007Y-104397486D01*
X124683001Y-104397484D01*
X124620746Y-104379273D01*
X124592817Y-104371963D01*
X124449590Y-104359811D01*
X124308751Y-104388500D01*
X124247646Y-104410373D01*
X124220787Y-104420863D01*
X124097775Y-104495215D01*
X124097772Y-104495217D01*
X124000693Y-104601209D01*
X123964118Y-104654816D01*
X123948549Y-104679096D01*
X123892734Y-104811552D01*
X123892732Y-104811558D01*
X123876495Y-104954366D01*
X123876495Y-104954374D01*
X123878415Y-105019244D01*
X123879047Y-105033643D01*
X123879047Y-105033646D01*
X123907736Y-105174489D01*
X123933141Y-105245460D01*
X123947410Y-105341562D01*
X123923816Y-105435808D01*
X123865951Y-105513851D01*
X123782625Y-105563810D01*
X123741954Y-105574593D01*
X123719282Y-105578591D01*
X123719271Y-105578593D01*
X123662148Y-105592132D01*
X123473727Y-105648541D01*
X123377006Y-105657712D01*
X123284138Y-105629171D01*
X123217949Y-105577364D01*
X123215213Y-105574350D01*
X123167989Y-105525708D01*
X123167972Y-105525691D01*
X123147107Y-105506903D01*
X123147102Y-105506899D01*
X123081766Y-105457063D01*
X122950956Y-105397486D01*
X122888675Y-105379269D01*
X122860762Y-105371962D01*
X122860767Y-105371962D01*
X122717537Y-105359811D01*
X122576698Y-105388501D01*
X122515610Y-105410368D01*
X122488742Y-105420861D01*
X122365732Y-105495208D01*
X122365731Y-105495209D01*
X122268644Y-105601208D01*
X122232070Y-105654812D01*
X122216498Y-105679096D01*
X122216497Y-105679098D01*
X122160683Y-105811552D01*
X122160681Y-105811558D01*
X122144444Y-105954366D01*
X122144444Y-105954374D01*
X122146364Y-106019244D01*
X122146996Y-106033643D01*
X122146996Y-106033646D01*
X122175687Y-106174498D01*
X122178077Y-106183054D01*
X122176192Y-106183580D01*
X122188513Y-106266567D01*
X122164918Y-106360814D01*
X122110685Y-106435497D01*
X121967621Y-106570469D01*
X121967620Y-106570471D01*
X121927348Y-106613156D01*
X121927342Y-106613162D01*
X121912533Y-106630811D01*
X121836761Y-106691619D01*
X121743486Y-106718802D01*
X121646909Y-106708222D01*
X121561732Y-106661488D01*
X121531903Y-106631816D01*
X121483135Y-106574321D01*
X121483131Y-106574316D01*
X121435955Y-106525724D01*
X121435921Y-106525691D01*
X121415056Y-106506903D01*
X121415051Y-106506899D01*
X121349715Y-106457063D01*
X121218905Y-106397486D01*
X121156624Y-106379269D01*
X121128711Y-106371962D01*
X121128716Y-106371962D01*
X120985486Y-106359811D01*
X120844647Y-106388501D01*
X120783559Y-106410368D01*
X120756691Y-106420861D01*
X120633681Y-106495208D01*
X120633680Y-106495209D01*
X120536593Y-106601208D01*
X120500019Y-106654812D01*
X120484447Y-106679096D01*
X120484446Y-106679098D01*
X120428632Y-106811552D01*
X120428630Y-106811558D01*
X120412393Y-106954366D01*
X120412393Y-106954374D01*
X120414313Y-107019244D01*
X120414945Y-107033643D01*
X120414945Y-107033646D01*
X120443634Y-107174489D01*
X120633598Y-107705181D01*
X123036024Y-108348908D01*
X123017221Y-108385813D01*
X122939397Y-108625332D01*
X122906681Y-108831890D01*
X120838548Y-108277736D01*
X120773844Y-108347973D01*
X120695341Y-108405213D01*
X120600909Y-108428054D01*
X120504924Y-108413019D01*
X120422000Y-108362397D01*
X120400819Y-108340330D01*
X120203363Y-108107538D01*
X118737379Y-107714729D01*
X118696580Y-107811553D01*
X118696580Y-107811555D01*
X118680342Y-107954366D01*
X118680342Y-107954374D01*
X118682262Y-108019244D01*
X118682894Y-108033643D01*
X118682894Y-108033646D01*
X118711583Y-108174489D01*
X119003328Y-108989520D01*
X119017597Y-109085622D01*
X118994002Y-109179868D01*
X118936138Y-109257912D01*
X118852812Y-109307870D01*
X118756710Y-109322139D01*
X118662464Y-109298544D01*
X118584420Y-109240680D01*
X118579004Y-109234504D01*
X118019036Y-108574325D01*
X117936769Y-108496878D01*
X117936762Y-108496872D01*
X117899409Y-108468880D01*
X117899396Y-108468871D01*
X117788708Y-108405975D01*
X117788702Y-108405973D01*
X117649357Y-108370758D01*
X117649341Y-108370755D01*
X117584800Y-108363971D01*
X117556048Y-108361777D01*
X117556046Y-108361777D01*
X117412958Y-108375440D01*
X117412954Y-108375441D01*
X117279521Y-108428860D01*
X117279505Y-108428868D01*
X117223326Y-108461302D01*
X117198756Y-108476440D01*
X117091030Y-108571598D01*
X117014473Y-108693258D01*
X116988085Y-108752528D01*
X116977110Y-108779202D01*
X116945886Y-108919514D01*
X116955457Y-109062929D01*
X116968957Y-109126440D01*
X116972147Y-109140460D01*
X116972149Y-109140464D01*
X117025573Y-109273913D01*
X117025576Y-109273919D01*
X120275554Y-114903046D01*
X120275580Y-114903089D01*
X120320450Y-114968375D01*
X120341129Y-114993911D01*
X120406537Y-115060895D01*
X120528197Y-115137451D01*
X120587465Y-115163838D01*
X120614139Y-115174813D01*
X120771833Y-115209905D01*
X120771580Y-115211038D01*
X120846957Y-115232099D01*
X120923401Y-115292061D01*
X120971079Y-115376712D01*
X120982733Y-115473166D01*
X120956589Y-115566737D01*
X120896627Y-115643181D01*
X120858954Y-115669874D01*
X116502628Y-118185001D01*
X116497358Y-118187959D01*
X116428227Y-118225665D01*
X116385942Y-118243880D01*
X116233409Y-118293441D01*
X116182492Y-118304264D01*
X116026023Y-118320710D01*
X115973967Y-118320710D01*
X115817497Y-118304264D01*
X115766580Y-118293441D01*
X115614047Y-118243880D01*
X115571762Y-118225665D01*
X115502631Y-118187959D01*
X115497361Y-118185001D01*
X105650652Y-112500000D01*
X109795065Y-112500000D01*
X109814788Y-112826056D01*
X109873663Y-113147325D01*
X109873668Y-113147344D01*
X109970841Y-113459181D01*
X110104897Y-113757043D01*
X110273882Y-114036578D01*
X110421475Y-114224967D01*
X111563707Y-113082734D01*
X111660967Y-113216602D01*
X111783398Y-113339033D01*
X111917262Y-113436290D01*
X110775030Y-114578523D01*
X110963421Y-114726117D01*
X111242956Y-114895102D01*
X111540818Y-115029158D01*
X111852655Y-115126331D01*
X111852674Y-115126336D01*
X112173943Y-115185211D01*
X112500000Y-115204934D01*
X112826056Y-115185211D01*
X113147325Y-115126336D01*
X113147344Y-115126331D01*
X113459181Y-115029158D01*
X113757043Y-114895102D01*
X114036578Y-114726117D01*
X114224968Y-114578523D01*
X113082736Y-113436291D01*
X113216602Y-113339033D01*
X113339033Y-113216602D01*
X113436291Y-113082736D01*
X114578523Y-114224968D01*
X114726117Y-114036578D01*
X114895102Y-113757043D01*
X115029158Y-113459181D01*
X115126331Y-113147344D01*
X115126336Y-113147325D01*
X115185211Y-112826056D01*
X115204934Y-112500000D01*
X115185211Y-112173943D01*
X115126336Y-111852674D01*
X115126331Y-111852655D01*
X115029158Y-111540818D01*
X114895102Y-111242956D01*
X114726117Y-110963421D01*
X114578522Y-110775030D01*
X113436290Y-111917262D01*
X113339033Y-111783398D01*
X113216602Y-111660967D01*
X113082735Y-111563707D01*
X114224968Y-110421475D01*
X114036578Y-110273882D01*
X113757043Y-110104897D01*
X113459181Y-109970841D01*
X113147344Y-109873668D01*
X113147325Y-109873663D01*
X112826056Y-109814788D01*
X112500000Y-109795065D01*
X112173943Y-109814788D01*
X111852674Y-109873663D01*
X111852655Y-109873668D01*
X111540818Y-109970841D01*
X111242956Y-110104897D01*
X110963422Y-110273882D01*
X110775030Y-110421475D01*
X111917263Y-111563708D01*
X111783398Y-111660967D01*
X111660967Y-111783398D01*
X111563708Y-111917263D01*
X110421475Y-110775030D01*
X110273882Y-110963422D01*
X110104897Y-111242956D01*
X109970841Y-111540818D01*
X109873668Y-111852655D01*
X109873663Y-111852674D01*
X109814788Y-112173943D01*
X109795065Y-112500000D01*
X105650652Y-112500000D01*
X100502870Y-109527926D01*
X100497208Y-109524557D01*
X100430085Y-109483398D01*
X100393638Y-109456174D01*
X100274275Y-109348704D01*
X100239443Y-109310021D01*
X100146988Y-109182775D01*
X100120960Y-109137697D01*
X100115948Y-109126440D01*
X100056979Y-108994007D01*
X100040894Y-108944508D01*
X100035580Y-108919514D01*
X100007501Y-108787441D01*
X100002144Y-108742175D01*
X100000878Y-108693812D01*
X100000085Y-108663489D01*
X100000000Y-108656976D01*
X100000000Y-106256078D01*
X100018952Y-106160795D01*
X100021025Y-106155790D01*
X100074999Y-106075008D01*
X100155777Y-106021029D01*
X100155791Y-106021024D01*
X100155807Y-106021018D01*
X100160813Y-106018945D01*
X100256079Y-106000000D01*
X104500018Y-106000000D01*
X104561531Y-105998277D01*
X104578623Y-105997799D01*
X104731927Y-105962809D01*
X104873601Y-105894582D01*
X104996541Y-105796541D01*
X105094582Y-105673601D01*
X105162809Y-105531927D01*
X105197799Y-105378623D01*
X105198326Y-105359811D01*
X105200000Y-105300017D01*
X105200000Y-105299982D01*
X105197799Y-105221381D01*
X105197798Y-105221373D01*
X105162810Y-105068077D01*
X105162809Y-105068076D01*
X105162809Y-105068073D01*
X105108054Y-104954374D01*
X105094583Y-104926400D01*
X105094582Y-104926399D01*
X104996543Y-104803461D01*
X104996538Y-104803456D01*
X104873600Y-104705417D01*
X104873599Y-104705416D01*
X104768525Y-104654816D01*
X104731927Y-104637191D01*
X104731925Y-104637190D01*
X104731922Y-104637189D01*
X104578626Y-104602201D01*
X104578618Y-104602200D01*
X104506970Y-104600194D01*
X104412250Y-104578580D01*
X104333011Y-104522364D01*
X104281317Y-104440103D01*
X104264946Y-104353025D01*
X104240083Y-100776231D01*
X104258374Y-100680813D01*
X104311788Y-100599659D01*
X104392192Y-100545122D01*
X104487346Y-100525506D01*
X104489077Y-100525500D01*
X105625500Y-100525500D01*
X105720788Y-100544454D01*
X105801570Y-100598430D01*
X105855546Y-100679212D01*
X105874500Y-100774500D01*
X105874500Y-107352848D01*
X105855546Y-107448136D01*
X105801570Y-107528918D01*
X105788559Y-107541031D01*
X105709774Y-107609297D01*
X105649103Y-107666439D01*
X105522355Y-107825591D01*
X105444634Y-107946528D01*
X105402506Y-108018472D01*
X105325739Y-108206865D01*
X105325737Y-108206871D01*
X105285227Y-108344833D01*
X105265082Y-108425709D01*
X105265081Y-108425712D01*
X105244501Y-108628091D01*
X105244500Y-108628116D01*
X105244500Y-109200004D01*
X105256094Y-109352255D01*
X105256097Y-109352269D01*
X105307089Y-109549215D01*
X105307091Y-109549219D01*
X105396685Y-109731869D01*
X105396688Y-109731874D01*
X105429613Y-109774409D01*
X105521221Y-109892756D01*
X105675590Y-110025278D01*
X105853475Y-110124012D01*
X106047594Y-110184917D01*
X106047595Y-110184917D01*
X106047598Y-110184918D01*
X106243706Y-110204860D01*
X106250000Y-110205500D01*
X106644352Y-110205500D01*
X106669544Y-110206777D01*
X106689821Y-110208840D01*
X106762659Y-110205818D01*
X106765178Y-110205714D01*
X106775499Y-110205500D01*
X106785764Y-110205500D01*
X107144355Y-110205500D01*
X107169546Y-110206777D01*
X107189824Y-110208840D01*
X107265158Y-110205713D01*
X107275482Y-110205500D01*
X107749988Y-110205500D01*
X107750000Y-110205500D01*
X107902261Y-110193905D01*
X108099215Y-110142910D01*
X108281873Y-110053312D01*
X108442756Y-109928779D01*
X108575278Y-109774410D01*
X108674012Y-109596525D01*
X108734917Y-109402406D01*
X108740017Y-109352261D01*
X108755498Y-109200019D01*
X108755500Y-109200000D01*
X108755500Y-108628111D01*
X108752046Y-108544836D01*
X108737888Y-108468871D01*
X108714772Y-108344835D01*
X108714771Y-108344834D01*
X108714771Y-108344830D01*
X108674264Y-108206875D01*
X108647488Y-108127946D01*
X108555375Y-107946544D01*
X108477643Y-107825590D01*
X108477642Y-107825588D01*
X108477632Y-107825573D01*
X108429715Y-107757401D01*
X108429713Y-107757398D01*
X108429709Y-107757393D01*
X108290218Y-107609291D01*
X108290215Y-107609289D01*
X108290211Y-107609284D01*
X108211441Y-107541031D01*
X108151839Y-107464306D01*
X108126278Y-107371135D01*
X119386919Y-107371135D01*
X119489125Y-107398521D01*
X119489125Y-107398520D01*
X119486858Y-107397488D01*
X119486849Y-107397485D01*
X119424573Y-107379269D01*
X119396661Y-107371962D01*
X119386919Y-107371135D01*
X108126278Y-107371135D01*
X108126135Y-107370613D01*
X108125500Y-107352848D01*
X108125500Y-105080000D01*
X109694449Y-105080000D01*
X109714614Y-105349100D01*
X109774661Y-105612187D01*
X109774665Y-105612198D01*
X109873254Y-105863395D01*
X109873255Y-105863398D01*
X110008186Y-106097107D01*
X110143327Y-106266567D01*
X110176437Y-106308085D01*
X110374257Y-106491635D01*
X110597224Y-106643651D01*
X110840357Y-106760738D01*
X111098226Y-106840280D01*
X111365069Y-106880500D01*
X111365072Y-106880500D01*
X111634924Y-106880500D01*
X111634927Y-106880500D01*
X111901770Y-106840280D01*
X112159639Y-106760738D01*
X112402773Y-106643651D01*
X112625739Y-106491635D01*
X112823559Y-106308085D01*
X112991813Y-106097102D01*
X113126741Y-105863398D01*
X113225332Y-105612195D01*
X113285381Y-105349103D01*
X113305547Y-105080000D01*
X113285381Y-104810897D01*
X113237748Y-104602201D01*
X113225334Y-104547812D01*
X113225332Y-104547809D01*
X113225332Y-104547805D01*
X113126741Y-104296602D01*
X112991813Y-104062898D01*
X112991811Y-104062895D01*
X112991809Y-104062892D01*
X112823560Y-103851916D01*
X112625736Y-103668362D01*
X112402776Y-103516350D01*
X112402771Y-103516348D01*
X112159647Y-103399265D01*
X112159642Y-103399263D01*
X112159639Y-103399262D01*
X111901770Y-103319720D01*
X111634927Y-103279500D01*
X111365069Y-103279500D01*
X111164936Y-103309665D01*
X111098225Y-103319720D01*
X110840351Y-103399264D01*
X110597225Y-103516348D01*
X110374255Y-103668366D01*
X110176435Y-103851916D01*
X110008187Y-104062892D01*
X110008186Y-104062892D01*
X109873255Y-104296601D01*
X109873254Y-104296604D01*
X109774665Y-104547801D01*
X109774661Y-104547812D01*
X109714614Y-104810899D01*
X109694449Y-105080000D01*
X108125500Y-105080000D01*
X108125500Y-100000000D01*
X115664518Y-100000000D01*
X115684423Y-100278302D01*
X115743725Y-100550910D01*
X115743727Y-100550918D01*
X115743729Y-100550923D01*
X115841231Y-100812337D01*
X115886338Y-100894944D01*
X115974945Y-101057215D01*
X116142140Y-101280562D01*
X116142142Y-101280564D01*
X116142145Y-101280568D01*
X116339432Y-101477855D01*
X116562787Y-101645056D01*
X116807663Y-101778769D01*
X117069077Y-101876271D01*
X117069086Y-101876273D01*
X117069089Y-101876274D01*
X117295525Y-101925532D01*
X117341706Y-101935578D01*
X117620000Y-101955482D01*
X117898294Y-101935578D01*
X117936494Y-101927267D01*
X118033628Y-101925532D01*
X118124038Y-101961102D01*
X118193953Y-102028563D01*
X118232731Y-102117644D01*
X118234467Y-102214783D01*
X118232732Y-102223504D01*
X118224422Y-102261701D01*
X118204607Y-102538749D01*
X118204518Y-102540000D01*
X118223940Y-102811558D01*
X118224423Y-102818302D01*
X118283725Y-103090910D01*
X118283727Y-103090918D01*
X118283729Y-103090923D01*
X118381231Y-103352337D01*
X118498082Y-103566333D01*
X118514945Y-103597215D01*
X118682140Y-103820562D01*
X118682142Y-103820564D01*
X118682145Y-103820568D01*
X118879432Y-104017855D01*
X118879435Y-104017857D01*
X118879437Y-104017859D01*
X118969957Y-104085621D01*
X119102787Y-104185056D01*
X119347663Y-104318769D01*
X119609077Y-104416271D01*
X119609086Y-104416273D01*
X119609089Y-104416274D01*
X119796594Y-104457063D01*
X119881706Y-104475578D01*
X120160000Y-104495482D01*
X120438294Y-104475578D01*
X120602291Y-104439902D01*
X120710910Y-104416274D01*
X120710911Y-104416273D01*
X120710923Y-104416271D01*
X120972337Y-104318769D01*
X121217213Y-104185056D01*
X121440568Y-104017855D01*
X121603854Y-103854569D01*
X125619894Y-103854569D01*
X125643010Y-103768301D01*
X125624787Y-103811545D01*
X125619894Y-103854569D01*
X121603854Y-103854569D01*
X121637855Y-103820568D01*
X121805056Y-103597213D01*
X121938769Y-103352337D01*
X122036271Y-103090923D01*
X122095578Y-102818294D01*
X122115482Y-102540000D01*
X122095578Y-102261706D01*
X122087268Y-102223504D01*
X122036274Y-101989089D01*
X122036273Y-101989086D01*
X122036271Y-101989077D01*
X121938769Y-101727663D01*
X121805056Y-101482787D01*
X121637855Y-101259432D01*
X121440568Y-101062145D01*
X121440564Y-101062142D01*
X121440562Y-101062140D01*
X121217215Y-100894945D01*
X121065930Y-100812337D01*
X120972337Y-100761231D01*
X120710923Y-100663729D01*
X120710918Y-100663727D01*
X120710910Y-100663725D01*
X120438302Y-100604423D01*
X120438296Y-100604422D01*
X120438294Y-100604422D01*
X120160000Y-100584518D01*
X119881701Y-100604422D01*
X119843504Y-100612732D01*
X119746365Y-100614465D01*
X119655956Y-100578893D01*
X119586042Y-100511431D01*
X119547267Y-100422349D01*
X119545534Y-100325210D01*
X119547255Y-100316550D01*
X119555578Y-100278294D01*
X119575482Y-100000000D01*
X119555578Y-99721706D01*
X119547267Y-99683505D01*
X119545533Y-99586370D01*
X119581103Y-99495960D01*
X119648564Y-99426045D01*
X119737645Y-99387268D01*
X119834784Y-99385533D01*
X119843470Y-99387260D01*
X119881706Y-99395578D01*
X120160000Y-99415482D01*
X120438294Y-99395578D01*
X120602291Y-99359902D01*
X120710910Y-99336274D01*
X120710911Y-99336273D01*
X120710923Y-99336271D01*
X120972337Y-99238769D01*
X121217213Y-99105056D01*
X121440568Y-98937855D01*
X121637855Y-98740568D01*
X121805056Y-98517213D01*
X121938769Y-98272337D01*
X122036271Y-98010923D01*
X122095578Y-97738294D01*
X122115482Y-97460000D01*
X122095578Y-97181706D01*
X122045398Y-96951031D01*
X122036274Y-96909089D01*
X122036273Y-96909086D01*
X122036271Y-96909077D01*
X121938769Y-96647663D01*
X121805056Y-96402787D01*
X121751792Y-96331634D01*
X121637859Y-96179437D01*
X121637857Y-96179435D01*
X121637855Y-96179432D01*
X121440568Y-95982145D01*
X121440564Y-95982142D01*
X121440562Y-95982140D01*
X121217215Y-95814945D01*
X121122030Y-95762970D01*
X120972337Y-95681231D01*
X120710923Y-95583729D01*
X120710918Y-95583727D01*
X120710910Y-95583725D01*
X120438302Y-95524423D01*
X120438296Y-95524422D01*
X120438294Y-95524422D01*
X120160000Y-95504518D01*
X119881706Y-95524422D01*
X119881703Y-95524422D01*
X119881697Y-95524423D01*
X119609089Y-95583725D01*
X119609079Y-95583728D01*
X119609077Y-95583729D01*
X119491355Y-95627637D01*
X119347665Y-95681230D01*
X119102784Y-95814945D01*
X118879437Y-95982140D01*
X118879435Y-95982142D01*
X118879432Y-95982145D01*
X118682145Y-96179432D01*
X118682142Y-96179435D01*
X118682142Y-96179436D01*
X118682140Y-96179437D01*
X118514945Y-96402784D01*
X118431481Y-96555637D01*
X118387730Y-96635762D01*
X118381230Y-96647665D01*
X118369065Y-96680281D01*
X118332250Y-96778988D01*
X118283729Y-96909078D01*
X118283725Y-96909089D01*
X118224423Y-97181697D01*
X118224422Y-97181703D01*
X118224422Y-97181706D01*
X118210651Y-97374255D01*
X118204518Y-97460000D01*
X118224422Y-97738297D01*
X118232732Y-97776494D01*
X118234466Y-97873633D01*
X118198894Y-97964042D01*
X118131432Y-98033956D01*
X118042350Y-98072732D01*
X117945211Y-98074466D01*
X117936494Y-98072732D01*
X117898297Y-98064422D01*
X117620000Y-98044518D01*
X117341706Y-98064422D01*
X117341703Y-98064422D01*
X117341697Y-98064423D01*
X117069089Y-98123725D01*
X117069079Y-98123728D01*
X117069077Y-98123729D01*
X116913578Y-98181726D01*
X116807665Y-98221230D01*
X116562784Y-98354945D01*
X116339437Y-98522140D01*
X116339435Y-98522142D01*
X116339432Y-98522145D01*
X116142145Y-98719432D01*
X116142142Y-98719435D01*
X116142142Y-98719436D01*
X116142140Y-98719437D01*
X115974945Y-98942784D01*
X115841230Y-99187665D01*
X115810831Y-99269169D01*
X115752320Y-99426045D01*
X115743729Y-99449078D01*
X115743725Y-99449089D01*
X115684423Y-99721697D01*
X115664518Y-100000000D01*
X108125500Y-100000000D01*
X108125500Y-99411423D01*
X108125499Y-99411411D01*
X108097788Y-99236455D01*
X108097787Y-99236451D01*
X108097786Y-99236445D01*
X108090664Y-99214526D01*
X108079117Y-99178986D01*
X108043045Y-99067968D01*
X108043042Y-99067958D01*
X107987733Y-98959409D01*
X107962614Y-98910110D01*
X107962612Y-98910107D01*
X107962611Y-98910105D01*
X107914140Y-98843392D01*
X107858483Y-98766786D01*
X107811129Y-98719432D01*
X107733215Y-98641517D01*
X107633218Y-98541521D01*
X107633208Y-98541512D01*
X107627525Y-98537383D01*
X107627525Y-98537384D01*
X107606550Y-98522145D01*
X107489890Y-98437386D01*
X107489891Y-98437386D01*
X107489889Y-98437385D01*
X107332052Y-98356963D01*
X107332050Y-98356962D01*
X107332042Y-98356958D01*
X107332035Y-98356955D01*
X107332031Y-98356954D01*
X107209632Y-98317185D01*
X107163553Y-98302213D01*
X106988588Y-98274500D01*
X106988579Y-98274500D01*
X104469968Y-98274500D01*
X104374680Y-98255546D01*
X104293898Y-98201570D01*
X104239922Y-98120788D01*
X104220974Y-98027231D01*
X104218965Y-97738294D01*
X104204454Y-95650730D01*
X104222745Y-95555313D01*
X104276159Y-95474159D01*
X104356563Y-95419622D01*
X104451717Y-95400006D01*
X104453448Y-95400000D01*
X104500018Y-95400000D01*
X104561531Y-95398277D01*
X104578623Y-95397799D01*
X104731927Y-95362809D01*
X104873601Y-95294582D01*
X104996541Y-95196541D01*
X105094582Y-95073601D01*
X105162809Y-94931927D01*
X105165531Y-94920001D01*
X109694451Y-94920001D01*
X109714616Y-95189101D01*
X109774663Y-95452188D01*
X109774666Y-95452196D01*
X109873257Y-95703399D01*
X109943053Y-95824291D01*
X110008188Y-95937108D01*
X110147548Y-96111858D01*
X110176439Y-96148086D01*
X110374259Y-96331636D01*
X110597226Y-96483652D01*
X110840359Y-96600739D01*
X111098228Y-96680281D01*
X111365071Y-96720501D01*
X111365074Y-96720501D01*
X111634926Y-96720501D01*
X111634929Y-96720501D01*
X111901772Y-96680281D01*
X112159641Y-96600739D01*
X112402775Y-96483652D01*
X112625741Y-96331636D01*
X112823561Y-96148086D01*
X112991815Y-95937103D01*
X113126743Y-95703399D01*
X113225334Y-95452196D01*
X113285383Y-95189104D01*
X113305549Y-94920001D01*
X113285383Y-94650898D01*
X113243655Y-94468076D01*
X113225336Y-94387813D01*
X113225334Y-94387810D01*
X113225334Y-94387806D01*
X113126743Y-94136603D01*
X112991815Y-93902899D01*
X112991813Y-93902896D01*
X112991811Y-93902893D01*
X112823562Y-93691917D01*
X112625738Y-93508363D01*
X112402778Y-93356351D01*
X112402773Y-93356349D01*
X112159649Y-93239266D01*
X112159644Y-93239264D01*
X112159641Y-93239263D01*
X111901772Y-93159721D01*
X111634929Y-93119501D01*
X111365071Y-93119501D01*
X111164938Y-93149666D01*
X111098227Y-93159721D01*
X110840353Y-93239265D01*
X110597227Y-93356349D01*
X110374257Y-93508367D01*
X110176437Y-93691917D01*
X110008189Y-93902893D01*
X110008188Y-93902893D01*
X109873257Y-94136602D01*
X109873256Y-94136605D01*
X109774667Y-94387802D01*
X109774663Y-94387813D01*
X109714616Y-94650900D01*
X109694451Y-94920001D01*
X105165531Y-94920001D01*
X105197799Y-94778623D01*
X105200000Y-94700000D01*
X105200000Y-94699982D01*
X105197799Y-94621381D01*
X105197798Y-94621373D01*
X105162810Y-94468077D01*
X105162809Y-94468076D01*
X105162809Y-94468073D01*
X105107427Y-94353071D01*
X105094583Y-94326400D01*
X105094582Y-94326399D01*
X104996543Y-94203461D01*
X104996538Y-94203456D01*
X104873600Y-94105417D01*
X104873599Y-94105416D01*
X104771921Y-94056451D01*
X104731927Y-94037191D01*
X104731925Y-94037190D01*
X104731922Y-94037189D01*
X104578626Y-94002201D01*
X104578618Y-94002200D01*
X104500018Y-94000000D01*
X104500000Y-94000000D01*
X100256079Y-94000000D01*
X100160791Y-93981046D01*
X100160773Y-93981039D01*
X100155767Y-93978965D01*
X100074990Y-93924982D01*
X100021025Y-93844209D01*
X100018952Y-93839204D01*
X100000000Y-93743921D01*
X100000000Y-91342943D01*
X100000083Y-91336529D01*
X100002110Y-91257862D01*
X100007468Y-91212506D01*
X100040856Y-91055465D01*
X100056936Y-91005981D01*
X100120930Y-90862266D01*
X100146949Y-90817203D01*
X100239416Y-90689942D01*
X100274248Y-90651261D01*
X100393590Y-90543812D01*
X100430108Y-90516547D01*
X100497242Y-90475415D01*
X100502802Y-90472106D01*
X115497407Y-81814966D01*
X115502631Y-81812034D01*
X115571766Y-81774326D01*
X115614041Y-81756115D01*
X115766582Y-81706551D01*
X115817492Y-81695729D01*
X115973973Y-81679283D01*
X116026017Y-81679283D01*
X116182495Y-81695729D01*
G37*
G04 #@! TD.AperFunction*
M02*
