G04 #@! TF.GenerationSoftware,KiCad,Pcbnew,8.0.1*
G04 #@! TF.CreationDate,2024-04-29T19:52:15-05:00*
G04 #@! TF.ProjectId,LED_Hexpansion_v2,4c45445f-4865-4787-9061-6e73696f6e5f,rev?*
G04 #@! TF.SameCoordinates,Original*
G04 #@! TF.FileFunction,Copper,L1,Top*
G04 #@! TF.FilePolarity,Positive*
%FSLAX46Y46*%
G04 Gerber Fmt 4.6, Leading zero omitted, Abs format (unit mm)*
G04 Created by KiCad (PCBNEW 8.0.1) date 2024-04-29 19:52:15*
%MOMM*%
%LPD*%
G01*
G04 APERTURE LIST*
G04 Aperture macros list*
%AMRoundRect*
0 Rectangle with rounded corners*
0 $1 Rounding radius*
0 $2 $3 $4 $5 $6 $7 $8 $9 X,Y pos of 4 corners*
0 Add a 4 corners polygon primitive as box body*
4,1,4,$2,$3,$4,$5,$6,$7,$8,$9,$2,$3,0*
0 Add four circle primitives for the rounded corners*
1,1,$1+$1,$2,$3*
1,1,$1+$1,$4,$5*
1,1,$1+$1,$6,$7*
1,1,$1+$1,$8,$9*
0 Add four rect primitives between the rounded corners*
20,1,$1+$1,$2,$3,$4,$5,0*
20,1,$1+$1,$4,$5,$6,$7,0*
20,1,$1+$1,$6,$7,$8,$9,0*
20,1,$1+$1,$8,$9,$2,$3,0*%
%AMFreePoly0*
4,1,87,6.047416,3.588044,6.090111,3.543358,6.100000,3.500000,6.100000,-3.000000,6.080902,-3.058779,6.030901,-3.095106,6.000000,-3.100000,-6.000000,-3.100000,-6.058779,-3.080902,-6.095106,-3.030902,-6.100000,-3.000000,-6.100000,3.500000,-6.080902,3.558779,-6.030902,3.595106,-5.969098,3.595106,-5.919098,3.558779,-5.901613,3.517889,-5.000000,-1.440982,-4.098387,3.517889,-4.069082,3.572303,
-4.013390,3.599099,-3.952584,3.588044,-3.909889,3.543358,-3.901613,3.517889,-3.000000,-1.440982,-2.884704,-0.806854,-2.919135,-0.691848,-2.979715,-0.348279,-3.000000,0.000000,-2.979715,0.348279,-2.919135,0.691848,-2.819078,1.026060,-2.680898,1.346398,-2.506463,1.648527,-2.416235,1.769724,-2.098387,3.517889,-2.069082,3.572303,-2.013390,3.599099,-1.952584,3.588044,-1.909889,3.543359,
-1.901613,3.517889,-1.709340,2.460391,-1.500000,2.598076,-1.188239,2.754648,-0.860410,2.873969,-0.520945,2.954423,-0.193883,2.992649,-0.098387,3.517889,-0.069082,3.572303,-0.013390,3.599099,0.047416,3.588044,0.090110,3.543358,0.098387,3.517889,0.193884,2.992650,0.520945,2.954423,0.860410,2.873969,1.188239,2.754648,1.500000,2.598076,1.709340,2.460391,1.901613,3.517889,
1.930918,3.572303,1.986610,3.599099,2.047416,3.588044,2.090111,3.543358,2.098387,3.517889,2.416235,1.769724,2.506463,1.648527,2.680898,1.346398,2.819078,1.026060,2.919135,0.691848,2.979715,0.348279,3.000000,0.000000,2.979715,-0.348279,2.919135,-0.691848,2.884704,-0.806854,3.000000,-1.440982,3.901612,3.517889,3.930918,3.572303,3.986610,3.599099,4.047416,3.588044,
4.090111,3.543358,4.098387,3.517889,5.000000,-1.440982,5.901613,3.517889,5.930918,3.572303,5.986610,3.599099,6.047416,3.588044,6.047416,3.588044,$1*%
G04 Aperture macros list end*
G04 #@! TA.AperFunction,SMDPad,CuDef*
%ADD10RoundRect,0.150000X1.600000X0.150000X-1.600000X0.150000X-1.600000X-0.150000X1.600000X-0.150000X0*%
G04 #@! TD*
G04 #@! TA.AperFunction,SMDPad,CuDef*
%ADD11RoundRect,0.150000X1.200000X0.150000X-1.200000X0.150000X-1.200000X-0.150000X1.200000X-0.150000X0*%
G04 #@! TD*
G04 #@! TA.AperFunction,ComponentPad*
%ADD12FreePoly0,150.000000*%
G04 #@! TD*
G04 #@! TA.AperFunction,ComponentPad*
%ADD13C,1.600000*%
G04 #@! TD*
G04 #@! TA.AperFunction,ComponentPad*
%ADD14O,1.600000X1.600000*%
G04 #@! TD*
G04 #@! TA.AperFunction,ComponentPad*
%ADD15FreePoly0,30.000000*%
G04 #@! TD*
G04 #@! TA.AperFunction,ComponentPad*
%ADD16C,1.900000*%
G04 #@! TD*
G04 #@! TA.AperFunction,ComponentPad*
%ADD17C,0.700000*%
G04 #@! TD*
G04 #@! TA.AperFunction,ComponentPad*
%ADD18C,4.400000*%
G04 #@! TD*
G04 #@! TA.AperFunction,ViaPad*
%ADD19C,0.800000*%
G04 #@! TD*
G04 #@! TA.AperFunction,Conductor*
%ADD20C,0.250000*%
G04 #@! TD*
G04 APERTURE END LIST*
D10*
X100500000Y-96600000D03*
D11*
X100900000Y-97400000D03*
X100900000Y-98200000D03*
D10*
X100500000Y-99000000D03*
D11*
X100900000Y-99800000D03*
X100900000Y-100600000D03*
D10*
X100500000Y-101400000D03*
D11*
X100900000Y-102200000D03*
X100900000Y-103000000D03*
D10*
X100500000Y-103800000D03*
D12*
X124000000Y-90500000D03*
D13*
X111500000Y-94920001D03*
D14*
X111499998Y-105080000D03*
D15*
X124500000Y-109000000D03*
D16*
X117620000Y-100000000D03*
X120160000Y-102540000D03*
X120160000Y-97460000D03*
D17*
X110850000Y-112500000D03*
X111333274Y-111333274D03*
X111333274Y-113666726D03*
X112500000Y-110850000D03*
D18*
X112500000Y-112500000D03*
D17*
X112500000Y-114150000D03*
X113666726Y-111333274D03*
X113666726Y-113666726D03*
X114150000Y-112500000D03*
D19*
X128500000Y-90500000D03*
X121500000Y-86500000D03*
X125500000Y-88500000D03*
X126000000Y-91500000D03*
X122000000Y-89500000D03*
X121500000Y-113500000D03*
X122500000Y-110000000D03*
X125500000Y-111000000D03*
X126500000Y-108000000D03*
X130000000Y-108500000D03*
D20*
X124500000Y-109000000D02*
X112500000Y-109000000D01*
X100500000Y-103800000D02*
X104300000Y-103800000D01*
X104300000Y-103800000D02*
X112500000Y-112000000D01*
X112500000Y-109000000D02*
X112500000Y-112500000D01*
X112500000Y-112000000D02*
X112500000Y-112500000D01*
X100900000Y-99800000D02*
X107800000Y-99800000D01*
X108600000Y-100600000D02*
X108600000Y-106600000D01*
X114000000Y-108000000D02*
X110000000Y-108000000D01*
X100900000Y-99800000D02*
X100900000Y-100600000D01*
X114000000Y-102500000D02*
X114000000Y-108000000D01*
X120160000Y-102540000D02*
X114040000Y-102540000D01*
X107800000Y-99800000D02*
X108600000Y-100600000D01*
X114040000Y-102540000D02*
X114000000Y-102500000D01*
X108600000Y-106600000D02*
X110000000Y-108000000D01*
X100900000Y-100600000D02*
X108600000Y-100600000D01*
X124000000Y-90500000D02*
X111500000Y-90500000D01*
X111500000Y-90500000D02*
X111500000Y-94920001D01*
X111500000Y-100500000D02*
X111499998Y-100500002D01*
X111499998Y-100500002D02*
X111499998Y-105080000D01*
X112000000Y-105580000D02*
X111499998Y-105580000D01*
X117620000Y-100000000D02*
X111500000Y-100000000D01*
X111500000Y-100000000D02*
X111500000Y-100500000D01*
G04 #@! TA.AperFunction,Conductor*
G36*
X116195565Y-81697103D02*
G01*
X116220909Y-81702490D01*
X116396990Y-81759703D01*
X116418030Y-81768766D01*
X116498694Y-81812762D01*
X116501287Y-81814218D01*
X120404361Y-84067659D01*
X120452576Y-84118225D01*
X120465799Y-84186832D01*
X120439831Y-84251697D01*
X120382916Y-84292225D01*
X120337642Y-84298955D01*
X120272832Y-84296487D01*
X120272830Y-84296487D01*
X120208293Y-84303272D01*
X120179690Y-84307106D01*
X120042430Y-84350264D01*
X119922901Y-84430336D01*
X119922891Y-84430344D01*
X119874658Y-84473772D01*
X119864086Y-84483569D01*
X119864078Y-84483577D01*
X119775137Y-84596676D01*
X119775136Y-84596677D01*
X116763781Y-89812500D01*
X116713214Y-89860716D01*
X116656394Y-89874500D01*
X111438389Y-89874500D01*
X111317555Y-89898535D01*
X111317545Y-89898538D01*
X111203716Y-89945687D01*
X111203707Y-89945692D01*
X111101267Y-90014141D01*
X111101263Y-90014144D01*
X111014144Y-90101263D01*
X111014141Y-90101267D01*
X110945692Y-90203707D01*
X110945687Y-90203716D01*
X110898538Y-90317545D01*
X110898535Y-90317555D01*
X110874500Y-90438389D01*
X110874500Y-93705812D01*
X110854815Y-93772851D01*
X110821623Y-93807387D01*
X110660859Y-93919954D01*
X110499954Y-94080859D01*
X110369432Y-94267266D01*
X110369431Y-94267268D01*
X110273261Y-94473503D01*
X110273258Y-94473512D01*
X110214366Y-94693303D01*
X110214364Y-94693314D01*
X110194532Y-94919999D01*
X110194532Y-94920002D01*
X110214364Y-95146687D01*
X110214366Y-95146698D01*
X110273258Y-95366489D01*
X110273261Y-95366498D01*
X110369431Y-95572733D01*
X110369432Y-95572735D01*
X110499954Y-95759142D01*
X110660858Y-95920046D01*
X110660861Y-95920048D01*
X110847266Y-96050569D01*
X111053504Y-96146740D01*
X111273308Y-96205636D01*
X111435230Y-96219802D01*
X111499998Y-96225469D01*
X111500000Y-96225469D01*
X111500002Y-96225469D01*
X111556673Y-96220510D01*
X111726692Y-96205636D01*
X111946496Y-96146740D01*
X112152734Y-96050569D01*
X112339139Y-95920048D01*
X112500047Y-95759140D01*
X112630568Y-95572735D01*
X112726739Y-95366497D01*
X112785635Y-95146693D01*
X112805468Y-94920001D01*
X112785635Y-94693309D01*
X112726739Y-94473505D01*
X112630568Y-94267267D01*
X112514284Y-94101195D01*
X112500045Y-94080859D01*
X112339140Y-93919954D01*
X112178377Y-93807387D01*
X112134752Y-93752810D01*
X112125500Y-93705812D01*
X112125500Y-91249500D01*
X112145185Y-91182461D01*
X112197989Y-91136706D01*
X112249500Y-91125500D01*
X116931751Y-91125500D01*
X116958559Y-91128432D01*
X116976045Y-91132305D01*
X117040755Y-91137177D01*
X117040756Y-91137177D01*
X117040769Y-91137178D01*
X117069600Y-91138522D01*
X117069603Y-91138522D01*
X117069604Y-91138521D01*
X117069608Y-91138522D01*
X117165728Y-91126464D01*
X117181162Y-91125500D01*
X118106556Y-91125500D01*
X118173595Y-91145185D01*
X118219350Y-91197989D01*
X118229294Y-91267147D01*
X118223303Y-91291285D01*
X118217184Y-91308378D01*
X118211112Y-91325342D01*
X118211106Y-91325363D01*
X118192587Y-91390603D01*
X118192585Y-91390611D01*
X118186738Y-91418120D01*
X118176242Y-91499670D01*
X118176242Y-91499671D01*
X118190065Y-91642879D01*
X118190067Y-91642887D01*
X118205431Y-91705936D01*
X118213066Y-91733784D01*
X118274214Y-91864024D01*
X118369578Y-91971761D01*
X118419067Y-92013737D01*
X118441598Y-92031767D01*
X118567619Y-92101194D01*
X118708096Y-92132305D01*
X118708099Y-92132305D01*
X118708103Y-92132306D01*
X118772817Y-92137178D01*
X118801646Y-92138522D01*
X118801646Y-92138521D01*
X118801654Y-92138522D01*
X118944415Y-92120614D01*
X119076349Y-92063210D01*
X119131565Y-92029114D01*
X119143736Y-92021356D01*
X119251474Y-91925993D01*
X119893315Y-91169289D01*
X119951691Y-91130898D01*
X119987879Y-91125500D01*
X120196563Y-91125500D01*
X120263602Y-91145185D01*
X120309357Y-91197989D01*
X120319301Y-91267147D01*
X120313309Y-91291290D01*
X119943167Y-92325329D01*
X119924638Y-92390602D01*
X119918795Y-92418088D01*
X119918793Y-92418096D01*
X119908292Y-92499671D01*
X119922116Y-92642885D01*
X119922116Y-92642887D01*
X119937476Y-92705918D01*
X119945115Y-92733784D01*
X119945116Y-92733787D01*
X119945117Y-92733789D01*
X120006267Y-92864028D01*
X120101632Y-92971764D01*
X120151122Y-93013740D01*
X120173649Y-93031767D01*
X120299670Y-93101194D01*
X120440147Y-93132305D01*
X120440150Y-93132305D01*
X120440154Y-93132306D01*
X120498230Y-93136678D01*
X120504856Y-93137177D01*
X120504857Y-93137177D01*
X120504870Y-93137178D01*
X120533701Y-93138522D01*
X120533703Y-93138522D01*
X120533704Y-93138521D01*
X120533709Y-93138522D01*
X120676470Y-93120613D01*
X120808403Y-93063208D01*
X120863618Y-93029112D01*
X120875786Y-93021356D01*
X120983524Y-92925993D01*
X121127746Y-92755960D01*
X121186119Y-92717571D01*
X121255985Y-92716834D01*
X121315158Y-92753986D01*
X121317251Y-92756413D01*
X121426946Y-92887143D01*
X121426955Y-92887153D01*
X121426958Y-92887156D01*
X121467287Y-92929903D01*
X121669558Y-93120735D01*
X121704812Y-93181058D01*
X121701857Y-93250865D01*
X121701210Y-93252719D01*
X121675218Y-93325330D01*
X121656693Y-93390587D01*
X121656690Y-93390600D01*
X121650844Y-93418102D01*
X121640343Y-93499671D01*
X121654166Y-93642879D01*
X121654168Y-93642887D01*
X121669532Y-93705936D01*
X121677167Y-93733784D01*
X121738315Y-93864024D01*
X121738316Y-93864025D01*
X121831537Y-93969342D01*
X121833679Y-93971761D01*
X121883168Y-94013737D01*
X121905699Y-94031767D01*
X122031721Y-94101195D01*
X122172197Y-94132305D01*
X122236907Y-94137177D01*
X122236908Y-94137177D01*
X122236921Y-94137178D01*
X122265752Y-94138522D01*
X122265754Y-94138522D01*
X122265755Y-94138521D01*
X122265760Y-94138522D01*
X122408521Y-94120613D01*
X122540454Y-94063208D01*
X122595669Y-94029112D01*
X122607837Y-94021356D01*
X122715575Y-93925993D01*
X122765470Y-93867168D01*
X122823844Y-93828778D01*
X122893710Y-93828041D01*
X122895536Y-93828571D01*
X123162000Y-93908346D01*
X123219201Y-93921902D01*
X123242414Y-93925995D01*
X123387190Y-93951523D01*
X123449793Y-93982550D01*
X123485684Y-94042497D01*
X123483467Y-94112331D01*
X123482404Y-94115428D01*
X123407270Y-94325325D01*
X123388744Y-94390587D01*
X123388741Y-94390600D01*
X123382895Y-94418102D01*
X123372394Y-94499671D01*
X123386217Y-94642879D01*
X123386219Y-94642887D01*
X123401583Y-94705936D01*
X123409218Y-94733784D01*
X123470366Y-94864024D01*
X123470367Y-94864025D01*
X123519912Y-94919999D01*
X123565730Y-94971761D01*
X123615219Y-95013737D01*
X123637750Y-95031767D01*
X123763772Y-95101195D01*
X123904248Y-95132305D01*
X123968958Y-95137177D01*
X123968959Y-95137177D01*
X123968972Y-95137178D01*
X123997803Y-95138522D01*
X123997805Y-95138522D01*
X123997806Y-95138521D01*
X123997811Y-95138522D01*
X124140572Y-95120613D01*
X124272505Y-95063208D01*
X124327720Y-95029112D01*
X124339888Y-95021356D01*
X124447626Y-94925993D01*
X125450523Y-93743618D01*
X125508898Y-93705227D01*
X125578764Y-93704490D01*
X125637937Y-93741642D01*
X125667631Y-93804888D01*
X125661832Y-93865619D01*
X125139314Y-95325343D01*
X125120790Y-95390603D01*
X125120788Y-95390611D01*
X125114941Y-95418120D01*
X125104445Y-95499670D01*
X125104445Y-95499671D01*
X125118268Y-95642879D01*
X125118270Y-95642887D01*
X125133634Y-95705936D01*
X125141269Y-95733784D01*
X125202417Y-95864024D01*
X125297781Y-95971761D01*
X125347270Y-96013737D01*
X125369801Y-96031767D01*
X125495823Y-96101195D01*
X125636299Y-96132305D01*
X125701009Y-96137177D01*
X125701010Y-96137177D01*
X125701023Y-96137178D01*
X125729854Y-96138522D01*
X125729856Y-96138522D01*
X125729857Y-96138521D01*
X125729862Y-96138522D01*
X125872623Y-96120613D01*
X126004556Y-96063208D01*
X126059771Y-96029112D01*
X126071939Y-96021356D01*
X126179677Y-95925993D01*
X127182575Y-94743618D01*
X127240949Y-94705228D01*
X127310815Y-94704491D01*
X127369988Y-94741643D01*
X127399682Y-94804890D01*
X127393883Y-94865620D01*
X126871368Y-96325334D01*
X126871367Y-96325339D01*
X126845403Y-96435419D01*
X126845401Y-96435427D01*
X126839833Y-96481798D01*
X126839832Y-96481803D01*
X126840709Y-96609229D01*
X126879928Y-96747665D01*
X126879928Y-96747666D01*
X126906312Y-96806925D01*
X126906322Y-96806947D01*
X126913032Y-96820930D01*
X126918816Y-96832983D01*
X126960545Y-96891582D01*
X127002275Y-96950183D01*
X127115372Y-97039124D01*
X127142155Y-97054587D01*
X127171566Y-97071568D01*
X127171572Y-97071571D01*
X127196982Y-97085289D01*
X127333391Y-97131049D01*
X127477167Y-97136525D01*
X127477167Y-97136524D01*
X127477168Y-97136525D01*
X127477169Y-97136525D01*
X127489446Y-97135234D01*
X127541705Y-97129741D01*
X127560334Y-97127243D01*
X127570309Y-97125906D01*
X127570311Y-97125905D01*
X127570313Y-97125905D01*
X127707569Y-97082749D01*
X127827106Y-97002671D01*
X127875331Y-96959249D01*
X127885920Y-96949437D01*
X127974861Y-96836339D01*
X130478637Y-92499672D01*
X131224864Y-91207169D01*
X131259003Y-91135592D01*
X131259010Y-91135578D01*
X131270783Y-91104908D01*
X131296112Y-91014685D01*
X131301588Y-90870909D01*
X131294804Y-90806371D01*
X131292692Y-90790625D01*
X131290969Y-90777766D01*
X131247812Y-90640508D01*
X131247812Y-90640507D01*
X131203346Y-90574131D01*
X131182390Y-90507483D01*
X131200795Y-90440081D01*
X131252718Y-90393328D01*
X131321674Y-90382069D01*
X131368367Y-90397734D01*
X131498721Y-90472993D01*
X131501208Y-90474468D01*
X131579680Y-90522314D01*
X131598097Y-90536035D01*
X131714121Y-90640508D01*
X131735660Y-90659902D01*
X131753006Y-90679168D01*
X131860925Y-90827716D01*
X131873886Y-90850166D01*
X131948562Y-91017905D01*
X131956570Y-91042555D01*
X131983503Y-91169290D01*
X131995054Y-91223644D01*
X131997726Y-91246413D01*
X131999953Y-91338263D01*
X131999989Y-91341269D01*
X131999989Y-108338020D01*
X131980304Y-108405059D01*
X131927500Y-108450814D01*
X131858342Y-108460758D01*
X131794786Y-108431733D01*
X131760871Y-108384106D01*
X131724429Y-108293079D01*
X131724428Y-108293076D01*
X128474436Y-102663925D01*
X128474420Y-102663901D01*
X128407337Y-102572990D01*
X128407336Y-102572989D01*
X128375575Y-102538747D01*
X128277919Y-102457064D01*
X128277915Y-102457062D01*
X128147118Y-102397490D01*
X128147115Y-102397489D01*
X128084818Y-102379266D01*
X128056908Y-102371960D01*
X127913693Y-102359810D01*
X127772846Y-102388502D01*
X127711760Y-102410369D01*
X127684902Y-102420858D01*
X127684897Y-102420860D01*
X127561882Y-102495210D01*
X127464805Y-102601197D01*
X127464791Y-102601215D01*
X127428240Y-102654785D01*
X127412649Y-102679098D01*
X127412644Y-102679108D01*
X127356834Y-102811552D01*
X127340596Y-102954366D01*
X127340595Y-102954371D01*
X127342515Y-103019231D01*
X127343148Y-103033645D01*
X127371837Y-103174486D01*
X127895280Y-104636799D01*
X127899340Y-104706551D01*
X127865045Y-104767425D01*
X127803284Y-104800094D01*
X127733664Y-104794186D01*
X127683970Y-104758799D01*
X126679296Y-103574331D01*
X126679289Y-103574323D01*
X126632092Y-103525708D01*
X126632079Y-103525697D01*
X126611188Y-103506885D01*
X126545869Y-103457064D01*
X126415067Y-103397490D01*
X126415064Y-103397489D01*
X126352743Y-103379259D01*
X126324863Y-103371961D01*
X126268137Y-103367148D01*
X125875423Y-104832773D01*
X126163229Y-105636800D01*
X126167289Y-105706552D01*
X126132994Y-105767426D01*
X126071233Y-105800095D01*
X126001613Y-105794187D01*
X125951919Y-105758800D01*
X125705226Y-105467959D01*
X125151089Y-107536023D01*
X125114187Y-107517221D01*
X124874668Y-107439397D01*
X124668107Y-107406681D01*
X125311854Y-105004190D01*
X125311854Y-105004189D01*
X124947245Y-104574331D01*
X124947238Y-104574323D01*
X124900049Y-104525715D01*
X124900036Y-104525703D01*
X124879155Y-104506901D01*
X124879146Y-104506893D01*
X124813818Y-104457064D01*
X124683017Y-104397490D01*
X124683014Y-104397489D01*
X124620709Y-104379264D01*
X124592812Y-104371962D01*
X124449595Y-104359810D01*
X124308746Y-104388501D01*
X124247658Y-104410368D01*
X124220790Y-104420861D01*
X124220784Y-104420864D01*
X124097778Y-104495211D01*
X124000692Y-104601211D01*
X124000689Y-104601214D01*
X123964121Y-104654812D01*
X123948548Y-104679098D01*
X123892733Y-104811554D01*
X123876495Y-104954366D01*
X123876494Y-104954371D01*
X123878414Y-105019231D01*
X123879047Y-105033645D01*
X123907736Y-105174488D01*
X123983075Y-105384960D01*
X123987135Y-105454711D01*
X123952840Y-105515585D01*
X123891078Y-105548254D01*
X123887862Y-105548865D01*
X123719289Y-105578589D01*
X123662148Y-105592132D01*
X123395427Y-105671983D01*
X123325558Y-105672352D01*
X123266581Y-105634889D01*
X123265299Y-105633402D01*
X123215207Y-105574345D01*
X123215187Y-105574323D01*
X123167984Y-105525703D01*
X123147104Y-105506901D01*
X123147095Y-105506893D01*
X123081767Y-105457064D01*
X122950966Y-105397490D01*
X122950963Y-105397489D01*
X122888666Y-105379266D01*
X122860756Y-105371960D01*
X122717541Y-105359810D01*
X122576694Y-105388502D01*
X122515608Y-105410369D01*
X122488750Y-105420858D01*
X122488745Y-105420860D01*
X122365730Y-105495210D01*
X122268653Y-105601197D01*
X122268639Y-105601215D01*
X122232088Y-105654785D01*
X122216497Y-105679098D01*
X122216492Y-105679108D01*
X122160682Y-105811552D01*
X122144444Y-105954366D01*
X122144443Y-105954371D01*
X122146363Y-106019231D01*
X122146996Y-106033645D01*
X122175686Y-106174492D01*
X122175686Y-106174493D01*
X122201791Y-106247420D01*
X122205851Y-106317172D01*
X122171556Y-106378046D01*
X122170139Y-106379404D01*
X121967637Y-106570454D01*
X121927336Y-106613168D01*
X121927328Y-106613177D01*
X121817298Y-106744306D01*
X121759127Y-106783008D01*
X121689266Y-106784116D01*
X121629896Y-106747279D01*
X121627745Y-106744810D01*
X121483145Y-106574333D01*
X121435933Y-106525703D01*
X121415053Y-106506901D01*
X121415044Y-106506893D01*
X121349716Y-106457064D01*
X121218915Y-106397490D01*
X121218912Y-106397489D01*
X121156615Y-106379266D01*
X121128705Y-106371960D01*
X120985490Y-106359810D01*
X120844643Y-106388502D01*
X120783557Y-106410369D01*
X120756699Y-106420858D01*
X120756694Y-106420860D01*
X120633679Y-106495210D01*
X120536602Y-106601197D01*
X120536588Y-106601215D01*
X120500037Y-106654785D01*
X120484446Y-106679098D01*
X120484441Y-106679108D01*
X120428631Y-106811552D01*
X120412393Y-106954366D01*
X120412392Y-106954371D01*
X120414312Y-107019231D01*
X120414945Y-107033645D01*
X120443634Y-107174486D01*
X120633598Y-107705180D01*
X120633599Y-107705181D01*
X123036024Y-108348908D01*
X123017221Y-108385813D01*
X122939397Y-108625332D01*
X122906681Y-108831889D01*
X120838549Y-108277736D01*
X120967078Y-108636800D01*
X120971138Y-108706552D01*
X120936843Y-108767426D01*
X120875082Y-108800095D01*
X120805462Y-108794187D01*
X120755768Y-108758800D01*
X120203363Y-108107538D01*
X118737379Y-107714729D01*
X118696580Y-107811555D01*
X118680342Y-107954366D01*
X118680341Y-107954371D01*
X118682261Y-108019231D01*
X118682894Y-108033645D01*
X118711583Y-108174486D01*
X119235026Y-109636800D01*
X119239086Y-109706552D01*
X119204791Y-109767426D01*
X119143030Y-109800095D01*
X119073410Y-109794187D01*
X119023716Y-109758800D01*
X118019044Y-108574333D01*
X118019029Y-108574318D01*
X117936768Y-108496877D01*
X117936760Y-108496870D01*
X117899409Y-108468879D01*
X117899402Y-108468874D01*
X117788707Y-108405974D01*
X117788701Y-108405972D01*
X117649353Y-108370756D01*
X117584808Y-108363972D01*
X117556045Y-108361777D01*
X117412958Y-108375440D01*
X117279509Y-108428865D01*
X117279508Y-108428865D01*
X117223330Y-108461300D01*
X117198753Y-108476442D01*
X117091028Y-108571601D01*
X117014477Y-108693249D01*
X117014470Y-108693262D01*
X116988087Y-108752521D01*
X116977108Y-108779208D01*
X116977107Y-108779210D01*
X116945887Y-108919506D01*
X116945887Y-108919510D01*
X116955458Y-109062931D01*
X116955458Y-109062933D01*
X116968944Y-109126382D01*
X116972150Y-109140468D01*
X117025570Y-109273907D01*
X117025571Y-109273910D01*
X120275560Y-114903058D01*
X120275579Y-114903088D01*
X120320443Y-114968366D01*
X120341122Y-114993904D01*
X120341131Y-114993914D01*
X120406538Y-115060896D01*
X120528190Y-115137448D01*
X120528199Y-115137453D01*
X120587458Y-115163836D01*
X120614145Y-115174815D01*
X120614147Y-115174816D01*
X120754445Y-115206036D01*
X120897868Y-115196465D01*
X120897870Y-115196465D01*
X120961319Y-115182979D01*
X120975405Y-115179773D01*
X121108844Y-115126353D01*
X121108847Y-115126352D01*
X131501134Y-109126363D01*
X131501164Y-109126344D01*
X131566442Y-109081480D01*
X131591980Y-109060801D01*
X131591990Y-109060792D01*
X131658974Y-108995383D01*
X131704715Y-108922694D01*
X131757080Y-108876437D01*
X131826140Y-108865834D01*
X131889970Y-108894252D01*
X131928303Y-108952667D01*
X131928970Y-109022533D01*
X131922943Y-109039175D01*
X131873719Y-109149722D01*
X131860757Y-109172171D01*
X131849496Y-109187669D01*
X131784880Y-109276600D01*
X131752855Y-109320675D01*
X131735508Y-109339938D01*
X131597867Y-109463863D01*
X131579678Y-109477444D01*
X131501357Y-109525429D01*
X131498577Y-109527083D01*
X116501287Y-118185775D01*
X116498663Y-118187248D01*
X116418041Y-118231222D01*
X116396983Y-118240293D01*
X116220916Y-118297501D01*
X116195559Y-118302891D01*
X116012956Y-118322083D01*
X115987034Y-118322083D01*
X115804430Y-118302891D01*
X115779073Y-118297501D01*
X115603006Y-118240293D01*
X115581954Y-118231224D01*
X115501323Y-118187246D01*
X115498702Y-118185775D01*
X105650653Y-112500000D01*
X109795065Y-112500000D01*
X109814786Y-112826038D01*
X109873667Y-113147341D01*
X109970835Y-113459164D01*
X109970839Y-113459175D01*
X110104897Y-113757041D01*
X110104898Y-113757043D01*
X110273881Y-114036576D01*
X110421476Y-114224968D01*
X111563708Y-113082736D01*
X111660967Y-113216602D01*
X111783398Y-113339033D01*
X111917262Y-113436290D01*
X110775030Y-114578522D01*
X110775030Y-114578523D01*
X110963423Y-114726118D01*
X111242956Y-114895101D01*
X111242958Y-114895102D01*
X111540824Y-115029160D01*
X111540835Y-115029164D01*
X111852658Y-115126332D01*
X112173961Y-115185213D01*
X112500000Y-115204934D01*
X112826038Y-115185213D01*
X113147341Y-115126332D01*
X113459164Y-115029164D01*
X113459175Y-115029160D01*
X113757041Y-114895102D01*
X113757043Y-114895101D01*
X114036586Y-114726112D01*
X114224968Y-114578523D01*
X114224968Y-114578522D01*
X113082737Y-113436290D01*
X113216602Y-113339033D01*
X113339033Y-113216602D01*
X113436290Y-113082737D01*
X114578522Y-114224968D01*
X114578523Y-114224968D01*
X114726112Y-114036586D01*
X114895101Y-113757043D01*
X114895102Y-113757041D01*
X115029160Y-113459175D01*
X115029164Y-113459164D01*
X115126332Y-113147341D01*
X115185213Y-112826038D01*
X115204934Y-112500000D01*
X115185213Y-112173961D01*
X115126332Y-111852658D01*
X115029164Y-111540835D01*
X115029160Y-111540824D01*
X114895102Y-111242958D01*
X114895101Y-111242956D01*
X114726118Y-110963423D01*
X114578522Y-110775030D01*
X113436290Y-111917262D01*
X113339033Y-111783398D01*
X113216602Y-111660967D01*
X113082736Y-111563709D01*
X114224968Y-110421476D01*
X114036576Y-110273881D01*
X113757043Y-110104898D01*
X113757041Y-110104897D01*
X113459175Y-109970839D01*
X113459164Y-109970835D01*
X113147341Y-109873667D01*
X112826038Y-109814786D01*
X112500000Y-109795065D01*
X112173961Y-109814786D01*
X111852658Y-109873667D01*
X111540835Y-109970835D01*
X111540824Y-109970839D01*
X111242958Y-110104897D01*
X111242956Y-110104898D01*
X110963422Y-110273881D01*
X110963416Y-110273886D01*
X110775030Y-110421474D01*
X110775029Y-110421476D01*
X111917262Y-111563709D01*
X111783398Y-111660967D01*
X111660967Y-111783398D01*
X111563709Y-111917262D01*
X110421476Y-110775029D01*
X110421474Y-110775030D01*
X110273886Y-110963416D01*
X110273881Y-110963422D01*
X110104898Y-111242956D01*
X110104897Y-111242958D01*
X109970839Y-111540824D01*
X109970835Y-111540835D01*
X109873667Y-111852658D01*
X109814786Y-112173961D01*
X109795065Y-112500000D01*
X105650653Y-112500000D01*
X100501428Y-109527093D01*
X100498608Y-109525415D01*
X100420311Y-109477404D01*
X100402161Y-109463847D01*
X100264511Y-109339913D01*
X100247165Y-109320649D01*
X100150545Y-109187671D01*
X100139264Y-109172145D01*
X100126306Y-109149703D01*
X100051634Y-108982002D01*
X100043626Y-108957358D01*
X100005112Y-108776200D01*
X100002445Y-108753674D01*
X100000042Y-108661846D01*
X100000000Y-108658603D01*
X100000000Y-106253025D01*
X100000147Y-106246989D01*
X100000363Y-106242548D01*
X100001352Y-106222261D01*
X100010642Y-106180856D01*
X100030659Y-106132529D01*
X100057534Y-106092308D01*
X100092308Y-106057534D01*
X100132529Y-106030659D01*
X100180856Y-106010642D01*
X100222261Y-106001352D01*
X100241421Y-106000418D01*
X100246990Y-106000147D01*
X100253026Y-106000000D01*
X104500015Y-106000000D01*
X104551275Y-105998564D01*
X104578623Y-105997799D01*
X104731927Y-105962809D01*
X104873601Y-105894582D01*
X104996541Y-105796541D01*
X105094582Y-105673601D01*
X105162809Y-105531927D01*
X105197799Y-105378623D01*
X105200000Y-105300000D01*
X105197799Y-105221377D01*
X105177501Y-105132447D01*
X105162809Y-105068072D01*
X105094583Y-104926401D01*
X105094582Y-104926400D01*
X105094582Y-104926399D01*
X104996541Y-104803459D01*
X104873601Y-104705418D01*
X104873599Y-104705417D01*
X104873598Y-104705416D01*
X104731927Y-104637190D01*
X104578625Y-104602201D01*
X104578615Y-104602200D01*
X104500015Y-104600000D01*
X104500000Y-104600000D01*
X104389804Y-104600000D01*
X104322765Y-104580315D01*
X104277010Y-104527511D01*
X104265807Y-104476862D01*
X104265669Y-104457064D01*
X104244074Y-101350362D01*
X104263292Y-101283187D01*
X104315777Y-101237066D01*
X104368071Y-101225500D01*
X107850500Y-101225500D01*
X107917539Y-101245185D01*
X107963294Y-101297989D01*
X107974500Y-101349500D01*
X107974500Y-106661611D01*
X107998535Y-106782444D01*
X107998540Y-106782461D01*
X108045685Y-106896280D01*
X108045690Y-106896289D01*
X108079914Y-106947507D01*
X108079915Y-106947509D01*
X108114141Y-106998733D01*
X108205586Y-107090178D01*
X108205608Y-107090198D01*
X109511016Y-108395606D01*
X109511045Y-108395637D01*
X109601264Y-108485856D01*
X109601267Y-108485858D01*
X109652490Y-108520084D01*
X109703714Y-108554312D01*
X109784207Y-108587652D01*
X109817548Y-108601463D01*
X109877971Y-108613481D01*
X109938393Y-108625500D01*
X114061607Y-108625500D01*
X114061608Y-108625499D01*
X114182452Y-108601463D01*
X114296286Y-108554311D01*
X114398733Y-108485858D01*
X114485858Y-108398733D01*
X114554311Y-108296286D01*
X114601463Y-108182452D01*
X114625500Y-108061606D01*
X114625500Y-107371134D01*
X119386919Y-107371134D01*
X119489126Y-107398521D01*
X119489126Y-107398520D01*
X119486857Y-107397487D01*
X119486855Y-107397486D01*
X119424558Y-107379264D01*
X119396667Y-107371963D01*
X119396650Y-107371960D01*
X119386919Y-107371134D01*
X114625500Y-107371134D01*
X114625500Y-103289500D01*
X114645185Y-103222461D01*
X114697989Y-103176706D01*
X114749500Y-103165500D01*
X118769681Y-103165500D01*
X118836720Y-103185185D01*
X118876951Y-103228560D01*
X118877145Y-103228434D01*
X118877884Y-103229565D01*
X118878737Y-103230485D01*
X118879952Y-103232731D01*
X118967772Y-103367148D01*
X119011429Y-103433969D01*
X119174236Y-103610825D01*
X119174239Y-103610827D01*
X119174242Y-103610830D01*
X119363924Y-103758466D01*
X119363930Y-103758470D01*
X119363933Y-103758472D01*
X119575344Y-103872882D01*
X119575347Y-103872883D01*
X119802699Y-103950933D01*
X119802701Y-103950933D01*
X119802703Y-103950934D01*
X120039808Y-103990500D01*
X120039809Y-103990500D01*
X120280191Y-103990500D01*
X120280192Y-103990500D01*
X120517297Y-103950934D01*
X120744656Y-103872882D01*
X120778484Y-103854575D01*
X125619893Y-103854575D01*
X125643009Y-103768303D01*
X125624785Y-103811550D01*
X125619893Y-103854575D01*
X120778484Y-103854575D01*
X120956067Y-103758472D01*
X121145764Y-103610825D01*
X121308571Y-103433969D01*
X121440049Y-103232728D01*
X121536610Y-103012591D01*
X121595620Y-102779563D01*
X121610400Y-102601197D01*
X121615471Y-102540005D01*
X121615471Y-102539994D01*
X121600540Y-102359810D01*
X121595620Y-102300437D01*
X121536610Y-102067409D01*
X121440049Y-101847272D01*
X121440046Y-101847268D01*
X121308572Y-101646033D01*
X121308571Y-101646031D01*
X121145764Y-101469175D01*
X121145759Y-101469171D01*
X121145757Y-101469169D01*
X120956075Y-101321533D01*
X120956069Y-101321529D01*
X120744657Y-101207118D01*
X120744652Y-101207116D01*
X120517300Y-101129066D01*
X120339468Y-101099391D01*
X120280192Y-101089500D01*
X120039808Y-101089500D01*
X119992387Y-101097413D01*
X119802699Y-101129066D01*
X119575347Y-101207116D01*
X119575342Y-101207118D01*
X119363930Y-101321529D01*
X119363924Y-101321533D01*
X119174242Y-101469169D01*
X119174239Y-101469172D01*
X119011430Y-101646029D01*
X119011427Y-101646033D01*
X118879952Y-101847268D01*
X118878737Y-101849515D01*
X118877999Y-101850258D01*
X118877145Y-101851566D01*
X118876875Y-101851390D01*
X118829518Y-101899107D01*
X118769681Y-101914500D01*
X114245655Y-101914500D01*
X114198203Y-101905061D01*
X114182455Y-101898538D01*
X114182453Y-101898537D01*
X114182452Y-101898537D01*
X114122029Y-101886518D01*
X114061610Y-101874500D01*
X114061607Y-101874500D01*
X113938393Y-101874500D01*
X113938389Y-101874500D01*
X113877971Y-101886518D01*
X113840259Y-101894019D01*
X113817550Y-101898536D01*
X113816172Y-101899107D01*
X113784207Y-101912347D01*
X113703719Y-101945684D01*
X113703705Y-101945692D01*
X113601272Y-102014138D01*
X113601264Y-102014144D01*
X113514143Y-102101265D01*
X113514142Y-102101267D01*
X113506000Y-102113453D01*
X113445688Y-102203714D01*
X113415194Y-102277334D01*
X113398538Y-102317544D01*
X113398535Y-102317556D01*
X113374500Y-102438389D01*
X113374500Y-107250500D01*
X113354815Y-107317539D01*
X113302011Y-107363294D01*
X113250500Y-107374500D01*
X110310452Y-107374500D01*
X110243413Y-107354815D01*
X110222771Y-107338181D01*
X109261819Y-106377229D01*
X109228334Y-106315906D01*
X109225500Y-106289548D01*
X109225500Y-105080001D01*
X110194530Y-105080001D01*
X110214362Y-105306686D01*
X110214364Y-105306697D01*
X110273256Y-105526488D01*
X110273259Y-105526497D01*
X110369429Y-105732732D01*
X110369430Y-105732734D01*
X110499952Y-105919141D01*
X110660856Y-106080045D01*
X110660859Y-106080047D01*
X110847264Y-106210568D01*
X111053502Y-106306739D01*
X111273306Y-106365635D01*
X111429109Y-106379266D01*
X111499996Y-106385468D01*
X111499998Y-106385468D01*
X111500000Y-106385468D01*
X111556671Y-106380509D01*
X111726690Y-106365635D01*
X111946494Y-106306739D01*
X112152732Y-106210568D01*
X112200340Y-106177231D01*
X112223998Y-106164253D01*
X112296286Y-106134311D01*
X112398733Y-106065858D01*
X112485858Y-105978733D01*
X112554311Y-105876286D01*
X112584254Y-105803996D01*
X112597234Y-105780335D01*
X112630566Y-105732734D01*
X112726737Y-105526496D01*
X112785633Y-105306692D01*
X112805466Y-105080000D01*
X112804422Y-105068072D01*
X112792028Y-104926401D01*
X112785633Y-104853308D01*
X112738954Y-104679098D01*
X112726739Y-104633511D01*
X112726736Y-104633502D01*
X112712140Y-104602201D01*
X112630566Y-104427266D01*
X112500045Y-104240861D01*
X112500043Y-104240858D01*
X112339138Y-104079953D01*
X112178375Y-103967386D01*
X112134750Y-103912809D01*
X112125498Y-103865811D01*
X112125498Y-100749500D01*
X112145183Y-100682461D01*
X112197987Y-100636706D01*
X112249498Y-100625500D01*
X116229681Y-100625500D01*
X116296720Y-100645185D01*
X116336951Y-100688560D01*
X116337145Y-100688434D01*
X116337884Y-100689565D01*
X116338737Y-100690485D01*
X116339952Y-100692731D01*
X116471427Y-100893966D01*
X116471429Y-100893969D01*
X116634236Y-101070825D01*
X116634239Y-101070827D01*
X116634242Y-101070830D01*
X116823924Y-101218466D01*
X116823930Y-101218470D01*
X116823933Y-101218472D01*
X116997399Y-101312347D01*
X117014365Y-101321529D01*
X117035344Y-101332882D01*
X117035347Y-101332883D01*
X117262699Y-101410933D01*
X117262701Y-101410933D01*
X117262703Y-101410934D01*
X117499808Y-101450500D01*
X117499809Y-101450500D01*
X117740191Y-101450500D01*
X117740192Y-101450500D01*
X117977297Y-101410934D01*
X118204656Y-101332882D01*
X118416067Y-101218472D01*
X118605764Y-101070825D01*
X118768571Y-100893969D01*
X118900049Y-100692728D01*
X118996610Y-100472591D01*
X119055620Y-100239563D01*
X119066013Y-100114139D01*
X119075471Y-100000005D01*
X119075471Y-99999994D01*
X119055620Y-99760440D01*
X119055620Y-99760437D01*
X118996610Y-99527409D01*
X118900049Y-99307272D01*
X118900046Y-99307268D01*
X118834310Y-99206651D01*
X118768571Y-99106031D01*
X118605764Y-98929175D01*
X118605759Y-98929171D01*
X118605757Y-98929169D01*
X118416075Y-98781533D01*
X118416069Y-98781529D01*
X118204657Y-98667118D01*
X118204652Y-98667116D01*
X117977300Y-98589066D01*
X117799468Y-98559391D01*
X117740192Y-98549500D01*
X117499808Y-98549500D01*
X117452387Y-98557413D01*
X117262699Y-98589066D01*
X117035347Y-98667116D01*
X117035342Y-98667118D01*
X116823930Y-98781529D01*
X116823924Y-98781533D01*
X116634242Y-98929169D01*
X116634239Y-98929172D01*
X116471430Y-99106029D01*
X116471427Y-99106033D01*
X116339952Y-99307268D01*
X116338737Y-99309515D01*
X116337999Y-99310258D01*
X116337145Y-99311566D01*
X116336875Y-99311390D01*
X116289518Y-99359107D01*
X116229681Y-99374500D01*
X111438389Y-99374500D01*
X111317555Y-99398535D01*
X111317545Y-99398538D01*
X111203716Y-99445687D01*
X111203707Y-99445692D01*
X111101267Y-99514141D01*
X111101263Y-99514144D01*
X111014144Y-99601263D01*
X111014141Y-99601267D01*
X110945692Y-99703707D01*
X110945687Y-99703716D01*
X110898538Y-99817545D01*
X110898535Y-99817555D01*
X110874500Y-99938389D01*
X110874500Y-100428387D01*
X110874498Y-100428413D01*
X110874498Y-103865811D01*
X110854813Y-103932850D01*
X110821621Y-103967386D01*
X110660857Y-104079953D01*
X110499952Y-104240858D01*
X110369430Y-104427265D01*
X110369429Y-104427267D01*
X110273259Y-104633502D01*
X110273256Y-104633511D01*
X110214364Y-104853302D01*
X110214362Y-104853313D01*
X110194530Y-105079998D01*
X110194530Y-105080001D01*
X109225500Y-105080001D01*
X109225500Y-100538393D01*
X109225499Y-100538389D01*
X109212411Y-100472589D01*
X109201463Y-100417548D01*
X109174256Y-100351865D01*
X109154312Y-100303715D01*
X109137256Y-100278190D01*
X109085858Y-100201267D01*
X109085856Y-100201264D01*
X108995637Y-100111045D01*
X108995606Y-100111016D01*
X108290198Y-99405608D01*
X108290178Y-99405586D01*
X108198733Y-99314141D01*
X108147509Y-99279915D01*
X108096287Y-99245689D01*
X108096286Y-99245688D01*
X108096283Y-99245686D01*
X108096280Y-99245685D01*
X108015792Y-99212347D01*
X107982453Y-99198537D01*
X107972427Y-99196543D01*
X107922029Y-99186518D01*
X107861610Y-99174500D01*
X107861607Y-99174500D01*
X107861606Y-99174500D01*
X104352090Y-99174500D01*
X104285051Y-99154815D01*
X104239296Y-99102011D01*
X104228093Y-99051362D01*
X104217031Y-97460005D01*
X118704529Y-97460005D01*
X118724379Y-97699559D01*
X118783389Y-97932589D01*
X118879951Y-98152729D01*
X119011427Y-98353966D01*
X119011429Y-98353969D01*
X119174236Y-98530825D01*
X119174239Y-98530827D01*
X119174242Y-98530830D01*
X119363924Y-98678466D01*
X119363930Y-98678470D01*
X119363933Y-98678472D01*
X119537399Y-98772347D01*
X119554365Y-98781529D01*
X119575344Y-98792882D01*
X119575347Y-98792883D01*
X119802699Y-98870933D01*
X119802701Y-98870933D01*
X119802703Y-98870934D01*
X120039808Y-98910500D01*
X120039809Y-98910500D01*
X120280191Y-98910500D01*
X120280192Y-98910500D01*
X120517297Y-98870934D01*
X120744656Y-98792882D01*
X120956067Y-98678472D01*
X121145764Y-98530825D01*
X121308571Y-98353969D01*
X121440049Y-98152728D01*
X121536610Y-97932591D01*
X121595620Y-97699563D01*
X121615471Y-97460000D01*
X121595620Y-97220437D01*
X121536610Y-96987409D01*
X121440049Y-96767272D01*
X121308571Y-96566031D01*
X121145764Y-96389175D01*
X121145759Y-96389171D01*
X121145757Y-96389169D01*
X120956075Y-96241533D01*
X120956069Y-96241529D01*
X120744657Y-96127118D01*
X120744652Y-96127116D01*
X120517300Y-96049066D01*
X120339468Y-96019391D01*
X120280192Y-96009500D01*
X120039808Y-96009500D01*
X119992387Y-96017413D01*
X119802699Y-96049066D01*
X119575347Y-96127116D01*
X119575342Y-96127118D01*
X119363930Y-96241529D01*
X119363924Y-96241533D01*
X119174242Y-96389169D01*
X119174239Y-96389172D01*
X119011430Y-96566029D01*
X119011427Y-96566033D01*
X118879951Y-96767270D01*
X118783389Y-96987410D01*
X118724379Y-97220440D01*
X118704529Y-97459994D01*
X118704529Y-97460005D01*
X104217031Y-97460005D01*
X104203579Y-95524862D01*
X104222797Y-95457687D01*
X104275282Y-95411566D01*
X104327576Y-95400000D01*
X104500015Y-95400000D01*
X104551275Y-95398564D01*
X104578623Y-95397799D01*
X104731927Y-95362809D01*
X104873601Y-95294582D01*
X104996541Y-95196541D01*
X105094582Y-95073601D01*
X105162809Y-94931927D01*
X105197799Y-94778623D01*
X105199854Y-94705228D01*
X105200000Y-94700015D01*
X105200000Y-94699984D01*
X105197799Y-94621384D01*
X105197799Y-94621377D01*
X105170021Y-94499671D01*
X105162809Y-94468072D01*
X105094583Y-94326401D01*
X105094582Y-94326400D01*
X105094582Y-94326399D01*
X104996541Y-94203459D01*
X104873601Y-94105418D01*
X104873599Y-94105417D01*
X104873598Y-94105416D01*
X104731927Y-94037190D01*
X104578625Y-94002201D01*
X104578615Y-94002200D01*
X104500015Y-94000000D01*
X104500000Y-94000000D01*
X100253026Y-94000000D01*
X100246986Y-93999853D01*
X100237667Y-93999398D01*
X100222260Y-93998647D01*
X100180850Y-93989355D01*
X100132533Y-93969342D01*
X100092305Y-93942462D01*
X100057537Y-93907694D01*
X100030657Y-93867466D01*
X100010642Y-93819145D01*
X100001352Y-93777737D01*
X100000147Y-93753010D01*
X100000000Y-93746974D01*
X100000000Y-91341352D01*
X100000041Y-91338159D01*
X100000371Y-91325342D01*
X100002406Y-91246341D01*
X100005074Y-91223767D01*
X100043585Y-91042625D01*
X100051596Y-91017975D01*
X100053062Y-91014682D01*
X100126273Y-90850266D01*
X100139232Y-90827825D01*
X100247139Y-90679315D01*
X100264485Y-90660052D01*
X100402126Y-90536127D01*
X100420298Y-90522557D01*
X100498688Y-90474528D01*
X100501352Y-90472943D01*
X115498734Y-81814199D01*
X115501260Y-81812781D01*
X115581963Y-81768764D01*
X115602995Y-81759704D01*
X115779082Y-81702490D01*
X115804422Y-81697103D01*
X115987037Y-81677910D01*
X116012953Y-81677910D01*
X116195565Y-81697103D01*
G37*
G04 #@! TD.AperFunction*
M02*
